<svg xmlns="http://www.w3.org/2000/svg" width="187.041" height="219.057" viewBox="0 0 187.041 219.057">
  <g id="Grupo_2065" data-name="Grupo 2065" transform="translate(-14.589 -659.095)">
    <g id="Grupo_2051" data-name="Grupo 2051">
      <g id="Grupo_2049" data-name="Grupo 2049">
        <g id="Grupo_2048" data-name="Grupo 2048">
          <g id="Grupo_2047" data-name="Grupo 2047">
            <path id="Trazado_1796" data-name="Trazado 1796" d="M53.671,768.884c0-.48-.066-.87-.147-.87H51.157c-.081,0-.147.39-.147.87v60.469c0,.481.066.871.147.871h2.367c.081,0,.147-.39.147-.871Z" fill="#3946a4"/>
          </g>
          <path id="Trazado_1797" data-name="Trazado 1797" d="M52.388,776.847c0-.48-.065-.87-.147-.87l-2.366,0c-.082,0-.148.389-.149.87l.308,45.881c0,.48.065.87.146.87l2.367,0c.081,0,.148-.389.148-.87Z" fill="#3946a4"/>
          <path id="Trazado_1798" data-name="Trazado 1798" d="M54.467,780.916c0-.415-.168-.753-.377-.753l-6.075-.008c-.208,0-.378.337-.379.753l.318,37.747c0,.417.169.754.377.754l6.075.008c.209,0,.378-.336.379-.752Z" fill="#e5e5e5"/>
          <path id="Trazado_1799" data-name="Trazado 1799" d="M55.547,785.41a.5.5,0,0,0-.5-.5l-7.98-.011a.5.5,0,0,0-.5.5l.3,28.764a.5.5,0,0,0,.5.5l7.98.011a.5.5,0,0,0,.5-.5Z" fill="#c6c6c6"/>
          <path id="Rectángulo_491" data-name="Rectángulo 491" d="M.5,0H20.44a.5.5,0,0,1,.5.5V12.14a.5.5,0,0,1-.5.5H.5a.5.5,0,0,1-.5-.5V.5A.5.5,0,0,1,.5,0Z" transform="translate(44.879 810.246) rotate(-89.926)" fill="#a0a0a0"/>
        </g>
        <path id="Trazado_1800" data-name="Trazado 1800" d="M55.616,769.152a2.237,2.237,0,0,0-.815-3.057L41.137,758.18a2.237,2.237,0,0,0-3.057.814h0a2.237,2.237,0,0,0,.814,3.057l13.665,7.915a2.237,2.237,0,0,0,3.057-.814Z" fill="#3946a4"/>
        <path id="Trazado_1801" data-name="Trazado 1801" d="M52.644,821.776a2.236,2.236,0,0,0-3.163-.008L38.288,832.907a2.237,2.237,0,0,0-.009,3.163h0a2.237,2.237,0,0,0,3.164.008L52.635,824.94a2.238,2.238,0,0,0,.009-3.164Z" fill="#3946a4"/>
      </g>
      <g id="Grupo_2050" data-name="Grupo 2050">
        <rect id="Rectángulo_492" data-name="Rectángulo 492" width="11.967" height="76.708" transform="translate(32.735 753.294)" fill="#5568f5"/>
        <rect id="Rectángulo_493" data-name="Rectángulo 493" width="8.413" height="61.763" transform="translate(34.903 769.119)" fill="#3946a4"/>
        <path id="Trazado_1802" data-name="Trazado 1802" d="M33.009,659.095c-3.1,0-5.619,1.714-5.619,3.828V764.039c0,2.114,2.515,3.828,5.619,3.828h12.2c3.1,0,5.62-1.714,5.62-3.828V662.923c0-2.115-2.515-3.828-5.619-3.828Z" fill="#5568f5"/>
        <rect id="Rectángulo_494" data-name="Rectángulo 494" width="48.054" height="9.74" rx="2.335" transform="translate(14.589 727.313)" fill="#3946a4"/>
      </g>
    </g>
    <path id="Trazado_1803" data-name="Trazado 1803" d="M31.608,835.351a7,7,0,1,0,7-7A7,7,0,0,0,31.608,835.351Z" fill="#204051"/>
    <path id="Trazado_1804" data-name="Trazado 1804" d="M35.345,835.351a3.262,3.262,0,1,0,3.263-3.262A3.263,3.263,0,0,0,35.345,835.351Z" fill="#c6c6c6"/>
    <g id="Grupo_2056" data-name="Grupo 2056">
      <path id="Trazado_1805" data-name="Trazado 1805" d="M58.833,821.771a2.235,2.235,0,0,0-3.107-.594L41.2,831.508a2.237,2.237,0,0,0-.594,3.107h0a2.237,2.237,0,0,0,3.107.594l14.525-10.331a2.237,2.237,0,0,0,.594-3.107Z" fill="#3946a4"/>
      <g id="Grupo_2053" data-name="Grupo 2053">
        <rect id="Rectángulo_495" data-name="Rectángulo 495" width="121.912" height="8.412" transform="translate(43.71 831.278)" fill="#5568f5"/>
        <g id="Grupo_2052" data-name="Grupo 2052">
          <path id="Trazado_1806" data-name="Trazado 1806" d="M32.951,841.389a8.54,8.54,0,1,0,0-12.078A8.539,8.539,0,0,0,32.951,841.389Z" fill="#d6dbff"/>
          <path id="Trazado_1807" data-name="Trazado 1807" d="M34.041,840.3a7,7,0,1,0,0-9.9A7,7,0,0,0,34.041,840.3Z" fill="#3946a4"/>
          <path id="Trazado_1808" data-name="Trazado 1808" d="M36.683,837.657a3.263,3.263,0,1,0,0-4.614A3.263,3.263,0,0,0,36.683,837.657Z" fill="#d6dbff"/>
        </g>
      </g>
      <g id="Grupo_2055" data-name="Grupo 2055">
        <g id="Grupo_2054" data-name="Grupo 2054">
          <path id="Trazado_1809" data-name="Trazado 1809" d="M152.733,824.893c.016,0,.03-.06.03-.134V822.6c0-.074-.014-.134-.03-.134H149.29c-.016,0-.03.06-.03.134v2.155c0,.074.014.134.03.134Z" fill="#3946a4"/>
        </g>
        <path id="Trazado_1810" data-name="Trazado 1810" d="M56.485,826.953c-.416,0-.753-.169-.753-.378V820.5c0-.208.337-.378.753-.378H76.462v6.831Z" fill="#e5e5e5"/>
        <path id="Trazado_1811" data-name="Trazado 1811" d="M148.443,826.953h-9.9v-6.831h9.9c.416,0,.753.17.753.379v6.074C149.2,826.784,148.859,826.953,148.443,826.953Z" fill="#e5e5e5"/>
        <path id="Trazado_1812" data-name="Trazado 1812" d="M138.539,827.528a.5.5,0,0,1-.5.5H118.108v-8.973h19.935a.5.5,0,0,1,.5.5v7.98Z" fill="#c6c6c6"/>
        <path id="Trazado_1813" data-name="Trazado 1813" d="M90.57,828.024H76.959a.5.5,0,0,1-.5-.5v-7.98a.5.5,0,0,1,.5-.5H90.57Z" fill="#c6c6c6"/>
        <path id="Trazado_1814" data-name="Trazado 1814" d="M118.108,828.024v1.271a.5.5,0,0,1-.5.5H91.067a.5.5,0,0,1-.5-.5V817.652a.5.5,0,0,1,.5-.5h26.544a.5.5,0,0,1,.5.5v10.372Z" fill="#a0a0a0"/>
      </g>
    </g>
    <g id="Grupo_2064" data-name="Grupo 2064">
      <g id="Grupo_2057" data-name="Grupo 2057">
        <path id="Trazado_1815" data-name="Trazado 1815" d="M150.32,847.727a2.238,2.238,0,0,1,.459-3.13l12.666-9.429a2.236,2.236,0,0,1,3.13.458h0a2.235,2.235,0,0,1-.458,3.129l-12.666,9.43a2.238,2.238,0,0,1-3.131-.458Z" fill="#3946a4"/>
        <path id="Trazado_1816" data-name="Trazado 1816" d="M181.112,840.309l-4.505-6.083a7.977,7.977,0,0,0-11.159-1.662l-5.461,4.044a7.978,7.978,0,0,0-1.663,11.159l4.506,6.083Z" fill="#3946a4"/>
        <path id="Trazado_1817" data-name="Trazado 1817" d="M159.3,829.8a8.541,8.541,0,1,1-1.78,11.947A8.54,8.54,0,0,1,159.3,829.8Z" fill="#d6dbff"/>
        <path id="Trazado_1818" data-name="Trazado 1818" d="M160.219,831.041a7,7,0,1,1-1.459,9.792A7,7,0,0,1,160.219,831.041Z" fill="#3946a4"/>
        <path id="Trazado_1819" data-name="Trazado 1819" d="M162.443,834.044a3.263,3.263,0,1,1-.679,4.564A3.263,3.263,0,0,1,162.443,834.044Z" fill="#c6c6c6"/>
      </g>
      <g id="Grupo_2058" data-name="Grupo 2058">
        <path id="Trazado_1820" data-name="Trazado 1820" d="M167.878,868.247l-16.121-2.4,9.261-6.86Z" fill="#3946a4"/>
        <path id="Trazado_1821" data-name="Trazado 1821" d="M193.521,849.254l2.4-16.121-9.261,6.86Z" fill="#3946a4"/>
        <path id="Trazado_1822" data-name="Trazado 1822" d="M159.63,858.651l16.467,19.5c0,.05,6.064-.812,6.19-.845l-18.249-21.918Z" fill="#3946a4"/>
        <path id="Trazado_1823" data-name="Trazado 1823" d="M182.311,841.851,195.332,859.3c0,.01,6.3,0,6.3,0l-14.91-20.714Z" fill="#3946a4"/>
        <path id="Trazado_1824" data-name="Trazado 1824" d="M196.36,830.429a3.241,3.241,0,0,1-.675,4.533l-42.272,31.311a3.24,3.24,0,0,1-4.533-.676h0a3.24,3.24,0,0,1,.675-4.533l42.272-31.31a3.24,3.24,0,0,1,4.533.675Z" fill="#3946a4"/>
      </g>
      <g id="Grupo_2063" data-name="Grupo 2063">
        <g id="Grupo_2059" data-name="Grupo 2059">
          <path id="Trazado_1825" data-name="Trazado 1825" d="M167.737,861.438c-.152.112-.29.183-.31.157l-.554-.748c-.019-.026.089-.138.241-.251l19.115-14.157c.152-.113.29-.184.309-.158l.554.748c.019.026-.088.138-.24.251Z" fill="#3c5a72"/>
        </g>
        <g id="Grupo_2060" data-name="Grupo 2060">
          <path id="Trazado_1826" data-name="Trazado 1826" d="M169.51,861.145c-.131.1-.277.122-.326.056l-1.422-1.92c-.049-.066.018-.2.149-.3l16.544-12.253c.132-.1.278-.123.327-.057l1.422,1.92c.049.066-.018.2-.15.3Z" fill="#e5e5e5"/>
        </g>
        <g id="Grupo_2061" data-name="Grupo 2061">
          <rect id="Rectángulo_496" data-name="Rectángulo 496" width="12.864" height="3.53" rx="0.195" transform="matrix(0.804, -0.595, 0.595, 0.804, 170.791, 856.328)" fill="#c6c6c6"/>
        </g>
        <g id="Grupo_2062" data-name="Grupo 2062">
          <rect id="Rectángulo_497" data-name="Rectángulo 497" width="7.498" height="4.971" rx="0.195" transform="translate(172.533 854.109) rotate(-36.527)" fill="#a0a0a0"/>
        </g>
      </g>
    </g>
  </g>
</svg>
