<svg xmlns="http://www.w3.org/2000/svg" xmlns:xlink="http://www.w3.org/1999/xlink" width="400.485" height="1015.173" viewBox="0 0 400.485 1015.173">
  <defs>
    <radialGradient id="radial-gradient" cx="0.5" cy="0.5" r="0.476" gradientUnits="objectBoundingBox">
      <stop offset="0" stop-color="#e5e5e5"/>
      <stop offset="0.527" stop-color="#e5e5e5" stop-opacity="0.961"/>
      <stop offset="0.882" stop-color="#e5e5e5" stop-opacity="0.027"/>
      <stop offset="1" stop-color="#e5e5e5" stop-opacity="0"/>
    </radialGradient>
  </defs>
  <g id="Grupo_2223" data-name="Grupo 2223" transform="translate(-891.923 -3024.453)">
    <g id="Grupo_2194" data-name="Grupo 2194" transform="translate(-25)">
      <ellipse id="Elipse_138" data-name="Elipse 138" cx="199.313" cy="23.087" rx="199.313" ry="23.087" transform="translate(918.781 3993.453)" fill="url(#radial-gradient)" style="mix-blend-mode: multiply;isolation: isolate"/>
      <g id="Grupo_2138" data-name="Grupo 2138">
        <path id="Trazado_2631" data-name="Trazado 2631" d="M980.7,3922.589s51.319,6.374,84.641,6.374,114.569-8.228,114.569-8.228l-116.7-39.693Z" fill="#ccc"/>
        <path id="Trazado_2632" data-name="Trazado 2632" d="M1065.345,3930.463c-33.033,0-84.312-6.322-84.826-6.386a1.5,1.5,0,0,1-.49-2.828l82.513-41.546a1.486,1.486,0,0,1,1.158-.08l116.7,39.692a1.5,1.5,0,0,1-.332,2.912C1179.252,3922.31,1098.362,3930.463,1065.345,3930.463Zm-79.511-8.778c13.663,1.574,52.677,5.778,79.511,5.778,27.2,0,87.176-5.573,107.518-7.541l-109.533-37.256Z" fill="#999"/>
      </g>
      <g id="Grupo_2144" data-name="Grupo 2144">
        <g id="Grupo_2140" data-name="Grupo 2140">
          <g id="Grupo_2139" data-name="Grupo 2139">
            <path id="Trazado_2633" data-name="Trazado 2633" d="M1014.874,3910.3c-2.536,6.847,25.106,72.527,25.106,72.527h42.1s24.6-65.426,24.6-73.034l-45.139-5.833Z" fill="#e5e5e5"/>
            <path id="Trazado_2634" data-name="Trazado 2634" d="M1083.114,3984.33h-44.13l-.387-.918c-4.654-11.06-27.739-66.583-25.129-73.63l.313-.844,47.749-6.487,46.644,6.026v1.319c0,7.659-22.167,66.839-24.695,73.562Zm-42.138-3h40.061c6.679-17.81,22.327-60.663,23.992-70.234l-43.489-5.62-45.377,6.167C1016.063,3918.311,1028.465,3951.524,1040.976,3981.33Z" fill="#999"/>
          </g>
          <path id="Trazado_2635" data-name="Trazado 2635" d="M1060.726,3950.85c-15.491,0-35.468-3.031-35.668-3.062l.454-2.965c.2.03,19.955,3.027,35.214,3.027,13.1,0,33.7-2.1,33.908-2.117l.3,2.985C1094.731,3948.739,1073.981,3950.85,1060.726,3950.85Z" fill="#999"/>
        </g>
        <g id="Grupo_2143" data-name="Grupo 2143">
          <g id="Grupo_2141" data-name="Grupo 2141">
            <path id="Trazado_2636" data-name="Trazado 2636" d="M1029,4005.246l-5.091,11.047a3.974,3.974,0,0,0,1.85,4.46c3.883,2.209,13.176,5.553,33.85,5.553,20.276,0,30.79-3.16,35.618-5.329a4,4,0,0,0,2.019-5.291l-4.673-10.44Z" fill="#62cbc9"/>
            <path id="Trazado_2637" data-name="Trazado 2637" d="M1059.613,4027.807c-20.236,0-29.98-3.127-34.592-5.75a5.479,5.479,0,0,1-2.56-6.141l.089-.251,5.494-11.919h65.505l5.07,11.326a5.517,5.517,0,0,1-2.773,7.274C1090.3,4024.837,1079.512,4027.807,1059.613,4027.807Zm-34.276-11.022a2.47,2.47,0,0,0,1.168,2.664c3.517,2,12.5,5.358,33.108,5.358,20.389,0,30.682-3.256,35-5.2a2.511,2.511,0,0,0,1.264-3.311l-4.276-9.552h-61.64Z" fill="#999"/>
          </g>
          <g id="Grupo_2142" data-name="Grupo 2142">
            <path id="Trazado_2638" data-name="Trazado 2638" d="M1083.691,4012.331h-45.079a12.55,12.55,0,0,1-12.55-12.55h0c0-15.868,13.717-31.14,29.585-31.14h12.715c15.868,0,27.879,15.272,27.879,31.14h0A12.55,12.55,0,0,1,1083.691,4012.331Z" fill="gray"/>
            <path id="Trazado_2639" data-name="Trazado 2639" d="M1083.691,4013.831h-45.079a14.066,14.066,0,0,1-14.05-14.05c0-17.082,14.816-32.64,31.085-32.64h12.715c17.573,0,29.379,16.877,29.379,32.64A14.066,14.066,0,0,1,1083.691,4013.831Zm-28.044-43.69c-14.7,0-28.085,14.127-28.085,29.64a11.063,11.063,0,0,0,11.05,11.05h45.079a11.062,11.062,0,0,0,11.05-11.05c0-14.313-10.6-29.64-26.379-29.64Z" fill="#999"/>
          </g>
          <path id="Trazado_2640" data-name="Trazado 2640" d="M1084.245,3994.029c3.505-2.881-2.263-19.93-20.245-18.489-10.522.844,4.581,4.411,9.839,8.059C1077.195,3985.926,1080.739,3996.911,1084.245,3994.029Z" fill="#fff"/>
        </g>
      </g>
      <g id="Grupo_2151" data-name="Grupo 2151">
        <g id="Grupo_2146" data-name="Grupo 2146">
          <g id="Grupo_2145" data-name="Grupo 2145">
            <path id="Trazado_2641" data-name="Trazado 2641" d="M1136.318,3898.219c-2.095,6.994,29.673,70.78,29.673,70.78l42.01-2.681s20.382-66.859,19.9-74.452l-45.419-2.946Z" fill="#e5e5e5"/>
            <path id="Trazado_2642" data-name="Trazado 2642" d="M1165.093,3970.559l-.445-.891c-5.349-10.74-31.923-64.682-29.767-71.88l.258-.862,47.24-9.516,46.933,3.045.084,1.315c.487,7.645-17.865,68.116-19.96,74.986l-.3.993Zm-27.4-71.086c.324,6.662,14.815,39.017,29.2,67.965l39.979-2.55c5.532-18.2,18.419-61.961,19.472-71.62l-43.76-2.838Z" fill="#999"/>
          </g>
          <path id="Trazado_2643" data-name="Trazado 2643" d="M1174.072,3936.064c-12.745,0-25.046-1.071-25.2-1.085l.264-2.988c.2.018,20.109,1.752,35.336.778,13.077-.835,33.5-4.237,33.7-4.271l.495,2.959c-.206.034-20.78,3.462-34.008,4.307C1181.268,3935.979,1177.652,3936.064,1174.072,3936.064Z" fill="#999"/>
        </g>
        <g id="Grupo_2150" data-name="Grupo 2150">
          <g id="Grupo_2149" data-name="Grupo 2149">
            <g id="Grupo_2147" data-name="Grupo 2147">
              <path id="Trazado_2644" data-name="Trazado 2644" d="M1154.695,3990.6l-5.091,11.046a3.976,3.976,0,0,0,1.85,4.461c3.884,2.209,13.177,5.553,33.851,5.553,20.276,0,30.789-3.16,35.618-5.329a4,4,0,0,0,2.019-5.291l-4.673-10.44Z" fill="#62cbc9"/>
              <path id="Trazado_2645" data-name="Trazado 2645" d="M1185.305,4013.162c-20.238,0-29.982-3.126-34.592-5.749a5.48,5.48,0,0,1-2.561-6.142l.09-.251,5.493-11.918h65.506l5.07,11.327a5.515,5.515,0,0,1-2.773,7.272C1215.991,4010.192,1205.2,4013.162,1185.305,4013.162Zm-34.276-11.022a2.472,2.472,0,0,0,1.167,2.666c3.517,2,12.495,5.356,33.109,5.356,20.388,0,30.682-3.256,35-5.2a2.512,2.512,0,0,0,1.265-3.311l-4.277-9.552h-61.64Z" fill="#999"/>
            </g>
            <g id="Grupo_2148" data-name="Grupo 2148">
              <path id="Trazado_2646" data-name="Trazado 2646" d="M1209.382,3997.687H1164.3a12.55,12.55,0,0,1-12.55-12.55h0c0-15.868,13.717-31.14,29.585-31.14h12.716c15.868,0,27.878,15.272,27.878,31.14h0A12.55,12.55,0,0,1,1209.382,3997.687Z" fill="gray"/>
              <path id="Trazado_2647" data-name="Trazado 2647" d="M1209.382,3999.187H1164.3a14.065,14.065,0,0,1-14.05-14.049c0-17.083,14.817-32.641,31.085-32.641h12.716c17.573,0,29.378,16.877,29.378,32.641A14.065,14.065,0,0,1,1209.382,3999.187Zm-28.044-43.69c-14.7,0-28.085,14.128-28.085,29.641a11.062,11.062,0,0,0,11.05,11.049h45.079a11.062,11.062,0,0,0,11.05-11.049c0-14.315-10.6-29.641-26.378-29.641Z" fill="#999"/>
            </g>
          </g>
          <path id="Trazado_2648" data-name="Trazado 2648" d="M1209.936,3979.385c3.506-2.882-2.262-19.931-20.244-18.489-10.523.844,4.58,4.411,9.839,8.058C1202.886,3971.282,1206.431,3982.267,1209.936,3979.385Z" fill="#fff"/>
        </g>
      </g>
      <g id="Grupo_2157" data-name="Grupo 2157">
        <g id="Grupo_2152" data-name="Grupo 2152">
          <path id="Trazado_2649" data-name="Trazado 2649" d="M1255.951,3908.871c6.018-18.3-6.964-77.081-35.7-123.374-35.088-56.52-22.646-221-110.067-221s-65.984,156.361-100.552,212.887c-28.428,46.484-45.836,128.295-28.926,145.205,0,0,39.168-15.264,85.242-15.264s86.81,13.4,120.631,13.4S1255.951,3908.871,1255.951,3908.871Z" fill="#fff"/>
          <path id="Trazado_2650" data-name="Trazado 2650" d="M980.336,3924.342l-.693-.693c-18.341-18.342,1.157-102,28.707-147.048,11.941-19.525,17.107-51.073,22.576-84.473,5.076-31,10.325-63.057,21.483-87.485,12.8-28.024,31.7-41.646,57.773-41.646,58.71,0,73.363,72.832,86.291,137.09,6.776,33.679,13.176,65.492,25.05,84.619,27.826,44.823,42.366,104.833,35.852,124.634l-.235.716-.715.238c-.358.119-36.174,11.932-69.848,11.932-15.73,0-33.021-2.888-51.327-5.947-21.933-3.665-44.614-7.454-69.3-7.454-45.268,0-84.308,15.01-84.7,15.161ZM1110.182,3566c-55.563,0-66.1,64.367-76.3,126.615-5.519,33.7-10.73,65.528-22.978,85.554-28.357,46.371-44.643,125.2-29.786,142.666,6.336-2.317,42.969-15.007,84.823-15.007,24.939,0,48.772,3.982,69.8,7.5,18.18,3.037,35.352,5.906,50.833,5.906,30.537,0,62.929-9.877,68.168-11.543,5.016-17.728-6.426-74.125-35.771-121.4-12.159-19.587-18.611-51.656-25.442-85.609-6.546-32.535-13.314-66.176-25.624-91.881C1154.116,3580,1135.234,3566,1110.182,3566Z" fill="#999"/>
        </g>
        <g id="Grupo_2153" data-name="Grupo 2153">
          <path id="Trazado_2651" data-name="Trazado 2651" d="M1003.022,3914.838s-12.508-24.611.4-54.065" fill="#fff"/>
          <path id="Trazado_2652" data-name="Trazado 2652" d="M1003.022,3914.838a47.39,47.39,0,0,1-2.673-6.43,68.909,68.909,0,0,1-1.8-6.744,64.14,64.14,0,0,1-1.372-13.89,65.44,65.44,0,0,1,3.6-20.561,32.652,32.652,0,0,1,1.276-3.242l1.372-3.2a84.047,84.047,0,0,0-3.919,13.288,67.132,67.132,0,0,0-1.454,13.72,68.28,68.28,0,0,0,1.155,13.755A64.179,64.179,0,0,0,1003.022,3914.838Z" fill="#999"/>
        </g>
        <g id="Grupo_2154" data-name="Grupo 2154">
          <path id="Trazado_2653" data-name="Trazado 2653" d="M1029.651,3910s-12.508-24.612.4-54.065" fill="#fff"/>
          <path id="Trazado_2654" data-name="Trazado 2654" d="M1029.651,3910a47.4,47.4,0,0,1-2.673-6.431,68.929,68.929,0,0,1-1.8-6.743,64.206,64.206,0,0,1-1.372-13.891,65.489,65.489,0,0,1,3.6-20.561,32.88,32.88,0,0,1,1.277-3.242l1.372-3.2a84.043,84.043,0,0,0-3.919,13.287,67.138,67.138,0,0,0-1.454,13.721,68.2,68.2,0,0,0,1.155,13.754A64.209,64.209,0,0,0,1029.651,3910Z" fill="#999"/>
        </g>
        <g id="Grupo_2155" data-name="Grupo 2155">
          <path id="Trazado_2655" data-name="Trazado 2655" d="M1189.229,3920.083s12.507-24.611-.4-54.064" fill="#fff"/>
          <path id="Trazado_2656" data-name="Trazado 2656" d="M1189.229,3920.083a64.116,64.116,0,0,0,3.814-13.3,68.2,68.2,0,0,0,1.156-13.754,67.138,67.138,0,0,0-1.454-13.721,84.056,84.056,0,0,0-3.92-13.288l1.373,3.2a33.234,33.234,0,0,1,1.276,3.242,65.44,65.44,0,0,1,3.6,20.561,64.2,64.2,0,0,1-1.372,13.89,69.487,69.487,0,0,1-1.8,6.744A47.528,47.528,0,0,1,1189.229,3920.083Z" fill="#999"/>
        </g>
        <g id="Grupo_2156" data-name="Grupo 2156">
          <path id="Trazado_2657" data-name="Trazado 2657" d="M1219.489,3918.066s12.507-24.612-.4-54.065" fill="#fff"/>
          <path id="Trazado_2658" data-name="Trazado 2658" d="M1219.489,3918.066a64.17,64.17,0,0,0,3.815-13.3,68.256,68.256,0,0,0,1.155-13.754,67.148,67.148,0,0,0-1.454-13.721,83.955,83.955,0,0,0-3.92-13.287l1.373,3.2a33.252,33.252,0,0,1,1.276,3.243,65.44,65.44,0,0,1,3.6,20.56,64.214,64.214,0,0,1-1.372,13.891,69.2,69.2,0,0,1-1.8,6.743A47.415,47.415,0,0,1,1219.489,3918.066Z" fill="#999"/>
        </g>
      </g>
      <g id="Grupo_2181" data-name="Grupo 2181">
        <g id="Grupo_2162" data-name="Grupo 2162">
          <g id="Grupo_2158" data-name="Grupo 2158">
            <rect id="Rectángulo_498" data-name="Rectángulo 498" width="191.847" height="190.605" transform="translate(1057.537 3606.479)" fill="#b2b2b2"/>
            <path id="Trazado_2659" data-name="Trazado 2659" d="M1250.884,3798.583H1056.037v-193.6h194.847Zm-191.847-3h188.847v-187.6H1059.037Z" fill="#999"/>
          </g>
          <g id="Grupo_2159" data-name="Grupo 2159">
            <path id="Trazado_2660" data-name="Trazado 2660" d="M1249.414,3797.333l-86.982,36.19V3639.876l86.982-33.015Z" fill="#e5e5e5"/>
            <path id="Trazado_2661" data-name="Trazado 2661" d="M1160.931,3835.772V3638.841l89.983-34.154v193.647l-.924.384Zm3-194.861v190.363l83.983-34.942v-187.3Z" fill="#999"/>
          </g>
          <g id="Grupo_2160" data-name="Grupo 2160">
            <path id="Trazado_2662" data-name="Trazado 2662" d="M1057.647,3797.2l-90.5,36.19V3639.746L1057,3606.558a.371.371,0,0,1,.5.348Z" fill="#e5e5e5"/>
            <path id="Trazado_2663" data-name="Trazado 2663" d="M965.651,3835.608V3638.7l90.833-33.55a1.872,1.872,0,0,1,2.519,1.755l.145,191.313Zm3-194.817v190.386l87.495-34.99-.141-187.661Zm88.874-32.826h0Z" fill="#999"/>
          </g>
          <g id="Grupo_2161" data-name="Grupo 2161">
            <rect id="Rectángulo_499" data-name="Rectángulo 499" width="194.917" height="193.647" transform="translate(966.988 3639.746)" fill="#fff"/>
            <path id="Trazado_2664" data-name="Trazado 2664" d="M1163.4,3834.893H965.488V3638.246H1163.4Zm-194.916-3H1160.4V3641.246H968.488Z" fill="#999"/>
          </g>
        </g>
        <g id="Grupo_2167" data-name="Grupo 2167">
          <g id="Grupo_2163" data-name="Grupo 2163">
            <rect id="Rectángulo_500" data-name="Rectángulo 500" width="191.847" height="190.605" transform="translate(1008.972 3413.349)" fill="#b2b2b2"/>
            <path id="Trazado_2665" data-name="Trazado 2665" d="M1202.32,3605.454H1007.472v-193.6H1202.32Zm-191.848-3H1199.32v-187.6H1010.472Z" fill="#999"/>
          </g>
          <g id="Grupo_2164" data-name="Grupo 2164">
            <path id="Trazado_2666" data-name="Trazado 2666" d="M1200.849,3604.2l-86.982,36.19V3446.747l86.982-33.015Z" fill="#e5e5e5"/>
            <path id="Trazado_2667" data-name="Trazado 2667" d="M1112.367,3642.643V3445.712l89.982-34.154v193.647l-.924.384Zm3-194.861v190.362l83.982-34.941v-187.3Z" fill="#999"/>
          </g>
          <g id="Grupo_2165" data-name="Grupo 2165">
            <path id="Trazado_2668" data-name="Trazado 2668" d="M1009.082,3604.074l-90.495,36.19V3446.617l89.852-33.188a.372.372,0,0,1,.5.348Z" fill="#e5e5e5"/>
            <path id="Trazado_2669" data-name="Trazado 2669" d="M917.087,3642.479V3445.572l90.832-33.55a1.872,1.872,0,0,1,2.52,1.755l.144,191.313Zm3-194.817v190.386l87.494-34.99-.141-187.661Z" fill="#999"/>
          </g>
          <g id="Grupo_2166" data-name="Grupo 2166">
            <rect id="Rectángulo_501" data-name="Rectángulo 501" width="194.917" height="193.647" transform="translate(918.423 3446.617)" fill="#fff"/>
            <path id="Trazado_2670" data-name="Trazado 2670" d="M1114.84,3641.764H916.923V3445.117H1114.84Zm-194.917-3H1111.84V3448.117H919.923Z" fill="#999"/>
          </g>
        </g>
        <g id="Grupo_2172" data-name="Grupo 2172">
          <g id="Grupo_2168" data-name="Grupo 2168">
            <rect id="Rectángulo_502" data-name="Rectángulo 502" width="191.847" height="190.605" transform="translate(1076.737 3220.22)" fill="#b2b2b2"/>
            <path id="Trazado_2671" data-name="Trazado 2671" d="M1270.084,3412.325H1075.237v-193.6h194.847Zm-191.847-3h188.847v-187.6H1078.237Z" fill="#999"/>
          </g>
          <g id="Grupo_2169" data-name="Grupo 2169">
            <path id="Trazado_2672" data-name="Trazado 2672" d="M1268.614,3411.075l-86.982,36.19V3253.618l86.982-33.015Z" fill="#e5e5e5"/>
            <path id="Trazado_2673" data-name="Trazado 2673" d="M1180.131,3449.514V3252.583l89.983-34.153v193.646Zm3-194.861v190.362l83.983-34.941v-187.3Z" fill="#999"/>
          </g>
          <g id="Grupo_2170" data-name="Grupo 2170">
            <path id="Trazado_2674" data-name="Trazado 2674" d="M1076.847,3410.945l-90.5,36.19V3253.488L1076.2,3220.3a.371.371,0,0,1,.5.348Z" fill="#e5e5e5"/>
            <path id="Trazado_2675" data-name="Trazado 2675" d="M984.851,3449.351V3252.443l90.833-33.55a1.872,1.872,0,0,1,2.52,1.752l.144,191.316Zm3-194.818v190.386l87.495-34.989-.141-187.662Z" fill="#999"/>
          </g>
          <g id="Grupo_2171" data-name="Grupo 2171">
            <rect id="Rectángulo_503" data-name="Rectángulo 503" width="194.916" height="193.647" transform="translate(986.188 3253.488)" fill="#fff"/>
            <path id="Trazado_2676" data-name="Trazado 2676" d="M1182.6,3448.635H984.688V3251.988H1182.6Zm-194.916-3H1179.6V3254.988H987.688Z" fill="#999"/>
          </g>
        </g>
        <g id="Grupo_2179" data-name="Grupo 2179">
          <g id="Grupo_2173" data-name="Grupo 2173">
            <rect id="Rectángulo_504" data-name="Rectángulo 504" width="191.847" height="190.605" transform="translate(1053.019 3026.244)" fill="#b2b2b2"/>
            <path id="Trazado_2677" data-name="Trazado 2677" d="M1246.367,3218.35H1051.519V3024.744h194.848Zm-191.848-3h188.848V3027.744H1054.519Z" fill="#999"/>
          </g>
          <g id="Grupo_2174" data-name="Grupo 2174">
            <path id="Trazado_2678" data-name="Trazado 2678" d="M1244.9,3217.1l-86.982,36.19V3059.642l86.982-33.015Z" fill="#e5e5e5"/>
            <path id="Trazado_2679" data-name="Trazado 2679" d="M1156.414,3255.538V3058.607l89.982-34.154V3218.1Zm3-194.86V3251.04L1243.4,3216.1V3028.8Z" fill="#999"/>
          </g>
          <g id="Grupo_2175" data-name="Grupo 2175">
            <path id="Trazado_2680" data-name="Trazado 2680" d="M1053.129,3216.969l-90.5,36.19V3059.512l89.851-33.188a.372.372,0,0,1,.5.348Z" fill="#e5e5e5"/>
            <path id="Trazado_2681" data-name="Trazado 2681" d="M961.134,3255.375V3058.468l90.832-33.551a1.871,1.871,0,0,1,2.52,1.756l.144,191.311Zm3-194.818v190.386l87.494-34.99-.141-187.661Zm88.873-32.827h0Z" fill="#999"/>
          </g>
          <g id="Grupo_2176" data-name="Grupo 2176">
            <rect id="Rectángulo_505" data-name="Rectángulo 505" width="194.916" height="193.647" transform="translate(962.47 3059.512)" fill="#fff"/>
            <path id="Trazado_2682" data-name="Trazado 2682" d="M1158.887,3254.659H960.97V3058.013h197.917Zm-194.917-3h191.917V3061.013H963.97Z" fill="#999"/>
          </g>
          <g id="Grupo_2177" data-name="Grupo 2177">
            <path id="Trazado_2683" data-name="Trazado 2683" d="M1155.854,3060.367l-43.114,71.857-185.93-1.8,35.928-70.959Z" fill="#fff"/>
            <path id="Trazado_2684" data-name="Trazado 2684" d="M1113.027,3132.736l-.292,0-186.751-1.8,36.442-71.973.315,0,194.011.9Zm-185.391-2.81,184.817,1.785,42.5-70.838-191.9-.893Z" fill="#333"/>
          </g>
          <g id="Grupo_2178" data-name="Grupo 2178">
            <path id="Trazado_2685" data-name="Trazado 2685" d="M1157.737,3059.828l52.994,60.18,80.839-49.4-47.307-44.438Z" fill="#fff"/>
            <path id="Trazado_2686" data-name="Trazado 2686" d="M1210.632,3120.667l-53.76-61.05,87.506-34.04.235.22,47.795,44.9-.571.35Zm-52.03-60.628,52.229,59.312,79.9-48.83-46.585-43.76Z" fill="#333"/>
          </g>
        </g>
        <g id="Grupo_2180" data-name="Grupo 2180">
          <line id="Línea_107" data-name="Línea 107" x1="27.414" transform="translate(1204.582 3234.124)" fill="#e5e5e5"/>
          <rect id="Rectángulo_506" data-name="Rectángulo 506" width="27.414" height="3" transform="translate(1204.581 3232.624)" fill="#999"/>
        </g>
      </g>
      <g id="Grupo_2187" data-name="Grupo 2187">
        <g id="Grupo_2182" data-name="Grupo 2182">
          <path id="Trazado_2687" data-name="Trazado 2687" d="M987.592,3833.179s7.463,24.935,40.587,23.967,39-23.793,39-23.793Z" fill="#62cbc9"/>
          <path id="Trazado_2688" data-name="Trazado 2688" d="M1026.336,3858.174c-31.935,0-39.627-24.457-39.7-24.708a1,1,0,0,1,.958-1.287h0l79.587.174a1,1,0,0,1,.966,1.249c-.06.236-6.45,23.565-39.939,24.544C1027.577,3858.164,1026.95,3858.174,1026.336,3858.174Zm-37.32-23.992c2.023,5.048,11.138,22.809,39.134,21.964,27.53-.8,35.818-17.112,37.634-21.8Z" fill="#999"/>
        </g>
        <g id="Grupo_2186" data-name="Grupo 2186">
          <g id="Grupo_2183" data-name="Grupo 2183">
            <path id="Trazado_2689" data-name="Trazado 2689" d="M1041.831,3813.424c5.493-4.119,13.911,3.478,15.07,13.447s-1.159,12.752-4.173,14.375-11.247,4.694-15.129-4.84S1034.412,3818.989,1041.831,3813.424Z" fill="#62cbc9"/>
            <path id="Trazado_2690" data-name="Trazado 2690" d="M1046.219,3844.038a9.7,9.7,0,0,1-3.293-.553c-2.74-.985-4.844-3.24-6.254-6.7-4.292-10.543-2.758-18.671,4.559-24.158a6.932,6.932,0,0,1,7.148-.654c4.832,2.077,8.745,8.156,9.515,14.785,1.167,10.031-1.032,13.4-4.692,15.371A15.486,15.486,0,0,1,1046.219,3844.038Zm-1-30.755a4.543,4.543,0,0,0-2.784.941h0c-6.59,4.943-7.868,12.075-3.906,21.8,1.186,2.913,2.9,4.789,5.078,5.573,3.438,1.238,7.2-.452,8.651-1.237,2.372-1.277,4.806-3.47,3.654-13.379-.772-6.636-4.769-11.651-8.319-13.177A6.085,6.085,0,0,0,1045.215,3813.283Zm-3.384.142h0Z" fill="#999"/>
          </g>
          <g id="Grupo_2184" data-name="Grupo 2184">
            <path id="Trazado_2691" data-name="Trazado 2691" d="M1012.85,3813.424c-7.65-5.132-13.91,1.623-16.924,8.115s-5.1,11.824-1.392,16.693,14.143,6.028,16.693,2.318S1019.481,3817.872,1012.85,3813.424Z" fill="#62cbc9"/>
            <path id="Trazado_2692" data-name="Trazado 2692" d="M1005.338,3843.739c-3.854,0-9.012-1.506-11.6-4.9-4-5.25-1.892-10.892,1.279-17.721,1.183-2.547,4.524-8.635,10-10.165a9.862,9.862,0,0,1,8.39,1.641,8.234,8.234,0,0,1,3.218,5.586c1.464,7.663-2.553,20-4.574,22.937-1.111,1.615-3.371,2.544-6.363,2.617C1005.573,3843.737,1005.456,3843.739,1005.338,3843.739Zm2.114-31.122a7.029,7.029,0,0,0-1.9.262c-3.243.907-6.5,4.3-8.723,9.081-2.98,6.417-4.832,11.3-1.5,15.666,2.142,2.81,6.811,4.188,10.31,4.109,2.3-.056,4.037-.694,4.763-1.751,1.95-2.836,5.574-14.542,4.259-21.428a6.353,6.353,0,0,0-2.369-4.3h0A8.674,8.674,0,0,0,1007.452,3812.617Z" fill="#999"/>
          </g>
          <g id="Grupo_2185" data-name="Grupo 2185">
            <path id="Trazado_2693" data-name="Trazado 2693" d="M1023.6,3815.279c-8.949-.567-14.922,13.447-14.69,25.271s25.5,15.534,28.053,3.478S1034.579,3815.975,1023.6,3815.279Z" fill="#62cbc9"/>
            <path id="Trazado_2694" data-name="Trazado 2694" d="M1024.975,3852.441c-.719,0-1.428-.034-2.118-.1-7.327-.7-14.814-4.96-14.948-11.772-.176-8.981,3.076-18.484,7.907-23.109a10.336,10.336,0,0,1,7.846-3.18h0a13.212,13.212,0,0,1,9.75,5.613c4.456,5.869,6.319,15.878,4.529,24.341C1036.648,3850.348,1030.552,3852.441,1024.975,3852.441Zm-1.9-36.178a8.442,8.442,0,0,0-5.874,2.642c-4.459,4.268-7.457,13.161-7.291,21.626.11,5.64,6.692,9.209,13.136,9.819,5.229.5,11.752-.918,12.939-6.529,1.679-7.936-.034-17.277-4.165-22.717a11.127,11.127,0,0,0-8.283-4.827h0C1023.381,3816.267,1023.227,3816.263,1023.074,3816.263Z" fill="#999"/>
          </g>
        </g>
      </g>
      <g id="Grupo_2193" data-name="Grupo 2193">
        <g id="Grupo_2188" data-name="Grupo 2188">
          <path id="Trazado_2695" data-name="Trazado 2695" d="M1240.075,3801.278s2.423,25.915-28.651,37.428-45.074-7.449-45.074-7.449Z" fill="#62cbc9"/>
          <path id="Trazado_2696" data-name="Trazado 2696" d="M1192.582,3843.382c-18.25,0-26.926-11.381-27.037-11.531a1,1,0,0,1,.428-1.52l73.725-29.98a1,1,0,0,1,1.372.834c.025.267,2.132,26.813-29.3,38.458A55.162,55.162,0,0,1,1192.582,3843.382ZM1168,3831.666c3.393,3.725,16.936,15.785,43.078,6.1,26.26-9.729,28.071-29.588,28.055-35.027Z" fill="#999"/>
        </g>
        <g id="Grupo_2192" data-name="Grupo 2192">
          <g id="Grupo_2189" data-name="Grupo 2189">
            <path id="Trazado_2697" data-name="Trazado 2697" d="M1182.385,3803.283c-6.636-1.761-11.594,8.436-8.934,18.114s5.852,11.388,9.255,11.764,12.187.139,12.214-10.156S1191.349,3805.663,1182.385,3803.283Z" fill="#62cbc9"/>
            <path id="Trazado_2698" data-name="Trazado 2698" d="M1184.484,3834.256a17.471,17.471,0,0,1-1.888-.1c-4.131-.455-7.432-2.754-10.109-12.493-1.769-6.435-.419-13.538,3.283-17.272a6.926,6.926,0,0,1,6.872-2.073h0c8.841,2.347,13.308,9.307,13.278,20.691-.01,3.738-1.116,6.616-3.288,8.557A12.228,12.228,0,0,1,1184.484,3834.256Zm-3.587-30.172a5.274,5.274,0,0,0-3.706,1.714c-2.72,2.743-4.547,8.892-2.776,15.334,2.645,9.619,5.723,10.74,8.4,11.034,1.645.182,5.759.343,8.485-2.093,1.73-1.545,2.611-3.924,2.62-7.071.027-10.5-3.829-16.638-11.791-18.752h0A4.775,4.775,0,0,0,1180.9,3804.084Z" fill="#999"/>
          </g>
          <g id="Grupo_2190" data-name="Grupo 2190">
            <path id="Trazado_2699" data-name="Trazado 2699" d="M1209.255,3792.425c5.17-7.624,13.506-3.707,18.732,1.183s9.159,9.052,7.544,14.956-10.854,10.887-14.608,8.4S1204.774,3799.033,1209.255,3792.425Z" fill="#62cbc9"/>
            <path id="Trazado_2700" data-name="Trazado 2700" d="M1223.421,3818.623a5.449,5.449,0,0,1-3.05-.822c-2.975-1.969-11.32-11.9-12.835-19.552a8.235,8.235,0,0,1,.891-6.385h0a9.85,9.85,0,0,1,7.164-4.664c5.661-.626,11.03,3.759,13.08,5.677,5.5,5.145,9.566,9.585,7.824,15.951-1.16,4.244-5.606,7.649-9.245,9.017A11.03,11.03,0,0,1,1223.421,3818.623Zm-13.338-25.636a6.35,6.35,0,0,0-.585,4.875c1.361,6.879,9.107,16.373,11.977,18.271,1.069.706,2.916.649,5.072-.16,3.279-1.233,7.087-4.265,8.02-7.673,1.449-5.3-2.1-9.129-7.263-13.962-3.848-3.6-8.144-5.518-11.49-5.151a7.942,7.942,0,0,0-5.731,3.8Z" fill="#999"/>
          </g>
          <g id="Grupo_2191" data-name="Grupo 2191">
            <path id="Trazado_2701" data-name="Trazado 2701" d="M1199.984,3798.172c8.085-3.878,18.873,6.877,23.088,17.927s-17.825,23.957-24.707,13.735S1190.065,3802.931,1199.984,3798.172Z" fill="#62cbc9"/>
            <path id="Trazado_2702" data-name="Trazado 2702" d="M1205.869,3834.572a9.528,9.528,0,0,1-8.333-4.18c-4.831-7.177-6.854-17.154-4.92-24.265a13.207,13.207,0,0,1,6.936-8.856,10.337,10.337,0,0,1,8.465.008c6.213,2.477,12.788,10.07,15.99,18.464,2.428,6.365-2.916,13.126-9.449,16.514A19.549,19.549,0,0,1,1205.869,3834.572Zm-2.288-36.209a7.231,7.231,0,0,0-3.164.711h0a11.122,11.122,0,0,0-5.871,7.578c-1.793,6.591.119,15.893,4.649,22.623,3.2,4.757,9.781,3.623,14.442,1.207,5.747-2.981,10.512-8.756,8.5-14.026-3.018-7.912-9.129-15.033-14.862-17.32A10,10,0,0,0,1203.581,3798.363Zm-3.6-.191h0Z" fill="#999"/>
          </g>
        </g>
      </g>
    </g>
  </g>
</svg>
