<svg xmlns="http://www.w3.org/2000/svg" width="176" height="48" viewBox="0 0 176 48">
  <g id="Grupo_1961" data-name="Grupo 1961" transform="translate(-552 -640)">
    <g id="Grupo_1370" data-name="Grupo 1370" transform="translate(-1025.448 -190.924)">
      <g id="Trazado_152" data-name="Trazado 152" transform="translate(1626.448 842.924)">
        <path id="Trazado_1560" data-name="Trazado 1560" d="M1665.448,876.124a14.97,14.97,0,0,1-7.8-2.2l-29.1-17.738a4.329,4.329,0,0,1-1.441-5.989,4.422,4.422,0,0,1,6.046-1.426l29.1,17.738a6.127,6.127,0,0,0,6.4,0l29.1-17.738a4.421,4.421,0,0,1,6.046,1.426,4.329,4.329,0,0,1-1.44,5.989l-29.1,17.738A14.973,14.973,0,0,1,1665.448,876.124Z" transform="translate(-1626.448 -848.124)" fill="#d6dafb"/>
      </g>
      <g id="Trazado_153" data-name="Trazado 153" transform="translate(1645.208 838.924)">
        <path id="Trazado_1561" data-name="Trazado 1561" d="M1665.691,858.214a7.023,7.023,0,0,1-3.538-.955l-15.945-9.292a.918.918,0,0,1-.327-1.3,1.032,1.032,0,0,1,1.376-.31l15.945,9.292a4.946,4.946,0,0,0,4.978,0l15.946-9.292a1.032,1.032,0,0,1,1.376.31.919.919,0,0,1-.327,1.3l-15.946,9.292A7.018,7.018,0,0,1,1665.691,858.214Z" transform="translate(-1645.732 -846.214)" fill="#d6dafb"/>
      </g>
    </g>
    <rect id="Rectángulo_470" data-name="Rectángulo 470" width="176" height="48" transform="translate(552 640)" fill="none"/>
  </g>
</svg>
