<svg xmlns="http://www.w3.org/2000/svg" width="280.476" height="51.22" viewBox="0 0 280.476 51.22">
  <g id="Grupo_2004" data-name="Grupo 2004" transform="translate(-845.053 -536.231)">
    <g id="Grupo_2002" data-name="Grupo 2002">
      <g id="Grupo_2001" data-name="Grupo 2001">
        <path id="Trazado_1657" data-name="Trazado 1657" d="M979.9,536.648c.064-.209.157-.33.279-.365a1.585,1.585,0,0,1,.423-.052,1.215,1.215,0,0,1,.821.53,8.1,8.1,0,0,1,.934,1.416q.478.887.964,2.032t.942,2.372q.455,1.224.853,2.44t.7,2.233q.294,1.016.454,1.763a6,6,0,0,1,.16,1.025,1.215,1.215,0,0,1-.12.529.429.429,0,0,1-.423.252.454.454,0,0,1-.327-.13,1.2,1.2,0,0,1-.232-.321c-.063-.128-.122-.255-.174-.383s-.1-.237-.144-.33q-.064-.191-.264-.729t-.415-1.129q-.215-.591-.406-1.112c-.128-.347-.219-.6-.271-.747q-1.117-.209-2.242-.391t-2.369-.356h-.176q-.573,2.692-1.012,4.256a18.134,18.134,0,0,1-.734,2.224q-.3.659-.462.547t-.224-.8a13.563,13.563,0,0,1,.016-1.833q.072-1.148.271-2.527t.486-2.893q.29-1.512.7-2.918a24.37,24.37,0,0,1,.909-2.614A9.131,9.131,0,0,1,979.9,536.648Zm-.383,6.115a1.138,1.138,0,0,0,.383.947,1.96,1.96,0,0,0,.925.391,6.051,6.051,0,0,0,1.141.069c.4-.011.741-.018,1.028-.018a6.07,6.07,0,0,0-.207-1.5,13.048,13.048,0,0,0-.526-1.607q-.32-.8-.678-1.555c-.239-.5-.461-.958-.662-1.363a2.391,2.391,0,0,0-.375.7c-.133.342-.267.725-.4,1.147s-.252.837-.359,1.242-.186.735-.239.99c0,.035-.006.125-.016.27S979.513,542.717,979.513,542.763Z" fill="#fff"/>
        <path id="Trazado_1658" data-name="Trazado 1658" d="M987.122,542.919c0-.1,0-.211.008-.321a1.021,1.021,0,0,1,.064-.313.491.491,0,0,1,.16-.225.511.511,0,0,1,.31-.079h.1a.235.235,0,0,0,.08.018,4.517,4.517,0,0,1,.526,1.155q.225.7.431,1.493t.447,1.6a6.261,6.261,0,0,0,.622,1.45,3.2,3.2,0,0,0,.942,1.026,2.152,2.152,0,0,0,1.387.33q.367,0,.479-.435a4.814,4.814,0,0,0,.119-1.111q.009-.678-.031-1.494a14.387,14.387,0,0,1,0-1.555,4.521,4.521,0,0,1,.239-1.295,1.175,1.175,0,0,1,.693-.746,5.418,5.418,0,0,1,.344,1.415q.135.965.2,2.224t.064,2.727q0,1.469-.064,2.918t-.191,2.788q-.129,1.338-.287,2.346a8.781,8.781,0,0,1-.375,1.59c-.144.388-.295.553-.455.494a2.322,2.322,0,0,1-.519-.9,5.956,5.956,0,0,1-.255-1.233,11.428,11.428,0,0,1-.055-1.433c.009-.5.029-1.011.055-1.52s.059-1.008.1-1.494.056-.933.056-1.338a2.476,2.476,0,0,1-1.173-.191,4.094,4.094,0,0,1-1.172-.755,7.439,7.439,0,0,1-1.093-1.242,8.77,8.77,0,0,1-.909-1.651,10.571,10.571,0,0,1-.614-1.989A10.893,10.893,0,0,1,987.122,542.919Z" fill="#fff"/>
        <path id="Trazado_1659" data-name="Trazado 1659" d="M1002.262,549.851a3.436,3.436,0,0,1,.463-1.789,5.349,5.349,0,0,1,1.148-1.365,7.755,7.755,0,0,1,1.484-.99q.8-.406,1.484-.677t1.148-.434c.309-.111.463-.2.463-.27,0-.4-.019-.8-.056-1.189s-.078-.78-.12-1.173-.083-.784-.12-1.173-.055-.772-.055-1.155v-1.129q.654-.261.933.053a1.18,1.18,0,0,1,.088,1.076q.063.383.175,1.2t.248,1.841q.135,1.024.287,2.154t.287,2.163q.135,1.034.232,1.841t.143,1.208c.01.058.021.171.031.339s.019.347.025.538.01.368.016.53.007.278.007.347a4.243,4.243,0,0,1-.821-.052.343.343,0,0,1-.271-.209,1.375,1.375,0,0,1-.056-.451,3.042,3.042,0,0,0-.159-.816,9.612,9.612,0,0,1-1.117.834,6.071,6.071,0,0,1-1.053.529,4.989,4.989,0,0,1-1.061.278,7.9,7.9,0,0,1-1.14.078,4.98,4.98,0,0,1-.982-.095,2.361,2.361,0,0,1-.838-.339,1.79,1.79,0,0,1-.59-.66A2.187,2.187,0,0,1,1002.262,549.851Zm1.388-.366a.83.83,0,0,0,.112.453,1.078,1.078,0,0,0,.662.459,1.767,1.767,0,0,0,.391.044,3.551,3.551,0,0,0,1.2-.234,4.422,4.422,0,0,0,1.2-.66,3.724,3.724,0,0,0,.909-1.017,2.429,2.429,0,0,0,.358-1.285,1.2,1.2,0,0,0-.174-.747.854.854,0,0,0-.671-.209,3.385,3.385,0,0,0-1.189.261,6.242,6.242,0,0,0-1.307.7,4.429,4.429,0,0,0-1.061,1.016A2.03,2.03,0,0,0,1003.65,549.485Z" fill="#fff"/>
        <path id="Trazado_1660" data-name="Trazado 1660" d="M1012.408,538.872a1.231,1.231,0,0,1,.51.451.9.9,0,0,1,.184.565q-.024.252-.359.347a2.044,2.044,0,0,1-1.117-.2,1.852,1.852,0,0,1,.168-.816A.616.616,0,0,1,1012.408,538.872Zm-.223,6.514c0-.07,0-.182.007-.338s.011-.322.016-.495.011-.342.017-.5.008-.278.008-.348a1.42,1.42,0,0,1,.454-.452,3.047,3.047,0,0,1,.566-.277,12.774,12.774,0,0,0,.272,2q.222,1.061.478,2.129t.455,2.11a10.378,10.378,0,0,1,.2,1.945q0,.783-.734.783a.907.907,0,0,1-.749-.4,3.134,3.134,0,0,1-.487-1.015,9.944,9.944,0,0,1-.295-1.373c-.075-.5-.125-1-.152-1.485s-.043-.933-.048-1.338S1012.185,545.606,1012.185,545.386Z" fill="#fff"/>
        <path id="Trazado_1661" data-name="Trazado 1661" d="M1028.329,549.643a1.824,1.824,0,0,0-.654.121q-.32.121-.639.278t-.645.277a1.979,1.979,0,0,1-.695.122,3.028,3.028,0,0,1-1.259-.252,2.7,2.7,0,0,1-.95-.7,3.247,3.247,0,0,1-.606-1.068,4.038,4.038,0,0,1-.216-1.346,3.493,3.493,0,0,1,.335-1.607,2.942,2.942,0,0,1,.886-1.051,3.455,3.455,0,0,1,1.252-.564,6.265,6.265,0,0,1,1.436-.165,2.389,2.389,0,0,1,1.468.582,5.5,5.5,0,0,1,1.172,1.416,10.776,10.776,0,0,1,.9,1.954,18.5,18.5,0,0,1,.63,2.215,20.175,20.175,0,0,1,.36,2.188,15.357,15.357,0,0,1,.095,1.885,6.158,6.158,0,0,1-.135,1.311c-.081.325-.2.47-.359.435a.894.894,0,0,1-.646-.408,2.749,2.749,0,0,1-.335-.843,5.757,5.757,0,0,1-.144-1.1c-.015-.4-.029-.8-.04-1.2s-.029-.781-.056-1.146a4.089,4.089,0,0,0-.151-.9.827.827,0,0,0-.351-.495A.687.687,0,0,0,1028.329,549.643Zm-4.307-2.4a1.412,1.412,0,0,0,.135.591,2.118,2.118,0,0,0,.854.937,1.07,1.07,0,0,0,.542.157,2.541,2.541,0,0,0,.7-.13,3.719,3.719,0,0,0,.846-.383,3.123,3.123,0,0,0,.717-.59,1.1,1.1,0,0,0,.3-.756,7.258,7.258,0,0,0-.063-1.025,2.023,2.023,0,0,0-.224-.712.947.947,0,0,0-.463-.408,2.043,2.043,0,0,0-.8-.13,2.07,2.07,0,0,0-.845.2,3.033,3.033,0,0,0-.822.547,3.351,3.351,0,0,0-.631.791A1.816,1.816,0,0,0,1024.022,547.245Z" fill="#fff"/>
        <path id="Trazado_1662" data-name="Trazado 1662" d="M1031.424,544.813c0-.07,0-.194.008-.374s.008-.367.008-.564,0-.379.007-.548.008-.286.008-.355a2.96,2.96,0,0,1,.264-.409.894.894,0,0,1,.319-.278.531.531,0,0,1,.366-.026.81.81,0,0,1,.408.347v.366c-.011.057-.033.194-.064.408s-.069.449-.112.7-.082.489-.119.7a3.175,3.175,0,0,0-.056.408,6.612,6.612,0,0,0,.064.826q.063.5.183,1.033a10.159,10.159,0,0,0,.3,1.077,4.989,4.989,0,0,0,.438.964,3.028,3.028,0,0,0,.567.7,1.061,1.061,0,0,0,.726.277,1.451,1.451,0,0,0,.9-.295,2.756,2.756,0,0,0,.677-.764,4.7,4.7,0,0,0,.471-1.06,10.507,10.507,0,0,0,.3-1.189c.074-.4.128-.786.159-1.156s.048-.7.048-.973a5.373,5.373,0,0,0-.056-.79q-.055-.374-.135-.739c-.053-.243-.1-.483-.136-.72a4.686,4.686,0,0,1-.056-.721.517.517,0,0,1,.216-.47.884.884,0,0,1,.486-.138.714.714,0,0,1,.542.216,1.551,1.551,0,0,1,.328.548,3.108,3.108,0,0,1,.16.756c.026.283.039.565.039.842s-.005.542-.016.791-.016.448-.016.6a12.746,12.746,0,0,1-.08,1.337,11.089,11.089,0,0,1-.279,1.538,13.548,13.548,0,0,1-.494,1.554,6.3,6.3,0,0,1-.718,1.364,3.678,3.678,0,0,1-.973.964,2.193,2.193,0,0,1-1.237.366,2.169,2.169,0,0,1-1.26-.374,3.2,3.2,0,0,1-.917-.991,6.652,6.652,0,0,1-.63-1.4,11.131,11.131,0,0,1-.391-1.564q-.137-.78-.191-1.519T1031.424,544.813Z" fill="#fff"/>
        <path id="Trazado_1663" data-name="Trazado 1663" d="M1039.623,547.071a8.679,8.679,0,0,1,.207-1.876,5.513,5.513,0,0,1,.662-1.685,3.742,3.742,0,0,1,1.181-1.216,3.174,3.174,0,0,1,1.763-.469,2.194,2.194,0,0,1,1.037.235,2.323,2.323,0,0,1,.75.616,2.655,2.655,0,0,1,.454.895,3.782,3.782,0,0,1,.151,1.068,4.154,4.154,0,0,1-.375,1.72,4.938,4.938,0,0,1-1.005,1.468,4.177,4.177,0,0,1-1.443.955,2.852,2.852,0,0,1-1.659.148,1.164,1.164,0,0,0,.311.807,1.915,1.915,0,0,0,.709.461,3.342,3.342,0,0,0,.863.2,7.968,7.968,0,0,0,.8.044,3.244,3.244,0,0,0,.687-.069c.213-.047.425-.1.638-.156s.427-.111.646-.157a3.351,3.351,0,0,1,.694-.07,2.313,2.313,0,0,1,.287.018.9.9,0,0,1,.271.078.5.5,0,0,1,.208.191.61.61,0,0,1,.079.322.735.735,0,0,1-.222.547,2.011,2.011,0,0,1-.567.374,3.393,3.393,0,0,1-.758.234c-.277.052-.546.093-.805.121s-.5.047-.718.053-.381.009-.487.009a4.532,4.532,0,0,1-1.834-.357,3.849,3.849,0,0,1-1.372-.99,4.333,4.333,0,0,1-.854-1.528A6.323,6.323,0,0,1,1039.623,547.071Zm1.691-1.129a1.942,1.942,0,0,0,.151.886c.1.186.349.277.742.277a2.1,2.1,0,0,0,.814-.165,2.468,2.468,0,0,0,.725-.46,2.188,2.188,0,0,0,.519-.694,1.982,1.982,0,0,0,.191-.869,3.85,3.85,0,0,0-.039-.538,1.518,1.518,0,0,0-.168-.513,1.15,1.15,0,0,0-.327-.382.854.854,0,0,0-.519-.148,1.654,1.654,0,0,0-.869.235,2.246,2.246,0,0,0-.662.608,2.881,2.881,0,0,0-.415.834A3.085,3.085,0,0,0,1041.314,545.942Z" fill="#fff"/>
        <path id="Trazado_1664" data-name="Trazado 1664" d="M1058.942,551.119c.169-.128.375-.293.614-.495s.481-.42.725-.652a8.582,8.582,0,0,0,.687-.73,4.007,4.007,0,0,0,.5-.738,1.467,1.467,0,0,0,.183-.668.623.623,0,0,0-.287-.522c-.34,0-.713.015-1.116.043s-.808.041-1.213.036a6.979,6.979,0,0,1-1.172-.114,2.86,2.86,0,0,1-1.013-.382,1.95,1.95,0,0,1-.71-.79,2.869,2.869,0,0,1-.263-1.311,4.2,4.2,0,0,1,.327-1.694,4.647,4.647,0,0,1,.869-1.337,6.552,6.552,0,0,1,1.221-1.026,10.372,10.372,0,0,1,1.363-.756,1.969,1.969,0,0,1,.766.435,3.619,3.619,0,0,1,.606.694,1.011,1.011,0,0,1-.438.591,3.847,3.847,0,0,1-.75.365c-.282.1-.577.214-.885.33a3.3,3.3,0,0,0-.838.46,2.389,2.389,0,0,0-.63.747,2.475,2.475,0,0,0-.256,1.208,1.123,1.123,0,0,0,.256.816,1.321,1.321,0,0,0,.67.356,3.449,3.449,0,0,0,.942.07c.35-.018.709-.043,1.076-.078s.725-.055,1.077-.061a2.668,2.668,0,0,1,.941.139,1.387,1.387,0,0,1,.662.477,1.613,1.613,0,0,1,.248.974,2.08,2.08,0,0,1-.168.712,7.219,7.219,0,0,1-.447.929,8.407,8.407,0,0,1-1.435,1.859,4.952,4.952,0,0,1-.814.642,1.458,1.458,0,0,1-.758.252.423.423,0,0,1-.439-.26A1.4,1.4,0,0,1,1058.942,551.119Z" fill="#fff"/>
        <path id="Trazado_1665" data-name="Trazado 1665" d="M1066.711,539.046l-1.738,2.779c-.128.162-.253.232-.375.208a.412.412,0,0,1-.287-.2.818.818,0,0,1-.113-.417.841.841,0,0,1,.152-.495.914.914,0,0,0,.1-.148c.037-.063.061-.107.071-.13.107-.185.229-.394.368-.625a7.67,7.67,0,0,1,.43-.652,5.445,5.445,0,0,1,.447-.539,1.3,1.3,0,0,1,.407-.312.3.3,0,0,1,.327.035A.8.8,0,0,1,1066.711,539.046Zm-2.3,6.34c0-.07,0-.182.008-.338s.011-.322.016-.495.01-.342.016-.5.008-.278.008-.348a1.429,1.429,0,0,1,.454-.452,3.056,3.056,0,0,1,.567-.277,12.883,12.883,0,0,0,.271,2q.222,1.061.479,2.129t.455,2.11a10.466,10.466,0,0,1,.2,1.945q0,.783-.735.783a.91.91,0,0,1-.749-.4,3.135,3.135,0,0,1-.487-1.015,9.935,9.935,0,0,1-.3-1.373c-.074-.5-.125-1-.151-1.485s-.043-.933-.048-1.338S1064.414,545.606,1064.414,545.386Z" fill="#fff"/>
        <path id="Trazado_1666" data-name="Trazado 1666" d="M1069.407,550.493q.719,0,.718.817a1.226,1.226,0,0,1-.447.669.716.716,0,0,1-.5.122.741.741,0,0,1-.415-.252.768.768,0,0,1-.2-.47.754.754,0,0,1,.175-.512A1.172,1.172,0,0,1,1069.407,550.493Z" fill="#fff"/>
        <path id="Trazado_1667" data-name="Trazado 1667" d="M1073.028,550.493q.719,0,.718.817a1.221,1.221,0,0,1-.447.669.715.715,0,0,1-.5.122.741.741,0,0,1-.415-.252.768.768,0,0,1-.2-.47.759.759,0,0,1,.175-.512A1.172,1.172,0,0,1,1073.028,550.493Z" fill="#fff"/>
        <path id="Trazado_1668" data-name="Trazado 1668" d="M1076.65,550.493q.719,0,.718.817a1.222,1.222,0,0,1-.447.669.716.716,0,0,1-.5.122.741.741,0,0,1-.415-.252.773.773,0,0,1-.2-.47.755.755,0,0,1,.176-.512A1.17,1.17,0,0,1,1076.65,550.493Z" fill="#fff"/>
        <path id="Trazado_1669" data-name="Trazado 1669" d="M976.45,568.281a.875.875,0,0,1,.207-.651.943.943,0,0,1,.67-.2h.16q.048.277.112.642a5.132,5.132,0,0,0,.191.747,4.253,4.253,0,0,0,.3.7,1.557,1.557,0,0,0,.431.513,2.933,2.933,0,0,1,.279-1.173,4.191,4.191,0,0,1,1.515-1.754,2.906,2.906,0,0,1,.934-.408h.351a2.251,2.251,0,0,1,1.308.373,3.089,3.089,0,0,1,.9.973,4.98,4.98,0,0,1,.549,1.364,13.624,13.624,0,0,1,.295,1.555,15.069,15.069,0,0,1,.128,1.528q.024.738.025,1.26h-1.165q-.1-1.043-.24-2c-.032-.255-.074-.524-.128-.808s-.111-.55-.174-.8-.134-.48-.208-.7a2.714,2.714,0,0,0-.255-.547c-.043-.047-.1-.11-.168-.191s-.141-.162-.215-.243-.144-.151-.207-.208a.432.432,0,0,0-.112-.087.8.8,0,0,0-.83.2,3.1,3.1,0,0,0-.622.912,6.377,6.377,0,0,0-.439,1.3c-.111.486-.2.953-.278,1.4s-.128.834-.161,1.164-.052.531-.063.6a.761.761,0,0,1-.75.182,1.514,1.514,0,0,1-.662-.547,4.561,4.561,0,0,1-.559-1.042q-.247-.625-.454-1.329t-.375-1.416C976.634,569.127,976.535,568.688,976.45,568.281Z" fill="#fff"/>
        <path id="Trazado_1670" data-name="Trazado 1670" d="M985.687,570.609a4.435,4.435,0,0,1,.462-2.006,5.187,5.187,0,0,1,1.22-1.6,5.9,5.9,0,0,1,1.707-1.051,5.108,5.108,0,0,1,1.923-.383,1.4,1.4,0,0,1,.965.383,3.335,3.335,0,0,1,.71.929,5.192,5.192,0,0,1,.438,1.155,4.477,4.477,0,0,1,.152,1.06,4.36,4.36,0,0,1-.431,1.884,5.918,5.918,0,0,1-1.116,1.617,5.815,5.815,0,0,1-1.548,1.137,3.8,3.8,0,0,1-1.723.435,2.673,2.673,0,0,1-1.292-.287,2.353,2.353,0,0,1-.845-.765,3.384,3.384,0,0,1-.471-1.129A6.021,6.021,0,0,1,985.687,570.609Zm1.355.174a3.9,3.9,0,0,0,.072.79,1.456,1.456,0,0,0,.255.582,1.175,1.175,0,0,0,.487.374,1.9,1.9,0,0,0,.75.13,2.261,2.261,0,0,0,1.18-.356,4.363,4.363,0,0,0,1.061-.9,4.748,4.748,0,0,0,.758-1.207,3.212,3.212,0,0,0,.287-1.285,4.264,4.264,0,0,0-.048-.608,2.618,2.618,0,0,0-.159-.608,1.28,1.28,0,0,0-.32-.469.744.744,0,0,0-.526-.191,1.507,1.507,0,0,0-.678.208,5.687,5.687,0,0,0-.813.538,8.49,8.49,0,0,0-.83.747q-.406.418-.742.834a5.061,5.061,0,0,0-.535.8A1.446,1.446,0,0,0,987.042,570.783Z" fill="#fff"/>
        <path id="Trazado_1671" data-name="Trazado 1671" d="M1004.3,573.354q.255-.191.614-.495c.239-.2.482-.42.726-.652a8.558,8.558,0,0,0,.686-.729,3.978,3.978,0,0,0,.5-.739,1.47,1.47,0,0,0,.184-.668.622.622,0,0,0-.287-.521c-.34,0-.713.014-1.117.043s-.808.041-1.212.035a7.078,7.078,0,0,1-1.172-.113,2.906,2.906,0,0,1-1.014-.382,1.964,1.964,0,0,1-.71-.79,2.875,2.875,0,0,1-.263-1.312,4.223,4.223,0,0,1,.327-1.694,4.645,4.645,0,0,1,.87-1.337,6.512,6.512,0,0,1,1.22-1.025,10.388,10.388,0,0,1,1.364-.756,1.969,1.969,0,0,1,.765.434,3.6,3.6,0,0,1,.607.7,1.011,1.011,0,0,1-.439.59,3.908,3.908,0,0,1-.75.366q-.423.156-.885.33a3.236,3.236,0,0,0-.837.46,2.364,2.364,0,0,0-.63.747,2.471,2.471,0,0,0-.256,1.207,1.123,1.123,0,0,0,.256.816,1.325,1.325,0,0,0,.67.357,3.443,3.443,0,0,0,.941.069c.351-.018.709-.043,1.076-.078s.726-.055,1.077-.061a2.7,2.7,0,0,1,.942.139,1.393,1.393,0,0,1,.662.478,1.616,1.616,0,0,1,.247.973,2.077,2.077,0,0,1-.168.712,7.225,7.225,0,0,1-.446.93,8.334,8.334,0,0,1-.655.981,8,8,0,0,1-.781.877,4.957,4.957,0,0,1-.813.643,1.463,1.463,0,0,1-.758.252.424.424,0,0,1-.44-.261A1.406,1.406,0,0,1,1004.3,573.354Z" fill="#fff"/>
        <path id="Trazado_1672" data-name="Trazado 1672" d="M1009.106,569.307a8.615,8.615,0,0,1,.207-1.876,5.468,5.468,0,0,1,.662-1.686,3.737,3.737,0,0,1,1.18-1.216,3.186,3.186,0,0,1,1.763-.468,2.2,2.2,0,0,1,1.037.234,2.323,2.323,0,0,1,.75.616,2.64,2.64,0,0,1,.454.9,3.734,3.734,0,0,1,.152,1.067,4.158,4.158,0,0,1-.375,1.721,4.95,4.95,0,0,1-1,1.468,4.2,4.2,0,0,1-1.444.955,2.859,2.859,0,0,1-1.659.147,1.162,1.162,0,0,0,.312.808,1.911,1.911,0,0,0,.709.461,3.411,3.411,0,0,0,.862.2c.3.029.564.044.8.044a3.232,3.232,0,0,0,.686-.07c.213-.046.425-.1.638-.156s.428-.11.647-.157a3.342,3.342,0,0,1,.693-.069,2.3,2.3,0,0,1,.287.017.9.9,0,0,1,.272.078.5.5,0,0,1,.208.192.616.616,0,0,1,.079.321.734.734,0,0,1-.223.547,2,2,0,0,1-.566.374,3.378,3.378,0,0,1-.758.234c-.278.052-.546.093-.806.121s-.5.047-.718.053-.38.009-.487.009a4.516,4.516,0,0,1-1.834-.357,3.849,3.849,0,0,1-1.372-.99,4.338,4.338,0,0,1-.854-1.528A6.322,6.322,0,0,1,1009.106,569.307Zm1.69-1.129a1.953,1.953,0,0,0,.151.885c.1.186.349.278.743.278a2.11,2.11,0,0,0,.813-.165,2.5,2.5,0,0,0,.726-.46,2.2,2.2,0,0,0,.518-.7,1.979,1.979,0,0,0,.192-.869,3.872,3.872,0,0,0-.039-.538,1.543,1.543,0,0,0-.168-.512,1.134,1.134,0,0,0-.328-.382.842.842,0,0,0-.518-.149,1.64,1.64,0,0,0-.869.236,2.2,2.2,0,0,0-.662.607,2.832,2.832,0,0,0-.415.834A3.1,3.1,0,0,0,1010.8,568.178Z" fill="#fff"/>
        <path id="Trazado_1673" data-name="Trazado 1673" d="M1018.007,566.84a3.213,3.213,0,0,1,.016-.321,1.2,1.2,0,0,1,.063-.3.507.507,0,0,1,.152-.217.446.446,0,0,1,.3-.087c.107,0,.226.09.359.269a4.919,4.919,0,0,1,.407.678q.207.408.406.895c.134.324.25.622.352.894s.183.507.247.7a2.213,2.213,0,0,0,.111.313q.209-.608.463-1.32a7.28,7.28,0,0,1,.63-1.329,3.964,3.964,0,0,1,.893-1.034,1.967,1.967,0,0,1,1.269-.417,2.026,2.026,0,0,1,.726.131,1.794,1.794,0,0,1,.606.382,1.945,1.945,0,0,1,.423.6,1.9,1.9,0,0,1,.159.8.566.566,0,0,1-.279.539,1.272,1.272,0,0,1-.63.157h-.159l-.687-.747a.062.062,0,0,1-.048-.018.151.151,0,0,1-.055-.009.158.158,0,0,0-.056-.008,1.122,1.122,0,0,0-.869.338,2.208,2.208,0,0,0-.471.834,4.481,4.481,0,0,0-.2,1.042q-.039.549-.039,1a3.947,3.947,0,0,0,.063.7c.042.238.09.469.144.7s.1.458.144.694a4.352,4.352,0,0,1,.063.738.64.64,0,0,1-.718.731,1.19,1.19,0,0,1-.829-.461,6.715,6.715,0,0,1-.853-1.173,14.831,14.831,0,0,1-.806-1.571q-.383-.859-.67-1.677t-.455-1.476A4.48,4.48,0,0,1,1018.007,566.84Z" fill="#fff"/>
        <path id="Trazado_1674" data-name="Trazado 1674" d="M1026.159,569.307a8.679,8.679,0,0,1,.207-1.876,5.519,5.519,0,0,1,.662-1.686,3.751,3.751,0,0,1,1.181-1.216,3.182,3.182,0,0,1,1.763-.468,2.205,2.205,0,0,1,1.037.234,2.323,2.323,0,0,1,.75.616,2.66,2.66,0,0,1,.454.9,3.735,3.735,0,0,1,.151,1.067,4.158,4.158,0,0,1-.375,1.721,4.949,4.949,0,0,1-1.005,1.468,4.181,4.181,0,0,1-1.443.955,2.86,2.86,0,0,1-1.659.147,1.166,1.166,0,0,0,.311.808,1.928,1.928,0,0,0,.709.461,3.43,3.43,0,0,0,.863.2q.445.043.8.044a3.239,3.239,0,0,0,.686-.07c.213-.046.425-.1.638-.156s.428-.11.646-.157a3.36,3.36,0,0,1,.694-.069,2.307,2.307,0,0,1,.287.017.9.9,0,0,1,.271.078.491.491,0,0,1,.208.192.605.605,0,0,1,.079.321.734.734,0,0,1-.222.547,2.011,2.011,0,0,1-.567.374,3.353,3.353,0,0,1-.757.234c-.278.052-.546.093-.806.121s-.5.047-.718.053-.381.009-.487.009a4.516,4.516,0,0,1-1.834-.357,3.849,3.849,0,0,1-1.372-.99,4.325,4.325,0,0,1-.854-1.528A6.322,6.322,0,0,1,1026.159,569.307Zm1.691-1.129a1.94,1.94,0,0,0,.151.885c.1.186.349.278.742.278a2.111,2.111,0,0,0,.814-.165,2.5,2.5,0,0,0,.725-.46,2.193,2.193,0,0,0,.519-.7,1.979,1.979,0,0,0,.191-.869,3.728,3.728,0,0,0-.039-.538,1.521,1.521,0,0,0-.168-.512,1.133,1.133,0,0,0-.327-.382.846.846,0,0,0-.518-.149,1.647,1.647,0,0,0-.87.236,2.229,2.229,0,0,0-.662.607,2.882,2.882,0,0,0-.415.834A3.123,3.123,0,0,0,1027.85,568.178Z" fill="#fff"/>
        <path id="Trazado_1675" data-name="Trazado 1675" d="M1034.709,566.84a1.411,1.411,0,0,1,.136-.678.61.61,0,0,1,.582-.243c.032,0,.094,0,.183.009s.147.009.168.009q.113.539.232,1.172c.079.423.173.848.279,1.277s.226.851.359,1.268a5.8,5.8,0,0,0,.486,1.129,2,2,0,0,0,.415-.782,6.824,6.824,0,0,0,.191-.912c.043-.307.082-.6.12-.886a1.992,1.992,0,0,1,.231-.729,1.024,1.024,0,0,1,.518-.443,1.622,1.622,0,0,1,.95,0,1.887,1.887,0,0,1,1.069.269,2.736,2.736,0,0,1,.693.678c.2.272.389.561.576.868a3.3,3.3,0,0,0,.71.825q.094-.225.239-.565a6.786,6.786,0,0,1,.358-.711q.216-.374.463-.748a5.86,5.86,0,0,1,.519-.677,3.256,3.256,0,0,1,.557-.5.986.986,0,0,1,.559-.2,1.615,1.615,0,0,1,1.133.442,3.984,3.984,0,0,1,.821,1.112,7.685,7.685,0,0,1,.566,1.494c.15.55.266,1.081.352,1.589s.145.977.184,1.4.055.727.055.912a.554.554,0,0,1-.1.348.6.6,0,0,1-.239.182,1.075,1.075,0,0,1-.311.078,2.915,2.915,0,0,1-.311.018.746.746,0,0,1-.1-.009c-.043-.006-.09-.015-.143-.026s-.1-.029-.176-.052L1046,568.56c0-.036-.043-.1-.128-.2a.886.886,0,0,0-.191-.181.154.154,0,0,1-.079-.018.1.1,0,0,1-.048-.009.08.08,0,0,0-.033-.008.88.88,0,0,0-.629.295,3.416,3.416,0,0,0-.551.747,8.549,8.549,0,0,0-.479,1.007q-.223.556-.4,1.1c-.117.364-.222.7-.312,1.007s-.162.542-.214.7a.87.87,0,0,1-.256.06,2.316,2.316,0,0,1-.255.027.793.793,0,0,1-.687-.339,2.915,2.915,0,0,1-.39-.843,9.206,9.206,0,0,1-.255-1.1,9.533,9.533,0,0,0-.256-1.1,2.574,2.574,0,0,0-.414-.843.889.889,0,0,0-.742-.339c-.118,0-.229.128-.335.383a5.678,5.678,0,0,0-.287.964q-.127.582-.24,1.251t-.183,1.25q-.072.583-.136,1.382a.417.417,0,0,1-.127.112c-.064.041-.131.084-.2.131a.891.891,0,0,1-.207.1.562.562,0,0,1-.152.035,1.19,1.19,0,0,1-.861-.444,4.616,4.616,0,0,1-.758-1.146,12.2,12.2,0,0,1-.622-1.555q-.279-.851-.471-1.667t-.294-1.476A6.987,6.987,0,0,1,1034.709,566.84Z" fill="#fff"/>
        <path id="Trazado_1676" data-name="Trazado 1676" d="M1049.067,570.609a4.446,4.446,0,0,1,.462-2.006,5.2,5.2,0,0,1,1.221-1.6,5.894,5.894,0,0,1,1.707-1.051,5.107,5.107,0,0,1,1.923-.383,1.4,1.4,0,0,1,.965.383,3.353,3.353,0,0,1,.71.929,5.2,5.2,0,0,1,.438,1.155,4.48,4.48,0,0,1,.152,1.06,4.36,4.36,0,0,1-.431,1.884,5.918,5.918,0,0,1-1.116,1.617,5.815,5.815,0,0,1-1.548,1.137,3.806,3.806,0,0,1-1.723.435,2.673,2.673,0,0,1-1.292-.287,2.345,2.345,0,0,1-.845-.765,3.365,3.365,0,0,1-.471-1.129A6.017,6.017,0,0,1,1049.067,570.609Zm1.356.174a3.829,3.829,0,0,0,.072.79,1.457,1.457,0,0,0,.255.582,1.178,1.178,0,0,0,.486.374,1.905,1.905,0,0,0,.75.13,2.262,2.262,0,0,0,1.181-.356,4.365,4.365,0,0,0,1.061-.9,4.719,4.719,0,0,0,.757-1.207,3.2,3.2,0,0,0,.288-1.285,4.264,4.264,0,0,0-.048-.608,2.668,2.668,0,0,0-.159-.608,1.28,1.28,0,0,0-.32-.469.746.746,0,0,0-.526-.191,1.5,1.5,0,0,0-.678.208,5.687,5.687,0,0,0-.813.538,8.385,8.385,0,0,0-.83.747q-.406.418-.742.834a5.066,5.066,0,0,0-.535.8A1.447,1.447,0,0,0,1050.423,570.783Z" fill="#fff"/>
        <path id="Trazado_1677" data-name="Trazado 1677" d="M1060.33,573.354q.255-.191.614-.495t.726-.652a8.57,8.57,0,0,0,.687-.729,4.031,4.031,0,0,0,.5-.739,1.459,1.459,0,0,0,.184-.668.622.622,0,0,0-.287-.521c-.34,0-.713.014-1.116.043s-.809.041-1.213.035a7.088,7.088,0,0,1-1.172-.113,2.905,2.905,0,0,1-1.014-.382,1.964,1.964,0,0,1-.71-.79,2.889,2.889,0,0,1-.262-1.312,4.207,4.207,0,0,1,.327-1.694,4.664,4.664,0,0,1,.869-1.337,6.517,6.517,0,0,1,1.221-1.025,10.37,10.37,0,0,1,1.363-.756,1.98,1.98,0,0,1,.766.434,3.628,3.628,0,0,1,.606.7,1.01,1.01,0,0,1-.438.59,3.908,3.908,0,0,1-.75.366q-.425.156-.885.33a3.224,3.224,0,0,0-.838.46,2.364,2.364,0,0,0-.63.747,2.471,2.471,0,0,0-.256,1.207,1.123,1.123,0,0,0,.256.816,1.328,1.328,0,0,0,.67.357,3.447,3.447,0,0,0,.941.069c.351-.018.709-.043,1.077-.078s.725-.055,1.077-.061a2.7,2.7,0,0,1,.941.139,1.392,1.392,0,0,1,.662.478,1.615,1.615,0,0,1,.247.973,2.055,2.055,0,0,1-.168.712,7.106,7.106,0,0,1-.446.93,8.323,8.323,0,0,1-.654.981,8,8,0,0,1-.782.877,4.954,4.954,0,0,1-.813.643,1.46,1.46,0,0,1-.758.252.423.423,0,0,1-.439-.261A1.388,1.388,0,0,1,1060.33,573.354Z" fill="#fff"/>
        <path id="Trazado_1678" data-name="Trazado 1678" d="M1072.135,565.381a.218.218,0,0,1,.016-.087.294.294,0,0,1,.016-.087c.042-.058.107-.133.191-.226s.138-.139.16-.139h3.207a5.983,5.983,0,0,0-.048-.608c-.032-.278-.062-.585-.088-.921a9.778,9.778,0,0,1-.023-1.05,4.229,4.229,0,0,1,.134-.991,1.722,1.722,0,0,1,.383-.729.958.958,0,0,1,.742-.287,14.167,14.167,0,0,0,.224,2.814,4.842,4.842,0,0,0,.6,1.633,1.785,1.785,0,0,0,.853.747,2.481,2.481,0,0,0,.982.148,4.373,4.373,0,0,0,.981-.165,6.11,6.11,0,0,1,.854-.192.924.924,0,0,1,.6.078c.15.087.224.293.224.618a.733.733,0,0,1-.152.521,1.145,1.145,0,0,1-.583.243c-.085.012-.225.031-.422.061s-.417.054-.662.078-.505.049-.782.078-.537.055-.781.078-.469.038-.67.043-.352.009-.447.009c0,.058-.005.156-.016.3s-.016.231-.016.277a5.014,5.014,0,0,0,.223,1.485q.225.723.487,1.434t.487,1.424a4.936,4.936,0,0,1,.222,1.476,1.793,1.793,0,0,1-.023.288.681.681,0,0,1-.1.26.466.466,0,0,1-.208.174.516.516,0,0,1-.374-.026,1.413,1.413,0,0,1-.9-.747,4.881,4.881,0,0,1-.44-1.364,13.61,13.61,0,0,1-.191-1.676q-.047-.887-.151-1.66a5.469,5.469,0,0,0-.327-1.32,1.03,1.03,0,0,0-.718-.668l-3.079-.764c-.042,0-.107-.049-.192-.148a1.14,1.14,0,0,1-.159-.218.2.2,0,0,1-.016-.087A.263.263,0,0,1,1072.135,565.381Z" fill="#fff"/>
        <path id="Trazado_1679" data-name="Trazado 1679" d="M1082.744,570.609a4.446,4.446,0,0,1,.462-2.006,5.2,5.2,0,0,1,1.221-1.6,5.894,5.894,0,0,1,1.707-1.051,5.1,5.1,0,0,1,1.923-.383,1.4,1.4,0,0,1,.965.383,3.353,3.353,0,0,1,.71.929,5.246,5.246,0,0,1,.438,1.155,4.473,4.473,0,0,1,.151,1.06,4.359,4.359,0,0,1-.43,1.884,5.918,5.918,0,0,1-1.116,1.617,5.815,5.815,0,0,1-1.548,1.137,3.809,3.809,0,0,1-1.723.435,2.67,2.67,0,0,1-1.292-.287,2.348,2.348,0,0,1-.846-.765,3.361,3.361,0,0,1-.47-1.129A6.017,6.017,0,0,1,1082.744,570.609Zm1.356.174a3.829,3.829,0,0,0,.072.79,1.457,1.457,0,0,0,.255.582,1.178,1.178,0,0,0,.486.374,1.9,1.9,0,0,0,.75.13,2.264,2.264,0,0,0,1.181-.356,4.36,4.36,0,0,0,1.06-.9,4.7,4.7,0,0,0,.758-1.207,3.2,3.2,0,0,0,.287-1.285,4.126,4.126,0,0,0-.048-.608,2.564,2.564,0,0,0-.159-.608,1.265,1.265,0,0,0-.319-.469.748.748,0,0,0-.526-.191,1.5,1.5,0,0,0-.678.208,5.748,5.748,0,0,0-.814.538,8.627,8.627,0,0,0-.83.747c-.27.279-.518.557-.741.834a5,5,0,0,0-.535.8A1.447,1.447,0,0,0,1084.1,570.783Zm3.829-9.5-1.723,2.78q-.192.243-.383.208a.423.423,0,0,1-.3-.2.819.819,0,0,1-.111-.417.8.8,0,0,1,.167-.495.943.943,0,0,0,.1-.147c.037-.064.06-.108.071-.131.106-.185.228-.394.367-.625a7.645,7.645,0,0,1,.431-.651,6.251,6.251,0,0,1,.438-.54,1.214,1.214,0,0,1,.407-.312.3.3,0,0,1,.328.035A.848.848,0,0,1,1087.929,561.281Z" fill="#fff"/>
        <path id="Trazado_1680" data-name="Trazado 1680" d="M1090.624,565.937a.075.075,0,0,1-.016-.052.341.341,0,0,1-.016-.122.471.471,0,0,1,.256-.46,1.084,1.084,0,0,1,.494-.131.333.333,0,0,1,.072.009.5.5,0,0,0,.1.008.426.426,0,0,0,.143.018l2.234,2.05q.573-.9.932-1.407t.567-.739a1.129,1.129,0,0,1,.311-.278.476.476,0,0,1,.152-.043h.247a1.606,1.606,0,0,1,.279.026.467.467,0,0,1,.4.391q-.272.3-.51.591a5.707,5.707,0,0,0-.448.634,6.346,6.346,0,0,0-.39.756q-.183.416-.375.937.3.243.758.687t.925.972q.471.531.917,1.077a9.179,9.179,0,0,1,.742,1.034,3.17,3.17,0,0,1,.383.834c.058.232.019.381-.12.452a5.023,5.023,0,0,0-.3.46c-.053.1-.109.13-.168.1a.916.916,0,0,1-.231-.33,6.824,6.824,0,0,0-.518-.79q-.375-.513-1.029-1.3t-1.739-1.858l-.127,4.291c0,.012-.022.034-.065.069s-.087.073-.135.113a1.43,1.43,0,0,1-.152.113c-.052.035-.1.063-.143.087h-.351c-.053-.046-.125-.115-.216-.208s-.135-.151-.135-.174v-4.847Z" fill="#fff"/>
        <path id="Trazado_1681" data-name="Trazado 1681" d="M1099.7,561.107a1.235,1.235,0,0,1,.51.452.9.9,0,0,1,.184.564q-.024.252-.359.348a2.047,2.047,0,0,1-1.117-.2,1.854,1.854,0,0,1,.168-.816A.618.618,0,0,1,1099.7,561.107Zm-.223,6.514c0-.069,0-.182.007-.338s.011-.322.016-.495.011-.342.017-.5.007-.278.007-.347a1.437,1.437,0,0,1,.455-.453,3.052,3.052,0,0,1,.566-.277,12.883,12.883,0,0,0,.271,2q.224,1.061.479,2.129t.455,2.11a10.384,10.384,0,0,1,.2,1.946q0,.781-.734.782a.909.909,0,0,1-.749-.4,3.152,3.152,0,0,1-.487-1.016,9.766,9.766,0,0,1-.295-1.372q-.113-.756-.152-1.486c-.026-.486-.043-.932-.048-1.337S1099.479,567.842,1099.479,567.621Z" fill="#fff"/>
        <path id="Trazado_1682" data-name="Trazado 1682" d="M1102.254,568.907a4.433,4.433,0,0,1,.295-1.529,5.586,5.586,0,0,1,.79-1.45,4.749,4.749,0,0,1,1.141-1.086,2.4,2.4,0,0,1,1.364-.434,2.051,2.051,0,0,1,.733.139,2.144,2.144,0,0,1,.662.4,2.056,2.056,0,0,1,.479.625,1.8,1.8,0,0,1,.183.817,1.773,1.773,0,0,1-.518-.07,4,4,0,0,1-.455-.165q-.223-.094-.439-.165a1.531,1.531,0,0,0-.47-.069,1.556,1.556,0,0,0-1.061.356,2.554,2.554,0,0,0-.646.895,4.333,4.333,0,0,0-.328,1.155,8.285,8.285,0,0,0-.086,1.155c0,.058,0,.168.007.331s.01.333.016.511.011.351.016.513a2.53,2.53,0,0,0,.024.33,3.164,3.164,0,0,0,.343.643,1.22,1.22,0,0,0,.359.338,1.014,1.014,0,0,0,.414.14,4.722,4.722,0,0,0,.527.026,1.761,1.761,0,0,0,.726-.139,3.411,3.411,0,0,0,.582-.33,4.138,4.138,0,0,0,.511-.426,5.438,5.438,0,0,1,.5-.435,2.691,2.691,0,0,1,.574-.33,1.842,1.842,0,0,1,.71-.13,3.855,3.855,0,0,1-.279,1.512,3.266,3.266,0,0,1-.781,1.129,3.489,3.489,0,0,1-1.181.721,4.2,4.2,0,0,1-1.476.252,1.928,1.928,0,0,1-1.347-.556,4.994,4.994,0,0,1-1.022-1.364,7.606,7.606,0,0,1-.645-1.711A6.7,6.7,0,0,1,1102.254,568.907Z" fill="#fff"/>
        <path id="Trazado_1683" data-name="Trazado 1683" d="M1110.1,570.609a4.435,4.435,0,0,1,.462-2.006,5.189,5.189,0,0,1,1.22-1.6,5.9,5.9,0,0,1,1.707-1.051,5.108,5.108,0,0,1,1.923-.383,1.4,1.4,0,0,1,.965.383,3.332,3.332,0,0,1,.71.929,5.186,5.186,0,0,1,.438,1.155,4.475,4.475,0,0,1,.152,1.06,4.36,4.36,0,0,1-.431,1.884,5.921,5.921,0,0,1-1.116,1.617,5.814,5.814,0,0,1-1.548,1.137,3.8,3.8,0,0,1-1.723.435,2.674,2.674,0,0,1-1.292-.287,2.354,2.354,0,0,1-.845-.765,3.382,3.382,0,0,1-.471-1.129A6.017,6.017,0,0,1,1110.1,570.609Zm1.355.174a3.9,3.9,0,0,0,.072.79,1.455,1.455,0,0,0,.255.582,1.174,1.174,0,0,0,.487.374,1.9,1.9,0,0,0,.75.13,2.261,2.261,0,0,0,1.18-.356,4.364,4.364,0,0,0,1.061-.9,4.746,4.746,0,0,0,.758-1.207,3.211,3.211,0,0,0,.287-1.285,4.264,4.264,0,0,0-.048-.608,2.612,2.612,0,0,0-.159-.608,1.279,1.279,0,0,0-.32-.469.744.744,0,0,0-.526-.191,1.507,1.507,0,0,0-.678.208,5.742,5.742,0,0,0-.813.538,8.5,8.5,0,0,0-.83.747q-.406.418-.742.834a5.066,5.066,0,0,0-.535.8A1.461,1.461,0,0,0,1111.458,570.783Z" fill="#fff"/>
        <path id="Trazado_1684" data-name="Trazado 1684" d="M1121.365,573.354q.255-.191.615-.495t.725-.652a8.57,8.57,0,0,0,.687-.729,3.985,3.985,0,0,0,.5-.739,1.469,1.469,0,0,0,.183-.668.62.62,0,0,0-.287-.521c-.34,0-.713.014-1.116.043s-.809.041-1.213.035a7.091,7.091,0,0,1-1.172-.113,2.906,2.906,0,0,1-1.014-.382,1.961,1.961,0,0,1-.709-.79,2.875,2.875,0,0,1-.263-1.312,4.207,4.207,0,0,1,.327-1.694A4.662,4.662,0,0,1,1119.5,564a6.516,6.516,0,0,1,1.221-1.025,10.379,10.379,0,0,1,1.363-.756,1.98,1.98,0,0,1,.766.434,3.623,3.623,0,0,1,.606.7,1.009,1.009,0,0,1-.438.59,3.908,3.908,0,0,1-.75.366c-.283.1-.577.214-.885.33a3.226,3.226,0,0,0-.838.46,2.365,2.365,0,0,0-.63.747,2.472,2.472,0,0,0-.256,1.207,1.124,1.124,0,0,0,.256.816,1.329,1.329,0,0,0,.67.357,3.446,3.446,0,0,0,.941.069c.351-.018.709-.043,1.077-.078s.725-.055,1.077-.061a2.7,2.7,0,0,1,.941.139,1.388,1.388,0,0,1,.662.478,1.615,1.615,0,0,1,.247.973,2.053,2.053,0,0,1-.168.712,7.1,7.1,0,0,1-.446.93,8.2,8.2,0,0,1-.654.981,8.1,8.1,0,0,1-.781.877,4.959,4.959,0,0,1-.814.643,1.458,1.458,0,0,1-.758.252.422.422,0,0,1-.439-.261A1.407,1.407,0,0,1,1121.365,573.354Z" fill="#fff"/>
      </g>
    </g>
    <g id="Grupo_2003" data-name="Grupo 2003">
      <path id="Trazado_1685" data-name="Trazado 1685" d="M959.35,548.8a33.259,33.259,0,0,1-5.989,14.2,46.9,46.9,0,0,1-11.242,10.856c-8.569,6.06-18.66,9.574-28.777,11.609a96.163,96.163,0,0,1-15.415,1.871,103.048,103.048,0,0,1-15.488-.451,97.1,97.1,0,0,1-29.65-8.017,122.706,122.706,0,0,0,29.853,5.528,116.407,116.407,0,0,0,30.015-2.259c2.449-.543,4.9-1.111,7.3-1.831,2.423-.666,4.785-1.443,7.127-2.317a72.627,72.627,0,0,0,13.379-6.614,50.832,50.832,0,0,0,11.392-9.565A39.037,39.037,0,0,0,959.35,548.8Z" fill="#fff"/>
      <path id="Trazado_1686" data-name="Trazado 1686" d="M857.525,568.505a15.9,15.9,0,0,1-2.321,2.311,18.925,18.925,0,0,1-2.718,1.875,17.8,17.8,0,0,1-6.234,2.217l-.007,0,.758-1.266c.334.993.611,2,.875,3.017s.483,2.041.728,3.061c.227,1.025.431,2.057.6,3.1s.335,2.085.428,3.15c-.506-.942-.939-1.9-1.368-2.87s-.821-1.94-1.193-2.922c-.354-.987-.745-1.963-1.068-2.959s-.657-1.99-.922-3a1.032,1.032,0,0,1,.737-1.261l.021-.005.007,0c1.983-.541,3.949-1.095,5.891-1.829.974-.358,1.93-.773,2.9-1.2S856.55,569,857.525,568.505Z" fill="#fff"/>
    </g>
  </g>
</svg>
