<svg xmlns="http://www.w3.org/2000/svg" width="1280" height="468" viewBox="0 0 1280 468">
  <g id="Grupo_2046" data-name="Grupo 2046" transform="translate(0 93.437)">
    <g id="Grupo_2045" data-name="Grupo 2045" transform="translate(0 -93.437)" opacity="0.15">
      <path id="Trazado_1687" data-name="Trazado 1687" d="M846.43,326.238H432.523V128.28L464.178,104.6V52.072l-28.49-28.42V-46.134L446.2-58.226H831.158l14.48,14.444V23.661l-31.655,29.21v50.152l32.447,25.262Zm-413.1-.8h412.3V128.676l-32.447-25.261V52.52l31.656-29.209V-43.45l-14.01-13.974H446.562l-10.07,11.589V23.32l28.49,28.42V105l-31.656,23.683Zm389.5-25.379H456.171V122.036l18-13.691V51.616l-18-19.678V-38.182l368.717,0,.4,66.933L804.05,50.336v55.213l20.843,16.493,0,.2Zm-365.847-.8H822.027l2.057-176.83-20.838-16.489V50.008l21.241-21.587-.4-65.806-367.114,0V31.627l18,19.677v57.438l-18,13.691Z" transform="translate(0 93.437)" fill="#fff"/>
      <g id="Grupo_2005" data-name="Grupo 2005" transform="translate(448.18 47.31)">
        <path id="Trazado_1688" data-name="Trazado 1688" d="M813.581,52.7l21.178-19.536L832.48-45.775l-383.947,0V34.9l16.047,17.01V104.8l-16.047,12V307.632H830.372l2.2-189.242-18.993-15.173Zm10.907,69.525-2.064,177.384H456.573V122.229l18-13.688V51.47l-18-19.674V-37.752l367.915,0,.4,66.355L803.648,50.182V105.74Z" transform="translate(-448.18 46.127)" fill="#5568f4"/>
        <path id="Trazado_1689" data-name="Trazado 1689" d="M830.72,307.984H448.18V116.623l16.048-12V52.054L448.18,35.044V-46.123l384.642,0,2.293,79.444-.118.108L813.933,52.858v50.191l18.995,15.175,0,.171Zm-381.836-.7h381.14l2.2-188.724-18.991-15.172V52.55L834.4,33.018l-2.264-78.443-383.254,0V34.765l16.048,17.01V104.97l-16.048,12Zm373.888-7.317H456.221V122.054l18-13.687V51.605l-18-19.673V-38.1l368.617,0,0,.349.4,66.5L804,50.325v55.246l20.842,16.489,0,.173Zm-365.847-.7H822.076L824.134,122.4,803.3,105.91V50.038l.1-.1,21.14-21.48-.4-65.862-367.214,0V31.66l18,19.674v57.381l-18,13.688Z" transform="translate(-448.18 46.127)" fill="#fff"/>
      </g>
      <rect id="Rectángulo_474" data-name="Rectángulo 474" width="350.063" height="0.805" transform="matrix(0.257, -0.966, 0.966, 0.257, 594.721, 393.877)" fill="#fff"/>
      <g id="Grupo_2006" data-name="Grupo 2006" transform="translate(469.887 90.579)">
        <path id="Trazado_1690" data-name="Trazado 1690" d="M470.294,253.088,476.7,6.653l6.4-8.687H638.312L645.4,3.91,589.625,253.088l-9.144,7.773H479.9Z" transform="translate(-469.887 2.435)" fill="#7485ff"/>
        <path id="Trazado_1691" data-name="Trazado 1691" d="M580.629,261.262H479.754l-9.867-7.987.005-.2,6.4-246.56,6.6-8.952H638.458l7.392,6.194L645.8,4,589.988,253.307Zm-100.591-.8h100.3l8.929-7.59,55.7-248.807-6.793-5.693H483.3L477.093,6.79,470.7,252.9Z" transform="translate(-469.887 2.435)" fill="#fff"/>
      </g>
      <g id="Grupo_2007" data-name="Grupo 2007" transform="translate(629.87 90.572)">
        <path id="Trazado_1692" data-name="Trazado 1692" d="M688.382,5.282,698.9-2.034H802.226l8.23,7.315L799.94,254.459,794,260.86l-155.707,3.2-7.973-6.858Z" transform="translate(-629.87 2.435)" fill="#7485ff"/>
        <path id="Trazado_1693" data-name="Trazado 1693" d="M638.144,264.466l-8.274-7.117.055-.237,58.1-252.071,10.747-7.476H802.379l8.486,7.543-.007.191L800.336,254.624l-6.161,6.634-.17,0Zm-7.381-7.41,7.672,6.6,155.383-3.193,5.727-6.168,10.5-248.838-7.973-7.088H699.024L688.738,5.523Z" transform="translate(-629.87 2.435)" fill="#fff"/>
      </g>
      <g id="Grupo_2008" data-name="Grupo 2008" transform="translate(877.236 55.256)">
        <rect id="Rectángulo_475" data-name="Rectángulo 475" width="401.87" height="35.949" transform="translate(0.895 11.754)" fill="none"/>
        <rect id="Rectángulo_476" data-name="Rectángulo 476" width="401.87" height="35.949" transform="translate(0.895 178.449)" fill="none"/>
        <rect id="Rectángulo_477" data-name="Rectángulo 477" width="401.87" height="13.734" transform="translate(0.895 215.23)" fill="#5568f4"/>
        <path id="Trazado_1694" data-name="Trazado 1694" d="M877.683,191.745V177.563h-.448v14.629H1280v-.447Z" transform="translate(-877.236 37.665)" fill="#fff"/>
        <path id="Trazado_1695" data-name="Trazado 1695" d="M878.13,191.3V177.563h-.447v14.182H1280V191.3Z" transform="translate(-877.236 37.666)" fill="#fff"/>
        <rect id="Rectángulo_478" data-name="Rectángulo 478" width="0.895" height="35.949" transform="translate(0 178.449)" fill="#fff"/>
        <path id="Trazado_1696" data-name="Trazado 1696" d="M877.683,177.116H1280v-.447H877.236v.895h.448Z" transform="translate(-877.236 37.685)" fill="#fff"/>
        <path id="Trazado_1697" data-name="Trazado 1697" d="M1280,177.563v-.447H877.683v.447H1280Z" transform="translate(-877.236 37.684)" fill="#fff"/>
        <rect id="Rectángulo_479" data-name="Rectángulo 479" width="401.87" height="9.965" transform="translate(0.895 167.644)" fill="#5568f4"/>
        <path id="Trazado_1698" data-name="Trazado 1698" d="M877.683,129.413H1280v-.447H877.236v10.859h.448Z" transform="translate(-877.236 37.785)" fill="#fff"/>
        <path id="Trazado_1699" data-name="Trazado 1699" d="M1280,140.72v-.448H877.683v-.447h-.448v.895H1280Z" transform="translate(-877.236 37.77)" fill="#fff"/>
        <path id="Trazado_1700" data-name="Trazado 1700" d="M877.683,139.825h.447V129.86H1280v-.447H877.683Z" transform="translate(-877.236 37.785)" fill="#fff"/>
        <path id="Trazado_1701" data-name="Trazado 1701" d="M878.13,139.825h-.447v.447H1280v-.447Z" transform="translate(-877.236 37.77)" fill="#fff"/>
        <rect id="Rectángulo_480" data-name="Rectángulo 480" width="401.87" height="13.734" transform="translate(0.895 48.597)" fill="#5568f4"/>
        <path id="Trazado_1702" data-name="Trazado 1702" d="M877.683,24.6V10.417h-.448V25.045H1280V24.6Z" transform="translate(-877.236 38.181)" fill="#fff"/>
        <path id="Trazado_1703" data-name="Trazado 1703" d="M878.13,24.151V10.417h-.447V24.6H1280v-.448Z" transform="translate(-877.236 38.181)" fill="#fff"/>
        <rect id="Rectángulo_481" data-name="Rectángulo 481" width="0.895" height="35.949" transform="translate(0 11.754)" fill="#fff"/>
        <path id="Trazado_1704" data-name="Trazado 1704" d="M877.683,9.969H1280V9.522H877.236v.895h.448Z" transform="translate(-877.236 38.181)" fill="#fff"/>
        <path id="Trazado_1705" data-name="Trazado 1705" d="M1280,10.417V9.969H877.683v.447H1280Z" transform="translate(-877.236 38.181)" fill="#fff"/>
        <rect id="Rectángulo_482" data-name="Rectángulo 482" width="401.87" height="9.965" transform="translate(0.895 0.895)" fill="#5568f4"/>
        <path id="Trazado_1706" data-name="Trazado 1706" d="M877.683-37.733H1280v-.447H877.236v10.859h.448Z" transform="translate(-877.236 38.181)" fill="#fff"/>
        <path id="Trazado_1707" data-name="Trazado 1707" d="M1280-26.427v-.448H877.683v-.447h-.448v.894H1280Z" transform="translate(-877.236 38.181)" fill="#fff"/>
        <path id="Trazado_1708" data-name="Trazado 1708" d="M878.13-37.286H1280v-.447H877.683v10.412h.447Z" transform="translate(-877.236 38.181)" fill="#fff"/>
        <path id="Trazado_1709" data-name="Trazado 1709" d="M878.13-27.321h-.447v.447H1280v-.447Z" transform="translate(-877.236 38.181)" fill="#fff"/>
        <path id="Trazado_1710" data-name="Trazado 1710" d="M907.658,303.184l-29.784-19.3-.383.591,29.71,19.248v-.192l.7,0,0,.351H1280v-.7Z" transform="translate(-877.236 37.401)" fill="#fff"/>
        <path id="Trazado_1711" data-name="Trazado 1711" d="M907.2,303.727l-.32,71.786.7,0,.319-71.628h-.454Z" transform="translate(-877.236 37.228)" fill="#fff"/>
        <path id="Trazado_1712" data-name="Trazado 1712" d="M907.2,303.535v.192l.249.161h.454l0-.351Z" transform="translate(-877.236 37.228)" fill="#fff"/>
      </g>
      <g id="Grupo_2012" data-name="Grupo 2012" transform="translate(913.591 80.786)">
        <g id="Grupo_2009" data-name="Grupo 2009">
          <path id="Trazado_1713" data-name="Trazado 1713" d="M925.322-6.61a5.689,5.689,0,0,1-5.689,5.689,5.689,5.689,0,0,1-5.689-5.689,5.689,5.689,0,0,1,5.689-5.689A5.689,5.689,0,0,1,925.322-6.61Z" transform="translate(-913.591 12.651)" fill="#7485ff"/>
          <path id="Trazado_1714" data-name="Trazado 1714" d="M919.633-.569a6.049,6.049,0,0,1-6.042-6.041,6.049,6.049,0,0,1,6.042-6.041,6.048,6.048,0,0,1,6.041,6.041A6.048,6.048,0,0,1,919.633-.569Zm0-11.378A5.343,5.343,0,0,0,914.3-6.61a5.343,5.343,0,0,0,5.337,5.337A5.343,5.343,0,0,0,924.97-6.61,5.343,5.343,0,0,0,919.633-11.947Z" transform="translate(-913.591 12.651)" fill="#fff"/>
        </g>
        <g id="Grupo_2010" data-name="Grupo 2010" transform="translate(72.117)">
          <path id="Trazado_1715" data-name="Trazado 1715" d="M997.439-6.61a5.69,5.69,0,0,1-5.69,5.689A5.689,5.689,0,0,1,986.06-6.61a5.689,5.689,0,0,1,5.689-5.689A5.69,5.69,0,0,1,997.439-6.61Z" transform="translate(-985.708 12.651)" fill="#7485ff"/>
          <path id="Trazado_1716" data-name="Trazado 1716" d="M991.749-.569a6.048,6.048,0,0,1-6.041-6.041,6.048,6.048,0,0,1,6.041-6.041,6.049,6.049,0,0,1,6.042,6.041A6.049,6.049,0,0,1,991.749-.569Zm0-11.378a5.343,5.343,0,0,0-5.337,5.337,5.343,5.343,0,0,0,5.337,5.337,5.343,5.343,0,0,0,5.338-5.337A5.343,5.343,0,0,0,991.749-11.947Z" transform="translate(-985.708 12.651)" fill="#fff"/>
        </g>
        <g id="Grupo_2011" data-name="Grupo 2011" transform="translate(144.234)">
          <path id="Trazado_1717" data-name="Trazado 1717" d="M1069.555-6.61a5.689,5.689,0,0,1-5.689,5.689,5.689,5.689,0,0,1-5.689-5.689,5.689,5.689,0,0,1,5.689-5.689A5.689,5.689,0,0,1,1069.555-6.61Z" transform="translate(-1057.825 12.651)" fill="#7485ff"/>
          <path id="Trazado_1718" data-name="Trazado 1718" d="M1063.866-.569a6.048,6.048,0,0,1-6.041-6.041,6.048,6.048,0,0,1,6.041-6.041,6.048,6.048,0,0,1,6.041,6.041A6.048,6.048,0,0,1,1063.866-.569Zm0-11.378a5.343,5.343,0,0,0-5.337,5.337,5.343,5.343,0,0,0,5.337,5.337A5.343,5.343,0,0,0,1069.2-6.61,5.343,5.343,0,0,0,1063.866-11.947Z" transform="translate(-1057.825 12.651)" fill="#fff"/>
        </g>
      </g>
      <g id="Grupo_2016" data-name="Grupo 2016" transform="translate(913.591 245.576)">
        <g id="Grupo_2013" data-name="Grupo 2013">
          <path id="Trazado_1719" data-name="Trazado 1719" d="M925.322,158.694a5.689,5.689,0,1,1-5.689-5.689A5.689,5.689,0,0,1,925.322,158.694Z" transform="translate(-913.591 -152.653)" fill="#7485ff"/>
          <path id="Trazado_1720" data-name="Trazado 1720" d="M919.633,164.735a6.041,6.041,0,1,1,6.041-6.041A6.049,6.049,0,0,1,919.633,164.735Zm0-11.378a5.337,5.337,0,1,0,5.337,5.337A5.343,5.343,0,0,0,919.633,153.357Z" transform="translate(-913.591 -152.653)" fill="#fff"/>
        </g>
        <g id="Grupo_2014" data-name="Grupo 2014" transform="translate(72.117)">
          <path id="Trazado_1721" data-name="Trazado 1721" d="M997.439,158.694a5.69,5.69,0,1,1-5.69-5.689A5.69,5.69,0,0,1,997.439,158.694Z" transform="translate(-985.708 -152.653)" fill="#7485ff"/>
          <path id="Trazado_1722" data-name="Trazado 1722" d="M991.749,164.735a6.041,6.041,0,1,1,6.042-6.041A6.048,6.048,0,0,1,991.749,164.735Zm0-11.378a5.337,5.337,0,1,0,5.338,5.337A5.343,5.343,0,0,0,991.749,153.357Z" transform="translate(-985.708 -152.653)" fill="#fff"/>
        </g>
        <g id="Grupo_2015" data-name="Grupo 2015" transform="translate(144.234)">
          <path id="Trazado_1723" data-name="Trazado 1723" d="M1069.555,158.694a5.689,5.689,0,1,1-5.689-5.689A5.689,5.689,0,0,1,1069.555,158.694Z" transform="translate(-1057.825 -152.653)" fill="#7485ff"/>
          <path id="Trazado_1724" data-name="Trazado 1724" d="M1063.866,164.735a6.041,6.041,0,1,1,6.041-6.041A6.048,6.048,0,0,1,1063.866,164.735Zm0-11.378a5.337,5.337,0,1,0,5.337,5.337A5.343,5.343,0,0,0,1063.866,153.357Z" transform="translate(-1057.825 -152.653)" fill="#fff"/>
        </g>
      </g>
      <g id="Grupo_2017" data-name="Grupo 2017" transform="translate(0 55.256)">
        <rect id="Rectángulo_483" data-name="Rectángulo 483" width="398.208" height="35.949" transform="translate(0.895 11.754)" fill="none"/>
        <rect id="Rectángulo_484" data-name="Rectángulo 484" width="398.208" height="35.949" transform="translate(0.895 178.449)" fill="none"/>
        <rect id="Rectángulo_485" data-name="Rectángulo 485" width="398.208" height="13.734" transform="translate(0.895 215.23)" fill="#5568f4"/>
        <path id="Trazado_1725" data-name="Trazado 1725" d="M.447,191.745V177.563H0v14.629H399.1v-.447Z" transform="translate(0 37.665)" fill="#fff"/>
        <path id="Trazado_1726" data-name="Trazado 1726" d="M.895,191.3V177.563H.447v14.182H399.1V191.3Z" transform="translate(0 37.666)" fill="#fff"/>
        <rect id="Rectángulo_486" data-name="Rectángulo 486" width="0.895" height="35.949" transform="translate(0 178.449)" fill="#fff"/>
        <path id="Trazado_1727" data-name="Trazado 1727" d="M.447,177.116H399.1v-.447H0v.895H.447Z" transform="translate(0 37.685)" fill="#fff"/>
        <path id="Trazado_1728" data-name="Trazado 1728" d="M399.1,177.563v-.447H.447v.447H399.1Z" transform="translate(0 37.684)" fill="#fff"/>
        <rect id="Rectángulo_487" data-name="Rectángulo 487" width="398.208" height="9.965" transform="translate(0.895 167.644)" fill="#5568f4"/>
        <path id="Trazado_1729" data-name="Trazado 1729" d="M.447,129.413H399.1v-.447H0v10.859H.447Z" transform="translate(0 37.785)" fill="#fff"/>
        <path id="Trazado_1730" data-name="Trazado 1730" d="M399.1,140.72v-.448H.447v-.447H0v.895H399.1Z" transform="translate(0 37.77)" fill="#fff"/>
        <path id="Trazado_1731" data-name="Trazado 1731" d="M.447,139.825H.895V129.86H399.1v-.447H.447Z" transform="translate(0 37.785)" fill="#fff"/>
        <path id="Trazado_1732" data-name="Trazado 1732" d="M.895,139.825H.447v.447H399.1v-.447Z" transform="translate(0 37.77)" fill="#fff"/>
        <rect id="Rectángulo_488" data-name="Rectángulo 488" width="398.208" height="13.734" transform="translate(0.895 48.597)" fill="#5568f4"/>
        <path id="Trazado_1733" data-name="Trazado 1733" d="M.447,24.6V10.417H0V25.045H399.1V24.6Z" transform="translate(0 38.181)" fill="#fff"/>
        <path id="Trazado_1734" data-name="Trazado 1734" d="M.895,24.151V10.417H.447V24.6H399.1v-.448Z" transform="translate(0 38.181)" fill="#fff"/>
        <rect id="Rectángulo_489" data-name="Rectángulo 489" width="0.895" height="35.949" transform="translate(0 11.754)" fill="#fff"/>
        <path id="Trazado_1735" data-name="Trazado 1735" d="M.447,9.969H399.1V9.522H0v.895H.447Z" transform="translate(0 38.181)" fill="#fff"/>
        <path id="Trazado_1736" data-name="Trazado 1736" d="M399.1,10.417V9.969H.447v.447H399.1Z" transform="translate(0 38.181)" fill="#fff"/>
        <rect id="Rectángulo_490" data-name="Rectángulo 490" width="398.208" height="9.965" transform="translate(0.895 0.895)" fill="#5568f4"/>
        <path id="Trazado_1737" data-name="Trazado 1737" d="M.447-37.733H399.1v-.447H0v10.859H.447Z" transform="translate(0 38.181)" fill="#fff"/>
        <path id="Trazado_1738" data-name="Trazado 1738" d="M399.1-26.427v-.448H.447v-.447H0v.894H399.1Z" transform="translate(0 38.181)" fill="#fff"/>
        <path id="Trazado_1739" data-name="Trazado 1739" d="M.895-37.286H399.1v-.447H.447v10.412H.895Z" transform="translate(0 38.181)" fill="#fff"/>
        <path id="Trazado_1740" data-name="Trazado 1740" d="M.895-27.321H.447v.447H399.1v-.447Z" transform="translate(0 38.181)" fill="#fff"/>
        <path id="Trazado_1741" data-name="Trazado 1741" d="M368.936,303.184l29.784-19.3.383.591-29.71,19.248v-.192l-.7,0,0,.351H.256v-.7Z" transform="translate(0 37.401)" fill="#fff"/>
        <path id="Trazado_1742" data-name="Trazado 1742" d="M369.393,303.727l.32,71.786-.7,0-.319-71.628h.454Z" transform="translate(0 37.228)" fill="#fff"/>
        <path id="Trazado_1743" data-name="Trazado 1743" d="M369.392,303.535v.192l-.249.161h-.454l0-.351Z" transform="translate(0 37.228)" fill="#fff"/>
      </g>
      <g id="Grupo_2021" data-name="Grupo 2021" transform="translate(234.122 80.786)">
        <g id="Grupo_2018" data-name="Grupo 2018">
          <path id="Trazado_1744" data-name="Trazado 1744" d="M245.853-6.61a5.689,5.689,0,0,1-5.689,5.689,5.689,5.689,0,0,1-5.69-5.689,5.689,5.689,0,0,1,5.69-5.689A5.689,5.689,0,0,1,245.853-6.61Z" transform="translate(-234.122 12.651)" fill="#7485ff"/>
          <path id="Trazado_1745" data-name="Trazado 1745" d="M240.164-.569a6.049,6.049,0,0,1-6.042-6.041,6.049,6.049,0,0,1,6.042-6.041,6.048,6.048,0,0,1,6.041,6.041A6.048,6.048,0,0,1,240.164-.569Zm0-11.378a5.344,5.344,0,0,0-5.338,5.337,5.344,5.344,0,0,0,5.338,5.337A5.343,5.343,0,0,0,245.5-6.61,5.343,5.343,0,0,0,240.164-11.947Z" transform="translate(-234.122 12.651)" fill="#fff"/>
        </g>
        <g id="Grupo_2019" data-name="Grupo 2019" transform="translate(72.117)">
          <path id="Trazado_1746" data-name="Trazado 1746" d="M317.969-6.61A5.689,5.689,0,0,1,312.28-.921a5.689,5.689,0,0,1-5.689-5.689A5.689,5.689,0,0,1,312.28-12.3,5.689,5.689,0,0,1,317.969-6.61Z" transform="translate(-306.239 12.651)" fill="#7485ff"/>
          <path id="Trazado_1747" data-name="Trazado 1747" d="M312.28-.569a6.048,6.048,0,0,1-6.041-6.041,6.048,6.048,0,0,1,6.041-6.041,6.049,6.049,0,0,1,6.042,6.041A6.049,6.049,0,0,1,312.28-.569Zm0-11.378a5.343,5.343,0,0,0-5.337,5.337,5.343,5.343,0,0,0,5.337,5.337,5.343,5.343,0,0,0,5.337-5.337A5.343,5.343,0,0,0,312.28-11.947Z" transform="translate(-306.239 12.651)" fill="#fff"/>
        </g>
        <g id="Grupo_2020" data-name="Grupo 2020" transform="translate(144.234)">
          <path id="Trazado_1748" data-name="Trazado 1748" d="M390.086-6.61A5.689,5.689,0,0,1,384.4-.921a5.69,5.69,0,0,1-5.69-5.689A5.69,5.69,0,0,1,384.4-12.3,5.689,5.689,0,0,1,390.086-6.61Z" transform="translate(-378.356 12.651)" fill="#7485ff"/>
          <path id="Trazado_1749" data-name="Trazado 1749" d="M384.4-.569a6.048,6.048,0,0,1-6.041-6.041,6.048,6.048,0,0,1,6.041-6.041,6.048,6.048,0,0,1,6.041,6.041A6.048,6.048,0,0,1,384.4-.569Zm0-11.378A5.343,5.343,0,0,0,379.06-6.61,5.343,5.343,0,0,0,384.4-1.273a5.343,5.343,0,0,0,5.337-5.337A5.343,5.343,0,0,0,384.4-11.947Z" transform="translate(-378.356 12.651)" fill="#fff"/>
        </g>
      </g>
      <g id="Grupo_2025" data-name="Grupo 2025" transform="translate(234.122 245.576)">
        <g id="Grupo_2022" data-name="Grupo 2022">
          <path id="Trazado_1750" data-name="Trazado 1750" d="M245.853,158.694a5.689,5.689,0,1,1-5.689-5.689A5.689,5.689,0,0,1,245.853,158.694Z" transform="translate(-234.122 -152.653)" fill="#7485ff"/>
          <path id="Trazado_1751" data-name="Trazado 1751" d="M240.164,164.735a6.041,6.041,0,1,1,6.041-6.041A6.049,6.049,0,0,1,240.164,164.735Zm0-11.378a5.337,5.337,0,1,0,5.337,5.337A5.344,5.344,0,0,0,240.164,153.357Z" transform="translate(-234.122 -152.653)" fill="#fff"/>
        </g>
        <g id="Grupo_2023" data-name="Grupo 2023" transform="translate(72.117)">
          <path id="Trazado_1752" data-name="Trazado 1752" d="M317.969,158.694a5.689,5.689,0,1,1-5.689-5.689A5.689,5.689,0,0,1,317.969,158.694Z" transform="translate(-306.239 -152.653)" fill="#7485ff"/>
          <path id="Trazado_1753" data-name="Trazado 1753" d="M312.28,164.735a6.041,6.041,0,1,1,6.042-6.041A6.048,6.048,0,0,1,312.28,164.735Zm0-11.378a5.337,5.337,0,1,0,5.337,5.337A5.343,5.343,0,0,0,312.28,153.357Z" transform="translate(-306.239 -152.653)" fill="#fff"/>
        </g>
        <g id="Grupo_2024" data-name="Grupo 2024" transform="translate(144.234)">
          <path id="Trazado_1754" data-name="Trazado 1754" d="M390.086,158.694a5.689,5.689,0,1,1-5.689-5.689A5.689,5.689,0,0,1,390.086,158.694Z" transform="translate(-378.356 -152.653)" fill="#7485ff"/>
          <path id="Trazado_1755" data-name="Trazado 1755" d="M384.4,164.735a6.041,6.041,0,1,1,6.041-6.041A6.048,6.048,0,0,1,384.4,164.735Zm0-11.378a5.337,5.337,0,1,0,5.337,5.337A5.343,5.343,0,0,0,384.4,153.357Z" transform="translate(-378.356 -152.653)" fill="#fff"/>
        </g>
      </g>
      <g id="Grupo_2028" data-name="Grupo 2028" transform="translate(411.997 10.737)">
        <g id="Grupo_2026" data-name="Grupo 2026" transform="translate(42.869)">
          <path id="Trazado_1756" data-name="Trazado 1756" d="M466.6-76.659a5.69,5.69,0,0,1-5.69,5.689,5.689,5.689,0,0,1-5.689-5.689,5.689,5.689,0,0,1,5.689-5.689A5.69,5.69,0,0,1,466.6-76.659Z" transform="translate(-454.866 82.7)" fill="#5568f4"/>
          <path id="Trazado_1757" data-name="Trazado 1757" d="M460.908-70.618a6.048,6.048,0,0,1-6.042-6.041,6.048,6.048,0,0,1,6.042-6.041,6.048,6.048,0,0,1,6.04,6.041A6.048,6.048,0,0,1,460.908-70.618Zm0-11.378a5.343,5.343,0,0,0-5.338,5.337,5.343,5.343,0,0,0,5.338,5.337,5.343,5.343,0,0,0,5.336-5.337A5.343,5.343,0,0,0,460.908-82Z" transform="translate(-454.866 82.7)" fill="#fff"/>
        </g>
        <g id="Grupo_2027" data-name="Grupo 2027" transform="translate(0 46.6)">
          <path id="Trazado_1758" data-name="Trazado 1758" d="M423.728-30.059a5.689,5.689,0,0,1-5.689,5.689,5.689,5.689,0,0,1-5.69-5.689,5.689,5.689,0,0,1,5.69-5.689A5.689,5.689,0,0,1,423.728-30.059Z" transform="translate(-411.997 36.1)" fill="#5568f4"/>
          <path id="Trazado_1759" data-name="Trazado 1759" d="M418.039-24.018A6.049,6.049,0,0,1,412-30.059a6.049,6.049,0,0,1,6.042-6.041,6.048,6.048,0,0,1,6.041,6.041A6.048,6.048,0,0,1,418.039-24.018Zm0-11.378a5.343,5.343,0,0,0-5.338,5.337,5.343,5.343,0,0,0,5.338,5.337,5.343,5.343,0,0,0,5.337-5.337A5.343,5.343,0,0,0,418.039-35.4Z" transform="translate(-411.997 36.1)" fill="#fff"/>
        </g>
      </g>
      <g id="Grupo_2031" data-name="Grupo 2031" transform="translate(812.516 11.406)">
        <g id="Grupo_2029" data-name="Grupo 2029">
          <path id="Trazado_1760" data-name="Trazado 1760" d="M812.868-75.99a5.69,5.69,0,0,0,5.689,5.689,5.689,5.689,0,0,0,5.69-5.689,5.689,5.689,0,0,0-5.69-5.689A5.69,5.69,0,0,0,812.868-75.99Z" transform="translate(-812.516 82.031)" fill="#5568f4"/>
          <path id="Trazado_1761" data-name="Trazado 1761" d="M818.557-69.949a6.048,6.048,0,0,1-6.041-6.041,6.048,6.048,0,0,1,6.041-6.041A6.049,6.049,0,0,1,824.6-75.99,6.049,6.049,0,0,1,818.557-69.949Zm0-11.378a5.343,5.343,0,0,0-5.337,5.337,5.343,5.343,0,0,0,5.337,5.337A5.343,5.343,0,0,0,823.9-75.99,5.343,5.343,0,0,0,818.557-81.327Z" transform="translate(-812.516 82.031)" fill="#fff"/>
        </g>
        <g id="Grupo_2030" data-name="Grupo 2030" transform="translate(42.869 46.599)">
          <path id="Trazado_1762" data-name="Trazado 1762" d="M855.737-29.39a5.689,5.689,0,0,0,5.689,5.689,5.689,5.689,0,0,0,5.689-5.689,5.689,5.689,0,0,0-5.689-5.689A5.689,5.689,0,0,0,855.737-29.39Z" transform="translate(-855.385 35.432)" fill="#5568f4"/>
          <path id="Trazado_1763" data-name="Trazado 1763" d="M861.426-23.349a6.048,6.048,0,0,1-6.041-6.041,6.049,6.049,0,0,1,6.041-6.042,6.049,6.049,0,0,1,6.041,6.042A6.048,6.048,0,0,1,861.426-23.349Zm0-11.378a5.343,5.343,0,0,0-5.337,5.337,5.343,5.343,0,0,0,5.337,5.337,5.343,5.343,0,0,0,5.337-5.337A5.343,5.343,0,0,0,861.426-34.727Z" transform="translate(-855.385 35.432)" fill="#fff"/>
        </g>
      </g>
      <g id="Grupo_2034" data-name="Grupo 2034" transform="translate(469.942 66.211)">
        <g id="Grupo_2032" data-name="Grupo 2032">
          <path id="Trazado_1764" data-name="Trazado 1764" d="M481.673-21.185a5.689,5.689,0,0,1-5.689,5.689,5.689,5.689,0,0,1-5.69-5.689,5.689,5.689,0,0,1,5.69-5.689A5.689,5.689,0,0,1,481.673-21.185Z" transform="translate(-469.942 27.226)" fill="#5568f4"/>
          <path id="Trazado_1765" data-name="Trazado 1765" d="M475.984-15.144a6.049,6.049,0,0,1-6.042-6.041,6.049,6.049,0,0,1,6.042-6.041,6.048,6.048,0,0,1,6.041,6.041A6.048,6.048,0,0,1,475.984-15.144Zm0-11.378a5.343,5.343,0,0,0-5.338,5.337,5.343,5.343,0,0,0,5.338,5.337,5.343,5.343,0,0,0,5.337-5.337A5.343,5.343,0,0,0,475.984-26.522Z" transform="translate(-469.942 27.226)" fill="#fff"/>
        </g>
        <g id="Grupo_2033" data-name="Grupo 2033" transform="translate(178.229)">
          <path id="Trazado_1766" data-name="Trazado 1766" d="M659.9-21.185a5.689,5.689,0,0,1-5.689,5.689,5.689,5.689,0,0,1-5.689-5.689,5.689,5.689,0,0,1,5.689-5.689A5.689,5.689,0,0,1,659.9-21.185Z" transform="translate(-648.171 27.226)" fill="#5568f4"/>
          <path id="Trazado_1767" data-name="Trazado 1767" d="M654.213-15.144a6.049,6.049,0,0,1-6.042-6.041,6.049,6.049,0,0,1,6.042-6.041,6.049,6.049,0,0,1,6.042,6.041A6.049,6.049,0,0,1,654.213-15.144Zm0-11.378a5.343,5.343,0,0,0-5.337,5.337,5.343,5.343,0,0,0,5.337,5.337,5.343,5.343,0,0,0,5.338-5.337A5.343,5.343,0,0,0,654.213-26.522Z" transform="translate(-648.171 27.226)" fill="#fff"/>
        </g>
      </g>
      <g id="Grupo_2037" data-name="Grupo 2037" transform="translate(620.496 370.804)">
        <g id="Grupo_2035" data-name="Grupo 2035">
          <path id="Trazado_1768" data-name="Trazado 1768" d="M632.226,284.183a5.689,5.689,0,1,1-5.689-5.689A5.69,5.69,0,0,1,632.226,284.183Z" transform="translate(-620.496 -278.142)" fill="#5568f4"/>
          <path id="Trazado_1769" data-name="Trazado 1769" d="M626.537,290.225a6.042,6.042,0,1,1,6.041-6.042A6.049,6.049,0,0,1,626.537,290.225Zm0-11.379a5.337,5.337,0,1,0,5.337,5.337A5.343,5.343,0,0,0,626.537,278.846Z" transform="translate(-620.496 -278.142)" fill="#fff"/>
        </g>
        <g id="Grupo_2036" data-name="Grupo 2036" transform="translate(178.229)">
          <path id="Trazado_1770" data-name="Trazado 1770" d="M810.456,284.183a5.689,5.689,0,1,1-5.689-5.689A5.69,5.69,0,0,1,810.456,284.183Z" transform="translate(-798.725 -278.142)" fill="#5568f4"/>
          <path id="Trazado_1771" data-name="Trazado 1771" d="M804.767,290.225a6.042,6.042,0,1,1,6.041-6.042A6.05,6.05,0,0,1,804.767,290.225Zm0-11.379a5.337,5.337,0,1,0,5.337,5.337A5.343,5.343,0,0,0,804.767,278.846Z" transform="translate(-798.725 -278.142)" fill="#fff"/>
        </g>
      </g>
      <g id="Grupo_2040" data-name="Grupo 2040" transform="translate(694.039 66.211)">
        <g id="Grupo_2038" data-name="Grupo 2038">
          <path id="Trazado_1772" data-name="Trazado 1772" d="M705.769-21.185A5.689,5.689,0,0,1,700.08-15.5a5.689,5.689,0,0,1-5.689-5.689,5.689,5.689,0,0,1,5.689-5.689A5.689,5.689,0,0,1,705.769-21.185Z" transform="translate(-694.039 27.226)" fill="#5568f4"/>
          <path id="Trazado_1773" data-name="Trazado 1773" d="M700.08-15.144a6.048,6.048,0,0,1-6.041-6.041,6.048,6.048,0,0,1,6.041-6.041,6.049,6.049,0,0,1,6.042,6.041A6.049,6.049,0,0,1,700.08-15.144Zm0-11.378a5.343,5.343,0,0,0-5.337,5.337,5.343,5.343,0,0,0,5.337,5.337,5.343,5.343,0,0,0,5.338-5.337A5.343,5.343,0,0,0,700.08-26.522Z" transform="translate(-694.039 27.226)" fill="#fff"/>
        </g>
        <g id="Grupo_2039" data-name="Grupo 2039" transform="translate(104.686)">
          <path id="Trazado_1774" data-name="Trazado 1774" d="M810.456-21.185a5.689,5.689,0,0,1-5.689,5.689,5.69,5.69,0,0,1-5.69-5.689,5.69,5.69,0,0,1,5.69-5.689A5.689,5.689,0,0,1,810.456-21.185Z" transform="translate(-798.725 27.226)" fill="#5568f4"/>
          <path id="Trazado_1775" data-name="Trazado 1775" d="M804.767-15.144a6.049,6.049,0,0,1-6.042-6.041,6.049,6.049,0,0,1,6.042-6.041,6.048,6.048,0,0,1,6.041,6.041A6.048,6.048,0,0,1,804.767-15.144Zm0-11.378a5.343,5.343,0,0,0-5.338,5.337,5.343,5.343,0,0,0,5.338,5.337,5.343,5.343,0,0,0,5.337-5.337A5.343,5.343,0,0,0,804.767-26.522Z" transform="translate(-798.725 27.226)" fill="#fff"/>
        </g>
      </g>
      <g id="Grupo_2043" data-name="Grupo 2043" transform="translate(466.244 370.804)">
        <g id="Grupo_2041" data-name="Grupo 2041">
          <path id="Trazado_1776" data-name="Trazado 1776" d="M477.975,284.183a5.689,5.689,0,1,1-5.689-5.689A5.69,5.69,0,0,1,477.975,284.183Z" transform="translate(-466.244 -278.142)" fill="#5568f4"/>
          <path id="Trazado_1777" data-name="Trazado 1777" d="M472.286,290.225a6.042,6.042,0,1,1,6.041-6.042A6.05,6.05,0,0,1,472.286,290.225Zm0-11.379a5.337,5.337,0,1,0,5.337,5.337A5.343,5.343,0,0,0,472.286,278.846Z" transform="translate(-466.244 -278.142)" fill="#fff"/>
        </g>
        <g id="Grupo_2042" data-name="Grupo 2042" transform="translate(104.687)">
          <path id="Trazado_1778" data-name="Trazado 1778" d="M582.661,284.183a5.689,5.689,0,1,1-5.689-5.689A5.69,5.69,0,0,1,582.661,284.183Z" transform="translate(-570.931 -278.142)" fill="#5568f4"/>
          <path id="Trazado_1779" data-name="Trazado 1779" d="M576.972,290.225a6.042,6.042,0,1,1,6.041-6.042A6.049,6.049,0,0,1,576.972,290.225Zm0-11.379a5.337,5.337,0,1,0,5.337,5.337A5.343,5.343,0,0,0,576.972,278.846Z" transform="translate(-570.931 -278.142)" fill="#fff"/>
        </g>
      </g>
      <g id="Grupo_2044" data-name="Grupo 2044" transform="translate(398.298)">
        <path id="Trazado_1780" data-name="Trazado 1780" d="M398.7,114.844l65.685-46.886V53.942L398.7,102.166Z" transform="translate(-398.298 93.048)" fill="#d6dbff"/>
        <path id="Trazado_1781" data-name="Trazado 1781" d="M398.7,152.092l65.558-46.8.127-.1V91.189L398.7,139.414Z" transform="translate(-398.298 92.949)" fill="#d6dbff"/>
        <path id="Trazado_1782" data-name="Trazado 1782" d="M398.7,188.074l34.03-24.29V150.412L398.7,175.4Z" transform="translate(-398.298 92.832)" fill="#d6dbff"/>
        <path id="Trazado_1783" data-name="Trazado 1783" d="M398.7,77.373l53.028-37.851-7.934-7.934L398.7,64.7Z" transform="translate(-398.298 93.12)" fill="#d6dbff"/>
        <path id="Trazado_1784" data-name="Trazado 1784" d="M398.7,40.142l37.2-26.55V0L398.7,27.308Z" transform="translate(-398.298 93.203)" fill="#d6dbff"/>
        <path id="Trazado_1785" data-name="Trazado 1785" d="M813.386,52.97v8.89l64.1,45.756V94.732L816.581,50.015Z" transform="translate(-398.298 93.062)" fill="#d6dbff"/>
        <path id="Trazado_1786" data-name="Trazado 1786" d="M813.386,99.108l64.1,45.756V131.98l-64.1-47.063Z" transform="translate(-398.298 92.967)" fill="#d6dbff"/>
        <path id="Trazado_1787" data-name="Trazado 1787" d="M846.028,138.519l-.195,14.046,32.358,23.1v-13.53Z" transform="translate(-398.298 92.862)" fill="#d6dbff"/>
        <path id="Trazado_1788" data-name="Trazado 1788" d="M830.826,36.838l46.662,33.308V57.261L839.165,29.125Z" transform="translate(-398.298 93.13)" fill="#d6dbff"/>
        <path id="Trazado_1789" data-name="Trazado 1789" d="M877.489,19.874,845.042-3.948v13.7l32.447,23.161Z" transform="translate(-398.298 93.215)" fill="#d6dbff"/>
        <path id="Trazado_1790" data-name="Trazado 1790" d="M555.137-93.437l-33.97,35.612h16.122L574.1-93.437Z" transform="translate(-398.298 93.437)" fill="#d6dbff"/>
        <path id="Trazado_1791" data-name="Trazado 1791" d="M606.828-93.437l-33.97,35.612H588.98l36.814-35.612Z" transform="translate(-398.298 93.437)" fill="#d6dbff"/>
        <path id="Trazado_1792" data-name="Trazado 1792" d="M656.916-93.437l-33.97,35.612h16.122l36.814-35.612Z" transform="translate(-398.298 93.437)" fill="#d6dbff"/>
        <path id="Trazado_1793" data-name="Trazado 1793" d="M709.23-93.437,675.26-57.824h16.121L728.2-93.437Z" transform="translate(-398.298 93.437)" fill="#d6dbff"/>
        <path id="Trazado_1794" data-name="Trazado 1794" d="M759.95-93.437,725.98-57.824H742.1l36.814-35.612Z" transform="translate(-398.298 93.437)" fill="#d6dbff"/>
        <path id="Trazado_1795" data-name="Trazado 1795" d="M862.854,327.632H845.431l.195-198.995L813.18,103.371v-.195l-.2-49.319.129-.12,31.527-29.1V-42.133L830.631-56.11H446.367L436.3-44.519V24.65l28.491,28.426-.128,51.973-31.334,23.592-.194,198.991H415.709V284.3l-17.411-.1V-39.3l.107-.115,49.186-53.032H827.01l.119.122,50.762,52.231V284.2H862.854Zm-16.619-.8h15.816V283.4h15.036V-39.767L826.67-91.643H447.942L399.1-38.984V283.4l17.41.1V326.83h15.816l.2-198.589.159-.12,31.175-23.473.126-51.242-28.49-28.425v-69.8L446-56.913H830.964l14.48,14.447V24.992L813.789,54.206l.194,48.772,32.447,25.268v.2Z" transform="translate(-398.298 93.437)" fill="#fff"/>
      </g>
    </g>
  </g>
</svg>
