<svg xmlns="http://www.w3.org/2000/svg" width="188" height="292" viewBox="0 0 188 292">
  <g id="Grupo_2118" data-name="Grupo 2118" transform="translate(-68.967 -2148.148)">
    <g id="Grupo_2104" data-name="Grupo 2104" transform="translate(71.289 2191.931)">
      <path id="Trazado_2545" data-name="Trazado 2545" d="M140.383,2193.271c9.651,40.532,46.011,22.843,66.562,109.151l19.1,80.23c1.833,7.7,1.5,28.325-10.351,31.133s-47.39,11.253-47.39,11.253l.013,0s-35.458,8.378-47.305,11.185-21.446-15.465-23.279-23.165l-19.1-80.23c-20.551-86.308,19.065-88.634,9.868-127.26Z" transform="translate(-71.289 -2191.931)" fill="#fff"/>
      <path id="Trazado_2546" data-name="Trazado 2546" d="M118.515,2437.856c-11.528,0-20.235-16.734-22.081-24.488l-19.1-80.231c-12.416-52.145-3.042-73.912,4.491-91.4,5.007-11.625,8.961-20.808,5.377-35.858a1.337,1.337,0,0,1,.993-1.61l51.882-12.3a1.337,1.337,0,0,1,1.611.992c3.82,16.045,11.716,22.534,21.711,30.749,14.5,11.919,32.553,26.752,44.851,78.4l19.1,80.231a46.3,46.3,0,0,1-.037,17.98c-1.716,8.313-5.626,13.418-11.307,14.764-11.654,2.76-46.237,10.98-47.361,11.246l-.017,0s-35.458,8.38-47.3,11.186A12.191,12.191,0,0,1,118.515,2437.856ZM90.1,2206.56c3.255,15.164-.959,24.949-5.818,36.231-7.376,17.127-16.556,38.443-4.346,89.727l19.1,80.231c1.695,7.119,10.928,24.717,21.668,22.172,11.662-2.763,46.207-10.926,47.28-11.179l.011,0s35.544-8.449,47.391-11.255c5.806-1.375,8.264-7.667,9.3-12.7a43.332,43.332,0,0,0,.055-16.82l-19.1-80.232c-12.089-50.775-29.753-65.293-43.946-76.958-9.715-7.984-18.14-14.908-22.293-30.9Z" transform="translate(-71.289 -2191.931)" fill="#999"/>
    </g>
    <g id="Grupo_2106" data-name="Grupo 2106" transform="translate(81.074 2276.427)">
      <path id="Trazado_2547" data-name="Trazado 2547" d="M205.955,2284.777l24.5,103.965c1.761,7.474,1.061,26.144-8.3,28.385-12.076,2.891-48.309,11.592-48.309,11.592h0c-.885.211-36.278,8.663-48.2,11.518-9.36,2.241-18.313-14.118-20.073-21.592l-24.5-103.965s1.129-19.648,56.2-32.834S207.81,2285.144,205.955,2284.777Z" transform="translate(-81.074 -2276.726)" fill="#62cbc9"/>
      <g id="Grupo_2105" data-name="Grupo 2105" transform="translate(34.845 25.777)" opacity="0.5" style="mix-blend-mode: overlay;isolation: isolate">
        <path id="Trazado_2548" data-name="Trazado 2548" d="M203.26,2309.391a8.971,8.971,0,1,1-10.8-6.644A8.957,8.957,0,0,1,203.26,2309.391Z" transform="translate(-116.687 -2302.502)" fill="#62cbc9"/>
        <path id="Trazado_2549" data-name="Trazado 2549" d="M193.108,2356.511a5.118,5.118,0,1,1-6.162-3.791A5.11,5.11,0,0,1,193.108,2356.511Z" transform="translate(-116.687 -2302.502)" fill="#62cbc9"/>
        <ellipse id="Elipse_136" data-name="Elipse 136" cx="12.001" cy="11.982" rx="12.001" ry="11.982" transform="translate(0 80.234) rotate(-2.911)" fill="#62cbc9"/>
        <path id="Trazado_2550" data-name="Trazado 2550" d="M131.591,2338.348a5.968,5.968,0,1,1-7.186-4.42A5.96,5.96,0,0,1,131.591,2338.348Z" transform="translate(-116.687 -2302.502)" fill="#62cbc9"/>
      </g>
    </g>
    <path id="Trazado_2551" data-name="Trazado 2551" d="M119.791,2434.206c-9.394,0-17.262-15.418-18.8-21.9L76.955,2311.251a.942.942,0,0,1-.024-.264c.047-.808,1.769-19.925,55.839-32.751,47.175-11.194,65.926-.568,68.366,2.89a1.182,1.182,0,0,1,.227,1.109l23.919,100.581a42.751,42.751,0,0,1,.029,16.087c-1.39,7.2-4.449,11.561-8.848,12.6-11.846,2.811-47.392,11.269-47.392,11.269-.868.205-35.591,8.421-47.29,11.2A8.576,8.576,0,0,1,119.791,2434.206ZM78.772,2310.987l23.995,100.9c1.615,6.79,10.125,22.321,18.592,20.31,11.7-2.776,46.423-10.992,47.29-11.2l.007.027c.342-.111.837-.228,1.543-.4l17.7-4.211c10.367-2.466,22.216-5.283,28.139-6.688,4.607-1.093,6.607-6.678,7.475-11.171a40.753,40.753,0,0,0-.013-15.317l-24.032-101.055a.933.933,0,0,1-.025-.188c-1.918-1.715-17.632-13.514-66.254-1.982C82.882,2291.95,79.017,2309.411,78.772,2310.987Z" transform="translate(0 -0.299)" fill="#999"/>
    <g id="Grupo_2107" data-name="Grupo 2107" transform="translate(73.664 2172.727)">
      <path id="Trazado_2552" data-name="Trazado 2552" d="M108.014,2205.875c-16.915,2.635-33.353-.546-33.027-18.745,0,0,54.918-.753,64.736-13.084,0,0,9.6,5.906,3.889,16.353-2.793,5.109-19.414,12.954-35.6,15.476" transform="translate(-73.664 -2172.727)" fill="#fff"/>
      <path id="Trazado_2553" data-name="Trazado 2553" d="M98.2,2208.006c-6.749,0-13.707-1.3-18.551-5.529-4.087-3.563-6.1-8.734-5.981-15.37a1.319,1.319,0,0,1,1.3-1.295c.543-.007,54.4-.883,63.722-12.587a1.315,1.315,0,0,1,1.722-.3c.107.065,10.6,6.693,4.356,18.108-3.211,5.873-20.975,13.719-36.553,16.145A65.717,65.717,0,0,1,98.2,2208.006Zm-21.889-19.583c.152,5.208,1.854,9.263,5.07,12.067,5.146,4.486,14.533,5.937,26.428,4.082h0c15.63-2.434,32.114-10.175,34.645-14.8,4.106-7.509-.491-12.312-2.545-13.964C128.909,2186.69,84.707,2188.229,76.312,2188.423Z" transform="translate(-73.664 -2172.727)" fill="#999"/>
    </g>
    <g id="Grupo_2108" data-name="Grupo 2108" transform="translate(68.967 2148.148)">
      <path id="Trazado_2554" data-name="Trazado 2554" d="M139.448,2171.5l-2.425-18.779s-7.139-7.135-36.113-.262-30.605,15.749-30.605,15.749l7.054,21.078s4.213,3.415,35.118-3.917S139.448,2171.5,139.448,2171.5Z" transform="translate(-68.967 -2148.148)" fill="#fff"/>
      <path id="Trazado_2555" data-name="Trazado 2555" d="M82.851,2191.416c-4.549,0-5.962-.79-6.335-1.091a1.347,1.347,0,0,1-.427-.616l-7.053-21.077a1.337,1.337,0,0,1-.047-.667c.183-1,2.625-9.933,31.612-16.809,29.363-6.964,37.055.3,37.368.618a1.332,1.332,0,0,1,.381.774l2.4,18.589a3.631,3.631,0,0,1-.151,2.75c-1.916,4.559-11.274,8.859-27.813,12.783C96.94,2190.429,87.936,2191.416,82.851,2191.416Zm-4.407-3.106c1.5.484,8.538,1.73,33.724-4.245,20.615-4.89,24.941-9.3,25.844-10.966a1.552,1.552,0,0,0,.252-.954c-.133-.165-.112-.233-.143-.474l-2.355-18.234c-1.635-1.095-10.109-5.477-34.547.324-24.459,5.8-28.841,12.972-29.5,14.452Zm59.857-16.12h0Z" transform="translate(-68.967 -2148.148)" fill="#999"/>
    </g>
    <path id="Trazado_2556" data-name="Trazado 2556" d="M80.779,2313.114a53.974,53.974,0,0,0,7.683.551c2.569.033,5.138-.039,7.7-.171,5.131-.233,10.245-.768,15.335-1.437,10.182-1.355,20.289-3.262,30.293-5.607a260.388,260.388,0,0,0,29.614-8.428,130.031,130.031,0,0,0,14.164-6.006,67.6,67.6,0,0,0,6.682-3.811,26.931,26.931,0,0,0,5.9-4.913,26.987,26.987,0,0,1-5.769,5.1,67.969,67.969,0,0,1-6.6,4.023,129.117,129.117,0,0,1-14.128,6.269A246.252,246.252,0,0,1,142,2307.341a294.088,294.088,0,0,1-30.41,5.411c-5.117.586-10.253,1.047-15.4,1.187-2.575.058-5.152.055-7.725-.052A53.96,53.96,0,0,1,80.779,2313.114Z" transform="translate(0 -0.154)" fill="#999"/>
    <g id="Grupo_2111" data-name="Grupo 2111" transform="translate(77.37 2212.702)">
      <g id="Grupo_2109" data-name="Grupo 2109" transform="translate(96.232 20.093)">
        <path id="Trazado_2557" data-name="Trazado 2557" d="M178.4,2241.319l-2.065,37.429s10.286,20.192,18.147,54.407,24.484,45.124,24.484,45.124,7.6-13.33,18.726-20.891,19.331-10.068,19.331-10.068-21.11-31.8-25.963-52.928-4.8-42.746-13.639-49.8C217.424,2244.589,190.685,2223.784,178.4,2241.319Z" transform="translate(-174.999 -2232.949)" fill="#fff"/>
        <path id="Trazado_2558" data-name="Trazado 2558" d="M218.969,2379.619a1.34,1.34,0,0,1-.734-.22c-.7-.458-17.163-11.6-25.054-45.945-7.736-33.665-17.934-53.9-18.036-54.1a1.338,1.338,0,0,1-.144-.681l2.065-37.43a1.338,1.338,0,0,1,.24-.694,16.91,16.91,0,0,1,11.675-7.374c13.219-2,28.616,9.851,29.265,10.355,6.531,5.216,8.436,17.354,10.643,31.408.979,6.236,1.992,12.683,3.478,19.152,4.743,20.642,25.564,52.171,25.774,52.487a1.341,1.341,0,0,1-.723,2.021c-.081.024-8.172,2.556-18.97,9.9-10.743,7.3-18.242,20.317-18.316,20.448a1.345,1.345,0,0,1-1.163.676ZM177.694,2278.47c1.354,2.768,10.825,22.744,18.1,54.385,6.457,28.106,19.012,40.306,22.806,43.45,2.24-3.6,9.031-13.692,18.347-20.024a88.617,88.617,0,0,1,18.028-9.66c-4.207-6.512-20.89-33.118-25.213-51.929-1.508-6.561-2.527-13.056-3.514-19.336-2.12-13.5-3.951-25.165-9.656-29.721-.136-.1-15.138-11.626-27.215-9.81a14.263,14.263,0,0,0-9.655,5.956Z" transform="translate(-174.999 -2232.949)" fill="#999"/>
      </g>
      <g id="Grupo_2110" data-name="Grupo 2110" transform="translate(105.386 23.709)">
        <ellipse id="Elipse_137" data-name="Elipse 137" cx="6.351" cy="6.884" rx="6.351" ry="6.884" transform="matrix(0.974, -0.227, 0.227, 0.974, 0, 2.935)" fill="#fff"/>
        <path id="Trazado_2559" data-name="Trazado 2559" d="M191.627,2252.96a8.132,8.132,0,0,1-7.722-6.478,8.471,8.471,0,0,1,.866-6.124,7.392,7.392,0,0,1,4.789-3.609,7.982,7.982,0,0,1,9.335,6.295h0a8.47,8.47,0,0,1-.866,6.124,7.388,7.388,0,0,1-4.788,3.609A7.212,7.212,0,0,1,191.627,2252.96Zm-.451-13.716a4.548,4.548,0,0,0-1.018.115,4.749,4.749,0,0,0-3.063,2.328,5.8,5.8,0,0,0-.58,4.2,5.3,5.3,0,0,0,6.127,4.285,4.742,4.742,0,0,0,3.064-2.328,5.8,5.8,0,0,0,.58-4.2h0A5.453,5.453,0,0,0,191.176,2239.244Z" transform="translate(-183.653 -2236.565)" fill="#999"/>
      </g>
      <path id="Trazado_2560" data-name="Trazado 2560" d="M114.534,2259.8c-9.568,0-18.063-2.231-24.749-6.61-6.534-4.279-10.809-10.237-12.038-16.777-2.723-14.484,10.171-22.99,10.721-23.345a1.339,1.339,0,0,1,1.453,2.249c-.488.316-11.929,7.907-9.543,20.6,1.078,5.733,5.041,11.211,10.874,15.031,9.638,6.314,23.417,7.846,38.8,4.322,16.485-3.78,22.321-7.162,27.469-10.147,4.464-2.588,8.681-5.032,18.574-7.3,13.493-3.09,18.86,8.723,18.912,8.842a1.338,1.338,0,1,1-2.45,1.078,13.594,13.594,0,0,0-15.865-7.31c-9.5,2.178-13.358,4.415-17.828,7.007-5.313,3.079-11.334,6.57-28.214,10.439A72.36,72.36,0,0,1,114.534,2259.8Z" transform="translate(-77.37 -2212.856)" fill="#999"/>
    </g>
    <g id="Grupo_2112" data-name="Grupo 2112" transform="translate(142.106 2199.484)">
      <path id="Trazado_2561" data-name="Trazado 2561" d="M180.039,2240.349a1.339,1.339,0,0,1-1.328-1.183c-2.518-21.389-34.828-36.917-35.155-37.071a1.339,1.339,0,0,1,1.145-2.42c1.386.655,33.977,16.314,36.668,39.179a1.337,1.337,0,0,1-1.172,1.485A1.237,1.237,0,0,1,180.039,2240.349Z" transform="translate(-142.79 -2199.545)" fill="#999"/>
    </g>
    <g id="Grupo_2115" data-name="Grupo 2115" transform="translate(72.561 2153.867)">
      <path id="Trazado_2562" data-name="Trazado 2562" d="M72.561,2168.284a1.971,1.971,0,0,0,.915.4,6.587,6.587,0,0,0,1,.148,15.864,15.864,0,0,0,2.022.065,39.745,39.745,0,0,0,4.042-.295c2.688-.292,5.364-.71,8.025-1.213q7.984-1.485,15.893-3.4c5.283-1.217,10.544-2.527,15.764-3.974,2.607-.73,5.21-1.485,7.762-2.384,1.279-.439,2.545-.915,3.784-1.454.608-.292,1.222-.577,1.8-.927a6.4,6.4,0,0,0,.828-.574c.238-.217.537-.464.531-.811.032.349-.256.627-.481.864a6.4,6.4,0,0,1-.8.642,19.866,19.866,0,0,1-1.766,1.035c-1.219.61-2.468,1.157-3.731,1.667-2.535,1-5.124,1.833-7.717,2.652-5.2,1.6-10.476,2.906-15.753,4.2-5.3,1.2-10.615,2.347-15.991,3.185-2.688.417-5.39.757-8.107.954a39.734,39.734,0,0,1-4.086.082,15.621,15.621,0,0,1-2.037-.176,6.7,6.7,0,0,1-1-.221A2.005,2.005,0,0,1,72.561,2168.284Z" transform="translate(-72.561 -2153.867)" fill="#999"/>
      <g id="Grupo_2113" data-name="Grupo 2113" transform="translate(3.67 12.368)">
        <path id="Trazado_2563" data-name="Trazado 2563" d="M76.231,2175.734a40.181,40.181,0,0,0,5.622.457c.94.013,1.877.039,2.815,0,.938-.011,1.874-.065,2.808-.148a69.592,69.592,0,0,0,11.091-1.725,78.673,78.673,0,0,0,10.713-3.393l1.32-.493,1.287-.57,2.58-1.142c1.715-.774,3.367-1.681,5.083-2.48-1.6.993-3.214,1.989-4.865,2.915l-2.537,1.276-1.271.639-1.306.56c-.87.377-1.744.748-2.624,1.1-.886.338-1.792.622-2.688.936-1.782.661-3.636,1.093-5.462,1.614a62.349,62.349,0,0,1-11.281,1.52A39.672,39.672,0,0,1,76.231,2175.734Z" transform="translate(-76.231 -2166.235)" fill="#999"/>
        <path id="Trazado_2564" data-name="Trazado 2564" d="M77.5,2180.158a40.216,40.216,0,0,0,5.622.456c.94.014,1.877.04,2.815-.005.938-.01,1.874-.065,2.808-.147a69.7,69.7,0,0,0,11.091-1.725,78.707,78.707,0,0,0,10.713-3.393l1.32-.493,1.287-.571,2.58-1.141c1.716-.774,3.367-1.681,5.083-2.48-1.6.993-3.214,1.989-4.865,2.914l-2.537,1.277-1.271.638-1.306.561c-.87.377-1.744.747-2.624,1.1-.886.337-1.792.622-2.688.936-1.782.661-3.636,1.092-5.463,1.614a62.3,62.3,0,0,1-11.28,1.519A39.677,39.677,0,0,1,77.5,2180.158Z" transform="translate(-76.231 -2166.235)" fill="#999"/>
        <path id="Trazado_2565" data-name="Trazado 2565" d="M78.45,2184.148a40.057,40.057,0,0,0,5.622.456c.939.014,1.877.04,2.815,0,.938-.01,1.874-.065,2.808-.147a69.7,69.7,0,0,0,11.091-1.725,78.694,78.694,0,0,0,10.712-3.393l1.32-.493,1.288-.571,2.58-1.142c1.715-.773,3.366-1.68,5.083-2.479-1.6.993-3.214,1.989-4.865,2.914l-2.537,1.277-1.271.638-1.306.561c-.87.377-1.744.747-2.624,1.1-.886.337-1.792.622-2.688.936-1.782.661-3.636,1.092-5.463,1.614a62.391,62.391,0,0,1-11.28,1.52A39.7,39.7,0,0,1,78.45,2184.148Z" transform="translate(-76.231 -2166.235)" fill="#999"/>
      </g>
      <path id="Trazado_2566" data-name="Trazado 2566" d="M107.588,2195.087c1.522-.136,3.037-.3,4.543-.53,1.508-.2,3.008-.447,4.5-.749a65.031,65.031,0,0,0,8.77-2.332,38.166,38.166,0,0,0,8.15-3.859,23.316,23.316,0,0,0,6.553-6.194,19.259,19.259,0,0,1-2.645,3.765,24.1,24.1,0,0,1-3.485,3.05,32.2,32.2,0,0,1-8.252,4.16,48.461,48.461,0,0,1-8.965,2.148A49.8,49.8,0,0,1,107.588,2195.087Z" transform="translate(-72.561 -2153.867)" fill="#999"/>
      <g id="Grupo_2114" data-name="Grupo 2114" transform="translate(64.337 71.913)">
        <path id="Trazado_2567" data-name="Trazado 2567" d="M136.9,2245.82a93.4,93.4,0,0,1,9.244-16.866,82.126,82.126,0,0,1-4.187,8.671A83.106,83.106,0,0,1,136.9,2245.82Z" transform="translate(-136.898 -2225.78)" fill="#999"/>
        <path id="Trazado_2568" data-name="Trazado 2568" d="M145.687,2250.064a82.777,82.777,0,0,1,4.188-8.671,81.693,81.693,0,0,1,5.057-8.2,81.713,81.713,0,0,1-4.188,8.671A82.661,82.661,0,0,1,145.687,2250.064Z" transform="translate(-136.898 -2225.78)" fill="#999"/>
        <path id="Trazado_2569" data-name="Trazado 2569" d="M140.153,2252.24c.926-2.3,1.949-4.545,2.987-6.786s2.124-4.456,3.222-6.667c1.118-2.2,2.238-4.4,3.427-6.563l1.787-3.246c.628-1.065,1.225-2.146,1.88-3.2-.454,1.153-.965,2.277-1.446,3.417l-1.539,3.37c-1.028,2.245-2.125,4.456-3.223,6.666-1.12,2.2-2.24,4.4-3.43,6.563S141.445,2250.127,140.153,2252.24Z" transform="translate(-136.898 -2225.78)" fill="#999"/>
      </g>
    </g>
    <g id="Grupo_2117" data-name="Grupo 2117" transform="translate(186.688 2270.707)">
      <g id="Grupo_2116" data-name="Grupo 2116">
        <path id="Trazado_2570" data-name="Trazado 2570" d="M216.253,2270.877a6.621,6.621,0,0,1,.929,1.064,6.832,6.832,0,0,1,.6,1.082,11.082,11.082,0,0,1,.436,1.155c.126.4.263.83.411,1.3.028.089.073.245.137.464s.133.455.213.707.153.484.22.7.114.363.143.453a.581.581,0,0,1-.166.366,1.682,1.682,0,0,1-.336.272,2.5,2.5,0,0,1-.39.2c-.137.056-.242.094-.314.118l-1.749-5.537-3.929,1.24,1.9,6.008a1.389,1.389,0,0,1-1.089-.044,2.543,2.543,0,0,1-.836-.7,4.748,4.748,0,0,1-.639-1.1,11.367,11.367,0,0,1-.447-1.223q-.176-.591-.283-1.056c-.071-.309-.123-.514-.154-.614l-.384.121a3.415,3.415,0,0,0-1.347.794,13.452,13.452,0,0,0-1.088,1.165c-.34.409-.682.793-1.022,1.154a2.711,2.711,0,0,1-1.153.741,1.641,1.641,0,0,1-.751.072.592.592,0,0,1-.476-.459,1.194,1.194,0,0,1,.212-.981,6.191,6.191,0,0,1,1.018-1.2,16.358,16.358,0,0,1,1.6-1.308q.924-.668,1.95-1.334t2.054-1.259q1.029-.591,1.935-1.063t1.606-.8a9.445,9.445,0,0,1,1.027-.434Z" transform="translate(-188.085 -2270.877)" fill="#62cbc9"/>
        <path id="Trazado_2571" data-name="Trazado 2571" d="M209.892,2282.741a4.868,4.868,0,0,1,2.264-.178,5.728,5.728,0,0,1,2.087.752,6.47,6.47,0,0,1,1.672,1.447,5.631,5.631,0,0,1,1.041,1.894,1.544,1.544,0,0,1-.081,1.142,3.668,3.668,0,0,1-.742,1.056,5.62,5.62,0,0,1-1.069.845,4.967,4.967,0,0,1-1.065.512,4.837,4.837,0,0,1-2.126.174,6.559,6.559,0,0,1-2.07-.639,6.393,6.393,0,0,1-1.711-1.25,4.169,4.169,0,0,1-1.028-1.668,2.946,2.946,0,0,1-.129-1.454,2.6,2.6,0,0,1,.523-1.144,3.759,3.759,0,0,1,1.031-.869A6.6,6.6,0,0,1,209.892,2282.741Zm.267,1.485a4.178,4.178,0,0,0-.806.339,1.592,1.592,0,0,0-.528.461,1.292,1.292,0,0,0-.232.636,2.077,2.077,0,0,0,.113.831,2.493,2.493,0,0,0,.767,1.124,4.8,4.8,0,0,0,1.3.817,5.248,5.248,0,0,0,1.521.4,3.52,3.52,0,0,0,1.447-.125,4.567,4.567,0,0,0,.624-.252,2.913,2.913,0,0,0,.586-.37,1.42,1.42,0,0,0,.388-.49.825.825,0,0,0,.026-.618,1.634,1.634,0,0,0-.444-.644,6.323,6.323,0,0,0-.837-.678,9.423,9.423,0,0,0-1.061-.624c-.383-.192-.757-.361-1.124-.5a5.444,5.444,0,0,0-1.018-.3A1.59,1.59,0,0,0,210.159,2284.226Zm11.268.872-3.495-.89c-.214-.08-.329-.191-.347-.334a.467.467,0,0,1,.111-.377.924.924,0,0,1,.4-.256.886.886,0,0,1,.576.013,1.089,1.089,0,0,0,.19.059c.08.018.133.029.162.032.229.051.489.109.779.178s.566.148.828.238a7.126,7.126,0,0,1,.713.282,1.348,1.348,0,0,1,.464.323.334.334,0,0,1,.072.357A.932.932,0,0,1,221.427,2285.1Z" transform="translate(-188.085 -2270.877)" fill="#62cbc9"/>
        <path id="Trazado_2572" data-name="Trazado 2572" d="M216.581,2290.114c.109-.035.224-.064.344-.09a1.272,1.272,0,0,1,.332-.03.554.554,0,0,1,.278.087.5.5,0,0,1,.19.282c.035.112-.02.267-.164.467a5.246,5.246,0,0,1-.578.652q-.361.354-.806.726c-.3.247-.571.47-.824.666s-.472.361-.659.493a2.578,2.578,0,0,0-.291.223c.472.01.987.026,1.542.048a7.9,7.9,0,0,1,1.608.221,4.361,4.361,0,0,1,1.384.6,2.166,2.166,0,0,1,.86,1.195,2.244,2.244,0,0,1,.1.807,1.956,1.956,0,0,1-.2.766,2.1,2.1,0,0,1-.49.642,2.079,2.079,0,0,1-.787.434.622.622,0,0,1-.659-.114,1.4,1.4,0,0,1-.374-.611l-.053-.168.558-.971a.066.066,0,0,1,0-.054.182.182,0,0,1-.009-.063.176.176,0,0,0-.01-.061,1.239,1.239,0,0,0-.644-.8,2.437,2.437,0,0,0-1.035-.218,4.863,4.863,0,0,0-1.162.136q-.588.141-1.064.29a4.328,4.328,0,0,0-.719.3q-.353.184-.683.381c-.22.132-.448.258-.683.382a4.574,4.574,0,0,1-.756.312.705.705,0,0,1-1.006-.513,1.318,1.318,0,0,1,.209-1.025,7.517,7.517,0,0,1,.949-1.288,16.675,16.675,0,0,1,1.387-1.369q.777-.688,1.541-1.262t1.4-.968A4.948,4.948,0,0,1,216.581,2290.114Z" transform="translate(-188.085 -2270.877)" fill="#62cbc9"/>
        <path id="Trazado_2573" data-name="Trazado 2573" d="M219.173,2298.321a1.557,1.557,0,0,1,.758-.083q.3.062.449.533c.011.034.028.1.052.2s.039.156.047.179q-.531.3-1.157.633t-1.251.718q-.622.381-1.215.8a6.6,6.6,0,0,0-1.026.887,2.2,2.2,0,0,0,.961.176,7.108,7.108,0,0,0,1.023-.1q.506-.086.971-.168a2.135,2.135,0,0,1,.845,0,1.13,1.13,0,0,1,.639.4,1.792,1.792,0,0,1,.314,1,2.06,2.06,0,0,1,.072,1.214,3.024,3.024,0,0,1-.482.954q-.332.447-.723.893a3.712,3.712,0,0,0-.631,1.021l.672.065a7.352,7.352,0,0,1,.869.14c.309.069.623.148.939.239a6.907,6.907,0,0,1,.886.32,3.607,3.607,0,0,1,.715.421,1.076,1.076,0,0,1,.4.521,1.776,1.776,0,0,1-.089,1.337,4.379,4.379,0,0,1-.9,1.235,8.72,8.72,0,0,1-1.384,1.093q-.793.507-1.556.9t-1.41.658c-.433.18-.745.3-.94.363a.61.61,0,0,1-.4.014.665.665,0,0,1-.271-.191,1.2,1.2,0,0,1-.186-.3,3.294,3.294,0,0,1-.121-.322.527.527,0,0,1-.022-.1,1.484,1.484,0,0,1-.021-.16c0-.047,0-.114,0-.2l5.119-2.818c.036-.011.093-.079.168-.2a1,1,0,0,0,.128-.261.181.181,0,0,1-.008-.09.123.123,0,0,1-.006-.054.072.072,0,0,0,0-.036.981.981,0,0,0-.521-.566,3.833,3.833,0,0,0-.969-.33,9.406,9.406,0,0,0-1.218-.169c-.44-.034-.87-.051-1.293-.053s-.811,0-1.163.007-.624.01-.812.009a.969.969,0,0,1-.148-.25,2.39,2.39,0,0,1-.113-.259.871.871,0,0,1,.128-.834,3.247,3.247,0,0,1,.756-.692,10.476,10.476,0,0,1,1.076-.635,10.59,10.59,0,0,0,1.076-.633,2.8,2.8,0,0,0,.748-.718.977.977,0,0,0,.11-.893q-.059-.185-.513-.224a6.2,6.2,0,0,0-1.109.018c-.438.038-.9.094-1.4.162s-.953.146-1.377.224-.923.184-1.5.316a.456.456,0,0,1-.161-.1c-.063-.054-.132-.11-.2-.168a.992.992,0,0,1-.179-.183.606.606,0,0,1-.086-.147,1.314,1.314,0,0,1,.18-1.054,5.128,5.128,0,0,1,.954-1.178,13.416,13.416,0,0,1,1.429-1.171c.535-.385,1.067-.733,1.6-1.05s1.014-.582,1.455-.8A7.656,7.656,0,0,1,219.173,2298.321Z" transform="translate(-188.085 -2270.877)" fill="#62cbc9"/>
        <path id="Trazado_2574" data-name="Trazado 2574" d="M223.724,2313.493c.073-.023.205-.061.4-.116s.389-.113.6-.18.4-.123.578-.173.3-.085.377-.109a3.307,3.307,0,0,1,.518.142.965.965,0,0,1,.4.243.574.574,0,0,1,.149.378.883.883,0,0,1-.23.542l-.147.046-.237.075c-.064.009-.215.031-.451.069s-.5.076-.776.116-.543.077-.781.109a3.789,3.789,0,0,0-.448.076,7.273,7.273,0,0,0-.847.342q-.5.231-1.025.536a10.965,10.965,0,0,0-1.033.676,5.588,5.588,0,0,0-.868.782,3.307,3.307,0,0,0-.552.83,1.156,1.156,0,0,0-.051.855,1.6,1.6,0,0,0,.61.851,3.046,3.046,0,0,0,1.029.459,5.193,5.193,0,0,0,1.271.143,12.142,12.142,0,0,0,1.35-.085c.445-.055.867-.125,1.268-.216s.746-.181,1.04-.274a5.9,5.9,0,0,0,.812-.32c.25-.122.493-.251.731-.388s.476-.264.713-.382a4.963,4.963,0,0,1,.741-.3.568.568,0,0,1,.564.071.979.979,0,0,1,.309.466.79.79,0,0,1-.049.642,1.7,1.7,0,0,1-.467.526,3.311,3.311,0,0,1-.742.42q-.434.183-.872.322t-.837.245q-.4.106-.636.183a13.842,13.842,0,0,1-1.434.36,12.491,12.491,0,0,1-1.71.217,14.993,14.993,0,0,1-1.8,0,6.957,6.957,0,0,1-1.673-.3,4.075,4.075,0,0,1-1.338-.7,2.4,2.4,0,0,1-.794-1.179,2.379,2.379,0,0,1-.026-1.449,3.514,3.514,0,0,1,.737-1.294,7.386,7.386,0,0,1,1.262-1.128,12.384,12.384,0,0,1,1.514-.93c.518-.268,1.03-.505,1.536-.707S223.346,2313.612,223.724,2313.493Z" transform="translate(-188.085 -2270.877)" fill="#62cbc9"/>
        <path id="Trazado_2575" data-name="Trazado 2575" d="M229.462,2321.609a8.255,8.255,0,0,0,1.012-.393,4.414,4.414,0,0,1,.885-.317,1.07,1.07,0,0,1,.712.061,1.2,1.2,0,0,1,.5.757,7.234,7.234,0,0,1-1.165.764q-.8.449-1.865.968t-2.321,1.083q-1.259.563-2.534,1.106t-2.517,1.034q-1.242.493-2.267.873-.576-.427-.336-.873a2.825,2.825,0,0,1,1-.926,13.875,13.875,0,0,1,1.922-.975q1.161-.5,2.414-1.012t2.458-1.063A20.039,20.039,0,0,0,229.462,2321.609Z" transform="translate(-188.085 -2270.877)" fill="#62cbc9"/>
        <path id="Trazado_2576" data-name="Trazado 2576" d="M224.869,2334.871q-.677-.486-1.2-.831a7.485,7.485,0,0,1-.913-.7,3.8,3.8,0,0,1-.679-.81,5.172,5.172,0,0,1-.511-1.177,2.979,2.979,0,0,1,.172-2.6,4.33,4.33,0,0,1,2.456-1.608,7.014,7.014,0,0,1,1.5-.287,8.422,8.422,0,0,1,1.646.025,9.473,9.473,0,0,1,1.653.336,6.788,6.788,0,0,1,1.5.651,5.232,5.232,0,0,1,1.2.961,3.346,3.346,0,0,1,.733,1.272,3.943,3.943,0,0,1-.05,2.1,3.441,3.441,0,0,1-1.006,1.461,7.184,7.184,0,0,1-1.655,1.059q-.954.447-1.989.858t-2.059.863a7.469,7.469,0,0,0-1.8,1.1,3.434,3.434,0,0,1-.979-.144.3.3,0,0,1-.217-.4,2.3,2.3,0,0,1,.631-.8Q223.843,2335.694,224.869,2334.871Zm-.257-6.286a2.69,2.69,0,0,0-1.412.844,1.575,1.575,0,0,0-.079,1.435,3.55,3.55,0,0,0,.682,1.236,3.6,3.6,0,0,0,1.078.867,3.713,3.713,0,0,0,1.361.4,3.821,3.821,0,0,0,1.553-.177q.329-.1.928-.275a7.092,7.092,0,0,0,1.157-.439,3.094,3.094,0,0,0,.913-.639A.793.793,0,0,0,231,2331a3.038,3.038,0,0,0-.993-1.458,5.041,5.041,0,0,0-1.637-.886,6.485,6.485,0,0,0-1.918-.316A5.739,5.739,0,0,0,224.612,2328.585Z" transform="translate(-188.085 -2270.877)" fill="#62cbc9"/>
        <path id="Trazado_2577" data-name="Trazado 2577" d="M188.763,2287.08c.19.136.431.3.724.482s.6.368.927.547a9.506,9.506,0,0,0,.995.479,4.5,4.5,0,0,0,.945.284,1.612,1.612,0,0,0,.763-.029.688.688,0,0,0,.452-.476q-.168-.535-.416-1.16t-.439-1.265a7.582,7.582,0,0,1-.27-1.269,3.151,3.151,0,0,1,.065-1.193,2.154,2.154,0,0,1,.6-1.009,3.151,3.151,0,0,1,1.292-.713,4.649,4.649,0,0,1,1.889-.219,5.134,5.134,0,0,1,1.7.47,7.226,7.226,0,0,1,1.483.944,11.34,11.34,0,0,1,1.248,1.184,2.187,2.187,0,0,1-.2.949,4.083,4.083,0,0,1-.529.869,1.126,1.126,0,0,1-.768-.265,4.335,4.335,0,0,1-.633-.669q-.3-.391-.642-.821a3.546,3.546,0,0,0-.762-.728,2.609,2.609,0,0,0-.994-.414,2.712,2.712,0,0,0-1.356.132,1.243,1.243,0,0,0-.773.539,1.481,1.481,0,0,0-.153.823,3.809,3.809,0,0,0,.241,1.014c.133.364.281.732.439,1.106s.3.746.422,1.113a2.951,2.951,0,0,1,.166,1.037,1.53,1.53,0,0,1-.282.854,1.774,1.774,0,0,1-.942.584,2.265,2.265,0,0,1-.8.06,7.827,7.827,0,0,1-1.126-.161,9.117,9.117,0,0,1-1.25-.362,8.559,8.559,0,0,1-1.183-.531,5.353,5.353,0,0,1-.946-.642,1.606,1.606,0,0,1-.517-.713.467.467,0,0,1,.129-.549A1.543,1.543,0,0,1,188.763,2287.08Z" transform="translate(-188.085 -2270.877)" fill="#62cbc9"/>
        <path id="Trazado_2578" data-name="Trazado 2578" d="M194.615,2290.787a9.424,9.424,0,0,1,2.043-.4,6.008,6.008,0,0,1,1.993.136,4.129,4.129,0,0,1,1.67.836,3.511,3.511,0,0,1,1.08,1.7,2.429,2.429,0,0,1,.1,1.169,2.568,2.568,0,0,1-.4.993,2.909,2.909,0,0,1-.791.775,4.129,4.129,0,0,1-1.074.514,4.589,4.589,0,0,1-1.933.178,5.467,5.467,0,0,1-1.878-.57,4.612,4.612,0,0,1-1.485-1.2,3.147,3.147,0,0,1-.706-1.7,1.283,1.283,0,0,0-.747.6,2.109,2.109,0,0,0-.248.9,3.656,3.656,0,0,0,.076.971c.068.323.142.608.219.854a3.584,3.584,0,0,0,.3.7q.179.312.377.619c.131.205.257.415.379.628a3.81,3.81,0,0,1,.3.707,3.079,3.079,0,0,1,.077.308.992.992,0,0,1,.008.312.542.542,0,0,1-.133.281.657.657,0,0,1-.311.19.814.814,0,0,1-.65-.052,2.2,2.2,0,0,1-.581-.471,3.611,3.611,0,0,1-.5-.72q-.221-.411-.4-.807t-.294-.737q-.117-.342-.17-.511a4.988,4.988,0,0,1-.235-2.048,4.254,4.254,0,0,1,.586-1.771,4.769,4.769,0,0,1,1.324-1.406A6.945,6.945,0,0,1,194.615,2290.787Zm1.75,1.4a2.131,2.131,0,0,0-.881.454q-.243.252-.046.873a2.306,2.306,0,0,0,.444.8,2.719,2.719,0,0,0,.726.612,2.411,2.411,0,0,0,.9.313,2.166,2.166,0,0,0,.977-.086,4.086,4.086,0,0,0,.553-.221,1.674,1.674,0,0,0,.484-.347,1.283,1.283,0,0,0,.294-.471.947.947,0,0,0-.018-.595,1.825,1.825,0,0,0-.535-.835,2.444,2.444,0,0,0-.86-.5,3.142,3.142,0,0,0-1.014-.16A3.442,3.442,0,0,0,196.365,2292.191Z" transform="translate(-188.085 -2270.877)" fill="#62cbc9"/>
        <path id="Trazado_2579" data-name="Trazado 2579" d="M197.888,2299.683a4.85,4.85,0,0,1,1.706-.2,6.257,6.257,0,0,1,1.788.348,5.276,5.276,0,0,1,1.52.841,2.647,2.647,0,0,1,.911,1.29,2.255,2.255,0,0,1,.1.818,2.351,2.351,0,0,1-.2.828,2.248,2.248,0,0,1-.5.712,1.987,1.987,0,0,1-.8.464,1.98,1.98,0,0,1-.1-.568,4.979,4.979,0,0,1,.022-.533c.018-.177.027-.349.028-.517a1.894,1.894,0,0,0-.81-1.516,2.8,2.8,0,0,0-1.155-.381,4.77,4.77,0,0,0-1.325.039,9.08,9.08,0,0,0-1.244.292c-.061.019-.176.058-.345.118l-.534.186c-.186.067-.364.128-.533.188a2.645,2.645,0,0,0-.339.135,3.393,3.393,0,0,0-.562.575,1.357,1.357,0,0,0-.237.489,1.119,1.119,0,0,0-.008.482,5.046,5.046,0,0,0,.147.563,1.969,1.969,0,0,0,.387.718,3.959,3.959,0,0,0,.541.5,4.549,4.549,0,0,0,.617.4,5.65,5.65,0,0,1,.624.384,2.936,2.936,0,0,1,.538.5,2.007,2.007,0,0,1,.373.7,4.25,4.25,0,0,1-1.683.207,3.607,3.607,0,0,1-1.447-.446,3.86,3.86,0,0,1-1.151-1,4.629,4.629,0,0,1-.755-1.469,2.128,2.128,0,0,1,.137-1.6,5.553,5.553,0,0,1,1.1-1.526,8.429,8.429,0,0,1,1.585-1.248A7.382,7.382,0,0,1,197.888,2299.683Z" transform="translate(-188.085 -2270.877)" fill="#62cbc9"/>
        <path id="Trazado_2580" data-name="Trazado 2580" d="M202.669,2307.252c.109-.035.224-.065.344-.091a1.218,1.218,0,0,1,.332-.029.536.536,0,0,1,.278.087.488.488,0,0,1,.19.28q.053.168-.164.468a5.246,5.246,0,0,1-.578.652q-.361.354-.8.727c-.3.247-.572.469-.826.665s-.471.362-.657.493a2.541,2.541,0,0,0-.292.223c.472.009.987.026,1.542.047a7.956,7.956,0,0,1,1.608.222,4.343,4.343,0,0,1,1.384.6,2.161,2.161,0,0,1,.86,1.2,2.237,2.237,0,0,1,.1.807,1.964,1.964,0,0,1-.2.764,2.056,2.056,0,0,1-1.277,1.076.621.621,0,0,1-.659-.114,1.384,1.384,0,0,1-.374-.61l-.053-.168.558-.971a.071.071,0,0,1,0-.054.2.2,0,0,1-.008-.062.176.176,0,0,0-.01-.061,1.234,1.234,0,0,0-.645-.8,2.415,2.415,0,0,0-1.034-.218,4.92,4.92,0,0,0-1.162.136c-.392.094-.748.191-1.064.291a4.365,4.365,0,0,0-.719.3c-.236.124-.463.251-.683.382s-.448.257-.683.381a4.613,4.613,0,0,1-.756.313.706.706,0,0,1-1.006-.514,1.312,1.312,0,0,1,.209-1.024,7.4,7.4,0,0,1,.95-1.287,16.223,16.223,0,0,1,1.386-1.371q.775-.688,1.541-1.261t1.4-.968A4.769,4.769,0,0,1,202.669,2307.252Z" transform="translate(-188.085 -2270.877)" fill="#62cbc9"/>
        <path id="Trazado_2581" data-name="Trazado 2581" d="M202.782,2316.646a9.59,9.59,0,0,1,2.043-.4,6.073,6.073,0,0,1,1.994.137,4.121,4.121,0,0,1,1.67.838,3.5,3.5,0,0,1,1.08,1.7,2.446,2.446,0,0,1,.1,1.17,2.563,2.563,0,0,1-.4.992,2.909,2.909,0,0,1-.79.777,4.189,4.189,0,0,1-1.074.513,4.571,4.571,0,0,1-1.934.177,5.477,5.477,0,0,1-1.878-.568,4.652,4.652,0,0,1-1.485-1.2,3.151,3.151,0,0,1-.705-1.7,1.284,1.284,0,0,0-.748.6,2.128,2.128,0,0,0-.248.9,3.751,3.751,0,0,0,.076.973c.069.321.142.606.22.852a3.528,3.528,0,0,0,.3.7c.119.209.244.415.376.62s.258.413.38.628a3.718,3.718,0,0,1,.3.707,2.676,2.676,0,0,1,.077.306.993.993,0,0,1,.008.312.537.537,0,0,1-.132.281.675.675,0,0,1-.312.193.816.816,0,0,1-.649-.054,2.2,2.2,0,0,1-.581-.471,3.543,3.543,0,0,1-.5-.721c-.148-.273-.28-.542-.4-.8s-.215-.512-.294-.738-.135-.4-.171-.51a5.01,5.01,0,0,1-.234-2.048,4.257,4.257,0,0,1,.585-1.773,4.771,4.771,0,0,1,1.325-1.405A7,7,0,0,1,202.782,2316.646Zm1.75,1.405a2.131,2.131,0,0,0-.881.453c-.162.168-.176.459-.045.873a2.293,2.293,0,0,0,.443.8,2.77,2.77,0,0,0,.726.611,2.467,2.467,0,0,0,.9.314,2.2,2.2,0,0,0,.977-.086,4.42,4.42,0,0,0,.553-.221,1.681,1.681,0,0,0,.483-.348,1.267,1.267,0,0,0,.293-.47.938.938,0,0,0-.016-.595,1.84,1.84,0,0,0-.536-.837,2.444,2.444,0,0,0-.86-.494,3.168,3.168,0,0,0-1.014-.159A3.415,3.415,0,0,0,204.532,2318.051Z" transform="translate(-188.085 -2270.877)" fill="#62cbc9"/>
        <path id="Trazado_2582" data-name="Trazado 2582" d="M209.753,2324.337a.217.217,0,0,1,.1-.012.343.343,0,0,1,.1-.012,2.852,2.852,0,0,1,.3.126c.125.059.191.1.2.121l1.066,3.374a6.238,6.238,0,0,0,.624-.252c.281-.127.6-.26.939-.4a10.906,10.906,0,0,1,1.1-.375,4.67,4.67,0,0,1,1.087-.185,1.887,1.887,0,0,1,.894.16,1.052,1.052,0,0,1,.548.685,15.782,15.782,0,0,0-2.886,1.169,5.381,5.381,0,0,0-1.519,1.173,1.963,1.963,0,0,0-.5,1.146,2.728,2.728,0,0,0,.17,1.08,4.8,4.8,0,0,0,.5.978,6.779,6.779,0,0,1,.485.834,1.022,1.022,0,0,1,.116.656c-.041.185-.233.331-.574.439a.805.805,0,0,1-.6.014,1.255,1.255,0,0,1-.45-.532c-.041-.085-.109-.228-.205-.424s-.2-.42-.3-.671-.219-.515-.341-.8-.237-.545-.343-.8-.194-.48-.268-.689-.126-.367-.158-.468c-.06.019-.166.047-.315.082s-.249.06-.3.076a5.507,5.507,0,0,0-1.488.727c-.456.316-.9.647-1.346.988s-.887.672-1.337.986a5.384,5.384,0,0,1-1.479.725,1.949,1.949,0,0,1-.309.07.742.742,0,0,1-.306-.014.51.51,0,0,1-.252-.161.565.565,0,0,1-.1-.4,1.561,1.561,0,0,1,.487-1.2,5.356,5.356,0,0,1,1.288-.914,14.649,14.649,0,0,1,1.7-.759q.917-.345,1.7-.71a6.016,6.016,0,0,0,1.28-.783,1.138,1.138,0,0,0,.465-.978l-.219-3.492c-.015-.045.017-.129.092-.25a1.192,1.192,0,0,1,.175-.24.205.205,0,0,1,.086-.045A.278.278,0,0,1,209.753,2324.337Z" transform="translate(-188.085 -2270.877)" fill="#62cbc9"/>
        <path id="Trazado_2583" data-name="Trazado 2583" d="M208.7,2344.876c-.451-.324-.849-.6-1.2-.831a7.523,7.523,0,0,1-.914-.7,3.8,3.8,0,0,1-.678-.81,5.2,5.2,0,0,1-.513-1.178,2.98,2.98,0,0,1,.174-2.6,4.323,4.323,0,0,1,2.456-1.608,7.014,7.014,0,0,1,1.5-.287,8.338,8.338,0,0,1,1.645.025,9.2,9.2,0,0,1,1.654.336,6.811,6.811,0,0,1,1.5.65,5.23,5.23,0,0,1,1.2.961,3.35,3.35,0,0,1,.734,1.272,3.947,3.947,0,0,1-.05,2.1,3.42,3.42,0,0,1-1.006,1.461,7.181,7.181,0,0,1-1.655,1.058q-.952.449-1.989.859t-2.059.863a7.524,7.524,0,0,0-1.8,1.1,3.4,3.4,0,0,1-.979-.143.3.3,0,0,1-.217-.4,2.307,2.307,0,0,1,.632-.8Q207.677,2345.7,208.7,2344.876Zm-.257-6.286a2.687,2.687,0,0,0-1.411.844,1.568,1.568,0,0,0-.079,1.435,3.528,3.528,0,0,0,.681,1.235,3.62,3.62,0,0,0,1.078.868,3.726,3.726,0,0,0,1.362.4,3.816,3.816,0,0,0,1.552-.177q.328-.1.928-.275a7.15,7.15,0,0,0,1.157-.44,3.11,3.11,0,0,0,.914-.638.794.794,0,0,0,.207-.841,3.018,3.018,0,0,0-.993-1.457,5,5,0,0,0-1.636-.886,6.468,6.468,0,0,0-1.919-.316A5.742,5.742,0,0,0,208.447,2338.59Z" transform="translate(-188.085 -2270.877)" fill="#62cbc9"/>
      </g>
    </g>
  </g>
</svg>
