<svg xmlns="http://www.w3.org/2000/svg" width="399.431" height="240.596" viewBox="0 0 399.431 240.596">
  <g id="Grupo_2000" data-name="Grupo 2000" transform="translate(-435.935 -56.072)">
    <g id="Grupo_1996" data-name="Grupo 1996">
      <g id="Grupo_1974" data-name="Grupo 1974">
        <g id="Grupo_1970" data-name="Grupo 1970">
          <path id="Trazado_1586" data-name="Trazado 1586" d="M596.723,169.608c-1.243,5.23-3.024,9.286-3.979,9.059s-3.122-5.189-1.879-10.42,5.423-8.747,6.378-8.52S597.965,164.378,596.723,169.608Z" fill="#5568f5"/>
          <path id="Trazado_1587" data-name="Trazado 1587" d="M592.811,179.1a.7.7,0,0,1-.164-.019c-1.415-.336-3.4-5.839-2.191-10.926a15.534,15.534,0,0,1,3.39-6.486c1.148-1.309,2.675-2.537,3.495-2.346.453.108,1.039.587.886,3.5a40.845,40.845,0,0,1-1.095,6.892h0C597.038,170.1,594.876,179.1,592.811,179.1Zm4.294-18.969c-.685,0-4.619,3.116-5.832,8.218-1.218,5.131.952,9.686,1.573,9.916.5-.1,2.127-3.1,3.468-8.749s1.241-9.06.809-9.385Z" fill="#d6dbff"/>
        </g>
        <g id="Grupo_1971" data-name="Grupo 1971">
          <path id="Trazado_1588" data-name="Trazado 1588" d="M617.576,163.454a13.511,13.511,0,0,1-2.2,10.46,42.21,42.21,0,0,1-8.174,8.86l-19.8-10,3.3-10.846Z" fill="#5568f5"/>
          <path id="Trazado_1589" data-name="Trazado 1589" d="M607.246,183.268,586.9,172.987l3.5-11.5,27.506,1.566.08.29a13.813,13.813,0,0,1-2.26,10.808,43.084,43.084,0,0,1-8.265,8.957ZM587.9,172.555l19.245,9.722a42.494,42.494,0,0,0,7.876-8.6,13.4,13.4,0,0,0,2.21-9.823l-26.228-1.494Z" fill="#d6dbff"/>
        </g>
        <g id="Grupo_1973" data-name="Grupo 1973">
          <g id="Grupo_1972" data-name="Grupo 1972">
            <path id="Trazado_1590" data-name="Trazado 1590" d="M592.76,178.713s-8.62-4.507-12.024-6.911a7.024,7.024,0,0,1-3.194.568,5.486,5.486,0,0,1-10.785-2.014l0-.015a5.484,5.484,0,0,1,.136-10.477,5.486,5.486,0,1,1,10.772-1.8,7.037,7.037,0,0,1,1.536.112,7.121,7.121,0,0,1,4.605,2.974c4.348-.795,13.262-1.445,13.262-1.445a23.019,23.019,0,0,0-4.858,8.145A16.329,16.329,0,0,0,592.76,178.713Z" fill="#7485ff"/>
            <path id="Trazado_1591" data-name="Trazado 1591" d="M592.868,179.243l-.3-.158c-.346-.181-8.382-4.39-11.881-6.807a7.527,7.527,0,0,1-2.808.523,5.906,5.906,0,0,1-11.584-2.181,5.9,5.9,0,0,1,.108-11.033,5.836,5.836,0,0,1-.016-2.208,5.907,5.907,0,0,1,11.663.264,7.59,7.59,0,0,1,5.948,3.05c4.408-.769,12.958-1.4,13.045-1.4l.113-.009.289.141.043.206c.044.222-.043.319-.329.64a21.439,21.439,0,0,0-4.543,7.713,15.6,15.6,0,0,0,.472,10.389c.091.231.162.414,0,.61Zm-12.083-7.921.193.137c2.674,1.888,8.68,5.131,11.019,6.375a16.3,16.3,0,0,1-.184-10.109,22.05,22.05,0,0,1,4.283-7.52c-2.453.195-8.794.736-12.212,1.361l-.267.049-.154-.224a6.691,6.691,0,0,0-4.334-2.8,6.539,6.539,0,0,0-1.445-.1l-.407.016-.028-.407a5.066,5.066,0,1,0-9.947,1.659l.106.4-.393.116a5.064,5.064,0,0,0-.127,9.674l.353.113-.068.364a5.065,5.065,0,0,0,9.956,1.873l.069-.362.368.021a6.627,6.627,0,0,0,3-.533Z" fill="#d6dbff"/>
          </g>
          <path id="Trazado_1592" data-name="Trazado 1592" d="M566.9,159.962a11.161,11.161,0,0,0,2.1,1.918,6.055,6.055,0,0,0,2.544,1.074,4.524,4.524,0,0,0,2.7-.356,6.9,6.9,0,0,0,1.242-.667c.394-.263.749-.584,1.145-.865-.328.348-.661.705-1.022,1.03a7,7,0,0,1-1.231.8,4.654,4.654,0,0,1-2.9.477,6,6,0,0,1-2.669-1.23A7.993,7.993,0,0,1,566.9,159.962Z" fill="#d6dbff"/>
          <path id="Trazado_1593" data-name="Trazado 1593" d="M566.859,170.382a12,12,0,0,0,2.777,0,6.531,6.531,0,0,0,2.573-.813,5.4,5.4,0,0,0,.56-.368l.5-.447a5.689,5.689,0,0,0,.757-1.113,8.532,8.532,0,0,0,.794-2.638,13.176,13.176,0,0,1-.09,1.411,6.03,6.03,0,0,1-.414,1.368,4.46,4.46,0,0,1-1.9,2.149,6.387,6.387,0,0,1-2.757.772A8.248,8.248,0,0,1,566.859,170.382Z" fill="#d6dbff"/>
          <path id="Trazado_1594" data-name="Trazado 1594" d="M577.551,172.286a8.139,8.139,0,0,0-.28-1.052,3.11,3.11,0,0,0-.465-.911,1.944,1.944,0,0,0-.749-.648,4.067,4.067,0,0,0-1.013-.344,2.107,2.107,0,0,1,1.139.047,1.99,1.99,0,0,1,.96.7A2.783,2.783,0,0,1,577.551,172.286Z" fill="#d6dbff"/>
          <path id="Trazado_1595" data-name="Trazado 1595" d="M583.927,162.955a6.579,6.579,0,0,1,.3,3.825,6.86,6.86,0,0,1-.68,1.828,6.268,6.268,0,0,1-1.17,1.535,13.357,13.357,0,0,0,.88-1.676,8.08,8.08,0,0,0,.56-1.773,8.688,8.688,0,0,0,.222-1.85A11.041,11.041,0,0,0,583.927,162.955Z" fill="#d6dbff"/>
        </g>
      </g>
      <g id="Grupo_1979" data-name="Grupo 1979">
        <g id="Grupo_1975" data-name="Grupo 1975">
          <path id="Trazado_1596" data-name="Trazado 1596" d="M688.879,169.608c1.243,5.23,3.024,9.286,3.979,9.059s3.122-5.189,1.879-10.42-5.424-8.747-6.379-8.52S687.637,164.378,688.879,169.608Z" fill="#5568f5"/>
          <path id="Trazado_1597" data-name="Trazado 1597" d="M692.786,178.865c-1.25,0-2.985-4.561-4.09-9.214h0a40.465,40.465,0,0,1-1.09-6.85c-.107-2.025.132-3.121.709-3.258.617-.148,1.984.812,3.267,2.273a15.312,15.312,0,0,1,3.339,6.388c1.258,5.294-.965,10.4-2.02,10.647A.489.489,0,0,1,692.786,178.865ZM688.464,159.9a.236.236,0,0,0-.062.007c-.26.061-.525.85-.419,2.87a40.2,40.2,0,0,0,1.08,6.784h0c1.366,5.751,3.083,9.08,3.751,8.919.8-.19,2.977-4.984,1.74-10.193a14.915,14.915,0,0,0-3.256-6.226C690.023,160.611,688.878,159.9,688.464,159.9Z" fill="#d6dbff"/>
        </g>
        <g id="Grupo_1976" data-name="Grupo 1976">
          <path id="Trazado_1598" data-name="Trazado 1598" d="M668.026,163.454a13.505,13.505,0,0,0,2.2,10.46,42.179,42.179,0,0,0,8.174,8.86l19.8-10-3.3-10.846Z" fill="#5568f5"/>
          <path id="Trazado_1599" data-name="Trazado 1599" d="M678.355,183.268l-.209-.161a43.042,43.042,0,0,1-8.266-8.957,13.815,13.815,0,0,1-2.259-10.808l.08-.29,27.506-1.566,3.5,11.5Zm-9.988-19.412a13.407,13.407,0,0,0,2.209,9.823,42.429,42.429,0,0,0,7.877,8.6l19.244-9.722-3.1-10.193Z" fill="#d6dbff"/>
        </g>
        <g id="Grupo_1978" data-name="Grupo 1978">
          <g id="Grupo_1977" data-name="Grupo 1977">
            <path id="Trazado_1600" data-name="Trazado 1600" d="M692.842,178.713s8.62-4.507,12.024-6.911a7.023,7.023,0,0,0,3.194.568,5.486,5.486,0,0,0,10.785-2.014l0-.015a5.484,5.484,0,0,0-.136-10.477,5.486,5.486,0,1,0-10.772-1.8,7.033,7.033,0,0,0-1.536.112,7.121,7.121,0,0,0-4.6,2.974c-4.348-.795-13.262-1.445-13.262-1.445a23.019,23.019,0,0,1,4.858,8.145A16.329,16.329,0,0,1,692.842,178.713Z" fill="#7485ff"/>
            <path id="Trazado_1601" data-name="Trazado 1601" d="M692.735,179.243l-.218-.263c-.162-.2-.09-.379,0-.61a15.6,15.6,0,0,0,.472-10.389,21.438,21.438,0,0,0-4.543-7.713c-.286-.321-.373-.418-.329-.64l.042-.205.29-.142.113.009c.087.006,8.636.634,13.044,1.4a7.593,7.593,0,0,1,5.949-3.05,5.907,5.907,0,1,1,11.647,1.944,5.9,5.9,0,0,1,.107,11.034,5.905,5.905,0,0,1-11.583,2.18,7.479,7.479,0,0,1-2.808-.523c-3.5,2.417-11.535,6.626-11.881,6.807Zm-3.229-19.038a22.03,22.03,0,0,1,4.282,7.52,16.3,16.3,0,0,1-.183,10.109c2.339-1.244,8.345-4.487,11.019-6.375l.193-.136.216.094a6.6,6.6,0,0,0,3,.533l.368-.021.069.362a5.066,5.066,0,0,0,9.959-1.859l-.067-.363.349-.128a5.064,5.064,0,0,0-.127-9.674l-.393-.116.106-.4a5.066,5.066,0,1,0-9.947-1.659l-.028.407-.407-.016a6.529,6.529,0,0,0-1.445.1,6.691,6.691,0,0,0-4.334,2.8l-.154.224-.268-.049C698.3,160.941,691.959,160.4,689.506,160.205Z" fill="#d6dbff"/>
          </g>
          <path id="Trazado_1602" data-name="Trazado 1602" d="M718.7,159.962a8.093,8.093,0,0,1-1.923,2.164,6,6,0,0,1-2.662,1.222,4.648,4.648,0,0,1-2.891-.471,7.043,7.043,0,0,1-1.231-.789c-.363-.322-.7-.677-1.029-1.022.393.285.747.607,1.14.874a6.913,6.913,0,0,0,1.241.673,4.536,4.536,0,0,0,2.711.362,6.043,6.043,0,0,0,2.549-1.082A10.907,10.907,0,0,0,718.7,159.962Z" fill="#d6dbff"/>
          <path id="Trazado_1603" data-name="Trazado 1603" d="M718.743,170.382a8.366,8.366,0,0,1-2.8.3,6.38,6.38,0,0,1-2.747-.773,4.453,4.453,0,0,1-1.893-2.138,6.009,6.009,0,0,1-.418-1.364,13.636,13.636,0,0,1-.1-1.408,8.4,8.4,0,0,0,.781,2.645,5.569,5.569,0,0,0,.756,1.119l.5.45a5.445,5.445,0,0,0,.562.37,6.521,6.521,0,0,0,2.583.811A11.687,11.687,0,0,0,718.743,170.382Z" fill="#d6dbff"/>
          <path id="Trazado_1604" data-name="Trazado 1604" d="M708.051,172.286a2.841,2.841,0,0,1,.425-2.2,1.986,1.986,0,0,1,.949-.693,2.156,2.156,0,0,1,1.132-.062,3.89,3.89,0,0,0-1.019.329,1.929,1.929,0,0,0-.759.65A4.747,4.747,0,0,0,708.051,172.286Z" fill="#d6dbff"/>
          <path id="Trazado_1605" data-name="Trazado 1605" d="M701.675,162.955a10.466,10.466,0,0,0-.127,1.888,8.545,8.545,0,0,0,.217,1.855,8.022,8.022,0,0,0,.566,1.776,12.634,12.634,0,0,0,.9,1.669,6.471,6.471,0,0,1-1.156-1.542,6.954,6.954,0,0,1-.674-1.825A6.7,6.7,0,0,1,701.675,162.955Z" fill="#d6dbff"/>
        </g>
      </g>
      <g id="Grupo_1995" data-name="Grupo 1995">
        <g id="Grupo_1980" data-name="Grupo 1980">
          <path id="Trazado_1606" data-name="Trazado 1606" d="M687.826,216.743c1.889-5.741-2.216-24.083-11.232-38.606-11.008-17.732-7.1-69.333-34.531-69.333s-20.7,49.054-31.546,66.788c-8.918,14.583-14.472,40.154-9.167,45.459a84.713,84.713,0,0,1,26.835-4.693c14.455,0,27.235,4.2,37.845,4.2S687.826,216.743,687.826,216.743Z" fill="#5568f5"/>
          <path id="Trazado_1607" data-name="Trazado 1607" d="M601.145,221.443c-5.741-5.74.379-31.951,9.014-46.07,3.751-6.134,5.373-16.036,7.089-26.519,3.258-19.9,6.627-40.47,24.815-40.47,18.378,0,22.97,22.827,27.022,42.967,2.127,10.571,4.136,20.556,7.866,26.565,8.723,14.051,13.283,32.857,11.243,39.058l-.773-.1c1.594-5.543-1.956-23.653-11.184-38.517-3.81-6.137-5.833-16.194-7.976-26.842-3.988-19.824-8.508-42.293-26.2-42.293-17.475,0-20.785,20.216-23.986,39.765-1.73,10.567-3.364,20.548-7.2,26.822-8.919,14.584-13.89,39.671-9.18,45.115Z" fill="#d6dbff"/>
        </g>
        <g id="Grupo_1981" data-name="Grupo 1981">
          <path id="Trazado_1608" data-name="Trazado 1608" d="M608.444,218.715A16.247,16.247,0,0,1,607,214.59a19.945,19.945,0,0,1-.443-4.366,19.632,19.632,0,0,1,.537-4.355,19.414,19.414,0,0,1,.62-2.1c.242-.689.574-1.344.855-2.013a27.324,27.324,0,0,0-1.191,4.177,21.34,21.34,0,0,0-.444,4.3,21.7,21.7,0,0,0,.35,4.307A20.71,20.71,0,0,0,608.444,218.715Z" fill="#fff"/>
        </g>
        <g id="Grupo_1982" data-name="Grupo 1982">
          <path id="Trazado_1609" data-name="Trazado 1609" d="M616.8,217.2a16.233,16.233,0,0,1-1.442-4.125,20,20,0,0,1-.443-4.366,19.632,19.632,0,0,1,.537-4.355,19.878,19.878,0,0,1,.62-2.1c.242-.689.574-1.343.855-2.013a27.415,27.415,0,0,0-1.191,4.178,21.247,21.247,0,0,0-.443,4.3,21.686,21.686,0,0,0,.349,4.307A20.71,20.71,0,0,0,616.8,217.2Z" fill="#fff"/>
        </g>
        <g id="Grupo_1983" data-name="Grupo 1983">
          <path id="Trazado_1610" data-name="Trazado 1610" d="M666.862,220.36a20.72,20.72,0,0,0,1.158-4.18,23.538,23.538,0,0,0-.093-8.6,27.381,27.381,0,0,0-1.192-4.177c.281.669.613,1.323.855,2.012a20.092,20.092,0,0,1,1.157,6.458,19.94,19.94,0,0,1-.443,4.366A16.222,16.222,0,0,1,666.862,220.36Z" fill="#fff"/>
        </g>
        <g id="Grupo_1984" data-name="Grupo 1984">
          <path id="Trazado_1611" data-name="Trazado 1611" d="M676.356,219.728a20.811,20.811,0,0,0,1.158-4.181,21.692,21.692,0,0,0,.349-4.307,21.264,21.264,0,0,0-.443-4.3,27.482,27.482,0,0,0-1.191-4.177c.281.669.613,1.324.855,2.012a19.934,19.934,0,0,1,.62,2.1,19.638,19.638,0,0,1,.536,4.355,19.873,19.873,0,0,1-.443,4.366A16.238,16.238,0,0,1,676.356,219.728Z" fill="#fff"/>
        </g>
        <g id="Grupo_1985" data-name="Grupo 1985">
          <path id="Trazado_1612" data-name="Trazado 1612" d="M669.728,183.357H641.739a1.909,1.909,0,0,1-1.909-1.908v-8.515a1.906,1.906,0,0,1,2.4-1.844,53.822,53.822,0,0,0,13.56,1.35,53.222,53.222,0,0,0,13.449-1.338,1.907,1.907,0,0,1,2.4,1.843v8.5A1.908,1.908,0,0,1,669.728,183.357Z" fill="#7485ff"/>
          <path id="Trazado_1613" data-name="Trazado 1613" d="M669.728,183.539H641.739a2.092,2.092,0,0,1-2.09-2.09v-8.515a2.087,2.087,0,0,1,2.624-2.019,53.688,53.688,0,0,0,13.513,1.343,53.109,53.109,0,0,0,13.4-1.331,2.089,2.089,0,0,1,2.629,2.018v8.5A2.092,2.092,0,0,1,669.728,183.539Zm-28-12.333a1.728,1.728,0,0,0-1.719,1.728v8.515a1.729,1.729,0,0,0,1.727,1.727h27.989a1.729,1.729,0,0,0,1.727-1.727v-8.5a1.726,1.726,0,0,0-2.172-1.668,53.37,53.37,0,0,1-13.5,1.345,54,54,0,0,1-13.607-1.357A1.767,1.767,0,0,0,641.731,171.206Z" fill="#fff"/>
        </g>
        <g id="Grupo_1994" data-name="Grupo 1994">
          <g id="Grupo_1986" data-name="Grupo 1986">
            <path id="Trazado_1614" data-name="Trazado 1614" d="M656.907,127.885l-.076-.37c3.147-.648,5.214-1.256,5.234-1.263l.108.363C662.152,126.621,660.072,127.234,656.907,127.885Z" fill="#fff"/>
            <path id="Trazado_1615" data-name="Trazado 1615" d="M627.514,127.825c-2.947-.618-4.86-1.18-4.879-1.186l.108-.362c.018.006,1.918.564,4.849,1.179Z" fill="#fff"/>
            <path id="Trazado_1616" data-name="Trazado 1616" d="M657.2,132.315l-.089-.367c3.773-.91,6.393-1.8,6.419-1.809l.122.358C663.623,130.505,660.987,131.4,657.2,132.315Z" fill="#fff"/>
            <path id="Trazado_1617" data-name="Trazado 1617" d="M627.506,132.212c-3.59-.915-6.047-1.8-6.072-1.807l.128-.355c.025.009,2.467.885,6.038,1.8Z" fill="#fff"/>
          </g>
          <g id="Grupo_1987" data-name="Grupo 1987">
            <path id="Trazado_1618" data-name="Trazado 1618" d="M625.735,144.372s4.332,8.472,16.365,8.472,16.943-8.76,16.943-8.76" fill="#5568f5"/>
            <path id="Trazado_1619" data-name="Trazado 1619" d="M625.735,144.372a15.021,15.021,0,0,0,3.178,3.682,18.293,18.293,0,0,0,4.056,2.659,22.386,22.386,0,0,0,18.807-.286,18.642,18.642,0,0,0,4.032-2.7,16.952,16.952,0,0,0,3.235-3.639,18.206,18.206,0,0,1-7.134,6.6,21.855,21.855,0,0,1-19.066.288A16.722,16.722,0,0,1,625.735,144.372Z" fill="#fff"/>
          </g>
          <g id="Grupo_1988" data-name="Grupo 1988">
            <path id="Trazado_1620" data-name="Trazado 1620" d="M657.786,143.177s2.627-.656,2.627,1.724" fill="#5568f5"/>
            <path id="Trazado_1621" data-name="Trazado 1621" d="M660.6,144.9h-.378a1.543,1.543,0,0,0-.511-1.287,2.556,2.556,0,0,0-1.881-.254l-.092-.366a2.889,2.889,0,0,1,2.2.322A1.9,1.9,0,0,1,660.6,144.9Z" fill="#fff"/>
          </g>
          <g id="Grupo_1989" data-name="Grupo 1989">
            <path id="Trazado_1622" data-name="Trazado 1622" d="M626.971,143.115s-2.627-.657-2.627,1.724" fill="#5568f5"/>
            <path id="Trazado_1623" data-name="Trazado 1623" d="M624.533,144.839h-.378a1.9,1.9,0,0,1,.658-1.585,2.878,2.878,0,0,1,2.2-.322l-.091.366a2.551,2.551,0,0,0-1.881.254A1.543,1.543,0,0,0,624.533,144.839Z" fill="#fff"/>
          </g>
          <g id="Grupo_1993" data-name="Grupo 1993">
            <g id="Grupo_1990" data-name="Grupo 1990">
              <rect id="Rect치ngulo_472" data-name="Rect치ngulo 472" width="28.636" height="26.319" rx="7.373" transform="translate(628.771 117.052)" fill="#d6dbff"/>
              <path id="Trazado_1624" data-name="Trazado 1624" d="M650.034,143.559H636.143A7.57,7.57,0,0,1,628.582,136V124.424a7.57,7.57,0,0,1,7.561-7.561h13.891a7.571,7.571,0,0,1,7.562,7.561V136A7.571,7.571,0,0,1,650.034,143.559Zm-13.891-26.318a7.191,7.191,0,0,0-7.183,7.183V136a7.191,7.191,0,0,0,7.183,7.183h13.891A7.191,7.191,0,0,0,657.217,136V124.424a7.191,7.191,0,0,0-7.183-7.183Z" fill="#5568f5"/>
            </g>
            <g id="Grupo_1991" data-name="Grupo 1991">
              <rect id="Rect치ngulo_473" data-name="Rect치ngulo 473" width="28.636" height="26.319" rx="7.373" transform="translate(627.553 116.095)" fill="#d6dbff"/>
              <path id="Trazado_1625" data-name="Trazado 1625" d="M648.816,142.791h-13.89a7.758,7.758,0,0,1-7.75-7.75V123.468a7.758,7.758,0,0,1,7.75-7.75h13.89a7.759,7.759,0,0,1,7.751,7.75v11.573A7.759,7.759,0,0,1,648.816,142.791Zm-13.89-26.318a7,7,0,0,0-7,7v11.573a7,7,0,0,0,7,6.995h13.89a7,7,0,0,0,7-6.995V123.468a7,7,0,0,0-7-7Z" fill="#5568f5"/>
            </g>
            <g id="Grupo_1992" data-name="Grupo 1992">
              <path id="Trazado_1626" data-name="Trazado 1626" d="M635.977,129.767a29.311,29.311,0,0,1,3.414-4.007,28.809,28.809,0,0,1,4.008-3.414,33.021,33.021,0,0,1-7.422,7.421Z" fill="#5568f5"/>
              <path id="Trazado_1627" data-name="Trazado 1627" d="M640.947,134.737a33.076,33.076,0,0,1,7.421-7.422,28.869,28.869,0,0,1-3.413,4.008A29.382,29.382,0,0,1,640.947,134.737Z" fill="#5568f5"/>
              <path id="Trazado_1628" data-name="Trazado 1628" d="M635.977,134.671c.9-1.144,1.863-2.223,2.837-3.292s1.982-2.1,3-3.134,2.057-2.029,3.133-3,2.148-1.938,3.293-2.836c-.9,1.145-1.863,2.224-2.836,3.293s-1.982,2.1-3,3.133-2.058,2.028-3.134,3S637.121,133.772,635.977,134.671Z" fill="#5568f5"/>
            </g>
            <path id="Trazado_1629" data-name="Trazado 1629" d="M628.676,127.017s-1.452-9.5,7.125-9.434a10.075,10.075,0,0,0-4.882,3.629A15.386,15.386,0,0,0,628.676,127.017Z" fill="#5568f5"/>
          </g>
        </g>
      </g>
    </g>
    <path id="Trazado_1630" data-name="Trazado 1630" d="M441.221,296.283a5.115,5.115,0,0,1-5.286-4.926V223.626a16.362,16.362,0,0,1,1.5-6.955,18.092,18.092,0,0,1,4.108-5.678,19.519,19.519,0,0,1,6.1-3.827,19.8,19.8,0,0,1,7.461-1.4h35.526a5.116,5.116,0,0,1,5.286,4.927V218.7a5.116,5.116,0,0,1-5.286,4.927h-29.5a6.012,6.012,0,0,0-4.245,1.659,5.223,5.223,0,0,0-1.779,3.956l.222,10.834h16.181A5.115,5.115,0,0,1,476.79,245v8.013a5.115,5.115,0,0,1-5.285,4.926H455.324l-.193,33.443a5.118,5.118,0,0,1-5.286,4.9Z" fill="#fff"/>
    <path id="Trazado_1631" data-name="Trazado 1631" d="M518.836,205.739a5.115,5.115,0,0,1,5.285,4.927v62.522a5.22,5.22,0,0,0,1.779,3.956,6.006,6.006,0,0,0,4.245,1.66l21.645-.078a5.117,5.117,0,0,1,5.306,4.926v8.008a5.114,5.114,0,0,1-5.269,4.926l-27.706.082a19.778,19.778,0,0,1-7.461-1.4,19.463,19.463,0,0,1-6.095-3.829,18.034,18.034,0,0,1-4.108-5.678,16.34,16.34,0,0,1-1.5-6.953V210.666a5.116,5.116,0,0,1,5.286-4.927Z" fill="#fff"/>
    <path id="Trazado_1632" data-name="Trazado 1632" d="M628.1,264.219h0c-7.954,11.084-14.672,14.9-27.371,15.236a25.62,25.62,0,0,1-18.634-7.148,25.254,25.254,0,0,1-7.4-12.032,31.581,31.581,0,0,1-.894-4.327l.012-.011h70.712a3.389,3.389,0,0,0,3.509-3.384c-.045-1.253-.094-2.493-.134-3-.976-12.541-5.546-22.715-13.608-30.28-8.846-8.294-19.981-12.5-33.1-12.5-13.143,0-24.32,4.442-33.219,13.2a43.87,43.87,0,0,0-.082,62.953c8.848,8.711,20.209,13.129,33.772,13.129,9.78,0,18.432-2.047,25.439-6.468,6.787-4.281,11.034-8.743,16.826-17.236h0l1-1.691a3.4,3.4,0,0,0-1.577-4.814l-9.384-4.5a3.908,3.908,0,0,0-5.024,1.433ZM574.669,240.44a37.562,37.562,0,0,1,1.718-3.468c5.18-9.184,13.344-13.684,24.783-13.684a31.535,31.535,0,0,1,18.432,5.476,23.637,23.637,0,0,1,7.39,7.972,25.092,25.092,0,0,1,1.69,3.689l-.011.015h-54Z" fill="#fff"/>
    <path id="Trazado_1633" data-name="Trazado 1633" d="M798.19,216.363h8.6a5.115,5.115,0,0,1,5.285,4.927v70.136a5.115,5.115,0,0,1-5.285,4.926h-8.6a5.116,5.116,0,0,1-5.286-4.926V221.29a5.116,5.116,0,0,1,5.286-4.927" fill="#fff"/>
    <path id="Trazado_1634" data-name="Trazado 1634" d="M813.67,194.33c0,5.993-5.213,10.852-11.644,10.852s-11.644-4.859-11.644-10.852,5.213-10.852,11.644-10.852,11.644,4.859,11.644,10.852" fill="#fff"/>
    <path id="Trazado_1635" data-name="Trazado 1635" d="M704.1,248.52l-28.113-26.2a3.643,3.643,0,0,1,0-5.408l7.751-7.224a4.317,4.317,0,0,1,5.8,0l31.464,29.324,31.464-29.325a4.318,4.318,0,0,1,5.8,0l7.753,7.225a3.642,3.642,0,0,1,0,5.408l-28.112,26.2a4.208,4.208,0,0,0,0,6.247l28.112,26.2a3.642,3.642,0,0,1,0,5.408l-7.754,7.226a4.318,4.318,0,0,1-5.8,0L721.01,264.277,689.546,293.6a4.317,4.317,0,0,1-5.8,0l-7.751-7.225a3.643,3.643,0,0,1,0-5.408l28.113-26.2a4.208,4.208,0,0,0,0-6.247" fill="#fff"/>
    <path id="Trazado_1636" data-name="Trazado 1636" d="M657.285,238.476l11.142,10.553c1.827,1.732,1.68,3.358-.166,5.072l-11.069,10.272a3.642,3.642,0,0,0-.052,5.37l4.072,3.919a4.316,4.316,0,0,0,5.868.025l20.061-18.945a4.208,4.208,0,0,0,0-6.2l-20.1-19.012a4.317,4.317,0,0,0-5.8-.043l-3.912,3.586a3.643,3.643,0,0,0-.05,5.407" fill="#ff3b67"/>
    <path id="Trazado_1637" data-name="Trazado 1637" d="M784.946,264.735,773.8,254.182c-1.826-1.733-1.68-3.358.167-5.072l11.068-10.272a3.643,3.643,0,0,0,.052-5.371l-4.072-3.918a4.315,4.315,0,0,0-5.867-.025L755.09,248.469a4.208,4.208,0,0,0,0,6.2l20.1,19.013a4.317,4.317,0,0,0,5.8.043l3.913-3.586a3.643,3.643,0,0,0,.049-5.407" fill="#62cbc9"/>
    <path id="Trazado_1638" data-name="Trazado 1638" d="M824.188,170.793a6.362,6.362,0,0,1,3.543.823,3.305,3.305,0,0,1,.734,4.314,3.286,3.286,0,0,1-1.43,1.061q.311.386.651.881c.228.331.453.678.675,1.038s.438.736.646,1.127.4.773.578,1.149H827l-.573-1.023q-.29-.519-.6-1.008t-.6-.927c-.2-.29-.4-.556-.6-.793h-1.142v3.751h-2.313V171.06a13.177,13.177,0,0,1,1.565-.208c.537-.039,1.02-.059,1.445-.059m.134,1.972c-.169,0-.319.005-.452.015l-.379.03V175.6h.653a3.934,3.934,0,0,0,1.868-.327,1.177,1.177,0,0,0,.562-1.111,1.132,1.132,0,0,0-.57-1.076,3.539,3.539,0,0,0-1.682-.318" fill="#fff"/>
    <path id="Trazado_1639" data-name="Trazado 1639" d="M825.382,185.974a9.984,9.984,0,1,1,9.984-9.985,10,10,0,0,1-9.984,9.985m0-19.4a9.421,9.421,0,1,0,9.42,9.42,9.431,9.431,0,0,0-9.42-9.42" fill="#fff"/>
    <g id="Grupo_1999" data-name="Grupo 1999" transform="translate(6.124 -4)">
      <g id="Grupo_1998" data-name="Grupo 1998">
        <g id="Grupo_1997" data-name="Grupo 1997">
          <path id="Trazado_1640" data-name="Trazado 1640" d="M650.249,62.472a3.093,3.093,0,0,1,.687-1.508,2.566,2.566,0,0,1,1.149-.757,3.177,3.177,0,0,1,1.39-.1,4.124,4.124,0,0,1,1.406.461,4.209,4.209,0,0,1,1.165.93,3.3,3.3,0,0,1,.7,1.3,3.116,3.116,0,0,1,0,1.571,4.513,4.513,0,0,1-.922,1.734c.375.136.723.272,1.047.406a3.012,3.012,0,0,1,.82.5,2.077,2.077,0,0,1,.523.719,2.58,2.58,0,0,1,.188,1.047,3.549,3.549,0,0,1-.188,1.094,5.558,5.558,0,0,1-.523,1.14,7.336,7.336,0,0,1-.781,1.071,6.437,6.437,0,0,1-.961.9,4.833,4.833,0,0,1-1.055.617,2.693,2.693,0,0,1-1.055.227.886.886,0,0,1-.671-.438,5.72,5.72,0,0,1-.641-1.156,16.673,16.673,0,0,1-.609-1.656q-.3-.937-.547-1.945t-.453-2q-.2-.993-.352-1.836c-.1-.563-.178-1.049-.234-1.461A7.219,7.219,0,0,1,650.249,62.472Zm1.781,1.453c0,.188-.006.42-.016.7s-.01.56,0,.851a6.035,6.035,0,0,0,.094.875,2.011,2.011,0,0,0,.281.75,3.42,3.42,0,0,0,2.258-1.445,3.693,3.693,0,0,0,.508-1.117,3.621,3.621,0,0,0,.117-1.157,2.792,2.792,0,0,0-.266-1.031,1.727,1.727,0,0,0-.632-.726,1.8,1.8,0,0,0-.985-.258,3.044,3.044,0,0,0-1.328.375c0,.084,0,.229-.008.437s-.01.428-.015.657-.008.448-.008.656Zm1,5.313a2.664,2.664,0,0,0,.125.7,6.373,6.373,0,0,0,.32.875,6.164,6.164,0,0,0,.43.805,1.264,1.264,0,0,0,.5.492.521.521,0,0,0,.516-.024,2.227,2.227,0,0,0,.6-.468,5.62,5.62,0,0,0,.586-.735c.188-.275.356-.549.508-.82a5.961,5.961,0,0,0,.359-.758,1.692,1.692,0,0,0,.133-.539,1.738,1.738,0,0,0-.109-.664.985.985,0,0,0-.321-.414,1.285,1.285,0,0,0-.5-.219,3.13,3.13,0,0,0-2.265.422,2.378,2.378,0,0,0-.625.578A1.248,1.248,0,0,0,653.03,69.238Z" fill="#fff"/>
          <path id="Trazado_1641" data-name="Trazado 1641" d="M660.28,62.41a1.183,1.183,0,0,1,.5.406.764.764,0,0,1,.18.508c-.016.151-.133.256-.352.312a2.146,2.146,0,0,1-1.094-.179,1.565,1.565,0,0,1,.164-.735A.619.619,0,0,1,660.28,62.41Zm-.219,5.859c0-.062,0-.164.008-.305s.01-.289.016-.445.009-.307.015-.453.008-.25.008-.313a1.348,1.348,0,0,1,.445-.406,3.215,3.215,0,0,1,.555-.25,10.559,10.559,0,0,0,.266,1.8q.217.954.468,1.914t.446,1.9a8.627,8.627,0,0,1,.195,1.75.629.629,0,0,1-.719.7.911.911,0,0,1-.734-.36,2.727,2.727,0,0,1-.477-.914,8.246,8.246,0,0,1-.289-1.234,13.1,13.1,0,0,1-.148-1.336c-.027-.438-.042-.838-.047-1.2S660.061,68.467,660.061,68.269Z" fill="#fff"/>
          <path id="Trazado_1642" data-name="Trazado 1642" d="M663.092,69.785a7.16,7.16,0,0,1,.2-1.688,4.683,4.683,0,0,1,.648-1.515,3.521,3.521,0,0,1,1.156-1.094,3.329,3.329,0,0,1,1.727-.422,2.307,2.307,0,0,1,1.015.211,2.248,2.248,0,0,1,.735.555,2.327,2.327,0,0,1,.445.8,3.12,3.12,0,0,1,.149.961,3.492,3.492,0,0,1-.368,1.547,4.45,4.45,0,0,1-.984,1.32,4.146,4.146,0,0,1-1.414.86,3.032,3.032,0,0,1-1.625.133,1,1,0,0,0,.3.726,1.879,1.879,0,0,0,.7.414,3.5,3.5,0,0,0,.844.18q.436.039.781.039a3.41,3.41,0,0,0,.672-.063c.208-.041.416-.087.625-.14s.419-.1.633-.141a3.578,3.578,0,0,1,.679-.062c.094,0,.188.006.282.015a.919.919,0,0,1,.265.071.467.467,0,0,1,.2.171.514.514,0,0,1,.078.29.633.633,0,0,1-.218.492,1.969,1.969,0,0,1-.555.336,3.515,3.515,0,0,1-.742.211c-.272.046-.534.084-.789.109s-.491.041-.7.047-.373.008-.477.008a4.772,4.772,0,0,1-1.8-.321,3.78,3.78,0,0,1-1.344-.89,3.818,3.818,0,0,1-.836-1.375A5.254,5.254,0,0,1,663.092,69.785Zm1.657-1.016a1.61,1.61,0,0,0,.148.8q.148.25.727.25a2.211,2.211,0,0,0,.8-.149,2.457,2.457,0,0,0,.71-.414,2,2,0,0,0,.508-.625,1.662,1.662,0,0,0,.188-.781,3.278,3.278,0,0,0-.039-.484,1.311,1.311,0,0,0-.164-.461,1.081,1.081,0,0,0-.321-.344.89.89,0,0,0-.507-.133,1.741,1.741,0,0,0-.852.211,2.1,2.1,0,0,0-.648.547,2.5,2.5,0,0,0-.407.75A2.606,2.606,0,0,0,664.749,68.769Z" fill="#fff"/>
          <path id="Trazado_1643" data-name="Trazado 1643" d="M671.811,68.863a.748.748,0,0,1,.2-.586.983.983,0,0,1,.657-.18h.156q.046.25.109.578a4.166,4.166,0,0,0,.188.672,3.543,3.543,0,0,0,.3.633,1.422,1.422,0,0,0,.421.461,2.458,2.458,0,0,1,.274-1.055,3.771,3.771,0,0,1,.64-.906,4.006,4.006,0,0,1,.844-.672,2.97,2.97,0,0,1,.914-.367h.344a2.347,2.347,0,0,1,1.281.336,2.878,2.878,0,0,1,.883.875,4.3,4.3,0,0,1,.539,1.226,11.567,11.567,0,0,1,.289,1.4,12.694,12.694,0,0,1,.125,1.375c.016.443.024.82.024,1.133h-1.141q-.093-.937-.234-1.8-.048-.343-.125-.727c-.053-.255-.11-.494-.172-.719s-.131-.431-.2-.625a2.4,2.4,0,0,0-.25-.492c-.042-.041-.1-.1-.164-.172s-.139-.145-.211-.218-.141-.135-.2-.188a.433.433,0,0,0-.11-.078.831.831,0,0,0-.812.18,2.762,2.762,0,0,0-.61.82,5.406,5.406,0,0,0-.429,1.172q-.165.655-.274,1.258t-.156,1.047c-.031.3-.053.476-.063.539a.791.791,0,0,1-.734.164,1.466,1.466,0,0,1-.648-.492,3.928,3.928,0,0,1-.547-.938q-.243-.562-.446-1.195T672.1,70.05Q671.937,69.411,671.811,68.863Z" fill="#fff"/>
          <path id="Trazado_1644" data-name="Trazado 1644" d="M680.764,65.988c.073-.25.158-.364.258-.344s.221.141.367.359a8.375,8.375,0,0,1,.492.875c.182.366.377.758.586,1.18s.435.852.68,1.289a11.626,11.626,0,0,0,.766,1.2,4.723,4.723,0,0,0,.843.907,1.834,1.834,0,0,0,.915.421l1.25-6.468a.3.3,0,0,1,.242-.305,2.355,2.355,0,0,1,.414-.039q.7,0,.7.656c0,.23-.022.594-.063,1.094s-.109,1.05-.2,1.648-.209,1.214-.343,1.844a13.435,13.435,0,0,1-.485,1.727,5.059,5.059,0,0,1-.648,1.281,1.02,1.02,0,0,1-.805.5,2.21,2.21,0,0,1-1.266-.43,5.488,5.488,0,0,1-1.179-1.125,10.193,10.193,0,0,1-1.016-1.554,15.4,15.4,0,0,1-.8-1.727,12.623,12.623,0,0,1-.523-1.664A6.009,6.009,0,0,1,680.764,65.988Z" fill="#fff"/>
          <path id="Trazado_1645" data-name="Trazado 1645" d="M689.217,69.785a7.16,7.16,0,0,1,.2-1.688,4.683,4.683,0,0,1,.648-1.515,3.521,3.521,0,0,1,1.156-1.094,3.329,3.329,0,0,1,1.727-.422,2.307,2.307,0,0,1,1.015.211,2.248,2.248,0,0,1,.735.555,2.327,2.327,0,0,1,.445.8,3.12,3.12,0,0,1,.149.961,3.492,3.492,0,0,1-.368,1.547,4.45,4.45,0,0,1-.984,1.32,4.146,4.146,0,0,1-1.414.86,3.032,3.032,0,0,1-1.625.133,1,1,0,0,0,.3.726,1.879,1.879,0,0,0,.7.414,3.5,3.5,0,0,0,.844.18q.436.039.781.039a3.41,3.41,0,0,0,.672-.063c.208-.041.416-.087.625-.14s.419-.1.633-.141a3.578,3.578,0,0,1,.679-.062c.094,0,.188.006.282.015a.919.919,0,0,1,.265.071.467.467,0,0,1,.2.171.514.514,0,0,1,.078.29.633.633,0,0,1-.218.492,1.969,1.969,0,0,1-.555.336,3.515,3.515,0,0,1-.742.211c-.272.046-.534.084-.789.109s-.491.041-.7.047-.373.008-.477.008a4.772,4.772,0,0,1-1.8-.321,3.78,3.78,0,0,1-1.344-.89,3.818,3.818,0,0,1-.836-1.375A5.254,5.254,0,0,1,689.217,69.785Zm1.657-1.016a1.61,1.61,0,0,0,.148.8q.148.25.727.25a2.211,2.211,0,0,0,.8-.149,2.457,2.457,0,0,0,.71-.414,2,2,0,0,0,.508-.625,1.662,1.662,0,0,0,.188-.781,3.278,3.278,0,0,0-.039-.484,1.311,1.311,0,0,0-.164-.461,1.081,1.081,0,0,0-.321-.344.89.89,0,0,0-.507-.133,1.741,1.741,0,0,0-.852.211,2.1,2.1,0,0,0-.648.547,2.5,2.5,0,0,0-.407.75A2.606,2.606,0,0,0,690.874,68.769Z" fill="#fff"/>
          <path id="Trazado_1646" data-name="Trazado 1646" d="M697.936,68.863a.748.748,0,0,1,.2-.586.983.983,0,0,1,.657-.18h.156q.046.25.109.578a4.166,4.166,0,0,0,.188.672,3.543,3.543,0,0,0,.3.633,1.422,1.422,0,0,0,.421.461,2.458,2.458,0,0,1,.274-1.055,3.771,3.771,0,0,1,.64-.906,4.006,4.006,0,0,1,.844-.672,2.97,2.97,0,0,1,.914-.367h.344a2.347,2.347,0,0,1,1.281.336,2.878,2.878,0,0,1,.883.875,4.3,4.3,0,0,1,.539,1.226,11.567,11.567,0,0,1,.289,1.4,12.694,12.694,0,0,1,.125,1.375c.016.443.024.82.024,1.133h-1.141q-.093-.937-.234-1.8-.048-.343-.125-.727c-.053-.255-.11-.494-.172-.719s-.131-.431-.2-.625a2.4,2.4,0,0,0-.25-.492c-.042-.041-.1-.1-.164-.172s-.139-.145-.211-.218-.141-.135-.2-.188a.433.433,0,0,0-.11-.078.831.831,0,0,0-.812.18,2.762,2.762,0,0,0-.61.82,5.406,5.406,0,0,0-.429,1.172q-.165.655-.274,1.258t-.156,1.047c-.031.3-.053.476-.063.539a.791.791,0,0,1-.734.164,1.466,1.466,0,0,1-.648-.492,3.928,3.928,0,0,1-.547-.938q-.243-.562-.446-1.195t-.367-1.274Q698.062,69.411,697.936,68.863Z" fill="#fff"/>
          <path id="Trazado_1647" data-name="Trazado 1647" d="M707.858,62.41a1.182,1.182,0,0,1,.5.406.763.763,0,0,1,.18.508c-.016.151-.133.256-.352.312a2.146,2.146,0,0,1-1.094-.179,1.565,1.565,0,0,1,.164-.735A.619.619,0,0,1,707.858,62.41Zm-.219,5.859c0-.062,0-.164.008-.305s.01-.289.016-.445.009-.307.015-.453.008-.25.008-.313a1.348,1.348,0,0,1,.445-.406,3.215,3.215,0,0,1,.555-.25,10.559,10.559,0,0,0,.266,1.8q.217.954.469,1.914t.445,1.9a8.631,8.631,0,0,1,.195,1.75.629.629,0,0,1-.719.7.911.911,0,0,1-.734-.36,2.746,2.746,0,0,1-.477-.914,8.246,8.246,0,0,1-.289-1.234,13.123,13.123,0,0,1-.148-1.336c-.026-.438-.042-.838-.047-1.2S707.639,68.467,707.639,68.269Z" fill="#fff"/>
          <path id="Trazado_1648" data-name="Trazado 1648" d="M710.327,72.285a2.9,2.9,0,0,1,.453-1.61,4.941,4.941,0,0,1,1.125-1.226,7.627,7.627,0,0,1,1.453-.891q.782-.366,1.453-.609t1.125-.391q.453-.148.453-.242a10.443,10.443,0,0,0-.054-1.07q-.057-.523-.118-1.055c-.042-.354-.081-.705-.117-1.055a9.83,9.83,0,0,1-.054-1.039V62.082q.639-.236.914.046c.181.188.211.511.086.969q.061.345.171,1.078c.073.491.154,1.042.243,1.657s.181,1.26.281,1.937.192,1.326.281,1.945.164,1.172.227,1.657.109.846.14,1.086c.01.052.021.154.032.3s.017.313.023.485.01.331.016.476.007.25.007.313a4.457,4.457,0,0,1-.8-.047.333.333,0,0,1-.266-.188,1.149,1.149,0,0,1-.055-.406,2.5,2.5,0,0,0-.156-.734,9.44,9.44,0,0,1-1.094.75,5.966,5.966,0,0,1-1.031.476,5.29,5.29,0,0,1-1.039.25,8.394,8.394,0,0,1-1.117.071,5.343,5.343,0,0,1-.961-.086,2.392,2.392,0,0,1-.82-.305,1.646,1.646,0,0,1-.578-.594A1.822,1.822,0,0,1,710.327,72.285Zm1.359-.328a.684.684,0,0,0,.11.406.951.951,0,0,0,.281.265,1.037,1.037,0,0,0,.367.149,1.953,1.953,0,0,0,.383.039,3.729,3.729,0,0,0,1.179-.211,4.416,4.416,0,0,0,1.172-.594,3.422,3.422,0,0,0,.891-.914,2.053,2.053,0,0,0,.352-1.156,1.008,1.008,0,0,0-.172-.672.886.886,0,0,0-.657-.187,3.573,3.573,0,0,0-1.164.234,6.319,6.319,0,0,0-1.281.625,4.21,4.21,0,0,0-1.039.914A1.737,1.737,0,0,0,711.686,71.957Z" fill="#fff"/>
          <path id="Trazado_1649" data-name="Trazado 1649" d="M719.389,70.957a3.729,3.729,0,0,1,.453-1.805,4.758,4.758,0,0,1,1.2-1.438,5.879,5.879,0,0,1,1.672-.945,5.413,5.413,0,0,1,1.882-.344,1.449,1.449,0,0,1,.946.344,3.047,3.047,0,0,1,.695.836,4.45,4.45,0,0,1,.43,1.039,3.759,3.759,0,0,1,.148.953,3.648,3.648,0,0,1-.422,1.695,5.347,5.347,0,0,1-1.093,1.454,5.707,5.707,0,0,1-1.516,1.023,3.981,3.981,0,0,1-1.688.391,2.807,2.807,0,0,1-1.265-.258,2.234,2.234,0,0,1-.828-.688,2.9,2.9,0,0,1-.461-1.015A4.994,4.994,0,0,1,719.389,70.957Zm1.328.156a3.176,3.176,0,0,0,.071.711,1.249,1.249,0,0,0,.25.523,1.128,1.128,0,0,0,.476.336,2.015,2.015,0,0,0,.735.117,2.367,2.367,0,0,0,1.156-.32,4.307,4.307,0,0,0,1.781-1.9,2.687,2.687,0,0,0,.281-1.157,3.567,3.567,0,0,0-.046-.547,2.266,2.266,0,0,0-.157-.546,1.161,1.161,0,0,0-.312-.422.771.771,0,0,0-.516-.172,1.558,1.558,0,0,0-.664.187,5.583,5.583,0,0,0-.8.485,7.867,7.867,0,0,0-.812.672q-.4.375-.727.75a4.454,4.454,0,0,0-.523.718A1.222,1.222,0,0,0,720.717,71.113Z" fill="#fff"/>
          <path id="Trazado_1650" data-name="Trazado 1650" d="M661.1,83.972a2.98,2.98,0,0,1,.039-.43,1.98,1.98,0,0,1,.141-.492,1.313,1.313,0,0,1,.258-.4.53.53,0,0,1,.406-.164.68.68,0,0,1,.078.015.407.407,0,0,0,.078.016,8.98,8.98,0,0,1,.313,1.922,13.679,13.679,0,0,1-.032,1.851q-.078.9-.234,1.735t-.258,1.539a12.672,12.672,0,0,0-.125,1.266,2,2,0,0,0,.164.953,5.923,5.923,0,0,1-.039-.6,3.452,3.452,0,0,1,.063-.726,3.489,3.489,0,0,1,.234-.75,2.063,2.063,0,0,1,.477-.672,2.2,2.2,0,0,1,.8-.469,3.781,3.781,0,0,1,1.227-.172,3.033,3.033,0,0,1,1.32.266,2.539,2.539,0,0,1,.914.726,3.183,3.183,0,0,1,.539,1.078,4.7,4.7,0,0,1,.18,1.321c0,.218,0,.466-.008.742a3.012,3.012,0,0,1-.109.765,1.294,1.294,0,0,1-.359.594,1.067,1.067,0,0,1-.758.242c0-.166.009-.392.031-.679s.033-.591.039-.914-.006-.651-.031-.985a2.847,2.847,0,0,0-.211-.9,1.75,1.75,0,0,0-.477-.656,1.253,1.253,0,0,0-.836-.258c-.125,0-.279.008-.461.023a1.74,1.74,0,0,0-.554.149,1.921,1.921,0,0,0-.547.382,1.764,1.764,0,0,0-.422.7,3.825,3.825,0,0,0-.18,1.125,7.763,7.763,0,0,0,.164,1.664c-.073.187-.164.3-.273.328a1.548,1.548,0,0,1-.414.047,1.058,1.058,0,0,1-.82-.352,2.347,2.347,0,0,1-.493-.945,6.582,6.582,0,0,1-.226-1.375q-.056-.781-.039-1.633c.009-.567.039-1.146.086-1.734s.093-1.146.14-1.672.094-1,.141-1.438A10.039,10.039,0,0,0,661.1,83.972Z" fill="#fff"/>
          <path id="Trazado_1651" data-name="Trazado 1651" d="M668.272,87.753c0-.062,0-.173.008-.336s.008-.33.008-.507,0-.341.008-.493.007-.257.007-.32a2.781,2.781,0,0,1,.258-.367.855.855,0,0,1,.313-.25.552.552,0,0,1,.359-.023.769.769,0,0,1,.4.312V86.1c-.01.053-.031.175-.062.367s-.068.405-.109.633-.081.441-.118.633a2.61,2.61,0,0,0-.054.367,5.447,5.447,0,0,0,.062.742c.041.3.1.608.18.93a8.448,8.448,0,0,0,.3.969,4.27,4.27,0,0,0,.429.867,2.723,2.723,0,0,0,.555.633,1.085,1.085,0,0,0,.711.25,1.507,1.507,0,0,0,.883-.266,2.548,2.548,0,0,0,.664-.687,4.092,4.092,0,0,0,.461-.953,8.938,8.938,0,0,0,.289-1.071,9.988,9.988,0,0,0,.156-1.039q.047-.5.047-.875a4.366,4.366,0,0,0-.055-.711c-.037-.223-.081-.445-.132-.664s-.1-.434-.133-.648a3.786,3.786,0,0,1-.055-.649.452.452,0,0,1,.211-.422.92.92,0,0,1,.477-.125.737.737,0,0,1,.531.2,1.386,1.386,0,0,1,.32.492,2.564,2.564,0,0,1,.156.68,7.454,7.454,0,0,1,.039.757c0,.25-.005.488-.015.711s-.016.405-.016.539a10.547,10.547,0,0,1-.078,1.2A9.362,9.362,0,0,1,675,90.339a11.413,11.413,0,0,1-.485,1.4,5.488,5.488,0,0,1-.7,1.226,3.488,3.488,0,0,1-.953.868,2.291,2.291,0,0,1-1.211.328,2.255,2.255,0,0,1-1.234-.336,2.97,2.97,0,0,1-.9-.891,5.71,5.71,0,0,1-.617-1.258,9.27,9.27,0,0,1-.383-1.406,12.947,12.947,0,0,1-.187-1.367C668.29,88.459,668.272,88.077,668.272,87.753Z" fill="#fff"/>
          <path id="Trazado_1652" data-name="Trazado 1652" d="M675.96,87.566a1.182,1.182,0,0,1,.132-.609c.088-.146.279-.219.571-.219.031,0,.091,0,.179.008s.143.007.164.007q.109.486.227,1.055t.273,1.149q.156.578.352,1.14a5.037,5.037,0,0,0,.477,1.016,1.765,1.765,0,0,0,.406-.7,5.735,5.735,0,0,0,.187-.821q.062-.412.118-.8a1.655,1.655,0,0,1,.226-.656.985.985,0,0,1,.508-.4,1.735,1.735,0,0,1,.93,0,1.973,1.973,0,0,1,1.046.242,2.645,2.645,0,0,1,.68.609q.29.368.563.782a3.1,3.1,0,0,0,.695.742c.062-.135.141-.305.234-.508a5.811,5.811,0,0,1,.352-.641c.141-.223.291-.447.453-.672a5.423,5.423,0,0,1,.508-.609,3.075,3.075,0,0,1,.547-.453,1.02,1.02,0,0,1,.547-.18,1.659,1.659,0,0,1,1.109.4,3.615,3.615,0,0,1,.805,1,6.613,6.613,0,0,1,.554,1.343,14.028,14.028,0,0,1,.344,1.43q.125.688.18,1.258t.054.82a.468.468,0,0,1-.093.313.579.579,0,0,1-.235.164,1.09,1.09,0,0,1-.3.07c-.11.011-.211.016-.305.016a.665.665,0,0,1-.094-.008c-.042-.005-.089-.013-.14-.023s-.1-.026-.172-.047l-1.016-4.672c0-.031-.042-.091-.125-.18a.924.924,0,0,0-.187-.164.168.168,0,0,1-.079-.016.1.1,0,0,1-.046-.007.08.08,0,0,0-.032-.008.906.906,0,0,0-.617.265,3.154,3.154,0,0,0-.539.672,7.447,7.447,0,0,0-.469.907q-.219.5-.39.992c-.116.328-.217.631-.305.906s-.159.487-.211.633a.886.886,0,0,1-.25.054,2.491,2.491,0,0,1-.25.024.8.8,0,0,1-.672-.305,2.515,2.515,0,0,1-.383-.758,7.84,7.84,0,0,1-.25-.992,7.973,7.973,0,0,0-.25-.992,2.235,2.235,0,0,0-.406-.758.9.9,0,0,0-.726-.3c-.116,0-.225.115-.329.343a4.887,4.887,0,0,0-.281.867q-.126.525-.234,1.125t-.18,1.125q-.07.525-.133,1.243a.376.376,0,0,1-.125.1l-.2.117a.856.856,0,0,1-.2.094.526.526,0,0,1-.149.031,1.2,1.2,0,0,1-.843-.4,4.118,4.118,0,0,1-.742-1.031,10.354,10.354,0,0,1-.61-1.4q-.273-.764-.461-1.5t-.289-1.328A5.758,5.758,0,0,1,675.96,87.566Z" fill="#fff"/>
          <path id="Trazado_1653" data-name="Trazado 1653" d="M696.741,92.113c-.4.271-.737.513-1.024.726a6.685,6.685,0,0,1-.836.539,3.512,3.512,0,0,1-.867.329,4.99,4.99,0,0,1-1.133.109,2.773,2.773,0,0,1-2.156-.774,3.32,3.32,0,0,1-.7-2.3,5.223,5.223,0,0,1,.156-1.235,6.485,6.485,0,0,1,.461-1.273,7.5,7.5,0,0,1,.727-1.2,5.635,5.635,0,0,1,.953-1.008,4.658,4.658,0,0,1,1.133-.695,3.19,3.19,0,0,1,1.273-.258,3.707,3.707,0,0,1,1.766.555,2.848,2.848,0,0,1,.969,1.14,5.526,5.526,0,0,1,.453,1.547q.124.852.195,1.758t.18,1.812a5.66,5.66,0,0,0,.453,1.672,2.762,2.762,0,0,1-.383.727.276.276,0,0,1-.4.07,1.883,1.883,0,0,1-.508-.687Q697.161,93.112,696.741,92.113Zm-5.391-1.344a2.061,2.061,0,0,0,.336,1.305,1.466,1.466,0,0,0,1.2.414,3.356,3.356,0,0,0,1.227-.227,3.208,3.208,0,0,0,1.023-.625,3.058,3.058,0,0,0,.7-.961,2.9,2.9,0,0,0,.265-1.25q0-.281.016-.789a5.489,5.489,0,0,0-.063-1.008,2.4,2.4,0,0,0-.3-.867.717.717,0,0,0-.656-.367,2.862,2.862,0,0,0-1.5.414,4.313,4.313,0,0,0-1.187,1.055,5.139,5.139,0,0,0-.782,1.414A4.37,4.37,0,0,0,691.35,90.769Z" fill="#fff"/>
          <path id="Trazado_1654" data-name="Trazado 1654" d="M699.725,88.863a.748.748,0,0,1,.2-.586.983.983,0,0,1,.657-.18h.156q.046.25.109.578a4.166,4.166,0,0,0,.188.672,3.543,3.543,0,0,0,.3.633,1.422,1.422,0,0,0,.421.461,2.458,2.458,0,0,1,.274-1.055,3.746,3.746,0,0,1,.641-.906,3.972,3.972,0,0,1,.843-.672,2.97,2.97,0,0,1,.914-.367h.344a2.347,2.347,0,0,1,1.281.336,2.878,2.878,0,0,1,.883.875,4.276,4.276,0,0,1,.539,1.226,11.567,11.567,0,0,1,.289,1.4,12.709,12.709,0,0,1,.125,1.375c.016.443.024.82.024,1.133h-1.141q-.093-.937-.234-1.8-.048-.343-.125-.727c-.053-.255-.11-.494-.172-.719s-.131-.431-.2-.625a2.4,2.4,0,0,0-.25-.492c-.042-.041-.1-.1-.164-.172s-.139-.145-.211-.218-.141-.135-.2-.188a.433.433,0,0,0-.11-.078.831.831,0,0,0-.812.18,2.762,2.762,0,0,0-.61.82,5.406,5.406,0,0,0-.429,1.172q-.165.655-.274,1.258t-.156,1.047c-.031.3-.053.476-.063.539a.791.791,0,0,1-.734.164,1.466,1.466,0,0,1-.648-.492,3.963,3.963,0,0,1-.547-.938q-.243-.562-.446-1.195t-.367-1.274Q699.851,89.411,699.725,88.863Z" fill="#fff"/>
          <path id="Trazado_1655" data-name="Trazado 1655" d="M708.772,90.957a3.718,3.718,0,0,1,.453-1.805,4.743,4.743,0,0,1,1.2-1.438,5.888,5.888,0,0,1,1.671-.945,5.419,5.419,0,0,1,1.883-.344,1.449,1.449,0,0,1,.946.344,3.066,3.066,0,0,1,.7.836,4.5,4.5,0,0,1,.43,1.039,3.759,3.759,0,0,1,.148.953,3.66,3.66,0,0,1-.422,1.695,5.329,5.329,0,0,1-1.094,1.454,5.685,5.685,0,0,1-1.515,1.023,3.981,3.981,0,0,1-1.688.391,2.8,2.8,0,0,1-1.265-.258,2.238,2.238,0,0,1-.829-.688,2.9,2.9,0,0,1-.46-1.015A4.994,4.994,0,0,1,708.772,90.957Zm1.328.156a3.176,3.176,0,0,0,.071.711,1.224,1.224,0,0,0,.25.523,1.128,1.128,0,0,0,.476.336,2.006,2.006,0,0,0,.734.117,2.368,2.368,0,0,0,1.157-.32,4.306,4.306,0,0,0,1.781-1.9,2.7,2.7,0,0,0,.281-1.157,3.45,3.45,0,0,0-.047-.547,2.262,2.262,0,0,0-.156-.546,1.172,1.172,0,0,0-.312-.422.771.771,0,0,0-.516-.172,1.554,1.554,0,0,0-.664.187,5.527,5.527,0,0,0-.8.485,7.867,7.867,0,0,0-.812.672q-.4.375-.727.75a4.392,4.392,0,0,0-.523.718A1.222,1.222,0,0,0,710.1,91.113Z" fill="#fff"/>
        </g>
      </g>
      <path id="Trazado_1656" data-name="Trazado 1656" d="M653.953,94.81l-.754,10.723-2.217-1.723,11.492-3.4a.542.542,0,0,1,.4,1l-10.687,5.42a1.553,1.553,0,0,1-2.227-1.672l.01-.051,2-10.56a1,1,0,0,1,1.984.256Z" fill="#fff"/>
    </g>
  </g>
</svg>
