<svg xmlns="http://www.w3.org/2000/svg" width="131.593" height="134.957" viewBox="0 0 131.593 134.957">
  <g id="Grupo_1969" data-name="Grupo 1969" transform="translate(-53.692 -302.479)">
    <g id="Grupo_1967" data-name="Grupo 1967">
      <g id="Grupo_1966" data-name="Grupo 1966">
        <path id="Trazado_1563" data-name="Trazado 1563" d="M54.707,316.088q-.063-.249-.164-.719t-.219-1.031q-.117-.562-.226-1.18t-.2-1.2q-.094-.586-.149-1.078a7.405,7.405,0,0,1-.054-.805c0-.093.009-.255.031-.484s.052-.469.094-.719.08-.484.117-.7a2.8,2.8,0,0,1,.1-.453.6.6,0,0,1,.164-.016,2.246,2.246,0,0,0,.25-.015c.088-.01.172-.018.25-.024s.133-.008.164-.008a3.5,3.5,0,0,1,1.422.3,6.783,6.783,0,0,1,1.282.75,12.031,12.031,0,0,1,1.187,1.016q.577.563,1.164,1.094a12.733,12.733,0,0,0,1.195.961,4.691,4.691,0,0,0,1.3.648c0-.052,0-.133.008-.242s.008-.227.008-.352,0-.242.008-.351.008-.19.008-.242a14.579,14.579,0,0,0-.125-1.922q-.126-.937-.282-1.875t-.281-1.883a14.7,14.7,0,0,1-.125-1.945c.072,0,.164,0,.273.007a2.122,2.122,0,0,1,.336.047,1.1,1.1,0,0,1,.313.125.419.419,0,0,1,.187.258,16.527,16.527,0,0,0,.282,2.258q.218,1.134.453,2.265t.414,2.266a14.4,14.4,0,0,1,.18,2.242c0,.136,0,.282-.008.438a2.122,2.122,0,0,1-.063.445.845.845,0,0,1-.179.352.48.48,0,0,1-.375.14,3.129,3.129,0,0,1-1.5-.367,7.567,7.567,0,0,1-1.336-.914,14.944,14.944,0,0,1-1.266-1.2,15.247,15.247,0,0,0-1.266-1.2,7.989,7.989,0,0,0-1.343-.922,3.1,3.1,0,0,0-1.493-.375,10.855,10.855,0,0,0,.125,1.68q.125.805.274,1.6c.1.531.189,1.061.273,1.586a10.272,10.272,0,0,1,.125,1.6.413.413,0,0,1-.211.406.985.985,0,0,1-.461.109,1.729,1.729,0,0,1-.382-.039C54.86,316.383,54.77,316.275,54.707,316.088Z" fill="#fff"/>
        <path id="Trazado_1564" data-name="Trazado 1564" d="M64.723,310.385c0-.063,0-.174.008-.336s.007-.33.007-.508,0-.341.008-.492.008-.258.008-.32a2.614,2.614,0,0,1,.258-.368.853.853,0,0,1,.312-.25.562.562,0,0,1,.36-.023.778.778,0,0,1,.4.312v.329c-.011.052-.031.174-.062.367s-.069.4-.11.633-.081.44-.117.632a2.7,2.7,0,0,0-.055.368,5.47,5.47,0,0,0,.063.742,9.169,9.169,0,0,0,.18.929,8.4,8.4,0,0,0,.3.969,4.327,4.327,0,0,0,.43.867,2.722,2.722,0,0,0,.555.633,1.083,1.083,0,0,0,.711.25,1.514,1.514,0,0,0,.883-.265,2.567,2.567,0,0,0,.664-.688,4.11,4.11,0,0,0,.461-.953,9.159,9.159,0,0,0,.289-1.07,10.033,10.033,0,0,0,.156-1.039q.046-.5.047-.875a4.477,4.477,0,0,0-.055-.711c-.037-.224-.081-.446-.133-.664s-.1-.435-.133-.649a3.786,3.786,0,0,1-.054-.648.451.451,0,0,1,.211-.422.917.917,0,0,1,.476-.125.738.738,0,0,1,.532.195,1.4,1.4,0,0,1,.32.492,2.574,2.574,0,0,1,.156.68c.025.256.039.508.039.758s-.006.487-.015.711-.016.4-.016.539a10.531,10.531,0,0,1-.078,1.2,9.41,9.41,0,0,1-.274,1.383,11.612,11.612,0,0,1-.484,1.4,5.557,5.557,0,0,1-.7,1.227,3.515,3.515,0,0,1-.953.867,2.284,2.284,0,0,1-1.211.328,2.252,2.252,0,0,1-1.235-.336,2.967,2.967,0,0,1-.9-.891,5.723,5.723,0,0,1-.617-1.257,9.312,9.312,0,0,1-.383-1.407,13.162,13.162,0,0,1-.188-1.367C64.74,311.091,64.723,310.708,64.723,310.385Z" fill="#fff"/>
        <path id="Trazado_1565" data-name="Trazado 1565" d="M72.754,312.416a7.152,7.152,0,0,1,.2-1.687,4.7,4.7,0,0,1,.649-1.516,3.512,3.512,0,0,1,1.156-1.094,3.325,3.325,0,0,1,1.726-.422,2.326,2.326,0,0,1,1.016.211,2.258,2.258,0,0,1,.734.555,2.308,2.308,0,0,1,.446.8,3.145,3.145,0,0,1,.148.961,3.486,3.486,0,0,1-.367,1.546,4.454,4.454,0,0,1-.984,1.321,4.137,4.137,0,0,1-1.414.859,3.034,3.034,0,0,1-1.625.133.992.992,0,0,0,.3.726,1.893,1.893,0,0,0,.7.415,3.5,3.5,0,0,0,.843.179c.291.027.552.039.782.039a3.4,3.4,0,0,0,.671-.062q.312-.062.625-.141c.208-.052.419-.1.633-.14a3.593,3.593,0,0,1,.68-.063,2.644,2.644,0,0,1,.281.016.915.915,0,0,1,.266.07.475.475,0,0,1,.2.172.511.511,0,0,1,.078.289.63.63,0,0,1-.219.492,1.963,1.963,0,0,1-.554.336,3.45,3.45,0,0,1-.743.211c-.271.047-.534.084-.789.109s-.49.041-.7.047-.373.008-.476.008a4.772,4.772,0,0,1-1.8-.32,3.7,3.7,0,0,1-2.18-2.266A5.253,5.253,0,0,1,72.754,312.416ZM74.41,311.4a1.605,1.605,0,0,0,.149.8c.1.167.341.25.726.25a2.227,2.227,0,0,0,.8-.148,2.486,2.486,0,0,0,.711-.414,2.022,2.022,0,0,0,.508-.625,1.661,1.661,0,0,0,.187-.781,3.146,3.146,0,0,0-.039-.485,1.3,1.3,0,0,0-.164-.461,1.089,1.089,0,0,0-.32-.344.9.9,0,0,0-.508-.132,1.727,1.727,0,0,0-.851.211,2.118,2.118,0,0,0-.649.546,2.5,2.5,0,0,0-.406.75A2.584,2.584,0,0,0,74.41,311.4Z" fill="#fff"/>
        <path id="Trazado_1566" data-name="Trazado 1566" d="M84.473,316.057c.166-.115.367-.263.6-.446s.471-.377.711-.586a7.867,7.867,0,0,0,.672-.656,3.649,3.649,0,0,0,.492-.664,1.245,1.245,0,0,0,.18-.6.551.551,0,0,0-.281-.469c-.334,0-.7.013-1.094.039s-.792.037-1.187.031a7.5,7.5,0,0,1-1.149-.1,2.981,2.981,0,0,1-.992-.344,1.815,1.815,0,0,1-.695-.711,2.4,2.4,0,0,1-.258-1.18,3.523,3.523,0,0,1,.32-1.523,4.149,4.149,0,0,1,.852-1.2,6.273,6.273,0,0,1,1.195-.922,10.381,10.381,0,0,1,1.336-.68,2,2,0,0,1,.75.391,3.4,3.4,0,0,1,.594.625.93.93,0,0,1-.43.531,4.054,4.054,0,0,1-.734.328l-.868.3a3.252,3.252,0,0,0-.82.414,2.182,2.182,0,0,0-.617.672,2.081,2.081,0,0,0-.25,1.086.96.96,0,0,0,.25.734,1.329,1.329,0,0,0,.656.32,3.616,3.616,0,0,0,.922.063c.344-.016.695-.039,1.055-.07s.711-.049,1.054-.055a2.842,2.842,0,0,1,.922.125,1.2,1.2,0,0,1,.891,1.3,1.744,1.744,0,0,1-.164.64,6.3,6.3,0,0,1-.438.836,7.384,7.384,0,0,1-.64.883,7.271,7.271,0,0,1-.766.789,4.757,4.757,0,0,1-.8.578,1.506,1.506,0,0,1-.742.227.418.418,0,0,1-.43-.235A1.161,1.161,0,0,1,84.473,316.057Z" fill="#fff"/>
        <path id="Trazado_1567" data-name="Trazado 1567" d="M88.832,308.885a.18.18,0,0,1,.016-.078.3.3,0,0,1,.015-.078,2.534,2.534,0,0,1,.188-.2c.083-.083.135-.125.156-.125h3.141a5.026,5.026,0,0,0-.047-.546c-.031-.25-.061-.526-.086-.829a7.917,7.917,0,0,1-.023-.945,3.5,3.5,0,0,1,.132-.891,1.512,1.512,0,0,1,.375-.656.983.983,0,0,1,.727-.258,11.667,11.667,0,0,0,.219,2.532,4.11,4.11,0,0,0,.586,1.468,1.7,1.7,0,0,0,.836.672,2.587,2.587,0,0,0,.96.133,4.529,4.529,0,0,0,.961-.148,6.494,6.494,0,0,1,.836-.172.981.981,0,0,1,.586.07c.146.078.219.264.219.555a.629.629,0,0,1-.148.469,1.173,1.173,0,0,1-.571.218l-.414.055c-.193.026-.409.05-.648.07l-.766.071q-.407.039-.765.07c-.241.021-.459.034-.657.039s-.343.008-.437.008c0,.053-.006.14-.016.265s-.015.209-.015.25a4.138,4.138,0,0,0,.218,1.336q.219.65.477,1.289t.476,1.282a4.078,4.078,0,0,1,.219,1.328,1.536,1.536,0,0,1-.023.258.586.586,0,0,1-.094.234.443.443,0,0,1-.2.156.543.543,0,0,1-.367-.023,1.361,1.361,0,0,1-.883-.672,4.107,4.107,0,0,1-.43-1.227,11.041,11.041,0,0,1-.187-1.507q-.048-.8-.149-1.493a4.6,4.6,0,0,0-.32-1.187.988.988,0,0,0-.7-.6l-3.016-.687c-.042,0-.1-.044-.187-.133a.985.985,0,0,1-.157-.2.2.2,0,0,1-.015-.078A.224.224,0,0,1,88.832,308.885Z" fill="#fff"/>
        <path id="Trazado_1568" data-name="Trazado 1568" d="M99.223,310.2c0-.093,0-.189.015-.289a.99.99,0,0,1,.063-.265.453.453,0,0,1,.148-.2.473.473,0,0,1,.289-.078c.1,0,.221.081.352.242a4.337,4.337,0,0,1,.4.61q.2.367.4.8c.13.292.244.561.344.8s.179.456.242.633a1.86,1.86,0,0,0,.109.281q.2-.546.453-1.187a6.283,6.283,0,0,1,.617-1.2,3.664,3.664,0,0,1,.875-.929,2.031,2.031,0,0,1,1.243-.375,2.151,2.151,0,0,1,.711.117,1.782,1.782,0,0,1,.593.344,1.753,1.753,0,0,1,.414.539,1.59,1.59,0,0,1,.157.718.5.5,0,0,1-.274.485,1.325,1.325,0,0,1-.617.14H105.6l-.672-.671a.06.06,0,0,1-.047-.016.155.155,0,0,1-.055-.008.176.176,0,0,0-.054-.008,1.15,1.15,0,0,0-.852.305,1.958,1.958,0,0,0-.461.75,3.665,3.665,0,0,0-.195.937c-.027.329-.039.628-.039.9a3.263,3.263,0,0,0,.062.633q.061.321.141.625c.052.2.1.412.141.625a3.519,3.519,0,0,1,.062.664q0,.655-.7.656a1.2,1.2,0,0,1-.813-.414,6.1,6.1,0,0,1-.836-1.055,13.128,13.128,0,0,1-.789-1.414q-.375-.772-.656-1.508t-.445-1.328A3.655,3.655,0,0,1,99.223,310.2Z" fill="#fff"/>
        <path id="Trazado_1569" data-name="Trazado 1569" d="M113.926,314.744c-.4.272-.737.514-1.024.727a6.872,6.872,0,0,1-.835.539,3.534,3.534,0,0,1-.868.328,4.986,4.986,0,0,1-1.132.109,2.778,2.778,0,0,1-2.157-.773,3.328,3.328,0,0,1-.7-2.305,5.222,5.222,0,0,1,.156-1.234,6.471,6.471,0,0,1,.461-1.274,7.5,7.5,0,0,1,.727-1.2,5.673,5.673,0,0,1,.953-1.008,4.679,4.679,0,0,1,1.133-.7,3.191,3.191,0,0,1,1.273-.258,3.717,3.717,0,0,1,1.766.555,2.858,2.858,0,0,1,.969,1.141,5.506,5.506,0,0,1,.453,1.546q.125.854.195,1.758t.18,1.813a5.679,5.679,0,0,0,.453,1.672,2.751,2.751,0,0,1-.383.726.276.276,0,0,1-.4.071,1.89,1.89,0,0,1-.508-.688Q114.346,315.745,113.926,314.744Zm-5.391-1.344a2.059,2.059,0,0,0,.336,1.3,1.467,1.467,0,0,0,1.2.414,3.375,3.375,0,0,0,1.226-.226,3.25,3.25,0,0,0,1.024-.625,3.066,3.066,0,0,0,.7-.961,2.9,2.9,0,0,0,.265-1.25q0-.282.016-.789a5.484,5.484,0,0,0-.063-1.008,2.42,2.42,0,0,0-.3-.867.719.719,0,0,0-.657-.368,2.862,2.862,0,0,0-1.5.414,4.33,4.33,0,0,0-1.187,1.055,5.126,5.126,0,0,0-.781,1.414A4.353,4.353,0,0,0,108.535,313.4Z" fill="#fff"/>
        <path id="Trazado_1570" data-name="Trazado 1570" d="M130.473,318.213q-.329-.609-.727-1.524t-.82-1.906q-.421-.991-.883-1.945a13.929,13.929,0,0,0-.93-1.656,1,1,0,0,0-.515-.172,5.915,5.915,0,0,0-.688-.024c-.24.006-.476,0-.711-.015a1.48,1.48,0,0,1-.609-.164.858.858,0,0,1-.383-.438,1.686,1.686,0,0,1-.047-.859h2.625a13.982,13.982,0,0,1,.266-1.735,9.833,9.833,0,0,1,.508-1.64,7.96,7.96,0,0,1,.773-1.453,4.815,4.815,0,0,1,1.094-1.157,5.158,5.158,0,0,1,1.476-.765,5.924,5.924,0,0,1,1.9-.281,1.733,1.733,0,0,1,.75.179,2.455,2.455,0,0,1,1.148,1.149,1.734,1.734,0,0,1,.18.75,1.159,1.159,0,0,1-.531-.118,3.881,3.881,0,0,1-.453-.265,5.188,5.188,0,0,0-.469-.281,1.19,1.19,0,0,0-.563-.133,4.071,4.071,0,0,0-1.742.375,4.627,4.627,0,0,0-2.351,2.453,4.509,4.509,0,0,0-.344,1.75c0,.042,0,.117.008.226s.008.227.008.352,0,.245.007.359.008.194.008.235a7.2,7.2,0,0,0,1.3.281q.719.095,1.445.117c.485.016.953.014,1.407-.008s.856-.046,1.211-.078c.031.032.087.089.171.172a.55.55,0,0,1,.141.188.085.085,0,0,0,.016.062l.031.094a.572.572,0,0,1-.344.516,2.743,2.743,0,0,1-.875.273,10.286,10.286,0,0,1-1.18.117c-.432.022-.849.039-1.25.055s-.76.037-1.078.062a1.739,1.739,0,0,0-.664.149,5.944,5.944,0,0,0,.727,1.812q.522.876,1.07,1.75a17.445,17.445,0,0,1,.969,1.766,4.23,4.23,0,0,1,.422,1.828c-.042,0-.139,0-.289.008a3.016,3.016,0,0,1-.477-.024,1.674,1.674,0,0,1-.476-.132A.4.4,0,0,1,130.473,318.213Z" fill="#fff"/>
        <path id="Trazado_1571" data-name="Trazado 1571" d="M135.145,313.588a3.72,3.72,0,0,1,.453-1.805,4.751,4.751,0,0,1,1.195-1.437,5.873,5.873,0,0,1,1.672-.946,5.413,5.413,0,0,1,1.883-.343,1.445,1.445,0,0,1,.945.343,3.048,3.048,0,0,1,.7.836,4.452,4.452,0,0,1,.43,1.039,3.726,3.726,0,0,1,.149.954,3.664,3.664,0,0,1-.422,1.7,5.366,5.366,0,0,1-1.094,1.453,5.628,5.628,0,0,1-1.516,1.023,3.976,3.976,0,0,1-1.687.391,2.811,2.811,0,0,1-1.266-.258,2.233,2.233,0,0,1-.828-.687,2.914,2.914,0,0,1-.461-1.016A5,5,0,0,1,135.145,313.588Zm1.328.156a3.174,3.174,0,0,0,.07.711,1.259,1.259,0,0,0,.25.524,1.132,1.132,0,0,0,.477.335,1.983,1.983,0,0,0,.734.118,2.362,2.362,0,0,0,1.156-.321,4.206,4.206,0,0,0,1.039-.812,4.251,4.251,0,0,0,.743-1.086,2.7,2.7,0,0,0,.281-1.156,3.566,3.566,0,0,0-.047-.547,2.27,2.27,0,0,0-.156-.547,1.174,1.174,0,0,0-.313-.422.774.774,0,0,0-.515-.172,1.562,1.562,0,0,0-.665.188,5.658,5.658,0,0,0-.8.484,7.886,7.886,0,0,0-.813.672q-.4.375-.726.75a4.427,4.427,0,0,0-.524.719A1.216,1.216,0,0,0,136.473,313.744Zm3.75-8.547-1.688,2.5a.389.389,0,0,1-.664.008.689.689,0,0,1-.109-.375.672.672,0,0,1,.164-.445.8.8,0,0,0,.1-.133c.037-.057.06-.1.071-.117q.154-.249.359-.563t.422-.586a6.111,6.111,0,0,1,.43-.484,1.162,1.162,0,0,1,.4-.281.315.315,0,0,1,.32.031A.732.732,0,0,1,140.223,305.2Z" fill="#fff"/>
        <path id="Trazado_1572" data-name="Trazado 1572" d="M143.176,310.2a2.636,2.636,0,0,1,.016-.289.954.954,0,0,1,.062-.265.453.453,0,0,1,.148-.2.477.477,0,0,1,.29-.078c.1,0,.22.081.351.242a4.426,4.426,0,0,1,.4.61q.2.367.4.8c.13.292.244.561.344.8s.179.456.242.633a2,2,0,0,0,.109.281q.2-.546.453-1.187a6.23,6.23,0,0,1,.618-1.2,3.629,3.629,0,0,1,.875-.929,2.028,2.028,0,0,1,1.242-.375,2.151,2.151,0,0,1,.711.117,1.767,1.767,0,0,1,1.008.883,1.6,1.6,0,0,1,.156.718.5.5,0,0,1-.274.485,1.325,1.325,0,0,1-.617.14h-.156l-.672-.671a.061.061,0,0,1-.047-.016.155.155,0,0,1-.055-.008.176.176,0,0,0-.054-.008,1.152,1.152,0,0,0-.852.305,1.958,1.958,0,0,0-.461.75,3.665,3.665,0,0,0-.2.937c-.026.329-.039.628-.039.9a3.263,3.263,0,0,0,.062.633q.062.321.141.625c.052.2.1.412.141.625a3.519,3.519,0,0,1,.062.664q0,.655-.7.656a1.2,1.2,0,0,1-.812-.414,6,6,0,0,1-.836-1.055,12.958,12.958,0,0,1-.789-1.414q-.375-.772-.657-1.508t-.445-1.328A3.707,3.707,0,0,1,143.176,310.2Z" fill="#fff"/>
        <path id="Trazado_1573" data-name="Trazado 1573" d="M150.817,310.2a1.174,1.174,0,0,1,.132-.609c.088-.146.279-.219.571-.219.031,0,.09,0,.179.008s.143.008.164.008q.109.484.227,1.054t.273,1.149q.156.579.352,1.141a5.03,5.03,0,0,0,.477,1.015,1.757,1.757,0,0,0,.406-.7,5.717,5.717,0,0,0,.187-.82c.041-.276.08-.541.117-.8a1.661,1.661,0,0,1,.227-.656.982.982,0,0,1,.508-.4,1.735,1.735,0,0,1,.93,0,1.973,1.973,0,0,1,1.046.242,2.649,2.649,0,0,1,.68.61q.288.367.563.781a3.1,3.1,0,0,0,.695.742c.062-.135.141-.3.234-.508a5.721,5.721,0,0,1,.352-.64q.21-.336.453-.672a5.352,5.352,0,0,1,.508-.61,3.12,3.12,0,0,1,.547-.453,1.018,1.018,0,0,1,.547-.179,1.658,1.658,0,0,1,1.109.4,3.645,3.645,0,0,1,.805,1,6.621,6.621,0,0,1,.554,1.344,13.968,13.968,0,0,1,.344,1.43c.083.459.143.877.18,1.257s.054.655.054.821a.467.467,0,0,1-.093.312.578.578,0,0,1-.235.164,1.09,1.09,0,0,1-.3.071c-.11.01-.211.015-.305.015a.662.662,0,0,1-.094-.008c-.042-.005-.089-.012-.14-.023s-.1-.025-.172-.047l-1.016-4.672c0-.031-.042-.091-.125-.18a.958.958,0,0,0-.187-.164.169.169,0,0,1-.079-.015.09.09,0,0,1-.046-.008.079.079,0,0,0-.032-.008.9.9,0,0,0-.617.266,3.129,3.129,0,0,0-.539.672,7.358,7.358,0,0,0-.469.906q-.219.5-.39.992c-.116.328-.217.631-.305.906s-.159.488-.211.633a.877.877,0,0,1-.25.055c-.125.015-.209.023-.25.023a.8.8,0,0,1-.672-.3,2.527,2.527,0,0,1-.383-.758,7.928,7.928,0,0,1-.25-.992,7.948,7.948,0,0,0-.25-.993,2.239,2.239,0,0,0-.406-.757.9.9,0,0,0-.726-.3c-.116,0-.225.115-.329.344a4.832,4.832,0,0,0-.281.867q-.126.523-.234,1.125t-.18,1.125c-.047.349-.092.764-.133,1.242a.389.389,0,0,1-.125.1l-.2.117a.9.9,0,0,1-.2.094.572.572,0,0,1-.149.031,1.2,1.2,0,0,1-.843-.4,4.128,4.128,0,0,1-.743-1.031,10.529,10.529,0,0,1-.609-1.4q-.274-.765-.461-1.5t-.289-1.328A5.781,5.781,0,0,1,150.817,310.2Z" fill="#fff"/>
        <path id="Trazado_1574" data-name="Trazado 1574" d="M164.879,310.385c0-.063,0-.174.008-.336s.008-.33.008-.508,0-.341.007-.492.008-.258.008-.32a2.7,2.7,0,0,1,.258-.368.856.856,0,0,1,.313-.25.559.559,0,0,1,.359-.023.775.775,0,0,1,.4.312v.329c-.01.052-.031.174-.062.367s-.068.4-.109.633-.082.44-.118.632a2.637,2.637,0,0,0-.054.368,5.445,5.445,0,0,0,.062.742,9.458,9.458,0,0,0,.18.929,8.409,8.409,0,0,0,.3.969,4.271,4.271,0,0,0,.429.867,2.722,2.722,0,0,0,.555.633,1.085,1.085,0,0,0,.711.25,1.514,1.514,0,0,0,.883-.265,2.552,2.552,0,0,0,.664-.688,4.07,4.07,0,0,0,.461-.953,8.965,8.965,0,0,0,.289-1.07,10.033,10.033,0,0,0,.156-1.039q.047-.5.047-.875a4.478,4.478,0,0,0-.055-.711c-.037-.224-.081-.446-.132-.664s-.1-.435-.133-.649a3.787,3.787,0,0,1-.055-.648.451.451,0,0,1,.211-.422.92.92,0,0,1,.477-.125.737.737,0,0,1,.531.195,1.385,1.385,0,0,1,.32.492,2.573,2.573,0,0,1,.156.68,7.488,7.488,0,0,1,.039.758q0,.375-.015.711c-.011.224-.016.4-.016.539a10.531,10.531,0,0,1-.078,1.2,9.536,9.536,0,0,1-.273,1.383,11.448,11.448,0,0,1-.485,1.4,5.558,5.558,0,0,1-.7,1.227,3.5,3.5,0,0,1-.953.867,2.282,2.282,0,0,1-1.211.328,2.247,2.247,0,0,1-1.234-.336,2.959,2.959,0,0,1-.9-.891,5.723,5.723,0,0,1-.617-1.257,9.312,9.312,0,0,1-.383-1.407,12.885,12.885,0,0,1-.187-1.367Q164.879,310.87,164.879,310.385Z" fill="#fff"/>
        <path id="Trazado_1575" data-name="Trazado 1575" d="M173.285,307.916a6.234,6.234,0,0,0-.062-.883,3.179,3.179,0,0,1-.031-.765.819.819,0,0,1,.242-.539,1.12,1.12,0,0,1,.773-.2,5.508,5.508,0,0,1,.336,1.094q.163.735.32,1.688t.3,2.07q.141,1.117.258,2.242t.2,2.211q.085,1.088.133,1.977-.516.342-.828.047a2.224,2.224,0,0,1-.516-1.008,10.409,10.409,0,0,1-.312-1.735q-.11-1.021-.211-2.125t-.242-2.172A15.38,15.38,0,0,0,173.285,307.916Z" fill="#fff"/>
        <path id="Trazado_1576" data-name="Trazado 1576" d="M183.285,314.744q-.594.408-1.023.727a6.878,6.878,0,0,1-.836.539,3.541,3.541,0,0,1-.867.328,5,5,0,0,1-1.133.109,2.774,2.774,0,0,1-2.156-.773,3.323,3.323,0,0,1-.7-2.305,5.169,5.169,0,0,1,.156-1.234,6.407,6.407,0,0,1,.461-1.274,7.5,7.5,0,0,1,.726-1.2,5.709,5.709,0,0,1,.953-1.008,4.7,4.7,0,0,1,1.133-.7,3.2,3.2,0,0,1,1.274-.258,3.709,3.709,0,0,1,1.765.555,2.858,2.858,0,0,1,.969,1.141,5.473,5.473,0,0,1,.453,1.546q.124.854.195,1.758t.18,1.813a5.71,5.71,0,0,0,.453,1.672,2.693,2.693,0,0,1-.383.726.276.276,0,0,1-.4.071,1.913,1.913,0,0,1-.508-.688Q183.706,315.745,183.285,314.744ZM177.9,313.4a2.053,2.053,0,0,0,.336,1.3,1.465,1.465,0,0,0,1.195.414,3.367,3.367,0,0,0,1.226-.226,3.249,3.249,0,0,0,1.024-.625,3.066,3.066,0,0,0,.7-.961,2.89,2.89,0,0,0,.266-1.25q0-.282.015-.789a5.485,5.485,0,0,0-.062-1.008,2.44,2.44,0,0,0-.3-.867.717.717,0,0,0-.656-.368,2.862,2.862,0,0,0-1.5.414,4.334,4.334,0,0,0-1.188,1.055,5.127,5.127,0,0,0-.781,1.414A4.352,4.352,0,0,0,177.9,313.4Z" fill="#fff"/>
        <path id="Trazado_1577" data-name="Trazado 1577" d="M96.613,336.057c.166-.115.368-.263.6-.446s.471-.377.711-.586a8.017,8.017,0,0,0,.672-.656,3.649,3.649,0,0,0,.492-.664,1.245,1.245,0,0,0,.18-.6.55.55,0,0,0-.282-.469q-.5,0-1.093.039c-.4.026-.792.037-1.188.031a7.494,7.494,0,0,1-1.148-.1,2.981,2.981,0,0,1-.992-.344,1.824,1.824,0,0,1-.7-.711,2.4,2.4,0,0,1-.258-1.18,3.523,3.523,0,0,1,.321-1.523,4.165,4.165,0,0,1,.851-1.2,6.279,6.279,0,0,1,1.2-.922,10.316,10.316,0,0,1,1.336-.68,2,2,0,0,1,.75.391,3.4,3.4,0,0,1,.593.625.928.928,0,0,1-.429.531,4.034,4.034,0,0,1-.735.328l-.867.3a3.236,3.236,0,0,0-.82.414,2.182,2.182,0,0,0-.617.672,2.081,2.081,0,0,0-.25,1.086.96.96,0,0,0,.25.734,1.324,1.324,0,0,0,.656.32,3.613,3.613,0,0,0,.922.063c.343-.016.695-.039,1.054-.07s.711-.049,1.055-.055a2.846,2.846,0,0,1,.922.125,1.206,1.206,0,0,1,.891,1.3,1.728,1.728,0,0,1-.165.64,6.168,6.168,0,0,1-.437.836,7.509,7.509,0,0,1-.641.883,7.358,7.358,0,0,1-.765.789,4.8,4.8,0,0,1-.8.578,1.511,1.511,0,0,1-.742.227.417.417,0,0,1-.43-.235A1.163,1.163,0,0,1,96.613,336.057Z" fill="#fff"/>
        <path id="Trazado_1578" data-name="Trazado 1578" d="M101.317,332.416a7.153,7.153,0,0,1,.2-1.687,4.679,4.679,0,0,1,.648-1.516,3.531,3.531,0,0,1,1.156-1.094,3.329,3.329,0,0,1,1.727-.422,2.326,2.326,0,0,1,1.016.211,2.259,2.259,0,0,1,.734.555,2.306,2.306,0,0,1,.445.8,3.115,3.115,0,0,1,.149.961,3.474,3.474,0,0,1-.368,1.546,4.454,4.454,0,0,1-.984,1.321,4.128,4.128,0,0,1-1.414.859,3.032,3.032,0,0,1-1.625.133.992.992,0,0,0,.305.726,1.889,1.889,0,0,0,.695.415,3.514,3.514,0,0,0,.844.179c.291.027.552.039.781.039a3.412,3.412,0,0,0,.672-.062q.312-.062.625-.141c.208-.052.419-.1.633-.14a3.583,3.583,0,0,1,.679-.063,2.663,2.663,0,0,1,.282.016.917.917,0,0,1,.265.07.469.469,0,0,1,.2.172.511.511,0,0,1,.079.289.634.634,0,0,1-.219.492,1.969,1.969,0,0,1-.555.336,3.457,3.457,0,0,1-.742.211c-.272.047-.534.084-.789.109s-.49.041-.7.047-.373.008-.477.008a4.776,4.776,0,0,1-1.8-.32,3.7,3.7,0,0,1-2.179-2.266A5.229,5.229,0,0,1,101.317,332.416Zm1.656-1.016a1.618,1.618,0,0,0,.148.8q.148.251.727.25a2.231,2.231,0,0,0,.8-.148,2.5,2.5,0,0,0,.711-.414,2.033,2.033,0,0,0,.507-.625,1.662,1.662,0,0,0,.188-.781,3.276,3.276,0,0,0-.039-.485,1.317,1.317,0,0,0-.164-.461,1.092,1.092,0,0,0-.321-.344.9.9,0,0,0-.507-.132,1.731,1.731,0,0,0-.852.211,2.1,2.1,0,0,0-.648.546,2.5,2.5,0,0,0-.407.75A2.609,2.609,0,0,0,102.973,331.4Z" fill="#fff"/>
        <path id="Trazado_1579" data-name="Trazado 1579" d="M109.723,332.057a3.655,3.655,0,0,1,.289-1.375,4.9,4.9,0,0,1,.773-1.3,4.551,4.551,0,0,1,1.117-.977,2.517,2.517,0,0,1,1.336-.39,2.219,2.219,0,0,1,1.368.484,1.886,1.886,0,0,1,.468.563,1.511,1.511,0,0,1,.18.734,1.9,1.9,0,0,1-.508-.062,4.076,4.076,0,0,1-.445-.149c-.147-.057-.289-.106-.43-.148a1.641,1.641,0,0,0-.461-.063,1.617,1.617,0,0,0-1.039.32,2.333,2.333,0,0,0-.633.8,3.663,3.663,0,0,0-.32,1.039,6.73,6.73,0,0,0-.086,1.039c0,.053,0,.152.008.3s.01.3.016.461.009.316.015.461a2.053,2.053,0,0,0,.024.3,2.716,2.716,0,0,0,.336.578,1.174,1.174,0,0,0,.351.305,1.087,1.087,0,0,0,.406.125,5.12,5.12,0,0,0,.516.023,1.85,1.85,0,0,0,.711-.125,3.342,3.342,0,0,0,.57-.3,3.872,3.872,0,0,0,.5-.383,5.4,5.4,0,0,1,.492-.39,2.67,2.67,0,0,1,.563-.3,1.929,1.929,0,0,1,.7-.117,3.229,3.229,0,0,1-.273,1.359,2.942,2.942,0,0,1-.766,1.016,3.474,3.474,0,0,1-1.156.648,4.426,4.426,0,0,1-1.445.227,1.977,1.977,0,0,1-1.321-.5,4.562,4.562,0,0,1-1-1.227,6.468,6.468,0,0,1-.632-1.539A5.554,5.554,0,0,1,109.723,332.057Z" fill="#fff"/>
        <path id="Trazado_1580" data-name="Trazado 1580" d="M117.41,330.2a2.636,2.636,0,0,1,.016-.289.99.99,0,0,1,.062-.265.456.456,0,0,1,.149-.2.471.471,0,0,1,.289-.078c.1,0,.221.081.351.242a4.426,4.426,0,0,1,.4.61q.2.367.4.8c.13.292.244.561.344.8s.18.456.242.633a1.921,1.921,0,0,0,.11.281c.134-.364.286-.76.453-1.187a6.284,6.284,0,0,1,.617-1.2,3.629,3.629,0,0,1,.875-.929,2.03,2.03,0,0,1,1.242-.375,2.151,2.151,0,0,1,.711.117,1.759,1.759,0,0,1,1.008.883,1.6,1.6,0,0,1,.156.718.5.5,0,0,1-.273.485,1.331,1.331,0,0,1-.617.14h-.157l-.672-.671a.057.057,0,0,1-.046-.016.148.148,0,0,1-.055-.008.183.183,0,0,0-.055-.008,1.15,1.15,0,0,0-.851.305,1.934,1.934,0,0,0-.461.75,3.666,3.666,0,0,0-.2.937c-.026.329-.039.628-.039.9a3.266,3.266,0,0,0,.063.633q.062.321.14.625c.052.2.1.412.141.625a3.518,3.518,0,0,1,.063.664q0,.655-.7.656a1.2,1.2,0,0,1-.812-.414,6.05,6.05,0,0,1-.836-1.055,13.13,13.13,0,0,1-.789-1.414q-.375-.772-.656-1.508t-.446-1.328A3.706,3.706,0,0,1,117.41,330.2Z" fill="#fff"/>
        <path id="Trazado_1581" data-name="Trazado 1581" d="M125.395,332.416a7.152,7.152,0,0,1,.2-1.687,4.7,4.7,0,0,1,.648-1.516,3.531,3.531,0,0,1,1.156-1.094,3.329,3.329,0,0,1,1.727-.422,2.326,2.326,0,0,1,1.016.211,2.258,2.258,0,0,1,.734.555,2.306,2.306,0,0,1,.445.8,3.115,3.115,0,0,1,.149.961,3.486,3.486,0,0,1-.367,1.546,4.475,4.475,0,0,1-.985,1.321,4.128,4.128,0,0,1-1.414.859,3.032,3.032,0,0,1-1.625.133.992.992,0,0,0,.305.726,1.889,1.889,0,0,0,.695.415,3.514,3.514,0,0,0,.844.179c.291.027.552.039.781.039a3.412,3.412,0,0,0,.672-.062q.312-.062.625-.141c.208-.052.419-.1.633-.14a3.586,3.586,0,0,1,.68-.063,2.659,2.659,0,0,1,.281.016.908.908,0,0,1,.265.07.478.478,0,0,1,.2.172.519.519,0,0,1,.078.289.634.634,0,0,1-.219.492,1.969,1.969,0,0,1-.555.336,3.424,3.424,0,0,1-.742.211c-.271.047-.534.084-.789.109s-.49.041-.7.047-.373.008-.477.008a4.776,4.776,0,0,1-1.8-.32,3.7,3.7,0,0,1-2.179-2.266A5.229,5.229,0,0,1,125.395,332.416Zm1.656-1.016a1.618,1.618,0,0,0,.148.8q.148.251.727.25a2.231,2.231,0,0,0,.8-.148,2.486,2.486,0,0,0,.711-.414,2.022,2.022,0,0,0,.508-.625,1.661,1.661,0,0,0,.187-.781,3.275,3.275,0,0,0-.039-.485,1.3,1.3,0,0,0-.164-.461,1.1,1.1,0,0,0-.32-.344.9.9,0,0,0-.508-.132,1.731,1.731,0,0,0-.852.211,2.114,2.114,0,0,0-.648.546,2.479,2.479,0,0,0-.406.75A2.584,2.584,0,0,0,127.051,331.4Z" fill="#fff"/>
        <path id="Trazado_1582" data-name="Trazado 1582" d="M133.77,328.885a.181.181,0,0,1,.015-.078.27.27,0,0,1,.016-.078,2.487,2.487,0,0,1,.187-.2c.083-.083.135-.125.157-.125h3.14a4.779,4.779,0,0,0-.047-.546q-.047-.375-.086-.829a7.918,7.918,0,0,1-.023-.945,3.549,3.549,0,0,1,.133-.891,1.512,1.512,0,0,1,.375-.656.982.982,0,0,1,.726-.258,11.731,11.731,0,0,0,.219,2.532,4.147,4.147,0,0,0,.586,1.468,1.7,1.7,0,0,0,.836.672,2.6,2.6,0,0,0,.961.133,4.548,4.548,0,0,0,.961-.148,6.46,6.46,0,0,1,.836-.172.982.982,0,0,1,.586.07c.145.078.219.264.219.555a.625.625,0,0,1-.149.469,1.173,1.173,0,0,1-.57.218l-.414.055c-.194.026-.409.05-.649.07l-.765.071q-.408.039-.766.07t-.656.039c-.2.006-.344.008-.438.008,0,.053-.006.14-.015.265s-.016.209-.016.25a4.112,4.112,0,0,0,.219,1.336q.217.65.476,1.289c.172.428.33.855.477,1.282a4.1,4.1,0,0,1,.219,1.328,1.442,1.442,0,0,1-.024.258.572.572,0,0,1-.094.234.437.437,0,0,1-.2.156.543.543,0,0,1-.367-.023,1.366,1.366,0,0,1-.883-.672,4.107,4.107,0,0,1-.429-1.227,11.036,11.036,0,0,1-.188-1.507q-.047-.8-.148-1.493a4.6,4.6,0,0,0-.321-1.187.984.984,0,0,0-.7-.6l-3.015-.687c-.042,0-.105-.044-.188-.133a.933.933,0,0,1-.156-.2.18.18,0,0,1-.016-.078A.226.226,0,0,1,133.77,328.885Z" fill="#fff"/>
        <path id="Trazado_1583" data-name="Trazado 1583" d="M150.879,334.744q-.594.408-1.023.727a6.959,6.959,0,0,1-.836.539,3.534,3.534,0,0,1-.868.328,4.986,4.986,0,0,1-1.132.109,2.778,2.778,0,0,1-2.157-.773,3.328,3.328,0,0,1-.7-2.305,5.173,5.173,0,0,1,.157-1.234,6.4,6.4,0,0,1,.46-1.274,7.579,7.579,0,0,1,.727-1.2,5.673,5.673,0,0,1,.953-1.008,4.7,4.7,0,0,1,1.133-.7,3.191,3.191,0,0,1,1.273-.258,3.717,3.717,0,0,1,1.766.555,2.858,2.858,0,0,1,.969,1.141,5.473,5.473,0,0,1,.453,1.546q.125.854.2,1.758t.18,1.813a5.71,5.71,0,0,0,.453,1.672,2.751,2.751,0,0,1-.383.726.276.276,0,0,1-.4.071,1.889,1.889,0,0,1-.508-.688Q151.3,335.745,150.879,334.744Zm-5.391-1.344a2.059,2.059,0,0,0,.336,1.3,1.467,1.467,0,0,0,1.2.414,3.371,3.371,0,0,0,1.226-.226,3.25,3.25,0,0,0,1.024-.625,3.067,3.067,0,0,0,.7-.961,2.89,2.89,0,0,0,.265-1.25q0-.282.016-.789a5.572,5.572,0,0,0-.062-1.008,2.44,2.44,0,0,0-.3-.867.719.719,0,0,0-.657-.368,2.862,2.862,0,0,0-1.5.414,4.33,4.33,0,0,0-1.187,1.055,5.126,5.126,0,0,0-.781,1.414A4.353,4.353,0,0,0,145.488,333.4Z" fill="#fff"/>
      </g>
    </g>
    <g id="Grupo_1968" data-name="Grupo 1968">
      <path id="Trazado_1584" data-name="Trazado 1584" d="M129.6,356.445a78.257,78.257,0,0,0-.221,22.412A71.883,71.883,0,0,0,135.7,400.1a71.029,71.029,0,0,0,12.654,18.219A75.851,75.851,0,0,0,166.1,432.031a60.253,60.253,0,0,1-19.137-12.306,63.182,63.182,0,0,1-19.7-40.632A58.912,58.912,0,0,1,129.6,356.445Z" fill="#fff"/>
      <path id="Trazado_1585" data-name="Trazado 1585" d="M165.713,419.9c.744,1.653,1.441,3.321,2.078,5.007l1.93,5.051c.161.426.32.832.47,1.278a4.893,4.893,0,0,1,.309,1.611,3.379,3.379,0,0,1-.544,1.793,4.561,4.561,0,0,1-1.2,1.205,6.853,6.853,0,0,1-2.769,1.027,19.107,19.107,0,0,0-2.63.568,5.424,5.424,0,0,1,2.168-1.841,12.112,12.112,0,0,0,2.08-1.288,2.1,2.1,0,0,0,.882-1.493,12.875,12.875,0,0,0-.469-2.339l-1.227-5.267C166.376,423.455,166.021,421.683,165.713,419.9Z" fill="#fff"/>
    </g>
  </g>
</svg>
