<svg xmlns="http://www.w3.org/2000/svg" width="175.726" height="196" viewBox="0 0 175.726 196">
  <g id="Grupo_2103" data-name="Grupo 2103" transform="translate(-62.048 -1563.421)">
    <g id="Grupo_2100" data-name="Grupo 2100">
      <g id="Grupo_2099" data-name="Grupo 2099">
        <g id="Grupo_2098" data-name="Grupo 2098">
          <path id="Trazado_2495" data-name="Trazado 2495" d="M63.5,1565.868a1.461,1.461,0,0,1,.609.539,1.066,1.066,0,0,1,.219.674q-.028.3-.428.415a2.431,2.431,0,0,1-1.333-.238,2.217,2.217,0,0,1,.2-.975A.74.74,0,0,1,63.5,1565.868Zm-.267,7.778c0-.083,0-.218.01-.406s.012-.383.019-.591.012-.407.019-.6.009-.331.009-.414a1.675,1.675,0,0,1,.543-.539,3.559,3.559,0,0,1,.676-.332,15.34,15.34,0,0,0,.324,2.384q.265,1.266.571,2.541t.543,2.519a12.392,12.392,0,0,1,.238,2.323q0,.933-.876.933a1.083,1.083,0,0,1-.895-.477,3.763,3.763,0,0,1-.581-1.213,11.861,11.861,0,0,1-.352-1.638q-.134-.9-.181-1.774t-.057-1.6Q63.228,1574.039,63.229,1573.646Z" fill="#ff3b67"/>
          <path id="Trazado_2496" data-name="Trazado 2496" d="M66.924,1574.434a1.046,1.046,0,0,1,.247-.779,1.131,1.131,0,0,1,.8-.238h.191c.038.222.082.477.133.768a6.156,6.156,0,0,0,.229.891,5.181,5.181,0,0,0,.361.84,1.845,1.845,0,0,0,.515.611,3.492,3.492,0,0,1,.333-1.4,5,5,0,0,1,1.809-2.1,3.492,3.492,0,0,1,1.114-.487h.419a2.681,2.681,0,0,1,1.562.446,3.7,3.7,0,0,1,1.076,1.161,5.956,5.956,0,0,1,.657,1.628,16.2,16.2,0,0,1,.352,1.856q.125.945.153,1.825t.028,1.5h-1.39q-.114-1.245-.285-2.385c-.038-.305-.09-.626-.153-.965s-.133-.656-.21-.954-.158-.573-.247-.829a3.132,3.132,0,0,0-.3-.653c-.051-.055-.117-.131-.2-.229s-.168-.193-.257-.29-.171-.18-.248-.249a.523.523,0,0,0-.133-.1.95.95,0,0,0-.99.238,3.694,3.694,0,0,0-.743,1.089,7.64,7.64,0,0,0-.524,1.555c-.133.58-.244,1.138-.333,1.669s-.152,1-.19,1.39-.064.633-.076.716a.905.905,0,0,1-.9.218,1.814,1.814,0,0,1-.791-.654,5.405,5.405,0,0,1-.666-1.244q-.3-.747-.543-1.587t-.448-1.69Q67.076,1575.159,66.924,1574.434Z" fill="#ff3b67"/>
          <path id="Trazado_2497" data-name="Trazado 2497" d="M77.57,1575.18a5.269,5.269,0,0,1,.352-1.826,6.672,6.672,0,0,1,.943-1.731,5.663,5.663,0,0,1,1.362-1.3,2.867,2.867,0,0,1,1.628-.518,2.45,2.45,0,0,1,.876.166,2.557,2.557,0,0,1,.791.476,2.487,2.487,0,0,1,.571.747,2.151,2.151,0,0,1,.219.975,2.121,2.121,0,0,1-.619-.083,5.221,5.221,0,0,1-.543-.2c-.178-.077-.353-.142-.524-.2a2.049,2.049,0,0,0-1.828.343,3.044,3.044,0,0,0-.772,1.067,5.2,5.2,0,0,0-.39,1.38,9.958,9.958,0,0,0-.105,1.379c0,.07,0,.2.01.394s.012.4.019.612.012.418.019.611a3.245,3.245,0,0,0,.029.4,3.76,3.76,0,0,0,.409.767,1.457,1.457,0,0,0,.429.4,1.232,1.232,0,0,0,.5.166,5.436,5.436,0,0,0,.628.031,2.1,2.1,0,0,0,.867-.166,4.11,4.11,0,0,0,.695-.393,5,5,0,0,0,.609-.508,6.24,6.24,0,0,1,.6-.519,3.1,3.1,0,0,1,.686-.394,2.172,2.172,0,0,1,.847-.156,4.592,4.592,0,0,1-.333,1.8,3.885,3.885,0,0,1-.933,1.349,4.166,4.166,0,0,1-1.409.86,5.032,5.032,0,0,1-1.762.3,2.3,2.3,0,0,1-1.609-.664,5.969,5.969,0,0,1-1.219-1.628,9.028,9.028,0,0,1-.771-2.042A8.064,8.064,0,0,1,77.57,1575.18Z" fill="#ff3b67"/>
          <path id="Trazado_2498" data-name="Trazado 2498" d="M86.94,1572.712c0-.124.006-.252.019-.384a1.384,1.384,0,0,1,.076-.352.6.6,0,0,1,.181-.259.528.528,0,0,1,.352-.1c.127,0,.269.108.429.323a5.7,5.7,0,0,1,.485.808q.248.487.486,1.068c.159.387.3.744.419,1.068s.219.6.295.84a2.608,2.608,0,0,0,.134.373q.246-.726.552-1.576a8.563,8.563,0,0,1,.752-1.586,4.683,4.683,0,0,1,1.067-1.235,2.341,2.341,0,0,1,1.513-.5,2.415,2.415,0,0,1,.867.156,2.116,2.116,0,0,1,.724.456,2.353,2.353,0,0,1,.5.715,2.281,2.281,0,0,1,.19.954.674.674,0,0,1-.334.643,1.517,1.517,0,0,1-.752.187h-.19l-.819-.892a.071.071,0,0,1-.057-.021.194.194,0,0,1-.067-.01.193.193,0,0,0-.067-.011,1.338,1.338,0,0,0-1.037.405,2.645,2.645,0,0,0-.562.995,5.31,5.31,0,0,0-.239,1.245c-.031.435-.047.833-.047,1.192a4.735,4.735,0,0,0,.076.84c.051.284.108.56.172.83s.12.546.171.829a4.964,4.964,0,0,1,.076.882.763.763,0,0,1-.857.87,1.424,1.424,0,0,1-.99-.549,8.046,8.046,0,0,1-1.019-1.4,18.309,18.309,0,0,1-.962-1.877q-.458-1.026-.8-2t-.542-1.763A5.256,5.256,0,0,1,86.94,1572.712Z" fill="#ff3b67"/>
          <path id="Trazado_2499" data-name="Trazado 2499" d="M96.671,1575.656a10.345,10.345,0,0,1,.248-2.239,6.561,6.561,0,0,1,.791-2.012,4.472,4.472,0,0,1,1.409-1.451,3.787,3.787,0,0,1,2.1-.56,2.621,2.621,0,0,1,1.238.28,2.756,2.756,0,0,1,.9.736,3.131,3.131,0,0,1,.543,1.068,4.465,4.465,0,0,1,.181,1.275,4.969,4.969,0,0,1-.448,2.054,5.886,5.886,0,0,1-1.2,1.752,5.008,5.008,0,0,1-1.724,1.14,3.414,3.414,0,0,1-1.981.177,1.393,1.393,0,0,0,.372.964,2.3,2.3,0,0,0,.847.55,3.994,3.994,0,0,0,1.029.238c.355.035.673.052.952.052a3.87,3.87,0,0,0,.819-.083c.254-.055.507-.118.761-.187s.512-.131.772-.186a3.99,3.99,0,0,1,.828-.083,2.8,2.8,0,0,1,.343.02,1.054,1.054,0,0,1,.324.094.587.587,0,0,1,.248.227.733.733,0,0,1,.095.384.874.874,0,0,1-.267.654,2.4,2.4,0,0,1-.676.446,3.9,3.9,0,0,1-.905.279c-.33.063-.65.111-.961.146s-.6.055-.857.062-.454.01-.581.01a5.411,5.411,0,0,1-2.19-.425,4.6,4.6,0,0,1-1.638-1.182,5.147,5.147,0,0,1-1.019-1.825A7.549,7.549,0,0,1,96.671,1575.656Zm2.019-1.347a2.32,2.32,0,0,0,.181,1.057c.121.222.416.332.886.332a2.5,2.5,0,0,0,.971-.2,2.966,2.966,0,0,0,.866-.55,2.619,2.619,0,0,0,.619-.829,2.361,2.361,0,0,0,.229-1.037,4.648,4.648,0,0,0-.047-.643,1.845,1.845,0,0,0-.2-.612,1.387,1.387,0,0,0-.39-.456,1.018,1.018,0,0,0-.619-.176,1.975,1.975,0,0,0-1.038.28,2.644,2.644,0,0,0-.79.726,3.423,3.423,0,0,0-.5.995A3.718,3.718,0,0,0,98.69,1574.309Z" fill="#ff3b67"/>
          <path id="Trazado_2500" data-name="Trazado 2500" d="M110.841,1566.075l-2.076,3.319q-.229.291-.448.249a.5.5,0,0,1-.342-.239.974.974,0,0,1-.134-.5,1.011,1.011,0,0,1,.181-.591,1.106,1.106,0,0,0,.124-.176c.045-.076.073-.127.086-.156q.189-.33.438-.746t.514-.778a6.6,6.6,0,0,1,.533-.643,1.592,1.592,0,0,1,.486-.373.362.362,0,0,1,.39.041A.958.958,0,0,1,110.841,1566.075Zm-2.743,7.571c0-.083,0-.218.01-.406s.012-.383.019-.591.012-.407.019-.6.009-.331.009-.414a1.675,1.675,0,0,1,.543-.539,3.588,3.588,0,0,1,.676-.332,15.34,15.34,0,0,0,.324,2.384q.267,1.266.572,2.541t.542,2.519a12.391,12.391,0,0,1,.238,2.323q0,.933-.876.933a1.083,1.083,0,0,1-.9-.477,3.763,3.763,0,0,1-.581-1.213,11.861,11.861,0,0,1-.352-1.638q-.133-.9-.181-1.774t-.057-1.6Q108.1,1574.039,108.1,1573.646Z" fill="#ff3b67"/>
          <path id="Trazado_2501" data-name="Trazado 2501" d="M114.669,1580.53q-.591-1.866-1.114-3.494t-.914-3.194a30.857,30.857,0,0,1-.619-3.183,24.7,24.7,0,0,1-.229-3.464c0-.1,0-.272.01-.528s.009-.522.009-.8,0-.542.01-.8.009-.432.009-.529a2.011,2.011,0,0,1,.6-.768,1.365,1.365,0,0,1,.866-.352q0,1.534.039,3.267t.238,3.453a23,23,0,0,0,.647,3.37,11.952,11.952,0,0,0,1.267,3.016q.018-.5.038-1.1a10.829,10.829,0,0,1,.1-1.2,6.5,6.5,0,0,1,.277-1.162,3,3,0,0,1,.561-.995,2.515,2.515,0,0,1,.972-.684,3.759,3.759,0,0,1,1.514-.229,3.194,3.194,0,0,1,2.58,1.235,4.124,4.124,0,0,1,.686,1.327,5.317,5.317,0,0,1,.238,1.607,5.228,5.228,0,0,1-.514,2.239,7.236,7.236,0,0,1-3.257,3.371,4.69,4.69,0,0,1-2.133.528,2.693,2.693,0,0,1-1.066-.218A1.729,1.729,0,0,1,114.669,1580.53Zm4.513-7.569q-.381.228-.8.539a2.873,2.873,0,0,0-.771.964,6.984,6.984,0,0,0-.6,1.773,16.676,16.676,0,0,0-.3,2.966c.025,0,.091.007.2.021s.181.02.22.02a2.538,2.538,0,0,0,1.171-.352,7.6,7.6,0,0,0,1.276-.871,6.352,6.352,0,0,0,1.076-1.151,2.911,2.911,0,0,0,.552-1.214,1.5,1.5,0,0,0-.133-.808,4.18,4.18,0,0,0-.5-.881,3.689,3.689,0,0,0-.685-.716A1.162,1.162,0,0,0,119.182,1572.961Z" fill="#ff3b67"/>
          <path id="Trazado_2502" data-name="Trazado 2502" d="M124.077,1569.685a8.968,8.968,0,0,0-.076-1.172,4.739,4.739,0,0,1-.039-1.017,1.148,1.148,0,0,1,.3-.715,1.288,1.288,0,0,1,.942-.27,7.65,7.65,0,0,1,.41,1.452q.2.975.39,2.239t.362,2.748q.172,1.484.314,2.977t.248,2.933q.1,1.443.162,2.624-.628.456-1.009.062a3.04,3.04,0,0,1-.629-1.337,15.014,15.014,0,0,1-.381-2.3q-.134-1.359-.257-2.821t-.295-2.882A22.191,22.191,0,0,0,124.077,1569.685Z" fill="#ff3b67"/>
          <path id="Trazado_2503" data-name="Trazado 2503" d="M128.076,1575.656a10.344,10.344,0,0,1,.248-2.239,6.585,6.585,0,0,1,.79-2.012,4.475,4.475,0,0,1,1.41-1.451,3.785,3.785,0,0,1,2.1-.56,2.623,2.623,0,0,1,1.238.28,2.767,2.767,0,0,1,.9.736,3.131,3.131,0,0,1,.543,1.068,4.5,4.5,0,0,1,.18,1.275,4.967,4.967,0,0,1-.447,2.054,5.889,5.889,0,0,1-1.2,1.752,5,5,0,0,1-1.723,1.14,3.415,3.415,0,0,1-1.981.177,1.4,1.4,0,0,0,.371.964,2.3,2.3,0,0,0,.848.55,4,4,0,0,0,1.028.238q.532.052.953.052a3.854,3.854,0,0,0,.818-.083c.254-.055.508-.118.762-.187s.511-.131.772-.186a3.99,3.99,0,0,1,.828-.083,2.8,2.8,0,0,1,.343.02,1.062,1.062,0,0,1,.324.094.59.59,0,0,1,.247.227.724.724,0,0,1,.1.384.874.874,0,0,1-.267.654,2.4,2.4,0,0,1-.676.446,3.9,3.9,0,0,1-.9.279c-.33.063-.65.111-.962.146s-.6.055-.856.062-.455.01-.582.01a5.409,5.409,0,0,1-2.189-.425,4.61,4.61,0,0,1-1.639-1.182,5.16,5.16,0,0,1-1.018-1.825A7.52,7.52,0,0,1,128.076,1575.656Zm2.019-1.347a2.307,2.307,0,0,0,.181,1.057c.121.222.416.332.886.332a2.507,2.507,0,0,0,.971-.2,2.966,2.966,0,0,0,.866-.55,2.634,2.634,0,0,0,.619-.829,2.361,2.361,0,0,0,.229-1.037,4.5,4.5,0,0,0-.048-.643,1.821,1.821,0,0,0-.2-.612,1.387,1.387,0,0,0-.39-.456,1.018,1.018,0,0,0-.619-.176,1.975,1.975,0,0,0-1.038.28,2.644,2.644,0,0,0-.79.726,3.4,3.4,0,0,0-.5.995A3.717,3.717,0,0,0,130.1,1574.309Z" fill="#ff3b67"/>
          <path id="Trazado_2504" data-name="Trazado 2504" d="M142.36,1580.488q.3-.227.733-.591c.286-.241.575-.5.867-.777a10.016,10.016,0,0,0,.818-.871,4.87,4.87,0,0,0,.6-.882,1.76,1.76,0,0,0,.218-.8.743.743,0,0,0-.343-.622q-.609,0-1.333.052c-.482.034-.964.049-1.447.041a8.4,8.4,0,0,1-1.4-.135,3.43,3.43,0,0,1-1.209-.456,2.322,2.322,0,0,1-.847-.943,3.413,3.413,0,0,1-.315-1.566,5.03,5.03,0,0,1,.391-2.022,5.557,5.557,0,0,1,1.037-1.6,7.868,7.868,0,0,1,1.457-1.223,12.334,12.334,0,0,1,1.629-.9,2.369,2.369,0,0,1,.914.519,4.352,4.352,0,0,1,.724.83,1.212,1.212,0,0,1-.524.705,4.812,4.812,0,0,1-.895.436q-.506.186-1.057.393a3.861,3.861,0,0,0-1,.55,2.812,2.812,0,0,0-.752.892,2.95,2.95,0,0,0-.3,1.441,1.346,1.346,0,0,0,.3.975,1.578,1.578,0,0,0,.8.424,4.056,4.056,0,0,0,1.123.083q.628-.03,1.286-.092t1.285-.074a3.215,3.215,0,0,1,1.124.166,1.663,1.663,0,0,1,.79.571,1.917,1.917,0,0,1,.3,1.161,2.474,2.474,0,0,1-.2.85,8.5,8.5,0,0,1-.533,1.11,9.965,9.965,0,0,1-.78,1.172,9.58,9.58,0,0,1-.934,1.047,5.82,5.82,0,0,1-.971.767,1.748,1.748,0,0,1-.9.3.5.5,0,0,1-.524-.312A1.676,1.676,0,0,1,142.36,1580.488Z" fill="#ff3b67"/>
          <path id="Trazado_2505" data-name="Trazado 2505" d="M150.7,1578.27a.591.591,0,0,1,.352.1.553.553,0,0,1,.2.26,1.425,1.425,0,0,1,.076.352c.012.132.019.259.019.384a7.331,7.331,0,0,1-.086,1.027,10.872,10.872,0,0,1-.257,1.233,10.558,10.558,0,0,1-.429,1.275,5.565,5.565,0,0,1-.6,1.12,3.169,3.169,0,0,1-.771.789,1.607,1.607,0,0,1-.943.3,9.418,9.418,0,0,1,.086-1.12q.086-.684.248-1.451t.39-1.524a12.388,12.388,0,0,1,.495-1.37,4.525,4.525,0,0,1,.571-.995A.844.844,0,0,1,150.7,1578.27Z" fill="#ff3b67"/>
          <path id="Trazado_2506" data-name="Trazado 2506" d="M62.048,1601.725a5.271,5.271,0,0,1,.353-1.826,6.672,6.672,0,0,1,.942-1.731,5.7,5.7,0,0,1,1.362-1.3,2.869,2.869,0,0,1,1.629-.518,2.454,2.454,0,0,1,.876.166A2.541,2.541,0,0,1,68,1597a2.472,2.472,0,0,1,.571.747,2.137,2.137,0,0,1,.219.975,2.164,2.164,0,0,1-.619-.083,5.232,5.232,0,0,1-.542-.2c-.178-.077-.353-.142-.524-.2a2.05,2.05,0,0,0-1.829.343,3.041,3.041,0,0,0-.771,1.067,5.165,5.165,0,0,0-.39,1.38,9.793,9.793,0,0,0-.1,1.379c0,.07,0,.2.01.394s.012.4.019.612.012.418.019.611a3.109,3.109,0,0,0,.028.4,3.759,3.759,0,0,0,.41.767,1.466,1.466,0,0,0,.428.4,1.237,1.237,0,0,0,.5.166,5.427,5.427,0,0,0,.628.031,2.1,2.1,0,0,0,.866-.166,3.983,3.983,0,0,0,.695-.394,4.992,4.992,0,0,0,.61-.507,6.006,6.006,0,0,1,.6-.519,3.1,3.1,0,0,1,.685-.394,2.173,2.173,0,0,1,.848-.156,4.592,4.592,0,0,1-.333,1.8,3.912,3.912,0,0,1-.933,1.349,4.174,4.174,0,0,1-1.41.86,5.033,5.033,0,0,1-1.761.3,2.3,2.3,0,0,1-1.61-.664,5.946,5.946,0,0,1-1.218-1.628,9.08,9.08,0,0,1-.772-2.042A8.066,8.066,0,0,1,62.048,1601.725Z" fill="#ff3b67"/>
          <path id="Trazado_2507" data-name="Trazado 2507" d="M71.419,1603.757a5.308,5.308,0,0,1,.552-2.4,6.2,6.2,0,0,1,1.457-1.907,7.021,7.021,0,0,1,2.037-1.255,6.125,6.125,0,0,1,2.3-.456,1.677,1.677,0,0,1,1.153.456,3.948,3.948,0,0,1,.847,1.11,6.152,6.152,0,0,1,.524,1.379,5.367,5.367,0,0,1,.181,1.265,5.206,5.206,0,0,1-.514,2.25,7.078,7.078,0,0,1-1.334,1.929,6.906,6.906,0,0,1-1.847,1.358,4.525,4.525,0,0,1-2.057.518,3.176,3.176,0,0,1-1.542-.342,2.8,2.8,0,0,1-1.01-.912,4.054,4.054,0,0,1-.561-1.349A7.226,7.226,0,0,1,71.419,1603.757Zm1.618.207a4.6,4.6,0,0,0,.086.944,1.733,1.733,0,0,0,.305.7,1.4,1.4,0,0,0,.581.446,2.279,2.279,0,0,0,.895.155,2.7,2.7,0,0,0,1.409-.425,5.218,5.218,0,0,0,1.267-1.079,5.665,5.665,0,0,0,.9-1.441,3.838,3.838,0,0,0,.343-1.534,5.1,5.1,0,0,0-.057-.726,3.14,3.14,0,0,0-.191-.726,1.523,1.523,0,0,0-.381-.56.9.9,0,0,0-.628-.228,1.772,1.772,0,0,0-.809.248,6.761,6.761,0,0,0-.972.644,9.994,9.994,0,0,0-.99.892q-.486.5-.885.995a5.916,5.916,0,0,0-.639.954A1.721,1.721,0,0,0,73.037,1603.964Z" fill="#ff3b67"/>
          <path id="Trazado_2508" data-name="Trazado 2508" d="M80.788,1599.257a1.675,1.675,0,0,1,.162-.809.73.73,0,0,1,.695-.291c.038,0,.111,0,.219.011s.175.011.2.011q.133.642.276,1.4t.333,1.525q.191.766.429,1.513a7.007,7.007,0,0,0,.581,1.348,2.38,2.38,0,0,0,.5-.933,8.173,8.173,0,0,0,.229-1.089q.075-.549.142-1.057a2.338,2.338,0,0,1,.277-.871,1.216,1.216,0,0,1,.618-.529,1.937,1.937,0,0,1,1.134,0,2.244,2.244,0,0,1,1.276.322,3.289,3.289,0,0,1,.828.808q.353.487.686,1.037a4.008,4.008,0,0,0,.847.985c.077-.179.172-.4.286-.674a7.781,7.781,0,0,1,.428-.85c.172-.3.356-.594.553-.892a7.026,7.026,0,0,1,.619-.809,3.9,3.9,0,0,1,.666-.6,1.173,1.173,0,0,1,.667-.239,1.924,1.924,0,0,1,1.352.53,4.7,4.7,0,0,1,.981,1.327,9.146,9.146,0,0,1,.676,1.783q.267.985.419,1.9t.219,1.67c.044.505.067.867.067,1.089a.654.654,0,0,1-.115.414.7.7,0,0,1-.285.218,1.289,1.289,0,0,1-.372.094c-.133.013-.257.02-.371.02a.881.881,0,0,1-.114-.01c-.052-.007-.109-.017-.172-.031s-.121-.035-.209-.062l-1.238-6.2c0-.041-.051-.121-.153-.239a1.045,1.045,0,0,0-.228-.217.193.193,0,0,1-.1-.021.113.113,0,0,1-.058-.011.073.073,0,0,0-.038-.009,1.056,1.056,0,0,0-.752.352,4.1,4.1,0,0,0-.657.892,10.14,10.14,0,0,0-.571,1.2q-.267.664-.476,1.317t-.372,1.2c-.108.367-.193.647-.257.84a1.022,1.022,0,0,1-.3.072,2.891,2.891,0,0,1-.305.032.942.942,0,0,1-.819-.405,3.447,3.447,0,0,1-.467-1.005,11.065,11.065,0,0,1-.3-1.318,11.273,11.273,0,0,0-.305-1.316,3.061,3.061,0,0,0-.5-1.006,1.057,1.057,0,0,0-.886-.4q-.21,0-.4.456a6.861,6.861,0,0,0-.343,1.151c-.1.463-.2.961-.285,1.493s-.162,1.029-.219,1.493-.112,1.013-.162,1.649a.5.5,0,0,1-.152.135c-.077.048-.156.1-.239.155a1.11,1.11,0,0,1-.247.125.676.676,0,0,1-.181.041,1.424,1.424,0,0,1-1.029-.529,5.557,5.557,0,0,1-.9-1.369,14.546,14.546,0,0,1-.743-1.856q-.333-1.016-.562-1.99t-.352-1.763A8.342,8.342,0,0,1,80.788,1599.257Z" fill="#ff3b67"/>
          <path id="Trazado_2509" data-name="Trazado 2509" d="M97.928,1603.757a5.3,5.3,0,0,1,.553-2.4,6.2,6.2,0,0,1,1.457-1.907,7.021,7.021,0,0,1,2.037-1.255,6.125,6.125,0,0,1,2.295-.456,1.673,1.673,0,0,1,1.152.456,3.932,3.932,0,0,1,.848,1.11,6.152,6.152,0,0,1,.524,1.379,5.367,5.367,0,0,1,.181,1.265,5.221,5.221,0,0,1-.514,2.25,7.078,7.078,0,0,1-1.334,1.929,6.922,6.922,0,0,1-1.847,1.358,4.528,4.528,0,0,1-2.057.518,3.182,3.182,0,0,1-1.543-.342,2.8,2.8,0,0,1-1.009-.912,4.076,4.076,0,0,1-.562-1.349A7.226,7.226,0,0,1,97.928,1603.757Zm1.619.207a4.6,4.6,0,0,0,.086.944,1.733,1.733,0,0,0,.305.7,1.4,1.4,0,0,0,.581.446,2.276,2.276,0,0,0,.9.155,2.7,2.7,0,0,0,1.409-.425,5.214,5.214,0,0,0,1.266-1.079,5.669,5.669,0,0,0,.905-1.441,3.838,3.838,0,0,0,.343-1.534,5.114,5.114,0,0,0-.058-.726,3.14,3.14,0,0,0-.19-.726,1.523,1.523,0,0,0-.381-.56.9.9,0,0,0-.628-.228,1.772,1.772,0,0,0-.809.248,6.706,6.706,0,0,0-.972.644,9.775,9.775,0,0,0-.99.892q-.486.5-.886.995a5.905,5.905,0,0,0-.638.954A1.721,1.721,0,0,0,99.547,1603.964Z" fill="#ff3b67"/>
          <path id="Trazado_2510" data-name="Trazado 2510" d="M116.954,1596.229a8.793,8.793,0,0,0-.076-1.171,4.735,4.735,0,0,1-.038-1.017,1.141,1.141,0,0,1,.3-.715,1.287,1.287,0,0,1,.943-.27,7.74,7.74,0,0,1,.409,1.452q.2.975.391,2.239t.362,2.748q.171,1.484.314,2.977t.247,2.933q.1,1.443.162,2.624-.627.456-1.009.062a3.051,3.051,0,0,1-.629-1.337,15.035,15.035,0,0,1-.381-2.3q-.132-1.359-.256-2.821t-.3-2.882A21.817,21.817,0,0,0,116.954,1596.229Z" fill="#ff3b67"/>
          <path id="Trazado_2511" data-name="Trazado 2511" d="M129.143,1605.292q-.725.539-1.248.964a8.366,8.366,0,0,1-1.019.716,4.109,4.109,0,0,1-1.057.435,5.6,5.6,0,0,1-1.38.145,3.228,3.228,0,0,1-2.629-1.027,4.68,4.68,0,0,1-.857-3.058,7.5,7.5,0,0,1,.191-1.639,9.081,9.081,0,0,1,.562-1.69,10.068,10.068,0,0,1,.885-1.6,7.291,7.291,0,0,1,1.162-1.337,5.61,5.61,0,0,1,1.38-.923,3.633,3.633,0,0,1,1.553-.343,4.26,4.26,0,0,1,2.151.737,3.723,3.723,0,0,1,1.182,1.513,7.793,7.793,0,0,1,.552,2.054q.151,1.13.238,2.333t.219,2.405a8.122,8.122,0,0,0,.552,2.219,3.711,3.711,0,0,1-.467.965.318.318,0,0,1-.485.093,2.512,2.512,0,0,1-.619-.912Q129.657,1606.619,129.143,1605.292Zm-6.571-1.784a2.906,2.906,0,0,0,.41,1.731,1.7,1.7,0,0,0,1.457.55,3.8,3.8,0,0,0,1.494-.3,3.888,3.888,0,0,0,1.248-.829,4.034,4.034,0,0,0,.857-1.275,4.126,4.126,0,0,0,.323-1.659c0-.249.007-.6.019-1.047a7.763,7.763,0,0,0-.076-1.338,3.377,3.377,0,0,0-.362-1.152.859.859,0,0,0-.8-.487,3.269,3.269,0,0,0-1.828.55,5.433,5.433,0,0,0-1.448,1.4,7.03,7.03,0,0,0-.952,1.877A6.235,6.235,0,0,0,122.572,1603.508Z" fill="#ff3b67"/>
          <path id="Trazado_2512" data-name="Trazado 2512" d="M141.56,1600.314a4.426,4.426,0,0,1,.857-2.986,3.32,3.32,0,0,1,2.628-.974,8.065,8.065,0,0,1,1.495.145,4.642,4.642,0,0,1,1.419.508,2.959,2.959,0,0,1,1.057,1.006,3.039,3.039,0,0,1,.409,1.659,5.03,5.03,0,0,1-.447,2.1,9.024,9.024,0,0,1-1.124,1.846,12.977,12.977,0,0,1-1.486,1.6q-.809.736-1.513,1.4a1.292,1.292,0,0,0-.067.342c-.019.173-.029.287-.029.342a2.916,2.916,0,0,0,.371,1.38q.372.695.81,1.41a15.268,15.268,0,0,1,.8,1.482,3.708,3.708,0,0,1,.362,1.6q0,.5-.191.591a2.175,2.175,0,0,1-.8.093,1.857,1.857,0,0,1-.752-.777,11.27,11.27,0,0,1-.743-1.5q-.37-.892-.723-2t-.667-2.261q-.313-1.15-.59-2.281t-.486-2.084q-.21-.953-.371-1.648T141.56,1600.314Zm1.618.187q0,.311.038.9a8.138,8.138,0,0,0,.163,1.172,3.38,3.38,0,0,0,.371,1.006.762.762,0,0,0,.686.425,2.027,2.027,0,0,0,1.19-.436,4.648,4.648,0,0,0,1.066-1.1,6.7,6.7,0,0,0,.762-1.421,3.854,3.854,0,0,0,.295-1.379,1.323,1.323,0,0,0-.228-.819,1.654,1.654,0,0,0-.581-.478,2.372,2.372,0,0,0-.752-.228,6.054,6.054,0,0,0-.762-.051,2.153,2.153,0,0,0-1.667.632A2.525,2.525,0,0,0,143.178,1600.5Z" fill="#ff3b67"/>
          <path id="Trazado_2513" data-name="Trazado 2513" d="M150.549,1599.506c0-.083,0-.232.01-.446s.009-.439.009-.674,0-.452.01-.654.009-.341.009-.424a3.663,3.663,0,0,1,.314-.488,1.069,1.069,0,0,1,.381-.332.634.634,0,0,1,.438-.031.959.959,0,0,1,.486.415v.436c-.013.069-.038.231-.077.487s-.082.536-.133.84-.1.584-.142.84a3.839,3.839,0,0,0-.067.487,7.9,7.9,0,0,0,.076.985q.076.591.219,1.234a12.2,12.2,0,0,0,.362,1.286,5.889,5.889,0,0,0,.524,1.15,3.567,3.567,0,0,0,.676.84,1.255,1.255,0,0,0,.866.332,1.735,1.735,0,0,0,1.076-.352,3.273,3.273,0,0,0,.81-.913,5.649,5.649,0,0,0,.562-1.265,12.8,12.8,0,0,0,.352-1.42q.134-.717.19-1.379t.057-1.162a6.466,6.466,0,0,0-.066-.944c-.045-.3-.1-.59-.162-.88s-.117-.578-.162-.862a5.471,5.471,0,0,1-.067-.86.614.614,0,0,1,.258-.56,1.049,1.049,0,0,1,.58-.166.854.854,0,0,1,.648.259,1.841,1.841,0,0,1,.39.653,3.677,3.677,0,0,1,.191.9q.046.509.047,1.006t-.019.943c-.013.3-.019.536-.019.716a15.336,15.336,0,0,1-.1,1.6,13.453,13.453,0,0,1-.333,1.835,16.057,16.057,0,0,1-.591,1.856,7.525,7.525,0,0,1-.857,1.628,4.421,4.421,0,0,1-1.161,1.151,2.619,2.619,0,0,1-1.476.435,2.587,2.587,0,0,1-1.5-.445,3.805,3.805,0,0,1-1.1-1.183,7.949,7.949,0,0,1-.752-1.669,13.4,13.4,0,0,1-.467-1.866q-.162-.933-.228-1.815C150.571,1600.442,150.549,1599.935,150.549,1599.506Z" fill="#ff3b67"/>
          <path id="Trazado_2514" data-name="Trazado 2514" d="M160.337,1600.979a1.046,1.046,0,0,1,.248-.779,1.13,1.13,0,0,1,.8-.238h.19c.038.222.083.476.134.767a6.121,6.121,0,0,0,.228.892,5.184,5.184,0,0,0,.362.84,1.845,1.845,0,0,0,.515.611,3.476,3.476,0,0,1,.333-1.4,4.984,4.984,0,0,1,1.809-2.095,3.483,3.483,0,0,1,1.114-.487h.419a2.678,2.678,0,0,1,1.561.446,3.685,3.685,0,0,1,1.077,1.161,6.02,6.02,0,0,1,.657,1.628,16.644,16.644,0,0,1,.352,1.856q.123.945.152,1.825t.029,1.5h-1.39q-.114-1.245-.286-2.385-.057-.457-.152-.965c-.064-.339-.133-.656-.21-.954s-.159-.573-.248-.829a3.134,3.134,0,0,0-.3-.653c-.051-.055-.118-.131-.2-.229s-.169-.193-.257-.29-.172-.18-.248-.249a.543.543,0,0,0-.133-.1.95.95,0,0,0-.99.238,3.672,3.672,0,0,0-.743,1.089,7.577,7.577,0,0,0-.524,1.555c-.133.58-.245,1.138-.333,1.669s-.152,1-.191,1.39-.063.633-.076.716a.905.905,0,0,1-.9.218,1.812,1.812,0,0,1-.79-.654,5.4,5.4,0,0,1-.667-1.244q-.3-.747-.543-1.587t-.447-1.69Q160.491,1601.7,160.337,1600.979Z" fill="#ff3b67"/>
          <path id="Trazado_2515" data-name="Trazado 2515" d="M170.945,1597.515a.261.261,0,0,1,.019-.1.392.392,0,0,1,.019-.1,3.157,3.157,0,0,1,.229-.27c.1-.11.165-.166.19-.166h3.829a6.955,6.955,0,0,0-.058-.726q-.057-.5-.105-1.1a11.738,11.738,0,0,1-.028-1.255,5.082,5.082,0,0,1,.162-1.182,2.055,2.055,0,0,1,.457-.871,1.142,1.142,0,0,1,.886-.342,16.925,16.925,0,0,0,.266,3.36,5.812,5.812,0,0,0,.714,1.949,2.122,2.122,0,0,0,1.019.892,2.954,2.954,0,0,0,1.171.176,5.142,5.142,0,0,0,1.172-.2,7.5,7.5,0,0,1,1.018-.228,1.112,1.112,0,0,1,.715.093q.266.156.266.737a.881.881,0,0,1-.18.622,1.381,1.381,0,0,1-.7.29c-.1.013-.27.038-.5.072s-.5.066-.79.094-.6.058-.933.094-.641.065-.933.092-.559.045-.8.052-.419.011-.533.011c0,.069-.007.186-.019.352s-.019.277-.019.332a5.974,5.974,0,0,0,.266,1.773q.267.861.581,1.711t.581,1.7a5.843,5.843,0,0,1,.266,1.763,2.127,2.127,0,0,1-.028.341.808.808,0,0,1-.114.311.55.55,0,0,1-.248.208.611.611,0,0,1-.447-.031,1.689,1.689,0,0,1-1.076-.892,5.809,5.809,0,0,1-.524-1.628,16.268,16.268,0,0,1-.229-2q-.057-1.058-.181-1.98a6.433,6.433,0,0,0-.39-1.576,1.232,1.232,0,0,0-.857-.8l-3.676-.912c-.05,0-.127-.059-.228-.177a1.353,1.353,0,0,1-.191-.259.256.256,0,0,1-.019-.1A.334.334,0,0,1,170.945,1597.515Z" fill="#ff3b67"/>
          <path id="Trazado_2516" data-name="Trazado 2516" d="M184.677,1592.413a1.462,1.462,0,0,1,.609.539,1.059,1.059,0,0,1,.219.674q-.029.3-.428.415a2.433,2.433,0,0,1-1.333-.238,2.227,2.227,0,0,1,.2-.975A.74.74,0,0,1,184.677,1592.413Zm-.267,7.777c0-.083,0-.217.01-.4s.012-.383.019-.591.012-.407.019-.6.009-.331.009-.414a1.675,1.675,0,0,1,.543-.539,3.58,3.58,0,0,1,.676-.332,15.344,15.344,0,0,0,.324,2.384q.267,1.266.572,2.54t.542,2.52a12.384,12.384,0,0,1,.238,2.323q0,.933-.876.933a1.083,1.083,0,0,1-.895-.477,3.764,3.764,0,0,1-.581-1.213,11.86,11.86,0,0,1-.352-1.638q-.134-.9-.181-1.774t-.057-1.6Q184.409,1600.584,184.41,1600.19Z" fill="#ff3b67"/>
          <path id="Trazado_2517" data-name="Trazado 2517" d="M187.724,1601.725a5.269,5.269,0,0,1,.352-1.826,6.675,6.675,0,0,1,.943-1.731,5.682,5.682,0,0,1,1.361-1.3,2.873,2.873,0,0,1,1.629-.518,2.454,2.454,0,0,1,.876.166,2.541,2.541,0,0,1,.79.476,2.474,2.474,0,0,1,.572.747,2.15,2.15,0,0,1,.218.975,2.152,2.152,0,0,1-.618-.083,5.248,5.248,0,0,1-.543-.2c-.178-.077-.353-.142-.524-.2a2.048,2.048,0,0,0-1.828.343,3.043,3.043,0,0,0-.772,1.067,5.166,5.166,0,0,0-.39,1.38,9.794,9.794,0,0,0-.1,1.379c0,.07,0,.2.01.394s.012.4.019.612.012.418.019.611a3.313,3.313,0,0,0,.028.4,3.809,3.809,0,0,0,.41.767,1.457,1.457,0,0,0,.429.4,1.232,1.232,0,0,0,.495.166,5.439,5.439,0,0,0,.628.031,2.1,2.1,0,0,0,.866-.166,4.029,4.029,0,0,0,.7-.394,4.908,4.908,0,0,0,.609-.507,6.241,6.241,0,0,1,.6-.519,3.1,3.1,0,0,1,.686-.394,2.168,2.168,0,0,1,.847-.156,4.592,4.592,0,0,1-.333,1.8,3.886,3.886,0,0,1-.933,1.349,4.17,4.17,0,0,1-1.409.86,5.035,5.035,0,0,1-1.762.3,2.3,2.3,0,0,1-1.609-.664,5.949,5.949,0,0,1-1.219-1.628,9.081,9.081,0,0,1-.772-2.042A8.111,8.111,0,0,1,187.724,1601.725Z" fill="#ff3b67"/>
          <path id="Trazado_2518" data-name="Trazado 2518" d="M205.283,1605.292q-.725.539-1.247.964a8.443,8.443,0,0,1-1.019.716,4.109,4.109,0,0,1-1.057.435,5.6,5.6,0,0,1-1.381.145,3.227,3.227,0,0,1-2.628-1.027,4.675,4.675,0,0,1-.857-3.058,7.5,7.5,0,0,1,.19-1.639,9.155,9.155,0,0,1,.562-1.69,10.154,10.154,0,0,1,.886-1.6,7.254,7.254,0,0,1,1.162-1.337,5.592,5.592,0,0,1,1.38-.923,3.628,3.628,0,0,1,1.552-.343,4.264,4.264,0,0,1,2.152.737,3.713,3.713,0,0,1,1.181,1.513,7.794,7.794,0,0,1,.553,2.054q.151,1.13.237,2.333t.22,2.405a8.122,8.122,0,0,0,.552,2.219,3.711,3.711,0,0,1-.467.965.319.319,0,0,1-.485.093,2.487,2.487,0,0,1-.619-.912Q205.8,1606.619,205.283,1605.292Zm-6.571-1.784a2.913,2.913,0,0,0,.41,1.731,1.705,1.705,0,0,0,1.457.55,3.8,3.8,0,0,0,1.5-.3,3.884,3.884,0,0,0,1.247-.829,4.017,4.017,0,0,0,.857-1.275,4.127,4.127,0,0,0,.324-1.659q0-.374.019-1.047a7.865,7.865,0,0,0-.076-1.338,3.4,3.4,0,0,0-.362-1.152.861.861,0,0,0-.8-.487,3.271,3.271,0,0,0-1.828.55,5.444,5.444,0,0,0-1.447,1.4,7.032,7.032,0,0,0-.953,1.877A6.263,6.263,0,0,0,198.712,1603.508Z" fill="#ff3b67"/>
          <path id="Trazado_2519" data-name="Trazado 2519" d="M217.281,1605.52a4.106,4.106,0,0,1,.553-2.136,6.373,6.373,0,0,1,1.371-1.628,9.237,9.237,0,0,1,1.771-1.183q.952-.486,1.771-.808t1.371-.519c.368-.131.553-.238.553-.321q0-.726-.067-1.42c-.045-.464-.092-.93-.143-1.4s-.1-.936-.143-1.4-.066-.923-.066-1.379v-1.348q.78-.311,1.114.062a1.409,1.409,0,0,1,.1,1.286c.051.3.121.78.21,1.431s.187,1.383.3,2.2.222,1.673.343,2.571.235,1.76.343,2.582.2,1.556.276,2.2.133,1.123.171,1.441c.013.069.026.2.039.4s.022.415.028.643.013.439.019.633.01.332.01.415a5.006,5.006,0,0,1-.981-.063.413.413,0,0,1-.324-.249,1.69,1.69,0,0,1-.066-.539,3.583,3.583,0,0,0-.191-.974,11.49,11.49,0,0,1-1.333.995,7.258,7.258,0,0,1-1.257.633,6.055,6.055,0,0,1-1.267.332,9.6,9.6,0,0,1-1.361.092,5.871,5.871,0,0,1-1.171-.114,2.769,2.769,0,0,1-1-.4,2.138,2.138,0,0,1-.705-.788A2.607,2.607,0,0,1,217.281,1605.52Zm1.657-.436a.987.987,0,0,0,.133.539,1.252,1.252,0,0,0,.343.353,1.233,1.233,0,0,0,.448.2,2.161,2.161,0,0,0,.467.052,4.219,4.219,0,0,0,1.437-.28,5.272,5.272,0,0,0,1.429-.788,4.412,4.412,0,0,0,1.085-1.214,2.893,2.893,0,0,0,.429-1.534,1.413,1.413,0,0,0-.21-.891,1.017,1.017,0,0,0-.8-.249,4.049,4.049,0,0,0-1.419.31,7.481,7.481,0,0,0-1.561.83,5.31,5.31,0,0,0-1.267,1.213A2.422,2.422,0,0,0,218.938,1605.084Z" fill="#ff3b67"/>
          <path id="Trazado_2520" data-name="Trazado 2520" d="M228.327,1602.2a10.345,10.345,0,0,1,.248-2.239,6.586,6.586,0,0,1,.79-2.012,4.464,4.464,0,0,1,1.41-1.451,3.785,3.785,0,0,1,2.1-.561,2.622,2.622,0,0,1,1.238.281,2.768,2.768,0,0,1,.895.736,3.137,3.137,0,0,1,.543,1.067,4.507,4.507,0,0,1,.18,1.276,4.967,4.967,0,0,1-.447,2.054,5.89,5.89,0,0,1-1.2,1.752,5,5,0,0,1-1.723,1.14,3.416,3.416,0,0,1-1.981.177,1.4,1.4,0,0,0,.371.964,2.3,2.3,0,0,0,.848.55,4,4,0,0,0,1.028.238q.532.053.953.052a3.845,3.845,0,0,0,.818-.083c.254-.055.508-.118.762-.187s.511-.131.772-.186a3.99,3.99,0,0,1,.828-.083,2.8,2.8,0,0,1,.343.02,1.056,1.056,0,0,1,.324.094.59.59,0,0,1,.247.227.725.725,0,0,1,.1.384.87.87,0,0,1-.267.653,2.378,2.378,0,0,1-.676.447,3.9,3.9,0,0,1-.9.279c-.33.063-.651.111-.962.146s-.6.055-.856.062-.455.01-.582.01a5.411,5.411,0,0,1-2.189-.425,4.61,4.61,0,0,1-1.639-1.182,5.171,5.171,0,0,1-1.018-1.825A7.521,7.521,0,0,1,228.327,1602.2Zm2.019-1.347a2.31,2.31,0,0,0,.181,1.057c.121.222.415.332.886.332a2.509,2.509,0,0,0,.971-.2,2.986,2.986,0,0,0,.866-.55,2.634,2.634,0,0,0,.619-.829,2.361,2.361,0,0,0,.229-1.037,4.5,4.5,0,0,0-.048-.643,1.821,1.821,0,0,0-.2-.612,1.378,1.378,0,0,0-.39-.456,1.018,1.018,0,0,0-.619-.176,1.984,1.984,0,0,0-1.038.279,2.66,2.66,0,0,0-.79.727,3.374,3.374,0,0,0-.5.995A3.713,3.713,0,0,0,230.346,1600.854Z" fill="#ff3b67"/>
          <path id="Trazado_2521" data-name="Trazado 2521" d="M62.886,1622.774a8.783,8.783,0,0,0-.076-1.171,4.734,4.734,0,0,1-.038-1.017,1.141,1.141,0,0,1,.3-.715,1.288,1.288,0,0,1,.943-.27,7.726,7.726,0,0,1,.41,1.452q.2.975.39,2.239t.362,2.748q.171,1.484.314,2.977t.247,2.933q.1,1.443.163,2.624-.629.456-1.01.062a3.051,3.051,0,0,1-.629-1.337,14.921,14.921,0,0,1-.38-2.3q-.134-1.359-.257-2.821t-.3-2.882A21.816,21.816,0,0,0,62.886,1622.774Z" fill="#ff3b67"/>
          <path id="Trazado_2522" data-name="Trazado 2522" d="M75.075,1631.837q-.724.539-1.247.964a8.429,8.429,0,0,1-1.019.716,4.149,4.149,0,0,1-1.057.435,5.605,5.605,0,0,1-1.381.145,3.227,3.227,0,0,1-2.628-1.027,4.674,4.674,0,0,1-.857-3.058,7.49,7.49,0,0,1,.19-1.639,9.155,9.155,0,0,1,.562-1.69,10.147,10.147,0,0,1,.886-1.6,7.253,7.253,0,0,1,1.162-1.337,5.585,5.585,0,0,1,1.38-.923,3.628,3.628,0,0,1,1.552-.343,4.264,4.264,0,0,1,2.152.737,3.714,3.714,0,0,1,1.181,1.513,7.792,7.792,0,0,1,.553,2.054q.152,1.13.237,2.333t.22,2.405a8.086,8.086,0,0,0,.552,2.219,3.731,3.731,0,0,1-.467.965.319.319,0,0,1-.485.093,2.488,2.488,0,0,1-.619-.912Q75.59,1633.164,75.075,1631.837Zm-6.571-1.784a2.914,2.914,0,0,0,.41,1.731,1.705,1.705,0,0,0,1.457.55,3.8,3.8,0,0,0,1.495-.3,3.88,3.88,0,0,0,1.247-.829,4.015,4.015,0,0,0,.857-1.275,4.126,4.126,0,0,0,.324-1.659q0-.374.019-1.047a7.858,7.858,0,0,0-.076-1.338,3.4,3.4,0,0,0-.362-1.152.861.861,0,0,0-.8-.487,3.272,3.272,0,0,0-1.828.55,5.445,5.445,0,0,0-1.447,1.4,7.031,7.031,0,0,0-.953,1.877A6.263,6.263,0,0,0,68.5,1630.053Z" fill="#ff3b67"/>
          <path id="Trazado_2523" data-name="Trazado 2523" d="M87.492,1628.746a10.344,10.344,0,0,1,.247-2.239,6.561,6.561,0,0,1,.791-2.012,4.472,4.472,0,0,1,1.409-1.451,3.792,3.792,0,0,1,2.1-.561,2.618,2.618,0,0,1,1.237.281,2.756,2.756,0,0,1,.9.736,3.119,3.119,0,0,1,.543,1.067,4.472,4.472,0,0,1,.181,1.276,4.963,4.963,0,0,1-.447,2.053,5.881,5.881,0,0,1-1.2,1.752,5,5,0,0,1-1.724,1.141,3.413,3.413,0,0,1-1.981.177,1.4,1.4,0,0,0,.372.964,2.29,2.29,0,0,0,.848.549,3.958,3.958,0,0,0,1.028.239c.355.035.673.052.952.052a3.87,3.87,0,0,0,.819-.083c.254-.055.508-.118.762-.187s.511-.131.771-.187a4.069,4.069,0,0,1,.829-.083,2.849,2.849,0,0,1,.343.021,1.056,1.056,0,0,1,.323.094.588.588,0,0,1,.248.227.734.734,0,0,1,.1.384.87.87,0,0,1-.267.653,2.381,2.381,0,0,1-.676.447,3.927,3.927,0,0,1-.905.279c-.33.062-.65.111-.961.145s-.6.056-.857.063-.454.01-.581.01a5.419,5.419,0,0,1-2.19-.425,4.6,4.6,0,0,1-1.638-1.182,5.188,5.188,0,0,1-1.019-1.825A7.549,7.549,0,0,1,87.492,1628.746Zm2.018-1.348a2.31,2.31,0,0,0,.182,1.058q.18.333.885.332a2.5,2.5,0,0,0,.971-.2,3,3,0,0,0,.867-.55,2.649,2.649,0,0,0,.619-.829,2.374,2.374,0,0,0,.228-1.037,4.65,4.65,0,0,0-.047-.643,1.836,1.836,0,0,0-.2-.612,1.38,1.38,0,0,0-.391-.456,1.018,1.018,0,0,0-.619-.176,1.986,1.986,0,0,0-1.038.279,2.672,2.672,0,0,0-.79.727,3.4,3.4,0,0,0-.5.995A3.682,3.682,0,0,0,89.51,1627.4Z" fill="#ff3b67"/>
          <path id="Trazado_2524" data-name="Trazado 2524" d="M97.7,1625.8a1.675,1.675,0,0,1,.162-.809.727.727,0,0,1,.695-.291c.038,0,.111,0,.219.011s.174.011.2.011q.134.642.276,1.4t.333,1.524q.19.768.429,1.514a6.944,6.944,0,0,0,.581,1.348,2.394,2.394,0,0,0,.495-.933,8.169,8.169,0,0,0,.228-1.089q.077-.549.143-1.057a2.32,2.32,0,0,1,.276-.871,1.223,1.223,0,0,1,.619-.529,1.932,1.932,0,0,1,1.133,0,2.238,2.238,0,0,1,1.276.322,3.272,3.272,0,0,1,.829.808q.353.487.685,1.037a4.034,4.034,0,0,0,.848.985c.076-.179.171-.405.286-.674a7.78,7.78,0,0,1,.428-.85q.256-.447.552-.892a7.129,7.129,0,0,1,.619-.809,3.914,3.914,0,0,1,.667-.6,1.174,1.174,0,0,1,.666-.238,1.928,1.928,0,0,1,1.353.529,4.717,4.717,0,0,1,.98,1.328,9.207,9.207,0,0,1,.677,1.783q.265.985.419,1.9t.218,1.67c.045.505.067.867.067,1.089a.656.656,0,0,1-.114.414.7.7,0,0,1-.286.218,1.275,1.275,0,0,1-.371.094c-.134.013-.257.02-.371.02a.771.771,0,0,1-.115-.011q-.077-.009-.171-.03c-.051-.014-.121-.035-.21-.062l-1.238-6.2c0-.041-.051-.12-.152-.238a1.113,1.113,0,0,0-.229-.218.2.2,0,0,1-.1-.02.11.11,0,0,1-.057-.011.078.078,0,0,0-.038-.01,1.055,1.055,0,0,0-.752.353,4.1,4.1,0,0,0-.657.892,10.146,10.146,0,0,0-.572,1.2q-.265.664-.476,1.317t-.371,1.2c-.108.366-.194.647-.257.84a1.027,1.027,0,0,1-.305.072,2.856,2.856,0,0,1-.3.032.94.94,0,0,1-.819-.4,3.442,3.442,0,0,1-.467-1.006,11.2,11.2,0,0,1-.305-1.317,11.434,11.434,0,0,0-.3-1.316,3.062,3.062,0,0,0-.5-1.006,1.054,1.054,0,0,0-.885-.405c-.14,0-.273.153-.4.457a6.858,6.858,0,0,0-.343,1.151q-.153.695-.286,1.493c-.088.532-.162,1.029-.219,1.493s-.111,1.013-.161,1.649a.491.491,0,0,1-.153.134c-.076.049-.156.1-.238.156a1.105,1.105,0,0,1-.248.125.659.659,0,0,1-.18.041,1.422,1.422,0,0,1-1.029-.53,5.534,5.534,0,0,1-.9-1.368,14.4,14.4,0,0,1-.743-1.856q-.334-1.016-.562-1.99t-.352-1.763A8.357,8.357,0,0,1,97.7,1625.8Z" fill="#ff3b67"/>
          <path id="Trazado_2525" data-name="Trazado 2525" d="M114.84,1626.859a4.429,4.429,0,0,1,.857-2.986,3.32,3.32,0,0,1,2.628-.975,8.062,8.062,0,0,1,1.5.146,4.636,4.636,0,0,1,1.419.508,2.942,2.942,0,0,1,1.057,1.006,3.039,3.039,0,0,1,.409,1.659,5.03,5.03,0,0,1-.447,2.1,8.937,8.937,0,0,1-1.124,1.846,13.137,13.137,0,0,1-1.485,1.6q-.81.736-1.514,1.4a1.294,1.294,0,0,0-.067.342c-.019.173-.028.287-.028.342a2.9,2.9,0,0,0,.371,1.38q.37.693.809,1.41a15.279,15.279,0,0,1,.8,1.482,3.707,3.707,0,0,1,.362,1.6c0,.332-.064.529-.19.591a2.179,2.179,0,0,1-.8.093,1.852,1.852,0,0,1-.753-.777,11.29,11.29,0,0,1-.742-1.5q-.372-.892-.724-2t-.667-2.261q-.313-1.151-.59-2.281t-.486-2.084q-.208-.954-.371-1.648T114.84,1626.859Zm1.619.187c0,.207.012.508.038.9a8,8,0,0,0,.162,1.172,3.379,3.379,0,0,0,.371,1.006.762.762,0,0,0,.686.425,2.027,2.027,0,0,0,1.19-.436,4.629,4.629,0,0,0,1.066-1.1,6.7,6.7,0,0,0,.762-1.421,3.833,3.833,0,0,0,.295-1.379,1.329,1.329,0,0,0-.228-.82,1.644,1.644,0,0,0-.581-.477,2.369,2.369,0,0,0-.752-.228,6.031,6.031,0,0,0-.762-.051,2.154,2.154,0,0,0-1.666.631A2.525,2.525,0,0,0,116.459,1627.046Z" fill="#ff3b67"/>
          <path id="Trazado_2526" data-name="Trazado 2526" d="M132.019,1631.837q-.725.539-1.248.964a8.428,8.428,0,0,1-1.019.716,4.149,4.149,0,0,1-1.057.435,5.6,5.6,0,0,1-1.38.145,3.228,3.228,0,0,1-2.629-1.027,4.68,4.68,0,0,1-.857-3.058,7.493,7.493,0,0,1,.191-1.639,9.081,9.081,0,0,1,.562-1.69,10.062,10.062,0,0,1,.885-1.6,7.291,7.291,0,0,1,1.162-1.337,5.6,5.6,0,0,1,1.38-.923,3.633,3.633,0,0,1,1.553-.343,4.26,4.26,0,0,1,2.151.737,3.725,3.725,0,0,1,1.182,1.513,7.793,7.793,0,0,1,.552,2.054q.151,1.13.238,2.333t.219,2.405a8.122,8.122,0,0,0,.552,2.219,3.732,3.732,0,0,1-.467.965.318.318,0,0,1-.485.093,2.513,2.513,0,0,1-.619-.912Q132.532,1633.164,132.019,1631.837Zm-6.571-1.784a2.906,2.906,0,0,0,.41,1.731,1.7,1.7,0,0,0,1.457.55,3.8,3.8,0,0,0,1.494-.3,3.884,3.884,0,0,0,1.248-.829,4.031,4.031,0,0,0,.857-1.275,4.143,4.143,0,0,0,.323-1.659c0-.249.007-.6.019-1.047a7.755,7.755,0,0,0-.076-1.338,3.376,3.376,0,0,0-.362-1.152.86.86,0,0,0-.8-.487,3.267,3.267,0,0,0-1.828.55,5.434,5.434,0,0,0-1.448,1.4,7.028,7.028,0,0,0-.952,1.877A6.234,6.234,0,0,0,125.448,1630.053Z" fill="#ff3b67"/>
          <path id="Trazado_2527" data-name="Trazado 2527" d="M135.656,1627.523a1.045,1.045,0,0,1,.247-.778,1.13,1.13,0,0,1,.8-.238h.191c.038.222.082.476.133.767a6.291,6.291,0,0,0,.228.892,5.27,5.27,0,0,0,.362.84,1.845,1.845,0,0,0,.515.611,3.476,3.476,0,0,1,.333-1.4,5,5,0,0,1,1.809-2.095,3.489,3.489,0,0,1,1.114-.487h.419a2.681,2.681,0,0,1,1.562.446,3.694,3.694,0,0,1,1.076,1.161,5.954,5.954,0,0,1,.657,1.628,16.382,16.382,0,0,1,.352,1.856q.125.943.153,1.825t.028,1.5h-1.39q-.114-1.245-.285-2.385c-.039-.305-.09-.626-.153-.965s-.133-.656-.21-.954-.158-.573-.247-.829a3.132,3.132,0,0,0-.305-.653c-.051-.055-.117-.131-.2-.229s-.168-.193-.257-.29-.171-.18-.248-.249a.541.541,0,0,0-.133-.1.953.953,0,0,0-.99.239,3.694,3.694,0,0,0-.743,1.089,7.64,7.64,0,0,0-.524,1.555c-.133.58-.244,1.138-.333,1.669s-.152,1-.19,1.39-.064.633-.076.716a.9.9,0,0,1-.9.217,1.8,1.8,0,0,1-.791-.653,5.4,5.4,0,0,1-.666-1.244q-.3-.747-.543-1.587t-.448-1.69Q135.809,1628.248,135.656,1627.523Z" fill="#ff3b67"/>
          <path id="Trazado_2528" data-name="Trazado 2528" d="M154.872,1631.837q-.724.539-1.247.964a8.429,8.429,0,0,1-1.019.716,4.156,4.156,0,0,1-1.058.435,5.6,5.6,0,0,1-1.38.145,3.227,3.227,0,0,1-2.628-1.027,4.674,4.674,0,0,1-.857-3.058,7.49,7.49,0,0,1,.19-1.639,9.155,9.155,0,0,1,.562-1.69,10.222,10.222,0,0,1,.885-1.6,7.258,7.258,0,0,1,1.163-1.337,5.585,5.585,0,0,1,1.38-.923,3.628,3.628,0,0,1,1.552-.343,4.267,4.267,0,0,1,2.152.737,3.722,3.722,0,0,1,1.181,1.513,7.754,7.754,0,0,1,.552,2.054q.153,1.13.238,2.333t.219,2.405a8.122,8.122,0,0,0,.553,2.219,3.732,3.732,0,0,1-.467.965.319.319,0,0,1-.485.093,2.5,2.5,0,0,1-.62-.912Q155.387,1633.164,154.872,1631.837Zm-6.571-1.784a2.914,2.914,0,0,0,.41,1.731,1.705,1.705,0,0,0,1.457.55,3.8,3.8,0,0,0,1.495-.3,3.88,3.88,0,0,0,1.247-.829,4.015,4.015,0,0,0,.857-1.275,4.126,4.126,0,0,0,.324-1.659q0-.374.019-1.047a7.857,7.857,0,0,0-.076-1.338,3.4,3.4,0,0,0-.362-1.152.861.861,0,0,0-.8-.487,3.272,3.272,0,0,0-1.828.55,5.445,5.445,0,0,0-1.447,1.4,7.031,7.031,0,0,0-.953,1.877A6.263,6.263,0,0,0,148.3,1630.053Z" fill="#ff3b67"/>
          <path id="Trazado_2529" data-name="Trazado 2529" d="M158.09,1632.064a4.114,4.114,0,0,1,.553-2.135,6.375,6.375,0,0,1,1.371-1.628,9.236,9.236,0,0,1,1.771-1.183q.952-.486,1.771-.808t1.371-.519q.554-.2.553-.321,0-.726-.067-1.42c-.045-.464-.092-.93-.143-1.4s-.1-.936-.142-1.4-.067-.923-.067-1.379v-1.349q.78-.311,1.114.063a1.409,1.409,0,0,1,.1,1.286c.051.3.121.78.21,1.431s.187,1.383.295,2.2.222,1.673.343,2.571.235,1.76.343,2.582.2,1.556.276,2.2.133,1.123.172,1.441c.012.069.025.2.038.4s.022.415.028.643.013.439.019.633.01.332.01.415a5.007,5.007,0,0,1-.981-.063.415.415,0,0,1-.324-.249,1.7,1.7,0,0,1-.066-.539,3.583,3.583,0,0,0-.191-.974,11.489,11.489,0,0,1-1.333.995,7.18,7.18,0,0,1-1.257.632,5.937,5.937,0,0,1-1.267.332,9.438,9.438,0,0,1-1.361.093,5.862,5.862,0,0,1-1.171-.114,2.766,2.766,0,0,1-1-.4,2.139,2.139,0,0,1-.705-.788A2.608,2.608,0,0,1,158.09,1632.064Zm1.657-.435a.987.987,0,0,0,.133.539,1.252,1.252,0,0,0,.343.353,1.234,1.234,0,0,0,.448.2,2.161,2.161,0,0,0,.467.052,4.219,4.219,0,0,0,1.437-.28A5.26,5.26,0,0,0,164,1631.7a4.412,4.412,0,0,0,1.085-1.214,2.894,2.894,0,0,0,.429-1.534,1.412,1.412,0,0,0-.21-.891,1.011,1.011,0,0,0-.8-.25,4.053,4.053,0,0,0-1.419.311,7.486,7.486,0,0,0-1.561.83,5.31,5.31,0,0,0-1.267,1.213A2.428,2.428,0,0,0,159.747,1631.629Z" fill="#ff3b67"/>
          <path id="Trazado_2530" data-name="Trazado 2530" d="M177.326,1631.837q-.725.539-1.248.964a8.351,8.351,0,0,1-1.019.716,4.134,4.134,0,0,1-1.057.435,5.6,5.6,0,0,1-1.38.145,3.23,3.23,0,0,1-2.629-1.027,4.68,4.68,0,0,1-.857-3.058,7.493,7.493,0,0,1,.191-1.639,9.08,9.08,0,0,1,.562-1.69,10.062,10.062,0,0,1,.885-1.6,7.291,7.291,0,0,1,1.162-1.337,5.59,5.59,0,0,1,1.381-.923,3.625,3.625,0,0,1,1.552-.343,4.267,4.267,0,0,1,2.152.737,3.731,3.731,0,0,1,1.181,1.513,7.792,7.792,0,0,1,.552,2.054q.153,1.13.238,2.333t.219,2.405a8.122,8.122,0,0,0,.552,2.219,3.732,3.732,0,0,1-.467.965.318.318,0,0,1-.485.093,2.513,2.513,0,0,1-.619-.912Q177.84,1633.164,177.326,1631.837Zm-6.571-1.784a2.906,2.906,0,0,0,.41,1.731,1.705,1.705,0,0,0,1.457.55,3.8,3.8,0,0,0,1.494-.3,3.884,3.884,0,0,0,1.248-.829,4.031,4.031,0,0,0,.857-1.275,4.126,4.126,0,0,0,.324-1.659q0-.374.019-1.047a7.857,7.857,0,0,0-.077-1.338,3.4,3.4,0,0,0-.361-1.152.862.862,0,0,0-.8-.487,3.269,3.269,0,0,0-1.828.55,5.449,5.449,0,0,0-1.448,1.4,7.028,7.028,0,0,0-.952,1.877A6.234,6.234,0,0,0,170.755,1630.053Z" fill="#ff3b67"/>
        </g>
      </g>
    </g>
    <g id="Grupo_2101" data-name="Grupo 2101" transform="translate(3.504 -10.876)">
      <path id="Trazado_2531" data-name="Trazado 2531" d="M152.806,1763.5c-5.823-1.229-10.72-4.393-15.693-7.311a165.568,165.568,0,0,1-14.371-9.721,122.422,122.422,0,0,1-24.562-24.564,100.58,100.58,0,0,1-9.088-14.915,94.01,94.01,0,0,1-6.208-16.326,77.986,77.986,0,0,1-2.837-17.228A52.412,52.412,0,0,1,82.1,1656.2a120.139,120.139,0,0,0,.39,17.073,88.365,88.365,0,0,0,3.132,16.618,92.1,92.1,0,0,0,6.246,15.721,97.493,97.493,0,0,0,8.863,14.415,121.566,121.566,0,0,0,11.061,12.865,140.338,140.338,0,0,0,12.721,11.3,162.7,162.7,0,0,0,13.941,9.841C143.237,1757.149,148.385,1759.558,152.806,1763.5Z" fill="#ff3b67"/>
      <path id="Trazado_2532" data-name="Trazado 2532" d="M136.709,1768.681a11.511,11.511,0,0,1,5.1-.766c1.732.073,3.43.319,5.076.465a14.706,14.706,0,0,0,4.723-.3,6,6,0,0,0,3.558-2.221c1.525-2.235.641-5.852.547-9.2a99.285,99.285,0,0,1-.091-10.211,99.248,99.248,0,0,1,1.987,10.017c.211,1.7.519,3.313.631,5.1a12.286,12.286,0,0,1-.111,2.79,6.991,6.991,0,0,1-1.15,2.768,6.867,6.867,0,0,1-2.239,1.993,9.21,9.21,0,0,1-2.689.944,14.23,14.23,0,0,1-5.387-.056C143.259,1769.384,140.125,1768.147,136.709,1768.681Z" fill="#ff3b67"/>
    </g>
    <g id="Grupo_2102" data-name="Grupo 2102">
      <path id="Trazado_2533" data-name="Trazado 2533" d="M197.827,1717.081a67.162,67.162,0,0,1-34.177-8.913c-12.339-7.343-21.214-18.984-24.35-31.939-.54-2.231-1.042-5.467.822-7.805a1,1,0,0,1,1.766.448l.034-.021a1,1,0,0,1,1.37.352.845.845,0,0,0,.621.405,3.132,3.132,0,0,0,2.25-.633c.361-.269.709-.582,1.077-.914a7.623,7.623,0,0,1,3.268-2.036c2.185-.511,4.193.746,5.564,1.862a6.847,6.847,0,0,1,2.893-2.668,6.588,6.588,0,0,1,5.336-.329,15.432,15.432,0,0,1,2.284,1.217c1.656,1.006,2.733,1.579,3.708,1.089a4.376,4.376,0,0,0,1.32-1.379,5.362,5.362,0,0,1,2.31-2.09c1.629-.626,3.188.144,4.565.823,1.36.67,2.237,1.049,2.932.656a3.529,3.529,0,0,0,1.065-1.376c.085-.152.171-.3.258-.452a10.5,10.5,0,0,1,12.453-4.363,1,1,0,0,1,.6,1.222c-3.261,10.867-4.444,20.336-3.616,28.948,1,10.433,5.11,19.666,11.568,26a1,1,0,0,1-.63,1.711Q200.467,1717.082,197.827,1717.081Zm-56.36-47.1c-.8,1.258-.869,3.111-.223,5.781,3.01,12.434,11.55,23.621,23.428,30.69,10.244,6.1,23.008,9.1,36.155,8.571-5.915-6.567-9.668-15.581-10.634-25.643-.829-8.621.287-18.039,3.41-28.763a8.609,8.609,0,0,0-9.139,3.783c-.08.135-.158.274-.235.413a5.08,5.08,0,0,1-1.825,2.138c-1.667.938-3.331.12-4.8-.6-1.107-.546-2.153-1.064-2.964-.75a3.732,3.732,0,0,0-1.412,1.4,5.951,5.951,0,0,1-2.034,1.983c-2.036,1.029-3.955-.136-5.648-1.165a13.771,13.771,0,0,0-1.98-1.067,4.871,4.871,0,0,0-6.154,3.062,1,1,0,0,1-1.637.471c-1.557-1.42-3.214-2.681-4.812-2.309a5.958,5.958,0,0,0-2.385,1.575c-.386.347-.785.706-1.219,1.03a5.111,5.111,0,0,1-3.839.991,2.841,2.841,0,0,1-1.95-1.348A1.024,1.024,0,0,1,141.467,1669.978Z" fill="#ff3b67"/>
      <path id="Trazado_2534" data-name="Trazado 2534" d="M202.987,1715.277a1,1,0,0,1-.971-.766c-3.154-13.125-6.023-26.5-8.528-39.754-.754-3.986-1.692-8.947-.758-13.678a1,1,0,1,1,1.961.387c-.857,4.351.04,9.1.762,12.92,2.5,13.221,5.361,26.564,8.507,39.658a1,1,0,0,1-.739,1.206A.987.987,0,0,1,202.987,1715.277Z" fill="#ff3b67"/>
      <path id="Trazado_2535" data-name="Trazado 2535" d="M140.944,1672.017a1,1,0,0,1-.724-.311,2.856,2.856,0,0,1-.708-2.534,3.91,3.91,0,0,1,2.024-2.75,7.094,7.094,0,0,1,5.087-.041c2.7.788,4.392,2.078,5.022,3.833a1,1,0,0,1-1.883.676c-.4-1.119-1.646-1.991-3.7-2.589-1.662-.485-2.784-.514-3.635-.088a1.9,1.9,0,0,0-.947,1.3.921.921,0,0,0,.188.809,1,1,0,0,1-.725,1.69Z" fill="#ff3b67"/>
      <path id="Trazado_2536" data-name="Trazado 2536" d="M157.727,1671.713a6.23,6.23,0,0,1-1.576-.214,6.483,6.483,0,0,1-4.591-3.8,4.407,4.407,0,0,1-.261-1.308,2.731,2.731,0,0,1,.116-3.168,2.654,2.654,0,0,1,3.314-1.1,1,1,0,0,1-.116,1.854,1.844,1.844,0,0,0-1.052.993,2.709,2.709,0,0,0-.124,2.042,4.632,4.632,0,0,0,3.22,2.554,2.561,2.561,0,0,0,2.411-.32,1.938,1.938,0,0,0-.094-2.236,7.67,7.67,0,0,0-2.55-2.046,1,1,0,0,1,1.026-1.717,9.284,9.284,0,0,1,3.187,2.652,3.885,3.885,0,0,1-.094,4.7A3.708,3.708,0,0,1,157.727,1671.713Z" fill="#ff3b67"/>
      <path id="Trazado_2537" data-name="Trazado 2537" d="M166.279,1670.091a3.924,3.924,0,0,1-1.876-.536,5.038,5.038,0,0,1-2.632-5.593,3.868,3.868,0,0,1,2.775-2.545,3.206,3.206,0,0,1,3.1.772,1,1,0,0,1,.264.925,5.6,5.6,0,0,1,1.464,2.792,3.879,3.879,0,0,1-.762,2.995,2.969,2.969,0,0,1-2.121,1.182C166.424,1670.089,166.352,1670.091,166.279,1670.091Zm-1.008-6.777a1.84,1.84,0,0,0-.238.042,1.868,1.868,0,0,0-1.344,1.172,3.078,3.078,0,0,0,1.677,3.274,1.81,1.81,0,0,0,.981.287,1.007,1.007,0,0,0,.7-.42,1.9,1.9,0,0,0,.365-1.426,4.72,4.72,0,0,0-1.906-2.658A.967.967,0,0,1,165.271,1663.314Z" fill="#ff3b67"/>
      <path id="Trazado_2538" data-name="Trazado 2538" d="M170.994,1669.265c-1.386,0-2.51-1.18-3.112-3.289a1,1,0,1,1,1.924-.549c.321,1.126.818,1.878,1.248,1.835.366-.042.712-.644,1.047-1.225.134-.232.267-.464.407-.677a3.14,3.14,0,0,1,2.954-1.347,1.757,1.757,0,0,1,1.445,1.369,1,1,0,0,1-1.9.6,1.291,1.291,0,0,0-.825.48c-.119.182-.232.379-.346.577-.5.868-1.184,2.057-2.553,2.213A2.344,2.344,0,0,1,170.994,1669.265Z" fill="#ff3b67"/>
      <path id="Trazado_2539" data-name="Trazado 2539" d="M175.082,1665.475a1.021,1.021,0,0,1-.2-.021,6.893,6.893,0,0,1-3.416-2.323,4.887,4.887,0,0,0-2.367-1.7,1.367,1.367,0,0,0-1.1.338.5.5,0,0,0-.194.417,1,1,0,1,1-1.984.25,2.452,2.452,0,0,1,.8-2.118,3.374,3.374,0,0,1,2.828-.856,6.7,6.7,0,0,1,3.462,2.29,5.1,5.1,0,0,0,2.37,1.739,1,1,0,0,1-.2,1.98Z" fill="#ff3b67"/>
      <path id="Trazado_2540" data-name="Trazado 2540" d="M177.737,1668.02c-.061,0-.123,0-.185,0a6.438,6.438,0,0,1-6.036-6.3,1,1,0,0,1,1-.99h.01a1,1,0,0,1,.99,1.009,4.242,4.242,0,0,0,8.478.28,2.664,2.664,0,0,0-.078-.864,1,1,0,0,1-1.862.692l-.79-1.534a1,1,0,0,1,.1-1.073,2.2,2.2,0,0,1,1.6-.825,2.7,2.7,0,0,1,2.013.715,3.768,3.768,0,0,1,1.011,3A6.449,6.449,0,0,1,177.737,1668.02Zm4-7.279.1.189a.582.582,0,0,1,.035.076A1.364,1.364,0,0,0,181.736,1660.741Z" fill="#ff3b67"/>
      <path id="Trazado_2541" data-name="Trazado 2541" d="M172.632,1664.355a1,1,0,0,1-1-.986,5.356,5.356,0,0,1,5.973-5.18,1,1,0,0,1-.31,1.976,3.363,3.363,0,0,0-3.663,3.177,1,1,0,0,1-.986,1.013Z" fill="#ff3b67"/>
      <path id="Trazado_2542" data-name="Trazado 2542" d="M189.547,1660.822a1,1,0,0,1-.851-.472,4.375,4.375,0,0,0-4.3-1.94,1,1,0,0,1-.334-1.972,6.376,6.376,0,0,1,6.335,2.857,1,1,0,0,1-.849,1.527Z" fill="#ff3b67"/>
      <path id="Trazado_2543" data-name="Trazado 2543" d="M170.515,1686.169a40.073,40.073,0,0,0,2.747,10.822.388.388,0,0,1-.7.331,41.465,41.465,0,0,1-4.021-10.828,1,1,0,1,1,1.956-.434A1.026,1.026,0,0,1,170.515,1686.169Z" fill="#ff3b67"/>
      <path id="Trazado_2544" data-name="Trazado 2544" d="M176.9,1684.153a29.155,29.155,0,0,0,1.113,11.024.4.4,0,0,1-.749.27,30.571,30.571,0,0,1-2.363-11.368,1,1,0,0,1,2-.035C176.907,1684.079,176.906,1684.119,176.9,1684.153Z" fill="#ff3b67"/>
    </g>
  </g>
</svg>
