<svg xmlns="http://www.w3.org/2000/svg" width="260.46" height="420.038" viewBox="0 0 260.46 420.038">
  <g id="Grupo_3455" data-name="Grupo 3455" transform="translate(-978.908 -399.484)">
    <g id="Grupo_2591" data-name="Grupo 2591">
      <ellipse id="Elipse_166" data-name="Elipse 166" cx="106.819" cy="12.373" rx="106.819" ry="12.373" transform="translate(1006.021 775.068)" fill="#3946a4" opacity="0.24" style="mix-blend-mode: multiply;isolation: isolate"/>
      <g id="Grupo_2583" data-name="Grupo 2583">
        <g id="Grupo_2578" data-name="Grupo 2578">
          <path id="Trazado_4110" data-name="Trazado 4110" d="M1138.636,764.2s3.152,17.737-.026,19.127-17.927,4.111-37.79,4.111c-23.633,0-27.645-3.01-30.826-6.861a8.071,8.071,0,0,1-1.943-6.592c.655-4.089,1.249-7.535,6.345-6.516C1082.341,769.06,1138.636,764.2,1138.636,764.2Z" fill="#62cbc9"/>
          <path id="Trazado_4111" data-name="Trazado 4111" d="M1100.821,788.174c-23.674,0-27.945-2.954-31.393-7.128a8.854,8.854,0,0,1-2.1-7.175c.434-2.708.844-5.266,2.685-6.545a5.718,5.718,0,0,1,4.528-.573c7.747,1.547,63.469-3.233,64.032-3.282l.667-.058.118.66c.763,4.294,2.987,18.423-.453,19.928C1135.683,785.41,1120.747,788.174,1100.821,788.174Zm-28.077-20.151a3.235,3.235,0,0,0-1.9.507c-1.329.923-1.691,3.182-2.074,5.573a7.334,7.334,0,0,0,1.784,6.009c3.087,3.737,7.276,6.595,30.262,6.595,19.712,0,34.369-2.682,37.495-4.05,1.592-.7,1.093-9.58-.287-17.668-6.682.57-56.2,4.714-63.776,3.2A7.771,7.771,0,0,0,1072.744,768.023Z" fill="#999"/>
        </g>
        <g id="Grupo_2580" data-name="Grupo 2580">
          <g id="Grupo_2579" data-name="Grupo 2579">
            <path id="Trazado_4112" data-name="Trazado 4112" d="M1086.248,708.825c0,2.429,3.761,13.7,7.68,24.784,6.157.6,16.832,1.544,22.9,1.544,7.341,0,17.849-1.018,23.353-1.61,4.18-11.041,7.973-22.2,7.168-24.379l-31.054-4.219Z" fill="#e5e5e5"/>
            <path id="Trazado_4113" data-name="Trazado 4113" d="M1116.823,735.887c-6.136,0-17.023-.97-22.966-1.548l-.464-.045-.156-.441c-5.123-14.483-7.722-22.9-7.722-25.028v-.644l30.777-3.976.1.013,31.49,4.279.153.413c.3.824,1.112,3.015-7.17,24.893l-.16.421-.448.048C1134.647,734.875,1124.145,735.887,1116.823,735.887Zm-22.36-2.962c6.005.579,16.441,1.495,22.36,1.495,7.064,0,17.151-.954,22.827-1.558,6.312-16.72,7.155-21.615,7.075-23.042l-30.438-4.136-29.245,3.778C1087.334,711.365,1088.815,716.931,1094.463,732.925Z" fill="#999"/>
          </g>
        </g>
        <g id="Grupo_2581" data-name="Grupo 2581">
          <path id="Trazado_4114" data-name="Trazado 4114" d="M1069.969,768.9c-.08,3.84,3.749,9.971,9.371,10.389,16.332,1.212,54.054,1.464,58.979-3.461,6.1-6.1-4.778-23.107-4.778-23.107a2.372,2.372,0,0,0-.652-.726c1.876-4.592,4.658-11.494,7.287-18.448-5.5.592-16.012,1.61-23.353,1.61-6.063,0-16.738-.945-22.9-1.544,1.644,4.632,3.308,9.238,4.739,13.145-.426-.007-.858-.007-1.291-.007C1073.929,746.747,1070.169,759.658,1069.969,768.9Z" fill="gray"/>
          <path id="Trazado_4115" data-name="Trazado 4115" d="M1102.72,780.769c-9.1,0-17.841-.338-23.435-.753-6.171-.458-10.135-7.006-10.048-11.136h0c.328-15.173,9.8-22.866,28.139-22.866h.241c-1.411-3.857-2.951-8.134-4.379-12.16l-.386-1.085,1.147.111c5.916.575,16.749,1.54,22.824,1.54,7.253,0,17.7-1.006,23.275-1.6l1.185-.128-.421,1.115c-2.01,5.316-4.4,11.369-7.1,18a2.6,2.6,0,0,1,.42.552c.678,1.066,11.025,17.624,4.66,23.99C1135.432,779.748,1118.529,780.769,1102.72,780.769ZM1070.7,768.911c-.074,3.618,3.542,9.26,8.694,9.642,17.427,1.3,53.838,1.322,58.406-3.247,5.61-5.612-4.771-22.03-4.877-22.2l-.055-.1h0a2.705,2.705,0,0,0-.451-.457l-.41-.344.2-.495c2.59-6.34,4.9-12.158,6.858-17.316-5.81.607-15.411,1.489-22.245,1.489-5.76,0-15.7-.855-21.819-1.438,1.443,4.049,2.972,8.288,4.352,12.053l.367,1-1.067-.018c-.422-.006-.851-.006-1.28-.006-17.391,0-26.366,7.21-26.675,21.431Z" fill="#999"/>
        </g>
        <g id="Grupo_2582" data-name="Grupo 2582">
          <path id="Trazado_4116" data-name="Trazado 4116" d="M1083.175,753.492c2.259,1.865,11.821,3.19,9.228,5.161-2.388,1.815-12.742,1.047-15.92-4.849a20.24,20.24,0,0,1,4.526-2.921A12.033,12.033,0,0,0,1083.175,753.492Z" fill="#fff"/>
        </g>
        <path id="Trazado_4117" data-name="Trazado 4117" d="M1106.443,751.971a.733.733,0,0,1-.614-.331c-2.477-3.768-7.167-4.152-7.213-4.155a.733.733,0,0,1,.1-1.462,11.617,11.617,0,0,1,8.336,4.812.734.734,0,0,1-.611,1.136Z" fill="#999"/>
      </g>
      <g id="Grupo_2590" data-name="Grupo 2590">
        <g id="Grupo_2586" data-name="Grupo 2586">
          <g id="Grupo_2584" data-name="Grupo 2584">
            <path id="Trazado_4118" data-name="Trazado 4118" d="M1196.376,744.58c5.036-13.29,9.651-26.81,8.678-29.438l-37.1-5.041-35.9,4.638c0,2.962,4.69,16.948,9.477,30.451,6.3.347,19.254,1,27.061,1C1176.172,746.193,1188.195,745.284,1196.376,744.58Z" fill="#e5e5e5"/>
            <path id="Trazado_4119" data-name="Trazado 4119" d="M1168.592,746.926c-7.689,0-20.28-.629-27.1-1L1141,745.9l-.163-.46c-6.315-17.822-9.518-28.149-9.518-30.7v-.644l36.63-4.734.1.013,37.541,5.1.153.412c.326.882,1.319,3.564-8.68,29.952l-.163.432-.46.039C1187.879,746.047,1176.1,746.926,1168.592,746.926Zm-26.533-2.441c6.9.376,19.059.974,26.533.974,7.322,0,18.772-.844,27.262-1.57,7.637-20.2,8.772-26.31,8.6-28.088l-36.5-4.961-35.109,4.537C1133.167,717.8,1135.161,725,1142.059,744.485Z" fill="#999"/>
          </g>
          <g id="Grupo_2585" data-name="Grupo 2585">
            <path id="Trazado_4120" data-name="Trazado 4120" d="M1168.592,746.193c-7.807,0-20.766-.656-27.061-1,4.989,14.075,10.084,27.626,10.084,27.626h33.475s5.885-13.985,11.286-28.236C1188.195,745.284,1176.172,746.193,1168.592,746.193Z" fill="gray"/>
            <path id="Trazado_4121" data-name="Trazado 4121" d="M1185.577,773.55h-34.47l-.179-.476c-.051-.135-5.154-13.719-10.089-27.638l-.367-1.038,1.1.06c6.806.374,19.367,1,27.021,1,7.455,0,19.19-.875,27.722-1.609l1.161-.1-.413,1.09c-5.344,14.1-11.237,28.121-11.3,28.261Zm-33.455-1.467H1184.6c1.018-2.435,5.992-14.389,10.674-26.673-8.439.714-19.512,1.516-26.685,1.516-7.292,0-18.995-.566-26-.944C1146.881,758.055,1151.2,769.629,1152.122,772.083Z" fill="#999"/>
          </g>
        </g>
        <g id="Grupo_2589" data-name="Grupo 2589">
          <g id="Grupo_2587" data-name="Grupo 2587">
            <path id="Trazado_4122" data-name="Trazado 4122" d="M1197.848,779.72l3.733,8.1a2.915,2.915,0,0,1-1.356,3.27c-2.848,1.62-9.661,4.072-24.819,4.072-14.865,0-22.574-2.317-26.114-3.907a2.936,2.936,0,0,1-1.48-3.88l3.426-7.654Z" fill="#62cbc9"/>
            <path id="Trazado_4123" data-name="Trazado 4123" d="M1175.407,795.9c-14.523,0-22.38-2.161-26.415-3.972a3.677,3.677,0,0,1-1.849-4.849l3.621-8.088h47.554l3.973,8.649a3.653,3.653,0,0,1-1.7,4.092C1197.851,793.283,1190.942,795.9,1175.407,795.9Zm-23.694-15.442-3.232,7.221a2.208,2.208,0,0,0,1.112,2.911c3.195,1.436,10.8,3.843,25.814,3.843,15.2,0,21.845-2.491,24.456-3.977a2.178,2.178,0,0,0,1.023-2.388l-3.508-7.61Z" fill="#999"/>
          </g>
          <g id="Grupo_2588" data-name="Grupo 2588">
            <path id="Rectángulo_566" data-name="Rectángulo 566" d="M9.2,0H42.252a9.2,9.2,0,0,1,9.2,9.2v0A22.831,22.831,0,0,1,28.622,32.032H22.831A22.831,22.831,0,0,1,0,9.2v0A9.2,9.2,0,0,1,9.2,0Z" transform="translate(1200.342 783.446) rotate(180)" fill="gray"/>
            <path id="Trazado_4124" data-name="Trazado 4124" d="M1191.141,784.18H1158.09a9.946,9.946,0,0,1-9.934-9.935,23.591,23.591,0,0,1,23.564-23.564h5.791a23.592,23.592,0,0,1,23.565,23.564A9.947,9.947,0,0,1,1191.141,784.18Zm-19.421-32.032a22.123,22.123,0,0,0-22.1,22.1,8.478,8.478,0,0,0,8.468,8.468h33.051a8.478,8.478,0,0,0,8.468-8.468,22.123,22.123,0,0,0-22.1-22.1Z" fill="#999"/>
          </g>
          <path id="Trazado_4125" data-name="Trazado 4125" d="M1157.684,770.028c-2.57-2.113,1.659-14.613,14.843-13.556,7.715.619-3.358,3.234-7.214,5.908C1162.853,764.086,1160.254,772.14,1157.684,770.028Z" fill="#fff"/>
        </g>
      </g>
    </g>
    <g id="Grupo_2602" data-name="Grupo 2602">
      <g id="Grupo_2592" data-name="Grupo 2592">
        <path id="Trazado_4126" data-name="Trazado 4126" d="M1057.223,553.907s.928,5.995-10.1,21.956-14.591,18.019-14.591,18.019-1.922-11.788,6.366-24.909A37.805,37.805,0,0,1,1057.223,553.907Z" fill="#44ada8"/>
        <path id="Trazado_4127" data-name="Trazado 4127" d="M1032.532,594.616a.724.724,0,0,1-.315-.071.735.735,0,0,1-.409-.544c-.08-.493-1.871-12.216,6.47-25.42A38.182,38.182,0,0,1,1057,553.209a.732.732,0,0,1,.611.073.741.741,0,0,1,.34.512c.04.257.844,6.469-10.221,22.486-10.995,15.912-14.677,18.15-14.828,18.238A.743.743,0,0,1,1032.532,594.616Zm23.931-39.634a37.9,37.9,0,0,0-16.945,14.382,39.665,39.665,0,0,0-6.389,23.088c1.665-1.539,5.66-5.816,13.391-17.006C1054.763,563.517,1056.225,557.228,1056.463,554.982Z" fill="#999"/>
      </g>
      <g id="Grupo_2593" data-name="Grupo 2593">
        <path id="Trazado_4128" data-name="Trazado 4128" d="M1095.3,577.757s30.9,7.385,16.006,40.71c-8.515,19.054-22.866,10.277-29.586,5.984-15.767-10.075-54.815-47.039-54.815-47.039a13.08,13.08,0,0,1-.689-18.266h0a13.08,13.08,0,0,1,14.585-3.352Z" fill="#fff"/>
        <path id="Trazado_4129" data-name="Trazado 4129" d="M1096.824,630.972c-6.261,0-12.307-3.864-15.5-5.9-15.646-10-54.535-46.754-54.925-47.125a13.814,13.814,0,0,1,14.675-22.83l54.45,21.943c1.033.257,12.93,3.422,18.176,14.067,3.7,7.5,3.118,16.8-1.727,27.643-2.836,6.347-6.61,10.265-11.214,11.644A13.664,13.664,0,0,1,1096.824,630.972Zm-60.889-75.386a12.342,12.342,0,0,0-8.527,21.295c.389.368,39.177,37.03,54.706,46.952,3.676,2.35,11.331,7.241,18.225,5.173,4.178-1.251,7.642-4.9,10.3-10.837,4.655-10.417,5.246-19.294,1.756-26.385-5.057-10.276-17.143-13.285-17.264-13.314l-.1-.033-54.5-21.963A12.265,12.265,0,0,0,1035.935,555.586Z" fill="#999"/>
      </g>
      <g id="Grupo_2601" data-name="Grupo 2601">
        <g id="Grupo_2594" data-name="Grupo 2594">
          <path id="Trazado_4130" data-name="Trazado 4130" d="M1009.386,569.221l23.146,24.661c-1.117-30.574,24.691-39.975,24.691-39.975s-11.185-4.173-33.039-6.646c0,0,.169-11.445-14.628-15.068-15.85-3.88-23.1,10.649-22.31,20.6.876,11.074,10.414,16.571,22.14,16.425" fill="#62cbc9"/>
          <path id="Trazado_4131" data-name="Trazado 4131" d="M1032.532,594.616a.735.735,0,0,1-.535-.231l-22.925-24.428h-.164c-12.994,0-21.556-6.522-22.393-17.1-.444-5.608,1.609-13.393,7.2-18.145,4.27-3.631,9.807-4.747,16.021-3.227,13.1,3.207,14.9,12.538,15.147,15.122,21.294,2.463,32.49,6.575,32.6,6.617a.733.733,0,0,1-.005,1.375c-.253.093-25.294,9.6-24.21,39.261a.731.731,0,0,1-.732.76Zm-23.146-26.128a.731.731,0,0,1,.534.232l21.844,23.273a41.3,41.3,0,0,1,23.428-37.988c-3.953-1.234-14.459-4.133-31.09-6.016a.734.734,0,0,1-.651-.737c0-.444-.051-10.915-14.07-14.347-5.736-1.405-10.828-.393-14.721,2.92-5.192,4.416-7.1,11.677-6.684,16.913.92,11.628,11.362,15.753,20.982,15.753.14,0,.28,0,.419,0Z" fill="#999"/>
        </g>
        <path id="Trazado_4132" data-name="Trazado 4132" d="M1008.359,570.1a12.838,12.838,0,0,1-4.347-.788.733.733,0,1,1,.493-1.38c5.22,1.866,8.52-.553,8.658-.657a.733.733,0,0,1,.888,1.167A9.855,9.855,0,0,1,1008.359,570.1Z" fill="#999"/>
        <g id="Grupo_2595" data-name="Grupo 2595">
          <path id="Trazado_4133" data-name="Trazado 4133" d="M1011.9,526.7s-12.792-7.669-18.487,1.431c-6.788,10.846,7.191,17.838,7.191,17.838,4.1,2.187,9.951-2.014,12.636-5.476C1016.013,536.912,1019.437,531.555,1011.9,526.7Z" fill="#62cbc9"/>
          <path id="Trazado_4134" data-name="Trazado 4134" d="M1000.6,546.7a.724.724,0,0,1-.327-.078c-.3-.149-7.349-3.735-9.079-9.9a10.911,10.911,0,0,1,1.594-8.986c6.006-9.6,19.353-1.751,19.486-1.671a.733.733,0,1,1-.754,1.258c-.5-.3-12.244-7.189-17.489,1.191a9.5,9.5,0,0,0-1.426,7.811c1.557,5.543,8.257,8.948,8.324,8.983a.733.733,0,0,1-.329,1.388Z" fill="#999"/>
        </g>
        <g id="Grupo_2597" data-name="Grupo 2597">
          <path id="Trazado_4135" data-name="Trazado 4135" d="M1103.63,479.577c-2.95.96-8.707-6.347-18.156-5.708a52.169,52.169,0,0,0-6.92,1.022c-10.275,2.119-24.5,7.236-31.691,14.153-9.025,8.69-12.149-.257-12.149-.257l-6.941-8.453c-1.586-10.255-4.518-22.8-11.872-32.494-.5-.666-1.04-1.32-1.6-1.963-7.052-8.136-17.836-14.444-18.506-16.489-1.37-4.2,8.031-8.9,18.265-1.777-7.086-7.108-8.018-15.295-1.475-20.575s11.825-1.183,14.325,1.839c2.462,2.978,6.445,10.977,6.572,11.228-1.5-5.32-3.033-8.262-4.094-12.4-.878-3.446,2.462-6.586,5.051-5.7,3.14,1.068,6.846,12.07,7.743,14.8-1.561-7.981-.177-16.928,5.63-17.31s7.42,10.607,7.092,17.808c-.31,6.979-.245,9.869-.237,10.041,1.505-11.154,5.423-22.144,11.4-22.438s8.268,2.792,8.242,7.517-2.464,12.957-5.147,17.908c6.349-8.7,18.184-11.988,24.166-6.145s-1.257,11.111-4.344,12.7c-3.02,1.555-9.416,5.776-9.683,5.951,9.612-4.755,15.561-5.074,20.648-3.014s6.194,5.077,5.628,5.841-9.431-1.457-18.974,3.169c9.454-1.687,18.323.883,21.088,5.8s-.457,5.731-6.891,6.327c-6.243.566-15.106,2.108-15.66,2.206,11.179-.624,15.781,2.591,18.1,5.694S1106.573,478.619,1103.63,479.577Z" fill="#3946a4"/>
          <g id="Grupo_2596" data-name="Grupo 2596">
            <path id="Trazado_4136" data-name="Trazado 4136" d="M1078.554,474.891c-5.219-11.28-14.151-23.014-23.382-28.4-10.6-6.2-29.1-5.615-40.867-.609.556.643,1.094,1.3,1.6,1.963,7.354,9.7,10.286,22.239,11.872,32.494,11.711,1.84,16.022,7.163,17.69,9.933.443-.349.905-.747,1.4-1.223C1054.055,482.127,1068.279,477.01,1078.554,474.891Z" fill="#3946a4" opacity="0.2" style="mix-blend-mode: multiply;isolation: isolate"/>
          </g>
          <path id="Trazado_4137" data-name="Trazado 4137" d="M1026.06,487.842c-2.359-2.386-3.232-4.077-1.8-5.851s8.212-3.463,15.472.356,8.7,9.549,7.852,10.961-6.008,1.188-6.117,1.276S1026.06,487.842,1026.06,487.842Z" fill="#d6dbff"/>
          <path id="Trazado_4138" data-name="Trazado 4138" d="M1025.485,484.849c.366,2.292,3.081,11.3-2.03,20.676s4.5,5.97,7.313.425,13.255-13.4,13.255-13.4-1.576-3.992-7.795-6.754S1025.485,484.849,1025.485,484.849Z" fill="#3946a4"/>
          <path id="Trazado_4139" data-name="Trazado 4139" d="M985.628,587.1a3.519,3.519,0,0,1-1.545-4.733l42.7-84.094c.88-1.733,2.782-2.008,4.517-1.127s2.636,2.579,1.759,4.315l-42.7,84.093A3.516,3.516,0,0,1,985.628,587.1Z" fill="#d6dbff"/>
        </g>
        <g id="Grupo_2598" data-name="Grupo 2598">
          <path id="Trazado_4140" data-name="Trazado 4140" d="M988.237,557.951a12.008,12.008,0,0,1-4.192-2.264c-.133.15-.265.293-.4.454,0,0-3.815,7.379,1.466,13.619s18.348,5.825,20.154-2.968c.853-4.154-.653-6.76-2.478-8.354l-.136-.115C999.764,559.39,995.088,560.048,988.237,557.951Z" fill="#62cbc9"/>
          <path id="Trazado_4141" data-name="Trazado 4141" d="M995.094,574.716a14.034,14.034,0,0,1-10.54-4.483c-5.533-6.539-1.6-14.35-1.557-14.428a.866.866,0,0,1,.082-.125c.1-.127.207-.243.311-.36l.1-.118a.734.734,0,0,1,1.019-.078,11.26,11.26,0,0,0,3.937,2.125h0c6.772,2.073,11.324,1.354,13.949.387a.726.726,0,0,1,.72.122l.1.081c1.824,1.591,3.732,4.415,2.769,9.1a9.548,9.548,0,0,1-7.419,7.35A14.074,14.074,0,0,1,995.094,574.716Zm-10.912-17.99c-.592,1.3-2.936,7.328,1.491,12.56,2.735,3.232,8.01,4.737,12.53,3.583a8.144,8.144,0,0,0,6.347-6.224c.639-3.112-.053-5.629-2.057-7.488-2.887.967-7.645,1.584-14.471-.506h0A12.72,12.72,0,0,1,984.182,556.726Z" fill="#999"/>
        </g>
        <g id="Grupo_2599" data-name="Grupo 2599">
          <path id="Trazado_4142" data-name="Trazado 4142" d="M1010.106,543.6c-2.9,2.29-6.631,3.9-9.506,2.365,0,0-10.032-5.021-8.967-13.153-.075.017-.147.03-.223.046-13.382,2.982-14.632,16.775-7.365,22.826a12.008,12.008,0,0,0,4.192,2.264c6.851,2.1,11.527,1.439,14.417.372a10.13,10.13,0,0,0,3.7-2.182S1011.837,550.817,1010.106,543.6Z" fill="#62cbc9"/>
          <path id="Trazado_4143" data-name="Trazado 4143" d="M996.6,560.052a29.32,29.32,0,0,1-8.583-1.4,12.732,12.732,0,0,1-4.446-2.4,13.378,13.378,0,0,1-4.286-13.38c1.311-5.414,5.67-9.323,11.961-10.725l.224-.046a.733.733,0,0,1,.885.811c-.985,7.512,8.473,12.354,8.568,12.4,2.182,1.164,5.439.307,8.724-2.285a.733.733,0,0,1,1.167.4c1.807,7.533-3.722,13.006-3.958,13.235a10.892,10.892,0,0,1-3.953,2.343A18.124,18.124,0,0,1,996.6,560.052Zm-5.782-26.288c-5.357,1.435-8.991,4.839-10.108,9.453a11.9,11.9,0,0,0,3.8,11.907,11.26,11.26,0,0,0,3.937,2.125c6.772,2.073,11.324,1.354,13.949.387a9.7,9.7,0,0,0,3.417-2c.069-.07,4.626-4.6,3.786-10.748-3.478,2.427-6.841,3.063-9.348,1.723C999.86,546.417,990.6,541.687,990.823,533.764Z" fill="#999"/>
        </g>
        <g id="Grupo_2600" data-name="Grupo 2600">
          <path id="Trazado_4144" data-name="Trazado 4144" d="M1024.173,549.321s2.439-12.5-6.808-16.868-16.359,2.642-16.765,13.515,8.521,12.015,11.932,9.055a21.906,21.906,0,0,0,5.138-6.922Z" fill="#62cbc9"/>
          <path id="Trazado_4145" data-name="Trazado 4145" d="M1008.394,557.153a8.19,8.19,0,0,1-3.525-.785c-1.978-.947-5.258-3.562-5-10.428.237-6.37,2.769-11.625,6.771-14.056,3.218-1.954,7.034-1.986,11.04-.094,9.649,4.561,7.239,17.54,7.214,17.671a.743.743,0,0,1-.86.579.733.733,0,0,1-.58-.859c.024-.12,2.213-11.994-6.4-16.065-3.539-1.673-6.876-1.665-9.651.021-3.58,2.176-5.849,6.982-6.069,12.858-.167,4.468,1.315,7.683,4.17,9.051a6.25,6.25,0,0,0,6.55-.576,21.265,21.265,0,0,0,4.946-6.661.733.733,0,1,1,1.344.586,22.473,22.473,0,0,1-5.329,7.182A7.081,7.081,0,0,1,1008.394,557.153Z" fill="#999"/>
        </g>
      </g>
    </g>
    <g id="Grupo_2614" data-name="Grupo 2614">
      <g id="Grupo_2604" data-name="Grupo 2604">
        <g id="Grupo_2603" data-name="Grupo 2603">
          <path id="Trazado_4146" data-name="Trazado 4146" d="M1045.978,715.39c-4.413-13.414,1.793-59.144,22.863-93.084,25.726-41.44,16.6-162.032,80.7-162.032s37.592,116.356,62.937,157.8c20.842,34.081,33.513,86.215,21.115,98.613,0,0-23.976,10.805-57.756,10.805s-68.39-5.276-93.187-5.276S1045.978,715.39,1045.978,715.39Z" fill="#fff"/>
          <path id="Trazado_4147" data-name="Trazado 4147" d="M1175.834,728.225c-18.223,0-37.07-1.566-53.7-2.946-14.437-1.2-28.075-2.331-39.486-2.331-24.708,0-36.545-6.639-37.036-6.922l-.244-.139-.087-.267c-4.3-13.079,1.139-58.588,22.936-93.7,8.741-14.08,13.44-37.435,18.414-62.162,9.451-46.974,20.163-100.216,62.907-100.216,41.241,0,45.526,46.779,49.671,92.018,2.406,26.261,4.679,51.067,13.891,66.131,20.16,32.966,34.094,86.43,21.009,99.515l-.218.149C1233.651,717.464,1209.384,728.225,1175.834,728.225Zm-129.248-13.34c1.812.937,13.688,6.6,36.063,6.6,11.471,0,25.138,1.135,39.607,2.336,16.6,1.379,35.415,2.941,53.578,2.941,31.995,0,55.439-9.864,57.333-10.687,11.465-11.8.557-61.847-21.317-97.615-9.391-15.356-11.678-40.327-14.1-66.764-4.084-44.583-8.307-90.684-48.21-90.684-41.544,0-52.13,52.616-61.469,99.039-5,24.859-9.726,48.341-18.606,62.645C1048.383,656.651,1042.641,701.987,1046.586,714.885Z" fill="#999"/>
        </g>
        <path id="Trazado_4148" data-name="Trazado 4148" d="M1118.067,629.042c-.165,0-.33-.009-.5-.025-.217-.021-22.371-2.089-32.4-3.506-3.91-.552-9.44-1.408-16.437-2.546a.733.733,0,1,1,.234-1.447c6.988,1.135,12.509,1.991,16.408,2.542,9.992,1.411,32.112,3.476,32.335,3.5a3.412,3.412,0,0,0,3.75-3.052l1.871-18.418a3.41,3.41,0,0,0-3.929-3.719c-5.317.852-15.155-.146-30.049-1.661-2.589-.263-5.051-.724-7.223-1.13-1.273-.238-2.475-.463-3.589-.628a.733.733,0,0,1-.618-.833.745.745,0,0,1,.833-.618c1.141.17,2.356.4,3.644.638,2.143.4,4.573.855,7.1,1.112,14.781,1.5,24.543,2.494,29.668,1.673a4.878,4.878,0,0,1,5.621,5.314l-1.871,18.418A4.891,4.891,0,0,1,1118.067,629.042Z" fill="#999"/>
      </g>
      <g id="Grupo_2613" data-name="Grupo 2613">
        <path id="Trazado_4149" data-name="Trazado 4149" d="M1112.2,556.087a3.934,3.934,0,0,1-1.55-.275,2.313,2.313,0,0,1-1.309-1.394,2.528,2.528,0,0,1,.257-2.483,2.783,2.783,0,0,1,.959-.777,3.531,3.531,0,0,1-1.208-1.625,2.475,2.475,0,0,1,.689-2.753c.743-.641,2.524-1.432,6.131.514a.734.734,0,0,1-.7,1.291c-3.018-1.63-4.185-.945-4.472-.7a1.023,1.023,0,0,0-.276,1.135,2.592,2.592,0,0,0,2.364,1.547,8.086,8.086,0,0,1,.862,0,.733.733,0,0,1,.039,1.46,4.966,4.966,0,0,1-.938.01,3.411,3.411,0,0,0-2.285.782c-.072.1-.292.388-.04,1.117a.839.839,0,0,0,.5.527c1.166.5,3.8-.3,5.186-.927a.733.733,0,1,1,.6,1.336A13.754,13.754,0,0,1,1112.2,556.087Z" fill="#999"/>
        <path id="Trazado_4150" data-name="Trazado 4150" d="M1178.037,499.525a46.787,46.787,0,0,0-11.247-29.885c.223-4.55-.755-7.057-4.063-9.809s-13.92-10.016-22.544-7.551-9.762,5.35-10.423,7.274-2.353,6.661-2.353,6.661c3.421-2.087,8.121-1.107,9.513.4,2.743-2.433,16.647-8.331,28.829,7.9A64.292,64.292,0,0,1,1177.1,499.4Z" fill="#afb9ff"/>
        <path id="Trazado_4151" data-name="Trazado 4151" d="M1100.262,508.074a1,1,0,0,1-.146-1.989c48.237-7.18,91.6-1.574,92.036-1.518a1,1,0,0,1-.264,1.983c-.429-.058-43.527-5.624-91.478,1.514A1.225,1.225,0,0,1,1100.262,508.074Z" fill="#999"/>
        <path id="Trazado_4152" data-name="Trazado 4152" d="M1100.262,516.529a1,1,0,0,1-.146-1.989c48.24-7.179,92.967-1.31,93.415-1.25a1,1,0,0,1-.268,1.983c-.443-.06-44.9-5.893-92.853,1.246A1.219,1.219,0,0,1,1100.262,516.529Z" fill="#999"/>
        <g id="Grupo_2612" data-name="Grupo 2612">
          <g id="Grupo_2605" data-name="Grupo 2605">
            <path id="Trazado_4153" data-name="Trazado 4153" d="M1115.121,540.274l30.2,2.256a17.23,17.23,0,0,0,17.23-17.23V498.254a17.23,17.23,0,0,0-17.23-17.23h-29.307a17.23,17.23,0,0,0-17.23,17.23l-.894,24.79A17.23,17.23,0,0,0,1115.121,540.274Z" fill="#cbcbcb"/>
            <path id="Trazado_4154" data-name="Trazado 4154" d="M1145.323,543.264l-30.23-2.257a17.983,17.983,0,0,1-17.935-17.963l.9-24.816a17.977,17.977,0,0,1,17.962-17.937h29.308a17.984,17.984,0,0,1,17.962,17.963V525.3A17.984,17.984,0,0,1,1145.323,543.264Zm-29.308-61.506a16.515,16.515,0,0,0-16.5,16.5l-.9,24.816a16.511,16.511,0,0,0,16.5,16.47l.055,0,30.2,2.257a16.507,16.507,0,0,0,16.442-16.5V498.254a16.515,16.515,0,0,0-16.5-16.5Z" fill="#999"/>
          </g>
          <g id="Grupo_2611" data-name="Grupo 2611">
            <g id="Grupo_2606" data-name="Grupo 2606">
              <path id="Trazado_4155" data-name="Trazado 4155" d="M1109.737,538.038l30.2,2.256a17.23,17.23,0,0,0,17.23-17.23V496.018a17.23,17.23,0,0,0-17.23-17.23h-29.307a17.23,17.23,0,0,0-17.23,17.23l-.894,24.79A17.23,17.23,0,0,0,1109.737,538.038Z" fill="#fff"/>
              <path id="Trazado_4156" data-name="Trazado 4156" d="M1139.939,541.027l-30.23-2.255a17.984,17.984,0,0,1-17.935-17.964l.894-24.817a17.977,17.977,0,0,1,17.963-17.936h29.308a17.984,17.984,0,0,1,17.963,17.963v27.047A17.984,17.984,0,0,1,1139.939,541.027Zm-29.308-61.5a16.515,16.515,0,0,0-16.5,16.5l-.9,24.816a16.513,16.513,0,0,0,16.5,16.471l.054,0,30.2,2.256a16.508,16.508,0,0,0,16.442-16.5V496.018a16.515,16.515,0,0,0-16.5-16.5Z" fill="#999"/>
            </g>
            <g id="Grupo_2610" data-name="Grupo 2610">
              <g id="Grupo_2607" data-name="Grupo 2607">
                <line id="Línea_125" data-name="Línea 125" x1="16.45" y1="19.881" transform="translate(1112.84 489.313)" fill="#fff"/>
                <path id="Trazado_4157" data-name="Trazado 4157" d="M1129.29,509.194c-1.476-1.569-2.9-3.185-4.309-4.807s-2.78-3.282-4.172-4.921c-1.351-1.673-2.724-3.329-4.054-5.019s-2.651-3.389-3.915-5.134c1.478,1.569,2.9,3.185,4.31,4.807s2.78,3.282,4.171,4.922c1.35,1.675,2.725,3.328,4.053,5.02S1128.025,507.45,1129.29,509.194Z" fill="#999"/>
              </g>
              <g id="Grupo_2608" data-name="Grupo 2608">
                <line id="Línea_126" data-name="Línea 126" x1="16.45" y1="19.881" transform="translate(1101.225 500.928)" fill="#fff"/>
                <path id="Trazado_4158" data-name="Trazado 4158" d="M1117.676,520.809c-1.477-1.569-2.9-3.185-4.309-4.808s-2.78-3.282-4.172-4.921c-1.351-1.673-2.724-3.328-4.054-5.019s-2.651-3.388-3.916-5.133c1.478,1.568,2.9,3.184,4.31,4.807s2.781,3.281,4.172,4.921c1.349,1.675,2.724,3.328,4.053,5.02S1116.411,519.065,1117.676,520.809Z" fill="#999"/>
              </g>
              <g id="Grupo_2609" data-name="Grupo 2609">
                <line id="Línea_127" data-name="Línea 127" x1="27.755" y1="31.186" transform="translate(1101.535 489.468)" fill="#fff"/>
                <path id="Trazado_4159" data-name="Trazado 4159" d="M1129.29,520.654c-2.415-2.508-4.776-5.064-7.129-7.627l-7-7.745-6.881-7.847c-2.273-2.635-4.538-5.276-6.748-7.967,2.416,2.507,4.777,5.063,7.13,7.627l7,7.745,6.881,7.848C1124.815,515.322,1127.08,517.964,1129.29,520.654Z" fill="#999"/>
              </g>
            </g>
          </g>
        </g>
      </g>
    </g>
    <g id="Grupo_2620" data-name="Grupo 2620">
      <g id="Grupo_2615" data-name="Grupo 2615">
        <path id="Trazado_4160" data-name="Trazado 4160" d="M1183.563,619.4s9.531-13.687,44.571-16.924c0,0,1.92,10.444-18,16.924S1183.563,619.4,1183.563,619.4Z" fill="#44ada8"/>
        <path id="Trazado_4161" data-name="Trazado 4161" d="M1194.363,623.022c-8,0-11.122-2.912-11.312-3.1a.734.734,0,0,1-.09-.945c.4-.57,10.128-14,45.106-17.235a.738.738,0,0,1,.788.6c.084.452,1.8,11.15-18.494,17.754A52.212,52.212,0,0,1,1194.363,623.022Zm-9.751-3.751c1.918,1.247,9.161,4.681,25.3-.568,16.188-5.266,17.522-13.1,17.543-15.425C1197.719,606.183,1186.826,616.736,1184.612,619.271Zm-1.049.129h0Z" fill="#999"/>
      </g>
      <g id="Grupo_2616" data-name="Grupo 2616">
        <path id="Trazado_4162" data-name="Trazado 4162" d="M1158.9,584.84c-1.8,11.445,2.64,17.822,10.08,22.111s15.84,7.163,20.88,16.046,17.52,13.683,25.44,8.4,1.68-22.32-3.12-34.08-14.44-27.542-23.388-30.406S1160.824,572.6,1158.9,584.84Z" fill="#fff"/>
        <path id="Trazado_4163" data-name="Trazado 4163" d="M1207.651,634.329a18.737,18.737,0,0,1-4.323-.522,22.669,22.669,0,0,1-14.1-10.449c-3.937-6.936-10.112-10.181-16.085-13.319-1.493-.785-3.038-1.6-4.523-2.453a21.257,21.257,0,0,1-8.814-8.72.733.733,0,0,1,1.309-.662,19.848,19.848,0,0,0,8.237,8.112c1.461.842,2.992,1.647,4.473,2.424,6.16,3.238,12.53,6.584,16.678,13.9a21.156,21.156,0,0,0,13.166,9.745,14.146,14.146,0,0,0,11.231-1.59c7.982-5.322.011-24.852-3.393-33.192-5.282-12.945-14.856-27.4-22.933-29.987a.733.733,0,1,1,.447-1.4c8.9,2.85,18.6,17.978,23.844,30.828,5.848,14.331,10.761,29.691,2.847,34.968A14.4,14.4,0,0,1,1207.651,634.329Z" fill="#999"/>
      </g>
      <g id="Grupo_2617" data-name="Grupo 2617">
        <path id="Trazado_4164" data-name="Trazado 4164" d="M1225.014,633.6c2.77-9.832,3.093-24.652,3.121-29.509-.341,3.181-2.865,10.388-18,15.312-19.92,6.48-26.571,0-26.571,0s7.371,9.6,5.583,15.276-9.252,15.2-9.972,22.614,5.04,9.63,9.621,9.584,2.379-4.034,9.339-2.594c19.1,3.951,23.04-.48,27.716-6.99s-2.275-15.367-2.275-15.367S1223.334,639.56,1225.014,633.6Z" fill="#62cbc9"/>
        <path id="Trazado_4165" data-name="Trazado 4165" d="M1188.65,667.608a10.941,10.941,0,0,1-8.136-3.1,9.035,9.035,0,0,1-2.069-7.293c.455-4.686,3.474-10.111,6.138-14.9a49.728,49.728,0,0,0,3.864-7.867c1.652-5.245-5.394-14.515-5.466-14.608a.734.734,0,0,1,1.094-.972c.061.059,6.688,6.057,25.833-.172,14.891-4.845,17.2-11.888,17.5-14.692a.745.745,0,0,1,.769-.655.734.734,0,0,1,.692.737c-.026,4.438-.33,19.7-3.148,29.7h0a29.745,29.745,0,0,0-1.423,7.866c1.036,1.4,6.754,9.644,2.149,16.056-5.124,7.133-9.6,11.18-28.46,7.28-3.62-.75-4.4.026-5.287.925a4.857,4.857,0,0,1-3.9,1.684Zm-2.668-45.983c2.122,3.358,5.157,9.165,3.863,13.272a50.485,50.485,0,0,1-3.981,8.138c-2.594,4.661-5.535,9.944-5.96,14.326a7.644,7.644,0,0,0,1.691,6.161c2.148,2.342,5.575,2.62,7.073,2.62h.119a3.4,3.4,0,0,0,2.871-1.252c1.262-1.268,2.548-2.172,6.625-1.326,19.293,3.99,22.681-.728,26.971-6.7,4.3-5.993-2.19-14.4-2.257-14.486a.739.739,0,0,1-.152-.379c-.011-.1-.234-2.571,1.463-8.6h0c2.123-7.533,2.794-18.159,3-24.689-2.043,3.558-6.649,8.037-16.95,11.389C1197.185,624.383,1189.674,623.1,1185.982,621.625Z" fill="#999"/>
      </g>
      <g id="Grupo_2618" data-name="Grupo 2618">
        <path id="Trazado_4166" data-name="Trazado 4166" d="M1174.084,651.222s-6.575,11.914,2.631,18.489" fill="#fff"/>
        <path id="Trazado_4167" data-name="Trazado 4167" d="M1174.084,651.222a23.124,23.124,0,0,0-.853,2.407,19.79,19.79,0,0,0-.632,2.452,19.262,19.262,0,0,0-.382,4.985,12.27,12.27,0,0,0,1.324,4.751l.616,1.089.785.981a5.235,5.235,0,0,0,.854.931c.309.289.614.588.919.893a10.957,10.957,0,0,1-3.664-3.616,11.12,11.12,0,0,1-1.564-4.976,15.866,15.866,0,0,1,.566-5.168A17.621,17.621,0,0,1,1174.084,651.222Z" fill="#999"/>
      </g>
      <g id="Grupo_2619" data-name="Grupo 2619">
        <path id="Trazado_4168" data-name="Trazado 4168" d="M1226.818,672.121s-12,11.512-28.846,1.449" fill="#fff"/>
        <path id="Trazado_4169" data-name="Trazado 4169" d="M1226.819,672.121a20.52,20.52,0,0,1-6.5,4.215,21.931,21.931,0,0,1-7.625,1.686,14.609,14.609,0,0,1-1.962-.036,11.919,11.919,0,0,1-1.951-.185l-1.936-.315c-.63-.17-1.256-.358-1.88-.548l-.935-.282c-.3-.115-.6-.252-.9-.378l-1.79-.768c-1.154-.591-2.258-1.28-3.362-1.94,1.188.516,2.317,1.137,3.509,1.612l1.8.662c.3.108.6.227.9.325l.93.228q.931.222,1.854.469l1.89.273a11.373,11.373,0,0,0,1.9.147,14.54,14.54,0,0,0,1.9.005,22.812,22.812,0,0,0,7.449-1.477c.6-.2,1.179-.483,1.773-.721.577-.272,1.148-.563,1.712-.865A22.481,22.481,0,0,0,1226.819,672.121Z" fill="#999"/>
      </g>
    </g>
  </g>
</svg>
