<svg xmlns="http://www.w3.org/2000/svg" width="174.47" height="48.057" viewBox="0 0 174.47 48.057">
  <g id="Grupo_2623" data-name="Grupo 2623" transform="translate(-805.801 -465.542)">
    <g id="Grupo_2621" data-name="Grupo 2621">
      <path id="Trazado_4170" data-name="Trazado 4170" d="M810.72,473.284a6.787,6.787,0,0,1,.22-1.693,8.046,8.046,0,0,1,.622-1.646,7.73,7.73,0,0,1,.975-1.465A6.975,6.975,0,0,1,813.8,467.3a5.9,5.9,0,0,1,1.514-.785,5.14,5.14,0,0,1,1.719-.288,3.193,3.193,0,0,1,2.668,1.293,4.032,4.032,0,0,1,.654,1.351,5.678,5.678,0,0,1,.213,1.547,9.212,9.212,0,0,1-.409,2.709,7.61,7.61,0,0,1-1.211,2.39,6.18,6.18,0,0,1-1.989,1.7,5.606,5.606,0,0,1-2.725.647,2.9,2.9,0,0,1-1.58-.418,3.576,3.576,0,0,1-1.1-1.08,4.791,4.791,0,0,1-.637-1.474A6.533,6.533,0,0,1,810.72,473.284Zm1.391.361a3.218,3.218,0,0,0,.148.932,3.5,3.5,0,0,0,.409.9,2.393,2.393,0,0,0,.662.687,1.551,1.551,0,0,0,.909.278,4.046,4.046,0,0,0,2-.5,5.38,5.38,0,0,0,1.555-1.293,6.035,6.035,0,0,0,1.014-1.776,5.6,5.6,0,0,0,.361-1.947q0-.557-.033-1.147a3.63,3.63,0,0,0-.213-1.071,1.585,1.585,0,0,0-1.669-1.089c-.154,0-.358.006-.614.017a4.986,4.986,0,0,0-.761.09,2.483,2.483,0,0,0-.663.22.451.451,0,0,0-.286.409.4.4,0,0,0,.056.14c.038.07.079.145.123.221s.082.15.115.22a.461.461,0,0,1,.049.14c0,.022-.044.079-.131.172a.733.733,0,0,1-.212.172,5.46,5.46,0,0,0-1.368.531,2.485,2.485,0,0,0-.867.827,3.421,3.421,0,0,0-.45,1.211A9.1,9.1,0,0,0,812.111,473.645Z" fill="#fff"/>
      <path id="Trazado_4171" data-name="Trazado 4171" d="M817.693,482.991a1.6,1.6,0,0,1,.867.245q.393.246.828.533a8.32,8.32,0,0,0,.94.532,2.688,2.688,0,0,0,1.179.245,5.04,5.04,0,0,0,1.309-.172,3.656,3.656,0,0,0,1.146-.523,2.652,2.652,0,0,0,.818-.917,2.718,2.718,0,0,0,.312-1.334,18.078,18.078,0,0,0-.2-2.652q-.2-1.375-.524-2.742t-.687-2.659q-.369-1.293-.68-2.391a.462.462,0,0,0-.016-.081.472.472,0,0,1-.016-.082.463.463,0,0,1,.229-.45,1.024,1.024,0,0,1,.49-.123,1.773,1.773,0,0,1,.2.017c.087.01.141.016.163.016q.507,1.276.958,2.61t.794,2.709a27.4,27.4,0,0,1,.54,2.758,19.474,19.474,0,0,1,.2,2.742,4.911,4.911,0,0,1-.368,1.932,4.235,4.235,0,0,1-1.024,1.473,4.535,4.535,0,0,1-1.563.933,5.783,5.783,0,0,1-1.972.328,6.377,6.377,0,0,1-1.4-.156,4.138,4.138,0,0,1-1.261-.5,2.657,2.657,0,0,1-.908-.908A2.606,2.606,0,0,1,817.693,482.991Zm3.847-16.565v-.2a1.522,1.522,0,0,1,.032-.3.716.716,0,0,1,.115-.27.282.282,0,0,1,.245-.115.963.963,0,0,1,.426.074.516.516,0,0,1,.213.18.627.627,0,0,1,.081.262,3.346,3.346,0,0,1,.017.352,2.938,2.938,0,0,1-.017.294,1.438,1.438,0,0,1-.065.312.454.454,0,0,1-.475.327.487.487,0,0,1-.31-.09.561.561,0,0,1-.172-.221.981.981,0,0,1-.075-.3C821.545,466.628,821.54,466.524,821.54,466.426Z" fill="#fff"/>
      <path id="Trazado_4172" data-name="Trazado 4172" d="M826.5,474.512a3.906,3.906,0,0,1,.474-1.89,5,5,0,0,1,1.253-1.507,6.139,6.139,0,0,1,1.751-.99,5.676,5.676,0,0,1,1.973-.359,1.512,1.512,0,0,1,.99.359,3.18,3.18,0,0,1,.729.876,4.714,4.714,0,0,1,.45,1.089,3.917,3.917,0,0,1,.155,1,3.833,3.833,0,0,1-.442,1.776,5.593,5.593,0,0,1-1.146,1.523,5.925,5.925,0,0,1-1.588,1.071,4.169,4.169,0,0,1-1.767.41,2.958,2.958,0,0,1-1.326-.27,2.331,2.331,0,0,1-.867-.721,3.075,3.075,0,0,1-.484-1.064A5.308,5.308,0,0,1,826.5,474.512Zm1.391.164a3.345,3.345,0,0,0,.074.745,1.306,1.306,0,0,0,.262.548,1.193,1.193,0,0,0,.5.352,2.126,2.126,0,0,0,.77.122,2.478,2.478,0,0,0,1.211-.335,4.493,4.493,0,0,0,1.866-1.989,2.821,2.821,0,0,0,.294-1.211,3.669,3.669,0,0,0-.049-.573,2.266,2.266,0,0,0-.164-.572,1.194,1.194,0,0,0-.327-.443.805.805,0,0,0-.54-.179,1.625,1.625,0,0,0-.7.2,5.88,5.88,0,0,0-.835.507,8.382,8.382,0,0,0-.852.7c-.278.262-.531.523-.761.786a4.642,4.642,0,0,0-.548.753A1.288,1.288,0,0,0,827.89,474.676Z" fill="#fff"/>
      <path id="Trazado_4173" data-name="Trazado 4173" d="M842.1,470.96a1.23,1.23,0,0,1,.14-.638q.14-.229.6-.229c.032,0,.094,0,.187.008l.172.008q.116.507.238,1.1c.081.4.177.8.287,1.2s.231.8.368,1.2a5.275,5.275,0,0,0,.5,1.064,1.847,1.847,0,0,0,.426-.737,6.161,6.161,0,0,0,.2-.859q.066-.434.123-.835a1.737,1.737,0,0,1,.237-.687,1.025,1.025,0,0,1,.532-.417,1.8,1.8,0,0,1,.974,0,2.072,2.072,0,0,1,1.1.253,2.769,2.769,0,0,1,.712.638q.3.385.588.819a3.3,3.3,0,0,0,.729.777q.1-.213.246-.531a6.034,6.034,0,0,1,.368-.672q.222-.352.475-.7a5.613,5.613,0,0,1,.532-.639,3.276,3.276,0,0,1,.572-.475,1.072,1.072,0,0,1,.574-.188,1.739,1.739,0,0,1,1.162.418,3.74,3.74,0,0,1,.842,1.047,6.847,6.847,0,0,1,.582,1.408,14.676,14.676,0,0,1,.36,1.5q.13.721.188,1.318c.038.4.057.685.057.86a.486.486,0,0,1-.1.327.6.6,0,0,1-.246.172,1.185,1.185,0,0,1-.318.073,3.083,3.083,0,0,1-.319.017.981.981,0,0,1-.1-.008c-.044-.006-.093-.014-.148-.025s-.1-.027-.179-.049l-1.065-4.894c0-.033-.043-.1-.131-.188a.819.819,0,0,0-.2-.172.188.188,0,0,1-.082-.017.125.125,0,0,1-.049-.008.061.061,0,0,0-.032-.008.938.938,0,0,0-.646.278,3.275,3.275,0,0,0-.566.7,7.779,7.779,0,0,0-.491.949q-.228.525-.409,1.04t-.319.949c-.092.289-.167.51-.221.663a.925.925,0,0,1-.262.057,2.523,2.523,0,0,1-.262.025.837.837,0,0,1-.7-.32,2.617,2.617,0,0,1-.4-.793,7.994,7.994,0,0,1-.263-1.04,8.074,8.074,0,0,0-.262-1.039,2.337,2.337,0,0,0-.425-.794.942.942,0,0,0-.761-.319c-.12,0-.234.12-.344.36a5.156,5.156,0,0,0-.3.908c-.087.367-.169.759-.245,1.179s-.14.813-.188,1.179-.1.8-.139,1.3a.4.4,0,0,1-.131.106c-.065.038-.134.079-.2.123a.922.922,0,0,1-.213.1.6.6,0,0,1-.155.033,1.262,1.262,0,0,1-.884-.417,4.343,4.343,0,0,1-.777-1.081,10.68,10.68,0,0,1-.639-1.465c-.191-.534-.352-1.059-.482-1.571s-.233-.977-.3-1.392A6.221,6.221,0,0,1,842.1,470.96Z" fill="#fff"/>
      <path id="Trazado_4174" data-name="Trazado 4174" d="M856.829,473.284a7.517,7.517,0,0,1,.213-1.767,4.922,4.922,0,0,1,.679-1.588,3.692,3.692,0,0,1,1.211-1.146,3.485,3.485,0,0,1,1.809-.442,2.415,2.415,0,0,1,1.064.222,2.334,2.334,0,0,1,.769.581,2.388,2.388,0,0,1,.467.842,3.293,3.293,0,0,1,.155,1.007,3.631,3.631,0,0,1-.385,1.62,4.613,4.613,0,0,1-1.03,1.383,4.314,4.314,0,0,1-1.481.9,3.164,3.164,0,0,1-1.7.14,1.051,1.051,0,0,0,.32.761,1.971,1.971,0,0,0,.728.433,3.656,3.656,0,0,0,.884.189c.306.027.578.041.818.041a3.658,3.658,0,0,0,.705-.065c.217-.044.436-.093.655-.148s.438-.1.662-.147a3.768,3.768,0,0,1,.712-.066,2.642,2.642,0,0,1,.295.017.959.959,0,0,1,.278.073.5.5,0,0,1,.213.181.528.528,0,0,1,.082.3.663.663,0,0,1-.229.516,2.05,2.05,0,0,1-.581.352,3.686,3.686,0,0,1-.778.221q-.426.073-.826.115t-.737.048c-.224.006-.39.009-.5.009a4.994,4.994,0,0,1-1.882-.336,3.954,3.954,0,0,1-1.408-.932,4.017,4.017,0,0,1-.876-1.441A5.488,5.488,0,0,1,856.829,473.284Zm1.735-1.063a1.7,1.7,0,0,0,.156.835q.155.261.761.261a2.32,2.32,0,0,0,.834-.155,2.563,2.563,0,0,0,.745-.434,2.111,2.111,0,0,0,.533-.655,1.751,1.751,0,0,0,.2-.818,3.325,3.325,0,0,0-.041-.508,1.342,1.342,0,0,0-.172-.482,1.119,1.119,0,0,0-.336-.361.93.93,0,0,0-.531-.138,1.824,1.824,0,0,0-.893.22,2.2,2.2,0,0,0-.678.574,2.545,2.545,0,0,0-.426.785A2.686,2.686,0,0,0,858.564,472.221Z" fill="#fff"/>
      <path id="Trazado_4175" data-name="Trazado 4175" d="M873.509,471.8a3.3,3.3,0,0,1,.736-2.357,3,3,0,0,1,2.26-.769,7.576,7.576,0,0,1,1.284.114,4.178,4.178,0,0,1,1.22.4,2.442,2.442,0,0,1,.908.794,2.248,2.248,0,0,1,.352,1.308,3.714,3.714,0,0,1-.384,1.662,7.1,7.1,0,0,1-.966,1.457,10.794,10.794,0,0,1-1.278,1.26q-.695.582-1.3,1.105a.937.937,0,0,0-.058.27c-.016.137-.024.227-.024.271a2.145,2.145,0,0,0,.319,1.087q.32.551.7,1.114a11.905,11.905,0,0,1,.688,1.17,2.729,2.729,0,0,1,.311,1.26c0,.262-.054.418-.164.467a2.025,2.025,0,0,1-.687.073,1.535,1.535,0,0,1-.647-.613,8.56,8.56,0,0,1-.638-1.187q-.318-.7-.623-1.579t-.572-1.785q-.27-.908-.508-1.8t-.417-1.645q-.18-.753-.319-1.3C873.6,472.207,873.542,471.948,873.509,471.8Zm1.391.147c0,.164.011.4.032.712a6.038,6.038,0,0,0,.14.925,2.521,2.521,0,0,0,.319.794.663.663,0,0,0,.589.336,1.843,1.843,0,0,0,1.024-.344,3.834,3.834,0,0,0,.916-.868,5.2,5.2,0,0,0,.655-1.121,2.817,2.817,0,0,0,.254-1.089.99.99,0,0,0-.2-.646,1.393,1.393,0,0,0-.5-.376,2.136,2.136,0,0,0-.647-.18,5.591,5.591,0,0,0-.654-.041,1.94,1.94,0,0,0-1.433.5A1.892,1.892,0,0,0,874.9,471.942Z" fill="#fff"/>
      <path id="Trazado_4176" data-name="Trazado 4176" d="M882.151,465.559a1.231,1.231,0,0,1,.524.425.8.8,0,0,1,.188.533c-.017.158-.139.266-.368.327a2.267,2.267,0,0,1-1.146-.189,1.625,1.625,0,0,1,.172-.769A.648.648,0,0,1,882.151,465.559Zm-.229,6.138c0-.066,0-.172.008-.319s.011-.3.016-.467.011-.321.017-.474.008-.262.008-.328a1.411,1.411,0,0,1,.466-.425,3.183,3.183,0,0,1,.581-.262,11.325,11.325,0,0,0,.279,1.882q.23,1,.491,2.005t.467,1.989a9.1,9.1,0,0,1,.2,1.833.659.659,0,0,1-.753.737.963.963,0,0,1-.77-.377,2.894,2.894,0,0,1-.5-.958,8.672,8.672,0,0,1-.3-1.293,14.047,14.047,0,0,1-.156-1.4q-.04-.687-.049-1.26T881.922,471.7Z" fill="#fff"/>
      <path id="Trazado_4177" data-name="Trazado 4177" d="M888.24,477.1q.262-.18.631-.467t.744-.614a8.629,8.629,0,0,0,.7-.687,3.923,3.923,0,0,0,.516-.7,1.3,1.3,0,0,0,.188-.63.577.577,0,0,0-.295-.491c-.349,0-.731.013-1.145.041s-.83.038-1.244.032a7.582,7.582,0,0,1-1.2-.107,3.1,3.1,0,0,1-1.04-.359,1.918,1.918,0,0,1-.728-.745,2.5,2.5,0,0,1-.271-1.235,3.713,3.713,0,0,1,.336-1.6,4.362,4.362,0,0,1,.892-1.26,6.669,6.669,0,0,1,1.253-.966,10.982,10.982,0,0,1,1.4-.712,2.1,2.1,0,0,1,.786.41,3.553,3.553,0,0,1,.622.654.971.971,0,0,1-.451.557,4.15,4.15,0,0,1-.769.343c-.289.1-.592.2-.908.312a3.4,3.4,0,0,0-.86.433,2.306,2.306,0,0,0-.646.7,2.18,2.18,0,0,0-.262,1.137,1.007,1.007,0,0,0,.262.77,1.411,1.411,0,0,0,.687.336,3.864,3.864,0,0,0,.966.065c.36-.016.729-.041,1.1-.074s.745-.052,1.105-.057a2.938,2.938,0,0,1,.966.131,1.262,1.262,0,0,1,.933,1.366,1.845,1.845,0,0,1-.172.672,6.586,6.586,0,0,1-.458.875,8.028,8.028,0,0,1-1.474,1.752,5.1,5.1,0,0,1-.835.606,1.585,1.585,0,0,1-.777.237.441.441,0,0,1-.451-.245A1.245,1.245,0,0,1,888.24,477.1Z" fill="#fff"/>
      <path id="Trazado_4178" data-name="Trazado 4178" d="M900.206,475.724q-.622.424-1.072.76a7.253,7.253,0,0,1-.876.565,3.756,3.756,0,0,1-.909.344,5.188,5.188,0,0,1-1.186.115,2.907,2.907,0,0,1-2.26-.811,3.486,3.486,0,0,1-.736-2.414,5.411,5.411,0,0,1,.164-1.293,6.694,6.694,0,0,1,.482-1.334,7.8,7.8,0,0,1,.762-1.26,5.9,5.9,0,0,1,1-1.056,4.887,4.887,0,0,1,1.187-.729,3.366,3.366,0,0,1,1.334-.27,3.879,3.879,0,0,1,1.849.581,3,3,0,0,1,1.016,1.2,5.768,5.768,0,0,1,.474,1.62q.131.894.205,1.842c.048.633.112,1.266.188,1.9a5.965,5.965,0,0,0,.475,1.751,2.81,2.81,0,0,1-.4.761.288.288,0,0,1-.417.074,2,2,0,0,1-.532-.72Q900.647,476.771,900.206,475.724Zm-5.648-1.409a2.165,2.165,0,0,0,.352,1.368,1.537,1.537,0,0,0,1.253.433,3.533,3.533,0,0,0,1.284-.237,3.385,3.385,0,0,0,1.072-.654,3.2,3.2,0,0,0,.737-1.007,3.039,3.039,0,0,0,.278-1.31c0-.2.006-.471.017-.827a5.748,5.748,0,0,0-.066-1.056,2.549,2.549,0,0,0-.31-.908.753.753,0,0,0-.688-.385,2.989,2.989,0,0,0-1.571.434,4.525,4.525,0,0,0-1.244,1.105,5.375,5.375,0,0,0-.819,1.482A4.568,4.568,0,0,0,894.558,474.315Z" fill="#fff"/>
      <path id="Trazado_4179" data-name="Trazado 4179" d="M916.721,475.707a2.015,2.015,0,0,0-.67.114c-.219.077-.437.164-.656.263s-.439.186-.662.262a2.206,2.206,0,0,1-.713.114,3.359,3.359,0,0,1-1.293-.237,2.789,2.789,0,0,1-.973-.663,3,3,0,0,1-.622-1.007,3.524,3.524,0,0,1-.221-1.269,3.05,3.05,0,0,1,.344-1.513,2.812,2.812,0,0,1,.908-.991,3.7,3.7,0,0,1,1.285-.532,7,7,0,0,1,1.473-.155,2.579,2.579,0,0,1,1.506.548,5.313,5.313,0,0,1,1.2,1.334,9.862,9.862,0,0,1,.924,1.841,16.51,16.51,0,0,1,.647,2.087,17.5,17.5,0,0,1,.368,2.063,13.2,13.2,0,0,1,.1,1.776,5.468,5.468,0,0,1-.139,1.236c-.082.3-.205.442-.369.409A.927.927,0,0,1,918.5,481a2.448,2.448,0,0,1-.344-.794,4.976,4.976,0,0,1-.147-1.039c-.017-.376-.031-.753-.041-1.129s-.031-.737-.058-1.081a3.561,3.561,0,0,0-.155-.851.783.783,0,0,0-.361-.466A.76.76,0,0,0,916.721,475.707Zm-4.419-2.259a1.234,1.234,0,0,0,.139.557,1.955,1.955,0,0,0,.368.507,2.147,2.147,0,0,0,.508.377,1.181,1.181,0,0,0,.557.147,2.828,2.828,0,0,0,.72-.123,3.962,3.962,0,0,0,.867-.36A3.159,3.159,0,0,0,916.2,474a1,1,0,0,0,.311-.712,6.173,6.173,0,0,0-.066-.966,1.812,1.812,0,0,0-.229-.671.964.964,0,0,0-.475-.384,2.39,2.39,0,0,0-1.685.065,3.133,3.133,0,0,0-.843.516,3.219,3.219,0,0,0-.647.745A1.591,1.591,0,0,0,912.3,473.448Z" fill="#fff"/>
      <path id="Trazado_4180" data-name="Trazado 4180" d="M919.9,471.156q0-.1.009-.351c.005-.169.008-.347.008-.533s0-.357.008-.515.008-.27.008-.335a2.89,2.89,0,0,1,.27-.385.885.885,0,0,1,.328-.262.59.59,0,0,1,.376-.025.813.813,0,0,1,.417.328v.344c-.011.055-.032.182-.065.385s-.071.422-.115.662-.085.462-.123.663a2.811,2.811,0,0,0-.056.385,5.693,5.693,0,0,0,.065.777c.043.311.107.636.189.975a8.779,8.779,0,0,0,.31,1.014,4.547,4.547,0,0,0,.45.908,2.9,2.9,0,0,0,.581.663,1.138,1.138,0,0,0,.746.262,1.585,1.585,0,0,0,.924-.278,2.687,2.687,0,0,0,.7-.72,4.243,4.243,0,0,0,.482-1,9.03,9.03,0,0,0,.3-1.121,9.957,9.957,0,0,0,.164-1.089c.033-.348.049-.654.049-.916a4.667,4.667,0,0,0-.057-.745c-.039-.234-.085-.467-.14-.695s-.1-.456-.138-.68a3.948,3.948,0,0,1-.058-.679.473.473,0,0,1,.221-.442.961.961,0,0,1,.5-.131.767.767,0,0,1,.555.2,1.431,1.431,0,0,1,.336.516,2.67,2.67,0,0,1,.164.713,7.885,7.885,0,0,1,.042.793q0,.393-.017.745c-.011.235-.017.423-.017.564a10.941,10.941,0,0,1-.082,1.261,9.508,9.508,0,0,1-.286,1.448,11.979,11.979,0,0,1-.508,1.466,5.758,5.758,0,0,1-.736,1.284,3.645,3.645,0,0,1-1,.909,2.4,2.4,0,0,1-1.269.344,2.364,2.364,0,0,1-1.293-.352,3.122,3.122,0,0,1-.941-.933,5.968,5.968,0,0,1-.646-1.318,9.842,9.842,0,0,1-.4-1.473,13.708,13.708,0,0,1-.2-1.433Q919.9,471.664,919.9,471.156Z" fill="#fff"/>
      <path id="Trazado_4181" data-name="Trazado 4181" d="M928.31,473.284a7.569,7.569,0,0,1,.213-1.767,4.924,4.924,0,0,1,.68-1.588,3.683,3.683,0,0,1,1.211-1.146,3.478,3.478,0,0,1,1.808-.442,2.419,2.419,0,0,1,1.065.222,2.33,2.33,0,0,1,.768.581,2.372,2.372,0,0,1,.467.842,3.262,3.262,0,0,1,.156,1.007,3.632,3.632,0,0,1-.385,1.62,4.63,4.63,0,0,1-1.03,1.383,4.309,4.309,0,0,1-1.482.9,3.161,3.161,0,0,1-1.7.14,1.05,1.05,0,0,0,.319.761,1.976,1.976,0,0,0,.729.433,3.646,3.646,0,0,0,.884.189q.457.041.818.041a3.646,3.646,0,0,0,.7-.065c.218-.044.437-.093.655-.148s.439-.1.662-.147a3.768,3.768,0,0,1,.712-.066,2.629,2.629,0,0,1,.3.017.957.957,0,0,1,.279.073.494.494,0,0,1,.212.181.528.528,0,0,1,.082.3.663.663,0,0,1-.229.516,2.036,2.036,0,0,1-.581.352,3.661,3.661,0,0,1-.777.221c-.285.049-.56.087-.827.115s-.513.043-.737.048-.39.009-.5.009a5,5,0,0,1-1.882-.336,3.972,3.972,0,0,1-1.408-.932,4.018,4.018,0,0,1-.876-1.441A5.513,5.513,0,0,1,928.31,473.284Zm1.736-1.063a1.7,1.7,0,0,0,.155.835q.155.261.762.261a2.324,2.324,0,0,0,.834-.155,2.589,2.589,0,0,0,.745-.434,2.12,2.12,0,0,0,.532-.655,1.739,1.739,0,0,0,.2-.818,3.206,3.206,0,0,0-.041-.508,1.343,1.343,0,0,0-.172-.482,1.109,1.109,0,0,0-.336-.361.928.928,0,0,0-.531-.138,1.817,1.817,0,0,0-.892.22,2.2,2.2,0,0,0-.679.574,2.565,2.565,0,0,0-.426.785A2.711,2.711,0,0,0,930.046,472.221Z" fill="#fff"/>
      <path id="Trazado_4182" data-name="Trazado 4182" d="M812.84,496.675q-.623.425-1.073.761a7.1,7.1,0,0,1-.876.564,3.706,3.706,0,0,1-.908.344,5.194,5.194,0,0,1-1.186.115,2.908,2.908,0,0,1-2.26-.811,3.486,3.486,0,0,1-.736-2.414,5.408,5.408,0,0,1,.164-1.293,6.691,6.691,0,0,1,.482-1.334,7.793,7.793,0,0,1,.762-1.26,5.9,5.9,0,0,1,1-1.056,4.848,4.848,0,0,1,1.186-.728,3.356,3.356,0,0,1,1.334-.271,3.9,3.9,0,0,1,1.85.581,3.009,3.009,0,0,1,1.016,1.2,5.8,5.8,0,0,1,.474,1.62q.13.894.2,1.842t.189,1.9a5.992,5.992,0,0,0,.474,1.752,2.792,2.792,0,0,1-.4.76.289.289,0,0,1-.417.075,2.011,2.011,0,0,1-.532-.721Q813.281,497.722,812.84,496.675Zm-5.648-1.408a2.157,2.157,0,0,0,.352,1.367,1.537,1.537,0,0,0,1.253.433,3.532,3.532,0,0,0,1.284-.237,3.4,3.4,0,0,0,1.072-.654,3.174,3.174,0,0,0,.736-1.007,3.024,3.024,0,0,0,.279-1.31c0-.2.006-.471.016-.827a5.642,5.642,0,0,0-.065-1.055,2.53,2.53,0,0,0-.311-.909.751.751,0,0,0-.687-.384,2.988,2.988,0,0,0-1.571.433,4.53,4.53,0,0,0-1.245,1.106,5.353,5.353,0,0,0-.818,1.481A4.575,4.575,0,0,0,807.192,495.267Z" fill="#fff"/>
      <path id="Trazado_4183" data-name="Trazado 4183" d="M815.638,493.859a3.856,3.856,0,0,1,.3-1.44,5.127,5.127,0,0,1,.811-1.367,4.745,4.745,0,0,1,1.17-1.023,2.628,2.628,0,0,1,1.4-.409,2.326,2.326,0,0,1,1.433.507,1.97,1.97,0,0,1,.491.59,1.574,1.574,0,0,1,.188.768,1.984,1.984,0,0,1-.532-.065,4.555,4.555,0,0,1-.467-.155c-.153-.06-.3-.112-.45-.156a1.9,1.9,0,0,0-1.571.271,2.415,2.415,0,0,0-.663.843,3.817,3.817,0,0,0-.335,1.088,7.021,7.021,0,0,0-.091,1.088c0,.055,0,.159.009.311s.011.314.016.483.011.33.016.483a2.648,2.648,0,0,0,.024.311,2.943,2.943,0,0,0,.353.606,1.243,1.243,0,0,0,.368.319,1.151,1.151,0,0,0,.426.131,4.977,4.977,0,0,0,.54.024,1.964,1.964,0,0,0,.745-.13,3.668,3.668,0,0,0,.6-.311,4.249,4.249,0,0,0,.524-.4,4.955,4.955,0,0,1,.516-.41,2.732,2.732,0,0,1,.589-.311,2.035,2.035,0,0,1,.728-.122,3.387,3.387,0,0,1-.286,1.424,3.07,3.07,0,0,1-.8,1.063,3.629,3.629,0,0,1-1.211.68,4.66,4.66,0,0,1-1.513.237,2.08,2.08,0,0,1-1.384-.523,4.816,4.816,0,0,1-1.048-1.285,6.806,6.806,0,0,1-.662-1.613A5.872,5.872,0,0,1,815.638,493.859Z" fill="#fff"/>
      <path id="Trazado_4184" data-name="Trazado 4184" d="M830.73,496.675q-.622.425-1.072.761a7.245,7.245,0,0,1-.876.564,3.707,3.707,0,0,1-.908.344,5.2,5.2,0,0,1-1.187.115,2.907,2.907,0,0,1-2.259-.811,3.481,3.481,0,0,1-.737-2.414,5.461,5.461,0,0,1,.164-1.293,6.761,6.761,0,0,1,.483-1.334,7.792,7.792,0,0,1,.761-1.26,5.9,5.9,0,0,1,1-1.056,4.872,4.872,0,0,1,1.187-.728,3.353,3.353,0,0,1,1.334-.271,3.9,3.9,0,0,1,1.85.581,3,3,0,0,1,1.015,1.2,5.77,5.77,0,0,1,.475,1.62q.13.894.2,1.842t.188,1.9a6.027,6.027,0,0,0,.475,1.752,2.822,2.822,0,0,1-.4.76.289.289,0,0,1-.417.075,2.011,2.011,0,0,1-.533-.721Q831.171,497.722,830.73,496.675Zm-5.647-1.408a2.163,2.163,0,0,0,.351,1.367,1.539,1.539,0,0,0,1.253.433,3.528,3.528,0,0,0,1.284-.237,3.39,3.39,0,0,0,1.073-.654,3.19,3.19,0,0,0,.736-1.007,3.025,3.025,0,0,0,.278-1.31c0-.2.006-.471.017-.827a5.726,5.726,0,0,0-.065-1.055,2.548,2.548,0,0,0-.311-.909.752.752,0,0,0-.687-.384,2.991,2.991,0,0,0-1.572.433,4.542,4.542,0,0,0-1.244,1.106,5.328,5.328,0,0,0-.818,1.481A4.551,4.551,0,0,0,825.083,495.267Z" fill="#fff"/>
      <path id="Trazado_4185" data-name="Trazado 4185" d="M836.328,498.082q-.507-1.471-.957-2.758t-.786-2.52a22.612,22.612,0,0,1-.532-2.513,18,18,0,0,1-.2-2.733c0-.077,0-.216.009-.418s.008-.411.008-.63,0-.428.008-.63.008-.341.008-.418a1.6,1.6,0,0,1,.516-.606,1.228,1.228,0,0,1,.744-.278q0,1.212.033,2.578a26.747,26.747,0,0,0,.205,2.726,16.936,16.936,0,0,0,.556,2.66,9.014,9.014,0,0,0,1.089,2.381q.017-.393.032-.867a7.816,7.816,0,0,1,.091-.95,4.729,4.729,0,0,1,.237-.917,2.331,2.331,0,0,1,.483-.785,2.173,2.173,0,0,1,.835-.54,3.46,3.46,0,0,1,1.3-.18,2.985,2.985,0,0,1,1.268.261,2.763,2.763,0,0,1,.95.712,3.212,3.212,0,0,1,.589,1.048,3.862,3.862,0,0,1-.237,3.036,5.682,5.682,0,0,1-1.17,1.556,6.1,6.1,0,0,1-1.629,1.1,4.312,4.312,0,0,1-1.833.418,2.5,2.5,0,0,1-.917-.172A1.467,1.467,0,0,1,836.328,498.082Zm3.88-5.975q-.328.182-.688.426a2.317,2.317,0,0,0-.663.762,5.179,5.179,0,0,0-.515,1.4,11.958,11.958,0,0,0-.262,2.341c.021,0,.079.005.172.016a1.616,1.616,0,0,0,.187.016,2.317,2.317,0,0,0,1.007-.278,6.489,6.489,0,0,0,1.1-.687,5.247,5.247,0,0,0,.925-.909,2.213,2.213,0,0,0,.474-.958,1.089,1.089,0,0,0-.114-.637,3.257,3.257,0,0,0-.434-.7,3.037,3.037,0,0,0-.59-.564A1.046,1.046,0,0,0,840.208,492.107Z" fill="#fff"/>
      <path id="Trazado_4186" data-name="Trazado 4186" d="M844.021,495.463a3.9,3.9,0,0,1,.475-1.89,4.968,4.968,0,0,1,1.253-1.507,6.112,6.112,0,0,1,1.751-.99,5.667,5.667,0,0,1,1.972-.359,1.513,1.513,0,0,1,.991.359,3.159,3.159,0,0,1,.728.876,4.625,4.625,0,0,1,.45,1.089,3.878,3.878,0,0,1,.156,1,3.835,3.835,0,0,1-.443,1.776,5.578,5.578,0,0,1-1.145,1.523,5.94,5.94,0,0,1-1.588,1.071,4.16,4.16,0,0,1-1.768.41,2.951,2.951,0,0,1-1.326-.27,2.348,2.348,0,0,1-.867-.721,3.059,3.059,0,0,1-.483-1.063A5.272,5.272,0,0,1,844.021,495.463Zm1.392.164a3.349,3.349,0,0,0,.073.745,1.314,1.314,0,0,0,.263.548,1.193,1.193,0,0,0,.5.352,2.1,2.1,0,0,0,.769.123,2.486,2.486,0,0,0,1.211-.335,4.421,4.421,0,0,0,1.089-.852,4.473,4.473,0,0,0,.778-1.138,2.818,2.818,0,0,0,.293-1.211,3.67,3.67,0,0,0-.048-.573,2.308,2.308,0,0,0-.164-.572,1.217,1.217,0,0,0-.328-.443.8.8,0,0,0-.54-.179,1.629,1.629,0,0,0-.7.2,5.942,5.942,0,0,0-.835.507,8.369,8.369,0,0,0-.851.7,10.9,10.9,0,0,0-.761.786,4.65,4.65,0,0,0-.549.753A1.288,1.288,0,0,0,845.413,495.627Z" fill="#fff"/>
      <path id="Trazado_4187" data-name="Trazado 4187" d="M859.62,496.854a3.031,3.031,0,0,1,.476-1.685,5.15,5.15,0,0,1,1.177-1.285,8.041,8.041,0,0,1,1.523-.933c.546-.257,1.052-.47,1.522-.638s.862-.306,1.179-.41.474-.188.474-.254a10.847,10.847,0,0,0-.057-1.121q-.057-.548-.123-1.1t-.122-1.106a10.237,10.237,0,0,1-.058-1.088v-1.064q.67-.246.958.049t.09,1.015c.043.24.1.617.18,1.129s.161,1.092.254,1.736.19,1.32.295,2.029.2,1.389.293,2.038.172,1.228.238,1.735.115.887.147,1.138a2.78,2.78,0,0,1,.033.319c.011.158.019.328.025.507s.011.347.016.5.008.262.008.328a4.648,4.648,0,0,1-.843-.049.35.35,0,0,1-.278-.2,1.23,1.23,0,0,1-.057-.425,2.635,2.635,0,0,0-.164-.77,9.766,9.766,0,0,1-1.146.786,6.312,6.312,0,0,1-1.08.5,5.508,5.508,0,0,1-1.088.262,8.665,8.665,0,0,1-1.171.074,5.491,5.491,0,0,1-1.007-.09,2.55,2.55,0,0,1-.859-.319,1.746,1.746,0,0,1-.606-.622A1.935,1.935,0,0,1,859.62,496.854Zm1.425-.343a.732.732,0,0,0,.114.426,1.02,1.02,0,0,0,.295.278,1.119,1.119,0,0,0,.385.155,2.042,2.042,0,0,0,.4.041,3.9,3.9,0,0,0,1.236-.221,4.626,4.626,0,0,0,1.228-.622,3.628,3.628,0,0,0,.933-.958A2.143,2.143,0,0,0,866,494.4a1.053,1.053,0,0,0-.18-.7.924.924,0,0,0-.687-.2,3.733,3.733,0,0,0-1.22.246,6.628,6.628,0,0,0-1.342.654,4.4,4.4,0,0,0-1.089.958A1.816,1.816,0,0,0,861.045,496.511Z" fill="#fff"/>
      <path id="Trazado_4188" data-name="Trazado 4188" d="M869.114,494.235a7.521,7.521,0,0,1,.213-1.767,4.933,4.933,0,0,1,.68-1.588,3.682,3.682,0,0,1,1.211-1.146,3.478,3.478,0,0,1,1.808-.442,2.422,2.422,0,0,1,1.065.222,2.34,2.34,0,0,1,.768.581,2.383,2.383,0,0,1,.467.843,3.28,3.28,0,0,1,.155,1.006,3.631,3.631,0,0,1-.385,1.62,4.6,4.6,0,0,1-1.03,1.383,4.322,4.322,0,0,1-1.481.9,3.17,3.17,0,0,1-1.7.139,1.045,1.045,0,0,0,.319.761,1.987,1.987,0,0,0,.728.434,3.713,3.713,0,0,0,.884.188c.306.027.578.041.819.041a3.569,3.569,0,0,0,.7-.065q.327-.066.655-.148c.218-.054.438-.1.662-.147a3.768,3.768,0,0,1,.712-.066,2.634,2.634,0,0,1,.295.017.948.948,0,0,1,.278.073.5.5,0,0,1,.213.181.529.529,0,0,1,.082.3.66.66,0,0,1-.229.515,2.051,2.051,0,0,1-.581.352,3.611,3.611,0,0,1-.778.221q-.426.074-.826.115c-.267.027-.514.043-.737.049s-.39.008-.5.008a5,5,0,0,1-1.882-.336,3.961,3.961,0,0,1-1.408-.932,4.018,4.018,0,0,1-.876-1.441A5.513,5.513,0,0,1,869.114,494.235Zm1.735-1.063a1.7,1.7,0,0,0,.156.835q.154.263.761.262a2.317,2.317,0,0,0,.834-.156,2.58,2.58,0,0,0,.746-.434,2.121,2.121,0,0,0,.532-.655,1.739,1.739,0,0,0,.2-.818,3.333,3.333,0,0,0-.041-.508,1.344,1.344,0,0,0-.172-.482,1.119,1.119,0,0,0-.336-.361.93.93,0,0,0-.531-.138,1.814,1.814,0,0,0-.893.221,2.184,2.184,0,0,0-.678.573,2.565,2.565,0,0,0-.426.785A2.686,2.686,0,0,0,870.849,493.172Z" fill="#fff"/>
      <path id="Trazado_4189" data-name="Trazado 4189" d="M885.432,490.536a.187.187,0,0,1,.017-.082.267.267,0,0,1,.017-.081,2.758,2.758,0,0,1,.2-.213c.087-.088.142-.131.164-.131h3.29a5.183,5.183,0,0,0-.05-.573q-.048-.393-.09-.867a8.45,8.45,0,0,1-.024-.99,3.725,3.725,0,0,1,.14-.934,1.573,1.573,0,0,1,.392-.687,1.03,1.03,0,0,1,.761-.27,12.279,12.279,0,0,0,.229,2.651,4.344,4.344,0,0,0,.615,1.539,1.788,1.788,0,0,0,.875.7,2.733,2.733,0,0,0,1.007.139,4.768,4.768,0,0,0,1.006-.155,6.693,6.693,0,0,1,.876-.181,1.028,1.028,0,0,1,.614.074q.23.123.229.582a.66.66,0,0,1-.155.491,1.242,1.242,0,0,1-.6.228l-.433.058c-.2.027-.429.052-.68.073l-.8.074c-.284.028-.552.052-.8.074s-.479.036-.687.041-.359.007-.458.007c0,.055-.006.148-.017.279s-.015.218-.015.262a4.374,4.374,0,0,0,.228,1.4q.23.678.5,1.349t.5,1.343a4.274,4.274,0,0,1,.229,1.392,1.483,1.483,0,0,1-.025.269.623.623,0,0,1-.1.246.476.476,0,0,1-.213.164.567.567,0,0,1-.385-.025,1.429,1.429,0,0,1-.925-.7,4.316,4.316,0,0,1-.45-1.284,11.462,11.462,0,0,1-.2-1.58c-.034-.557-.085-1.077-.156-1.564a4.774,4.774,0,0,0-.336-1.244,1.026,1.026,0,0,0-.736-.63l-3.159-.719c-.044,0-.109-.047-.2-.14a1.038,1.038,0,0,1-.164-.2.188.188,0,0,1-.017-.082A.229.229,0,0,1,885.432,490.536Z" fill="#fff"/>
      <path id="Trazado_4190" data-name="Trazado 4190" d="M896.318,491.911a2.872,2.872,0,0,1,.017-.3,1.078,1.078,0,0,1,.065-.278.478.478,0,0,1,.155-.2.488.488,0,0,1,.3-.082q.165,0,.368.254a4.361,4.361,0,0,1,.418.638c.142.256.281.538.417.843s.257.586.361.843.188.478.254.663a2.092,2.092,0,0,0,.114.294c.141-.382.3-.8.474-1.244a6.707,6.707,0,0,1,.647-1.252,3.828,3.828,0,0,1,.917-.974,2.133,2.133,0,0,1,1.3-.392,2.269,2.269,0,0,1,.745.122,1.872,1.872,0,0,1,.622.36,1.836,1.836,0,0,1,.433.565,1.65,1.65,0,0,1,.165.753.523.523,0,0,1-.287.507,1.386,1.386,0,0,1-.647.148H903l-.7-.7a.062.062,0,0,1-.049-.017.17.17,0,0,1-.058-.008.193.193,0,0,0-.057-.007,1.209,1.209,0,0,0-.892.318,2.038,2.038,0,0,0-.482.786,3.839,3.839,0,0,0-.205.982c-.028.344-.041.658-.041.941a3.428,3.428,0,0,0,.065.663q.066.336.147.655t.148.655a3.679,3.679,0,0,1,.065.7q0,.687-.736.687a1.257,1.257,0,0,1-.852-.434,6.445,6.445,0,0,1-.875-1.105,13.753,13.753,0,0,1-.827-1.481q-.391-.81-.687-1.579t-.467-1.392A3.916,3.916,0,0,1,896.318,491.911Z" fill="#fff"/>
      <path id="Trazado_4191" data-name="Trazado 4191" d="M911.721,496.675q-.622.425-1.072.761a7.239,7.239,0,0,1-.876.564,3.707,3.707,0,0,1-.908.344,5.194,5.194,0,0,1-1.186.115,2.907,2.907,0,0,1-2.26-.811,3.486,3.486,0,0,1-.737-2.414,5.461,5.461,0,0,1,.164-1.293,6.764,6.764,0,0,1,.483-1.334,7.8,7.8,0,0,1,.762-1.26,5.9,5.9,0,0,1,1-1.056,4.847,4.847,0,0,1,1.186-.728,3.353,3.353,0,0,1,1.334-.271,3.894,3.894,0,0,1,1.85.581,3,3,0,0,1,1.015,1.2,5.768,5.768,0,0,1,.475,1.62q.131.894.2,1.842t.189,1.9a6,6,0,0,0,.474,1.752,2.791,2.791,0,0,1-.4.76.289.289,0,0,1-.417.075,2.011,2.011,0,0,1-.532-.721Q912.161,497.722,911.721,496.675Zm-5.647-1.408a2.157,2.157,0,0,0,.352,1.367,1.537,1.537,0,0,0,1.253.433,3.532,3.532,0,0,0,1.284-.237,3.4,3.4,0,0,0,1.072-.654,3.174,3.174,0,0,0,.736-1.007,3.025,3.025,0,0,0,.279-1.31c0-.2.005-.471.016-.827a5.72,5.72,0,0,0-.065-1.055,2.53,2.53,0,0,0-.311-.909.752.752,0,0,0-.687-.384,2.991,2.991,0,0,0-1.572.433,4.541,4.541,0,0,0-1.244,1.106,5.353,5.353,0,0,0-.818,1.481A4.573,4.573,0,0,0,906.074,495.267Z" fill="#fff"/>
      <path id="Trazado_4192" data-name="Trazado 4192" d="M914.847,492.746a3.3,3.3,0,0,1,.737-2.357,3,3,0,0,1,2.26-.769,7.573,7.573,0,0,1,1.284.114,4.2,4.2,0,0,1,1.219.4,2.438,2.438,0,0,1,.909.794,2.25,2.25,0,0,1,.352,1.308,3.7,3.7,0,0,1-.385,1.662,7.058,7.058,0,0,1-.965,1.457,10.717,10.717,0,0,1-1.278,1.26q-.7.582-1.3,1.106a.937.937,0,0,0-.057.269c-.016.137-.025.227-.025.271a2.152,2.152,0,0,0,.32,1.088q.32.549.7,1.113a11.909,11.909,0,0,1,.688,1.17,2.73,2.73,0,0,1,.311,1.261c0,.261-.055.418-.164.466a2.017,2.017,0,0,1-.687.074,1.532,1.532,0,0,1-.647-.614,8.611,8.611,0,0,1-.639-1.187c-.211-.469-.42-.995-.622-1.579s-.392-1.179-.572-1.784-.35-1.207-.508-1.8-.3-1.143-.417-1.645-.226-.935-.319-1.3S914.881,492.9,914.847,492.746Zm1.392.148q0,.246.032.711a6.027,6.027,0,0,0,.14.925,2.511,2.511,0,0,0,.319.794.663.663,0,0,0,.589.336,1.843,1.843,0,0,0,1.024-.344,3.832,3.832,0,0,0,.916-.868,5.15,5.15,0,0,0,.655-1.121,2.817,2.817,0,0,0,.254-1.089.985.985,0,0,0-.2-.646,1.4,1.4,0,0,0-.5-.376,2.129,2.129,0,0,0-.646-.18,5.6,5.6,0,0,0-.654-.041,1.94,1.94,0,0,0-1.433.5A1.893,1.893,0,0,0,916.239,492.894Z" fill="#fff"/>
      <path id="Trazado_4193" data-name="Trazado 4193" d="M922.573,494.235a7.521,7.521,0,0,1,.213-1.767,4.933,4.933,0,0,1,.68-1.588,3.673,3.673,0,0,1,1.211-1.146,3.478,3.478,0,0,1,1.808-.442,2.422,2.422,0,0,1,1.065.222,2.34,2.34,0,0,1,.768.581,2.382,2.382,0,0,1,.467.843,3.28,3.28,0,0,1,.155,1.006,3.631,3.631,0,0,1-.385,1.62,4.6,4.6,0,0,1-1.03,1.383,4.323,4.323,0,0,1-1.481.9,3.17,3.17,0,0,1-1.7.139,1.045,1.045,0,0,0,.319.761,1.987,1.987,0,0,0,.728.434,3.713,3.713,0,0,0,.884.188c.306.027.578.041.819.041a3.569,3.569,0,0,0,.7-.065q.327-.066.655-.148c.218-.054.438-.1.662-.147a3.768,3.768,0,0,1,.712-.066,2.636,2.636,0,0,1,.3.017.948.948,0,0,1,.278.073.5.5,0,0,1,.213.181.529.529,0,0,1,.082.3.659.659,0,0,1-.229.515,2.05,2.05,0,0,1-.581.352,3.612,3.612,0,0,1-.778.221q-.426.074-.826.115c-.267.027-.514.043-.737.049s-.39.008-.5.008a5,5,0,0,1-1.882-.336,3.962,3.962,0,0,1-1.408-.932,4.018,4.018,0,0,1-.876-1.441A5.513,5.513,0,0,1,922.573,494.235Zm1.735-1.063a1.7,1.7,0,0,0,.156.835q.155.263.761.262a2.318,2.318,0,0,0,.834-.156,2.563,2.563,0,0,0,.745-.434,2.11,2.11,0,0,0,.533-.655,1.738,1.738,0,0,0,.2-.818,3.333,3.333,0,0,0-.041-.508,1.343,1.343,0,0,0-.172-.482,1.119,1.119,0,0,0-.336-.361.93.93,0,0,0-.531-.138,1.814,1.814,0,0,0-.893.221,2.184,2.184,0,0,0-.678.573,2.565,2.565,0,0,0-.426.785A2.686,2.686,0,0,0,924.308,493.172Z" fill="#fff"/>
      <path id="Trazado_4194" data-name="Trazado 4194" d="M938.746,496.675q-.622.425-1.072.761a7.245,7.245,0,0,1-.876.564,3.714,3.714,0,0,1-.909.344,5.188,5.188,0,0,1-1.186.115,2.908,2.908,0,0,1-2.26-.811,3.486,3.486,0,0,1-.736-2.414,5.464,5.464,0,0,1,.164-1.293,6.7,6.7,0,0,1,.482-1.334,7.793,7.793,0,0,1,.762-1.26,5.9,5.9,0,0,1,1-1.056,4.853,4.853,0,0,1,1.187-.728,3.353,3.353,0,0,1,1.334-.271,3.89,3.89,0,0,1,1.849.581,3.009,3.009,0,0,1,1.016,1.2,5.772,5.772,0,0,1,.474,1.62q.13.894.2,1.842c.048.633.112,1.266.188,1.9a5.963,5.963,0,0,0,.475,1.752,2.818,2.818,0,0,1-.4.76.289.289,0,0,1-.417.075,2.012,2.012,0,0,1-.532-.721Q939.187,497.722,938.746,496.675Zm-5.648-1.408a2.163,2.163,0,0,0,.352,1.367,1.537,1.537,0,0,0,1.253.433,3.532,3.532,0,0,0,1.284-.237,3.385,3.385,0,0,0,1.072-.654,3.193,3.193,0,0,0,.737-1.007,3.039,3.039,0,0,0,.278-1.31c0-.2.006-.471.017-.827a5.726,5.726,0,0,0-.066-1.055,2.53,2.53,0,0,0-.31-.909.754.754,0,0,0-.688-.384,2.988,2.988,0,0,0-1.571.433,4.513,4.513,0,0,0-1.244,1.106,5.357,5.357,0,0,0-.819,1.481A4.575,4.575,0,0,0,933.1,495.267Z" fill="#fff"/>
      <path id="Trazado_4195" data-name="Trazado 4195" d="M941.872,491.911c0-.1.006-.2.016-.3a1.08,1.08,0,0,1,.066-.278.479.479,0,0,1,.155-.2.486.486,0,0,1,.3-.082q.164,0,.368.254a4.442,4.442,0,0,1,.418.638c.142.256.28.538.417.843s.257.586.36.843.189.478.254.663a2.155,2.155,0,0,0,.115.294q.211-.573.474-1.244a6.7,6.7,0,0,1,.647-1.252,3.809,3.809,0,0,1,.917-.974,2.131,2.131,0,0,1,1.3-.392,2.27,2.27,0,0,1,.746.122,1.871,1.871,0,0,1,.622.36,1.851,1.851,0,0,1,.433.565,1.649,1.649,0,0,1,.164.753.522.522,0,0,1-.286.507,1.386,1.386,0,0,1-.647.148h-.163l-.705-.7a.06.06,0,0,1-.048-.017.169.169,0,0,1-.058-.008.2.2,0,0,0-.058-.007,1.208,1.208,0,0,0-.891.318,2.053,2.053,0,0,0-.483.786,3.921,3.921,0,0,0-.2.982q-.041.516-.041.941a3.426,3.426,0,0,0,.066.663q.066.336.147.655t.148.655a3.674,3.674,0,0,1,.065.7q0,.687-.736.687a1.255,1.255,0,0,1-.852-.434,6.4,6.4,0,0,1-.876-1.105,13.921,13.921,0,0,1-.826-1.481q-.393-.81-.687-1.579t-.467-1.392A3.865,3.865,0,0,1,941.872,491.911Z" fill="#fff"/>
    </g>
    <g id="Grupo_2622" data-name="Grupo 2622">
      <path id="Trazado_4196" data-name="Trazado 4196" d="M965.334,508.48l13.582,2.126-1.543,2.075-5.5-14.255a1.023,1.023,0,0,1,1.884-.795l6.379,13.883a1.473,1.473,0,0,1-1.418,2.083l-.125-.008-13.723-.824a2.157,2.157,0,1,1,.259-4.307C965.2,508.462,965.268,508.47,965.334,508.48Z" fill="#fff"/>
    </g>
  </g>
</svg>
