<svg xmlns="http://www.w3.org/2000/svg" width="718.645" height="648" viewBox="0 0 718.645 648">
  <g id="Grupo_3453" data-name="Grupo 3453" transform="translate(-1139.52 -176.256)">
    <path id="Trazado_5049" data-name="Trazado 5049" d="M1658.061,771.366h15.9c-8.915-34.149-24.532-73.9-46.223-108.841-51.893-83.59-33.492-326.846-162.783-326.846s-97.586,231.249-148.711,314.847c-20.533,33.575-37.173,79.608-45.919,120.84h387.738Z" transform="translate(43.395 52.89)" fill="#6482F8" opacity="0.1" style="mix-blend-mode: multiply;isolation: isolate"/>
    <g id="Grupo_3429" data-name="Grupo 3429" transform="translate(1596.262 575.663)">
      <g id="Grupo_3422" data-name="Grupo 3422" transform="translate(138.158 10.61)">
        <circle id="Elipse_178" data-name="Elipse 178" cx="32.021" cy="32.021" r="32.021" transform="translate(1.451 1.451)" fill="#62cbc9"/>
        <path id="Trazado_5050" data-name="Trazado 5050" d="M1619.7,551.078a33.472,33.472,0,1,1,33.472-33.472A33.51,33.51,0,0,1,1619.7,551.078Zm0-64.043a30.57,30.57,0,1,0,30.57,30.57A30.6,30.6,0,0,0,1619.7,487.035Z" transform="translate(-1586.223 -484.133)" fill="#999"/>
      </g>
      <g id="Grupo_3423" data-name="Grupo 3423" transform="translate(163.876)">
        <circle id="Elipse_179" data-name="Elipse 179" cx="37.51" cy="37.51" r="37.51" transform="translate(1.7 1.7)" fill="#62cbc9"/>
        <path id="Trazado_5051" data-name="Trazado 5051" d="M1644.744,554.587a39.21,39.21,0,1,1,39.209-39.21A39.254,39.254,0,0,1,1644.744,554.587Zm0-75.021a35.81,35.81,0,1,0,35.811,35.811A35.852,35.852,0,0,0,1644.744,479.566Z" transform="translate(-1605.534 -476.166)" fill="#999"/>
      </g>
      <g id="Grupo_3427" data-name="Grupo 3427" transform="translate(0 63.703)">
        <g id="Grupo_3424" data-name="Grupo 3424" transform="translate(0 33.405)">
          <path id="Trazado_5052" data-name="Trazado 5052" d="M1492.509,550.257a8.474,8.474,0,0,0-8.714,7.933,69.419,69.419,0,0,0,12.164,43.722,202.889,202.889,0,0,0,22.5,27.4,32.812,32.812,0,0,0,38.323,6.3l64.038-27.88L1604.4,553.921Z" transform="translate(-1482.095 -548.696)" fill="#fff"/>
          <path id="Trazado_5053" data-name="Trazado 5053" d="M1542.217,641.154a34.092,34.092,0,0,1-24.491-10.366,203.109,203.109,0,0,1-22.669-27.615,71.437,71.437,0,0,1-12.428-44.7,10.006,10.006,0,0,1,10.317-9.385l113.006,3.7L1623.1,609l-65.271,28.417A34.624,34.624,0,0,1,1542.217,641.154Zm-49.6-88.957a6.908,6.908,0,0,0-6.88,6.488,68.319,68.319,0,0,0,11.9,42.743,199.888,199.888,0,0,0,22.322,27.189,31.109,31.109,0,0,0,36.5,6l.081-.04,62.767-27.325-15.687-51.424L1492.844,552.2C1492.767,552.2,1492.69,552.2,1492.614,552.2Z" transform="translate(-1482.482 -549.083)" fill="#999"/>
        </g>
        <g id="Grupo_3425" data-name="Grupo 3425" transform="translate(73.411)">
          <path id="Trazado_5054" data-name="Trazado 5054" d="M1596.8,525.708c-.046.884-3.989.036-3.969.923-19.794,9.453-53.924,33.645-53.924,33.645-.222.413,18.477,2.186,39.623,17.743,24.659,18.169,24.629,46.284,24.9,46,0,0,31.6-28.829,35.141-55.456-4.641-8.638-15.4-24.251-27.677-34.02C1604.947,529.811,1602.739,528.144,1596.8,525.708Z" transform="translate(-1537.172 -523.433)" fill="#62cbc9"/>
          <path id="Trazado_5055" data-name="Trazado 5055" d="M1604.3,626.389l-.951-.329c-.969-.34-1.044-1.148-1.129-2.085-.966-10.544-5.391-30.3-24.173-44.136a97.886,97.886,0,0,0-37.582-17.085c-1.669-.358-2.172-.467-2.529-1.244l-.326-.707.543-1.02.3-.21c.34-.24,33.953-24.014,53.7-33.566.024-.029.051-.056.076-.084.7-.723,1.762-.734,2.989-.744.149,0,.335,0,.521-.008l.06-1.171,2.034.834c6.065,2.49,8.454,4.272,14.471,9.061,13.182,10.49,24.13,27.156,28.079,34.5l.238.443-.067.5c-3.541,26.656-33.82,54.738-35.6,56.367Zm-61.241-66.242a101.149,101.149,0,0,1,36.834,17.185c18.41,13.563,23.707,32.484,25.165,43.956,7.157-7.07,29.193-30.347,32.34-51.864-4.032-7.358-14.506-23.123-27.033-33.094-5.73-4.56-7.805-6.123-12.925-8.287a7.47,7.47,0,0,1-2.192.249c-.192,0-.451,0-.683.013l-.621.3C1577.773,536.324,1551.618,554.2,1543.055,560.148Z" transform="translate(-1537.605 -524)" fill="#999"/>
        </g>
        <g id="Grupo_3426" data-name="Grupo 3426" transform="translate(128.41 90.405)">
          <path id="Trazado_5056" data-name="Trazado 5056" d="M1589.266,601.427c-1.185.169-5.551.414-8.641-4.417l7.839-3.437,1.064,7.491A.314.314,0,0,1,1589.266,601.427Z" transform="translate(-1578.332 -591.324)" fill="#62cbc9"/>
          <path id="Trazado_5057" data-name="Trazado 5057" d="M1588.8,603.614a10.356,10.356,0,0,1-8.914-5.206l-.981-1.533,11.385-4.991,1.353,9.521a1.877,1.877,0,0,1-1.585,2.123h0A9.034,9.034,0,0,1,1588.8,603.614Zm-5.154-5.418a7.051,7.051,0,0,0,4.721,2.291l-.583-4.106Z" transform="translate(-1578.903 -591.884)" fill="#999"/>
        </g>
      </g>
      <g id="Grupo_3428" data-name="Grupo 3428" transform="translate(115.916 25.331)">
        <path id="Trazado_5058" data-name="Trazado 5058" d="M1713.564,532.247a35.891,35.891,0,0,1-35.89,35.888c-1.209,0-2.4-.061-3.576-.174-10.624,7.326-27.01,12.018-45.4,12.018-32.037,0-58.011-14.256-58.011-31.845s25.975-31.841,58.011-31.841a102.879,102.879,0,0,1,16.216,1.265,35.9,35.9,0,0,1,68.646,14.689Z" transform="translate(-1569.134 -494.799)" fill="#62cbc9"/>
        <path id="Trazado_5059" data-name="Trazado 5059" d="M1629.092,581.923c-32.846,0-59.57-14.984-59.57-33.4s26.723-33.4,59.57-33.4a104.854,104.854,0,0,1,15.3,1.107,37.45,37.45,0,1,1,33.672,53.85c-1.035,0-2.095-.044-3.16-.13C1663.582,577.564,1646.927,581.923,1629.092,581.923Zm0-63.685c-31.13,0-56.455,13.584-56.455,30.281s25.325,30.29,56.455,30.29c17.466,0,33.689-4.28,44.511-11.742l.467-.322.565.055c1.157.111,2.311.167,3.428.167a34.332,34.332,0,1,0-31.336-48.381l-.489,1.087-1.177-.188A101.357,101.357,0,0,0,1629.092,518.238Z" transform="translate(-1569.522 -495.187)" fill="#999"/>
      </g>
      <path id="Trazado_5060" data-name="Trazado 5060" d="M1583.56,526.4l-16.688,12.674,12.594,35.562,42.745,6.545,7.761-19.526Z" transform="translate(-1454.485 -459.5)" fill="#62cbc9"/>
    </g>
    <g id="Grupo_3437" data-name="Grupo 3437" transform="translate(1139.52 575.663)">
      <g id="Grupo_3430" data-name="Grupo 3430" transform="translate(56.801 10.61)">
        <circle id="Elipse_180" data-name="Elipse 180" cx="32.021" cy="32.021" r="32.021" transform="translate(1.451 1.451)" fill="#62cbc9"/>
        <path id="Trazado_5061" data-name="Trazado 5061" d="M1215.644,551.078a33.472,33.472,0,1,1,33.472-33.472A33.51,33.51,0,0,1,1215.644,551.078Zm0-64.043a30.57,30.57,0,1,0,30.57,30.57A30.6,30.6,0,0,0,1215.644,487.035Z" transform="translate(-1182.171 -484.133)" fill="#999"/>
      </g>
      <g id="Grupo_3431" data-name="Grupo 3431" transform="translate(19.607)">
        <circle id="Elipse_181" data-name="Elipse 181" cx="37.51" cy="37.51" r="37.51" transform="translate(1.701 1.7)" fill="#62cbc9"/>
        <path id="Trazado_5062" data-name="Trazado 5062" d="M1193.454,554.587a39.21,39.21,0,1,1,39.21-39.21A39.255,39.255,0,0,1,1193.454,554.587Zm0-75.021a35.81,35.81,0,1,0,35.81,35.811A35.852,35.852,0,0,0,1193.454,479.566Z" transform="translate(-1154.243 -476.166)" fill="#999"/>
      </g>
      <g id="Grupo_3435" data-name="Grupo 3435" transform="translate(85.481 63.703)">
        <g id="Grupo_3432" data-name="Grupo 3432" transform="translate(35.807 33.405)">
          <path id="Trazado_5063" data-name="Trazado 5063" d="M1360.324,550.257a8.474,8.474,0,0,1,8.714,7.933,69.42,69.42,0,0,1-12.164,43.722,202.88,202.88,0,0,1-22.5,27.4,32.812,32.812,0,0,1-38.323,6.3l-64.038-27.88,16.415-53.816Z" transform="translate(-1230.122 -548.696)" fill="#fff"/>
          <path id="Trazado_5064" data-name="Trazado 5064" d="M1311.474,641.154a34.6,34.6,0,0,1-15.61-3.738L1230.594,609l17.146-56.209,1.113-.037,111.891-3.664a10.008,10.008,0,0,1,10.317,9.385,71.429,71.429,0,0,1-12.428,44.7,203.028,203.028,0,0,1-22.669,27.615A34.1,34.1,0,0,1,1311.474,641.154Zm-77.092-33.9,62.847,27.365a31.107,31.107,0,0,0,36.5-6,200.169,200.169,0,0,0,22.323-27.189,68.324,68.324,0,0,0,11.9-42.743,6.9,6.9,0,0,0-7.109-6.483l-110.78,3.626Z" transform="translate(-1230.594 -549.083)" fill="#999"/>
        </g>
        <g id="Grupo_3433" data-name="Grupo 3433">
          <path id="Trazado_5065" data-name="Trazado 5065" d="M1246.685,525.708c.047.884,3.989.036,3.969.923,19.794,9.453,53.924,33.645,53.924,33.645.222.413-18.477,2.186-39.621,17.743-24.66,18.169-24.63,46.284-24.9,46,0,0-31.6-28.829-35.141-55.456,4.641-8.638,15.4-24.251,27.677-34.02C1238.543,529.811,1240.751,528.144,1246.685,525.708Z" transform="translate(-1203.306 -523.433)" fill="#62cbc9"/>
          <path id="Trazado_5066" data-name="Trazado 5066" d="M1240.033,626.391l-.662-.686c-1.763-1.615-32.057-29.7-35.6-56.367l-.067-.5.238-.443c3.947-7.345,14.894-24.009,28.079-34.5,6.017-4.788,8.406-6.571,14.471-9.06l2.034-.835.06,1.171c.185,0,.372.007.519.008,1.229.011,2.288.021,2.99.744.025.028.052.055.077.084,19.751,9.551,53.365,33.326,53.7,33.566l.3.212.542,1.007-.325.721c-.36.776-.863.884-2.53,1.242a97.863,97.863,0,0,0-37.583,17.086c-18.781,13.837-23.206,33.591-24.171,44.134-.085.938-.16,1.746-1.129,2.085Zm-33.1-56.966c3.148,21.531,25.182,44.8,32.34,51.864,1.457-11.47,6.753-30.392,25.164-43.956a101.143,101.143,0,0,1,36.835-17.185c-8.563-5.952-34.72-23.826-50.885-31.545l-.621-.3c-.232-.009-.49-.012-.683-.013a7.457,7.457,0,0,1-2.191-.249c-5.119,2.164-7.2,3.728-12.926,8.287C1221.434,546.3,1210.963,562.067,1206.93,569.425Z" transform="translate(-1203.707 -524)" fill="#999"/>
        </g>
        <g id="Grupo_3434" data-name="Grupo 3434" transform="translate(35.257 90.405)">
          <path id="Trazado_5067" data-name="Trazado 5067" d="M1231.615,601.427c1.185.169,5.551.414,8.641-4.417l-7.839-3.437-1.064,7.491A.315.315,0,0,0,1231.615,601.427Z" transform="translate(-1229.793 -591.324)" fill="#62cbc9"/>
          <path id="Trazado_5068" data-name="Trazado 5068" d="M1233.043,603.614a9.04,9.04,0,0,1-1.258-.085h0a1.876,1.876,0,0,1-1.584-2.123l1.352-9.521,11.385,4.991-.982,1.533A10.355,10.355,0,0,1,1233.043,603.614Zm1.015-7.233-.582,4.106a7.044,7.044,0,0,0,4.72-2.291Zm-1.834,4.065h0Z" transform="translate(-1230.181 -591.884)" fill="#999"/>
        </g>
      </g>
      <g id="Grupo_3436" data-name="Grupo 3436" transform="translate(0 25.331)">
        <path id="Trazado_5069" data-name="Trazado 5069" d="M1140.69,532.247a35.89,35.89,0,0,0,35.888,35.888c1.209,0,2.4-.061,3.576-.174,10.623,7.326,27.009,12.018,45.4,12.018,32.035,0,58.01-14.256,58.01-31.845s-25.975-31.841-58.01-31.841a102.9,102.9,0,0,0-16.217,1.265,35.895,35.895,0,0,0-68.644,14.689Z" transform="translate(-1139.132 -494.799)" fill="#62cbc9"/>
        <path id="Trazado_5070" data-name="Trazado 5070" d="M1225.939,581.923c-17.836,0-34.491-4.359-45.814-11.974-1.064.087-2.124.13-3.157.13a37.446,37.446,0,1,1,33.671-53.85,104.862,104.862,0,0,1,15.3-1.107c32.845,0,59.567,14.982,59.567,33.4S1258.784,581.923,1225.939,581.923Zm-44.981-15.178.467.322c10.823,7.462,27.047,11.742,44.514,11.742,31.128,0,56.453-13.588,56.453-30.29s-25.325-30.281-56.453-30.281a101.364,101.364,0,0,0-15.971,1.245l-1.178.188-.488-1.087a34.336,34.336,0,1,0-31.335,48.381c1.117,0,2.269-.056,3.425-.167Z" transform="translate(-1139.52 -495.187)" fill="#999"/>
      </g>
      <path id="Trazado_5071" data-name="Trazado 5071" d="M1250.822,526.4l16.689,12.674-12.594,35.562-42.745,6.545-7.761-19.526Z" transform="translate(-1117.993 -459.5)" fill="#62cbc9"/>
    </g>
    <path id="Trazado_5072" data-name="Trazado 5072" d="M1585.468,615.756" transform="translate(147.946 145.807)" fill="#fff"/>
    <g id="Grupo_3448" data-name="Grupo 3448" transform="translate(1297.024 391.728)">
      <path id="Trazado_5073" data-name="Trazado 5073" d="M1576.16,540.052c-9.688-48.16-19.708-97.96-37.955-136.062-20.532-42.876-48.677-63.718-86.039-63.718-36.964,0-63.812,19.44-82.08,59.43-16.3,35.679-24.018,82.839-31.487,128.448-8.149,49.764-15.845,96.768-33.883,126.263-19.925,32.581-35.8,75.991-44.643,115.43h398.4c-8.849-32.288-23.692-69.455-44.778-103.423C1595.78,637.565,1586.25,590.2,1576.16,540.052Z" transform="translate(-1257.03 -337.314)" fill="#fff"/>
      <path id="Trazado_5074" data-name="Trazado 5074" d="M1305.474,655.149c18.037-29.494,25.733-76.5,33.883-126.263,7.469-45.609,15.19-92.769,31.487-128.448,18.268-39.99,45.116-59.43,82.08-59.43,37.362,0,65.508,20.842,86.039,63.718,18.247,38.1,28.267,87.9,37.955,136.062,10.09,50.147,19.62,97.514,37.531,126.368,21.086,33.968,35.928,71.134,44.778,103.423h2.992c-9.327-33.837-24.88-72.157-45.257-104.982-17.631-28.4-27.109-75.513-37.146-125.392-9.724-48.339-19.78-98.322-38.185-136.755-21.075-44.007-50.091-65.4-88.708-65.4-38.243,0-65.971,20-84.77,61.16-16.462,36.039-24.215,83.4-31.716,129.2-8.1,49.471-15.752,96.2-33.487,125.2-18.995,31.061-35.648,74.313-45.162,116.974h3.043C1269.674,731.14,1285.55,687.73,1305.474,655.149Z" transform="translate(-1257.788 -338.051)" fill="#999"/>
      <g id="Grupo_3447" data-name="Grupo 3447" transform="translate(94.966 19.362)">
        <path id="Trazado_5075" data-name="Trazado 5075" d="M1365.338,363.47a20.658,20.658,0,0,0,3.08,3.015c.563.443,1.109.9,1.706,1.3l.872.613.912.555a37.489,37.489,0,0,0,7.679,3.54,51.738,51.738,0,0,0,16.6,2.347,30.168,30.168,0,0,0,8.054-1.06,32.8,32.8,0,0,0,7.443-3.231,64.064,64.064,0,0,0,6.869-4.74c2.232-1.745,4.423-3.606,6.724-5.446a52.343,52.343,0,0,1,7.509-5.073,20.314,20.314,0,0,1,18.573-.88,24.423,24.423,0,0,1,7.583,5.462c4.248,4.445,7.049,9.715,9.7,14.854,1.3,2.593,2.582,5.169,4.034,7.619a18.893,18.893,0,0,0,2.506,3.4,5.851,5.851,0,0,0,3.632,2.006,6.191,6.191,0,0,1-4.1-1.481,19.5,19.5,0,0,1-3.1-3.194c-1.827-2.317-3.368-4.8-4.954-7.218-3.094-4.862-6.263-9.667-10.259-13.4a23.085,23.085,0,0,0-6.637-4.307,17.243,17.243,0,0,0-7.556-1.164,17.556,17.556,0,0,0-7.278,2.295,49.052,49.052,0,0,0-6.788,4.721c-4.476,3.487-8.964,7.438-14.322,10.365a36.984,36.984,0,0,1-8.567,3.336,30.2,30.2,0,0,1-9.141.74,49.081,49.081,0,0,1-17.358-3.842,36.552,36.552,0,0,1-7.594-4.605A23.92,23.92,0,0,1,1365.338,363.47Z" transform="translate(-1317.074 -352.59)" fill="#999"/>
        <circle id="Elipse_182" data-name="Elipse 182" cx="6.968" cy="6.968" r="6.968" transform="translate(98.471 182.397) rotate(-80.783)" fill="#999"/>
        <g id="Grupo_3438" data-name="Grupo 3438" transform="translate(0 63.852)">
          <path id="Trazado_5076" data-name="Trazado 5076" d="M1428.485,418.741a301.474,301.474,0,0,1-37.607-2.344c-33.7-4.247-55.364-12.837-55.58-12.923l1.153-2.873c.213.085,21.587,8.549,54.92,12.738,30.737,3.863,78.224,4.778,129.912-12.8l1,2.931A291.407,291.407,0,0,1,1428.485,418.741Z" transform="translate(-1327.04 -400.536)" fill="#999"/>
          <path id="Trazado_5077" data-name="Trazado 5077" d="M1430.513,434.6a328.038,328.038,0,0,1-40.933-2.552c-36.675-4.622-60.249-13.969-60.483-14.063l1.153-2.873c.232.093,23.515,9.314,59.824,13.878,33.484,4.21,85.215,5.206,141.524-13.946l1,2.931A317.16,317.16,0,0,1,1430.513,434.6Z" transform="translate(-1329.097 -395.724)" fill="#999"/>
        </g>
        <g id="Grupo_3446" data-name="Grupo 3446" transform="translate(30.289 27.158)">
          <g id="Grupo_3439" data-name="Grupo 3439" transform="translate(0 4.511)">
            <rect id="Rectángulo_581" data-name="Rectángulo 581" width="134.993" height="124.069" rx="25.92" transform="translate(136.472 125.548) rotate(-180)" fill="#ccc"/>
            <path id="Trazado_5078" data-name="Trazado 5078" d="M1351.841,467.161V412.6a36.275,36.275,0,0,1,36.234-36.234h65.481a36.275,36.275,0,0,1,36.234,36.234v54.557a36.275,36.275,0,0,1-36.234,36.234h-65.481A36.275,36.275,0,0,1,1351.841,467.161Zm36.234-87.835A33.315,33.315,0,0,0,1354.8,412.6v54.557a33.315,33.315,0,0,0,33.276,33.278h65.481a33.316,33.316,0,0,0,33.278-33.278V412.6a33.316,33.316,0,0,0-33.278-33.278Z" transform="translate(-1351.841 -376.37)" fill="#999"/>
          </g>
          <g id="Grupo_3445" data-name="Grupo 3445" transform="translate(5.74)">
            <g id="Grupo_3440" data-name="Grupo 3440">
              <path id="Rectángulo_582" data-name="Rectángulo 582" d="M26.335,0h82.324a26.334,26.334,0,0,1,26.334,26.334v71.4a26.334,26.334,0,0,1-26.334,26.334H26.334A26.334,26.334,0,0,1,0,97.735v-71.4A26.335,26.335,0,0,1,26.335,0Z" transform="translate(136.472 125.548) rotate(-180)" fill="#fff"/>
              <path id="Trazado_5079" data-name="Trazado 5079" d="M1356.151,463.776V409.217a36.275,36.275,0,0,1,36.234-36.234h65.483a36.274,36.274,0,0,1,36.233,36.234v54.558a36.274,36.274,0,0,1-36.233,36.234h-65.483A36.274,36.274,0,0,1,1356.151,463.776Zm36.234-87.835a33.314,33.314,0,0,0-33.277,33.277v54.558a33.315,33.315,0,0,0,33.277,33.277h65.483a33.316,33.316,0,0,0,33.276-33.277V409.217a33.315,33.315,0,0,0-33.276-33.277Z" transform="translate(-1356.151 -372.983)" fill="#999"/>
            </g>
            <g id="Grupo_3444" data-name="Grupo 3444" transform="translate(38.345 19.376)">
              <g id="Grupo_3441" data-name="Grupo 3441" transform="translate(23.429)">
                <line id="Línea_132" data-name="Línea 132" x1="34.987" y1="34.987" transform="translate(0 0)" fill="#fff"/>
                <path id="Trazado_5080" data-name="Trazado 5080" d="M1437.524,422.519c-5.459-6.2-11.2-12.122-17.02-17.968-5.844-5.817-11.76-11.562-17.967-17.018,5.455,6.207,11.2,12.123,17.019,17.968C1425.4,411.316,1431.319,417.061,1437.524,422.519Z" transform="translate(-1402.536 -387.532)" fill="#999"/>
              </g>
              <g id="Grupo_3442" data-name="Grupo 3442" transform="translate(0 23.428)">
                <line id="Línea_133" data-name="Línea 133" x1="34.987" y1="34.987" transform="translate(0 0)" fill="#fff"/>
                <path id="Trazado_5081" data-name="Trazado 5081" d="M1419.931,440.111c-5.458-6.2-11.2-12.12-17.018-17.967-5.845-5.818-11.761-11.564-17.968-17.02,5.456,6.207,11.2,12.124,17.019,17.968C1407.809,428.908,1413.727,434.653,1419.931,440.111Z" transform="translate(-1384.944 -405.124)" fill="#999"/>
              </g>
              <g id="Grupo_3443" data-name="Grupo 3443" transform="translate(0.625 0.313)">
                <line id="Línea_134" data-name="Línea 134" x1="57.79" y1="57.79" transform="translate(0)" fill="#fff"/>
                <path id="Trazado_5082" data-name="Trazado 5082" d="M1443.2,445.557c-2.3-2.516-4.664-4.969-6.993-7.455l-7.092-7.357c-4.729-4.9-9.533-9.73-14.336-14.559-4.828-4.8-9.655-9.607-14.557-14.338l-7.357-7.092c-2.486-2.329-4.941-4.69-7.457-6.99,2.3,2.516,4.662,4.969,6.992,7.457l7.09,7.355c4.73,4.9,9.534,9.731,14.339,14.557,4.828,4.8,9.655,9.607,14.559,14.336l7.355,7.092C1438.235,440.895,1440.689,443.256,1443.2,445.557Z" transform="translate(-1385.413 -387.767)" fill="#999"/>
              </g>
            </g>
            <path id="Trazado_5083" data-name="Trazado 5083" d="M1460.281,426.512s6.843-44.787-33.589-44.477c0,0,14.079,4.2,23.016,17.106C1458.106,411.271,1460.281,426.512,1460.281,426.512Z" transform="translate(-1332.749 -369.98)" fill="#f8f8f8"/>
          </g>
        </g>
      </g>
    </g>
    <g id="Grupo_3452" data-name="Grupo 3452" transform="translate(1438.994 176.256)">
      <g id="Grupo_3449" data-name="Grupo 3449" transform="translate(56.226)" opacity="1" style="mix-blend-mode: color-dodge;isolation: isolate">
        <path id="Trazado_5084" data-name="Trazado 5084" d="M1425.743,249.295a31.187,31.187,0,0,1,7.893-10.858q5.044-4.459,10.389-8.5t10.353-8.422a31.029,31.029,0,0,0,7.928-10.936,8.467,8.467,0,0,0,.606-4.808,15.038,15.038,0,0,0-1.714-4.975,18.066,18.066,0,0,0-3.412-4.391,15.536,15.536,0,0,0-4.325-2.978,13.182,13.182,0,0,0-7.181-1.085,33.633,33.633,0,0,0-7.2,1.777q-3.55,1.294-6.959,2.939a34.482,34.482,0,0,1-6.434,2.406,6.8,6.8,0,0,1-2.64-.312,18.863,18.863,0,0,1-2.817-.774,44.909,44.909,0,0,1,7.644-12.02,31.687,31.687,0,0,1,10.078-7.586,27.6,27.6,0,0,1,12.227-2.513,35.26,35.26,0,0,1,13.862,3.291,27.2,27.2,0,0,1,9.124,6.836,38.774,38.774,0,0,1,6.654,10.237,35.363,35.363,0,0,1,2.955,11.658,22.732,22.732,0,0,1-1.806,11.169,41.122,41.122,0,0,1-6.834,10.847,73.177,73.177,0,0,1-8.337,7.979q-4.347,3.526-8.708,6.661a64.425,64.425,0,0,0-8.185,6.992,38.543,38.543,0,0,0-6.57,8.955,40.192,40.192,0,0,0-3.974,12.6,4.974,4.974,0,0,1-1.858.515,24.115,24.115,0,0,1-2.771.2c-.967.019-1.9.019-2.782.008a5.311,5.311,0,0,1-1.972-.3,9.956,9.956,0,0,1-5.268-4.737,14.765,14.765,0,0,1-1.393-6.559,24.486,24.486,0,0,1,1.129-7.064A56.691,56.691,0,0,1,1425.743,249.295ZM1407,323.326a10.249,10.249,0,0,1,3.7-4.007,30.7,30.7,0,0,1,6.042-3.251,26.635,26.635,0,0,1,6.62-1.749,10.463,10.463,0,0,1,5.589.57,6.547,6.547,0,0,1,1.164,2.336q.841,2.2,1.128,3.28a6.771,6.771,0,0,1,.292,2.141q.026,1.448.133,2.933a22.853,22.853,0,0,1,.044,2.7,7.7,7.7,0,0,1-.133,1.377,12.311,12.311,0,0,1-3.12,4.647,5.333,5.333,0,0,1-3.349,1.288,8.981,8.981,0,0,1-3.644-.854l-4-1.778q-.642-.286-2.674-1.093a29.988,29.988,0,0,1-4.087-2.01,11.732,11.732,0,0,1-3.34-2.826A3.362,3.362,0,0,1,1407,323.326Z" transform="translate(-1406.61 -176.256)" fill="#6482F8"/>
      </g>
      <g id="Grupo_3450" data-name="Grupo 3450" transform="translate(0 78.555)" opacity="1" style="mix-blend-mode: color-dodge;isolation: isolate">
        <path id="Trazado_5085" data-name="Trazado 5085" d="M1379.015,280.307a17.735,17.735,0,0,1,1.592-7.462q1.59-3.48,3.432-6.815t3.432-6.764a17.643,17.643,0,0,0,1.593-7.511,4.821,4.821,0,0,0-.8-2.637,8.54,8.54,0,0,0-2.039-2.188,10.231,10.231,0,0,0-2.786-1.492,8.813,8.813,0,0,0-2.935-.547,7.482,7.482,0,0,0-3.979,1.095,19.155,19.155,0,0,0-3.332,2.586q-1.542,1.492-2.934,3.134a19.588,19.588,0,0,1-2.786,2.735,3.889,3.889,0,0,1-1.442.447,10.731,10.731,0,0,1-1.642.249,25.526,25.526,0,0,1,1.194-8.009,17.989,17.989,0,0,1,3.481-6.266,15.683,15.683,0,0,1,5.771-4.13,20.033,20.033,0,0,1,7.959-1.492,15.468,15.468,0,0,1,6.316,1.442,22.044,22.044,0,0,1,5.82,3.781,20.067,20.067,0,0,1,4.227,5.371,12.925,12.925,0,0,1,1.642,6.218,23.379,23.379,0,0,1-1.044,7.213,41.439,41.439,0,0,1-2.488,6.068q-1.442,2.837-2.984,5.472a36.592,36.592,0,0,0-2.635,5.521,21.913,21.913,0,0,0-1.344,6.167,22.873,22.873,0,0,0,.846,7.46,2.781,2.781,0,0,1-.846.7,13.288,13.288,0,0,1-1.392.746c-.5.234-.98.449-1.444.647a3.028,3.028,0,0,1-1.093.3,5.649,5.649,0,0,1-3.83-1.244,8.4,8.4,0,0,1-2.239-3.083,13.967,13.967,0,0,1-1.044-3.93A32.116,32.116,0,0,1,1379.015,280.307Zm7.362,42.776a5.815,5.815,0,0,1,.995-2.935,17.448,17.448,0,0,1,2.386-3.083,15.058,15.058,0,0,1,3.035-2.437,5.934,5.934,0,0,1,3.034-.995q.2,0,1.144.944t1.344,1.442a3.873,3.873,0,0,1,.646,1.045q.348.745.746,1.492a12.932,12.932,0,0,1,.647,1.393,4.382,4.382,0,0,1,.249.746,7,7,0,0,1-.547,3.134,3.032,3.032,0,0,1-1.442,1.442,5.087,5.087,0,0,1-2.089.4h-2.487q-.4,0-1.642.051a17.117,17.117,0,0,1-2.586-.1,6.7,6.7,0,0,1-2.388-.7A1.91,1.91,0,0,1,1386.377,323.083Z" transform="translate(-1364.391 -235.242)" fill="#6482F8"/>
      </g>
      <g id="Grupo_3451" data-name="Grupo 3451" transform="translate(84.056 116.444)" opacity="1" style="mix-blend-mode: color-dodge;isolation: isolate">
        <path id="Trazado_5086" data-name="Trazado 5086" d="M1445.025,302.766a17.722,17.722,0,0,1,5.4-5.39q3.23-2.054,6.59-3.845t6.563-3.8A17.624,17.624,0,0,0,1469,284.3a4.816,4.816,0,0,0,.77-2.645,8.533,8.533,0,0,0-.519-2.946,10.24,10.24,0,0,0-1.522-2.769,8.826,8.826,0,0,0-2.163-2.058,7.5,7.5,0,0,0-3.934-1.25,19.182,19.182,0,0,0-4.2.354q-2.108.411-4.168,1.029a19.514,19.514,0,0,1-3.826.776,3.887,3.887,0,0,1-1.453-.41,10.751,10.751,0,0,1-1.513-.686,25.536,25.536,0,0,1,5.364-6.065,17.988,17.988,0,0,1,6.334-3.359,15.679,15.679,0,0,1,7.088-.32,20.037,20.037,0,0,1,7.487,3.084,15.437,15.437,0,0,1,4.511,4.651,22.018,22.018,0,0,1,2.822,6.34,20.08,20.08,0,0,1,.618,6.808,12.913,12.913,0,0,1-2.01,6.109,23.417,23.417,0,0,1-4.805,5.479,41.468,41.468,0,0,1-5.391,3.734q-2.757,1.59-5.484,2.962a36.612,36.612,0,0,0-5.218,3.195,21.845,21.845,0,0,0-4.487,4.44,22.837,22.837,0,0,0-3.355,6.717,2.829,2.829,0,0,1-1.089.124,14.046,14.046,0,0,1-1.574-.133c-.543-.076-1.065-.159-1.562-.244a3.039,3.039,0,0,1-1.08-.346,5.653,5.653,0,0,1-2.534-3.13,8.4,8.4,0,0,1-.2-3.8,13.959,13.959,0,0,1,1.265-3.865A32.077,32.077,0,0,1,1445.025,302.766Zm-17.13,39.883a5.813,5.813,0,0,1,2.433-1.919,17.45,17.45,0,0,1,3.682-1.286,15.1,15.1,0,0,1,3.873-.39,5.942,5.942,0,0,1,3.086.818,3.741,3.741,0,0,1,.445,1.416c.184.872.3,1.52.34,1.942a3.822,3.822,0,0,1-.027,1.228q-.114.815-.187,1.658a13.009,13.009,0,0,1-.217,1.521,4.512,4.512,0,0,1-.2.76,7.007,7.007,0,0,1-2.167,2.331,3.033,3.033,0,0,1-1.995.424,5.086,5.086,0,0,1-1.968-.8l-2.086-1.354q-.335-.218-1.4-.854a16.837,16.837,0,0,1-2.115-1.492,6.684,6.684,0,0,1-1.623-1.884A1.911,1.911,0,0,1,1427.894,342.649Z" transform="translate(-1427.507 -263.692)" fill="#6482F8"/>
      </g>
    </g>
  </g>
</svg>
